<svg width="203" height="55" viewBox="0 0 203 55" fill="none" xmlns="http://www.w3.org/2000/svg">
<g filter="url(#filter0_i_1816_13378)">
<path d="M58.4339 47.403C56.6862 47.403 55.0633 47.0965 53.5653 46.4837C52.0899 45.8709 50.8075 45.0197 49.718 43.9302C48.6512 42.818 47.8114 41.5129 47.1986 40.0149C46.6084 38.5168 46.3133 36.8712 46.3133 35.0781C46.3133 33.3077 46.6084 31.6734 47.1986 30.1754C47.8114 28.6773 48.6512 27.3722 49.718 26.26C50.8075 25.1478 52.0899 24.2853 53.5653 23.6725C55.0633 23.0596 56.6862 22.7532 58.4339 22.7532C60.1817 22.7532 61.7819 23.0596 63.2345 23.6725C64.7099 24.2853 65.9923 25.1478 67.0818 26.26C68.1713 27.3722 69.0111 28.6773 69.6012 30.1754C70.2141 31.6734 70.5205 33.319 70.5205 35.1121C70.5205 36.8599 70.2141 38.4828 69.6012 39.9808C69.0111 41.4789 68.1713 42.784 67.0818 43.8962C65.9923 45.0084 64.7099 45.8709 63.2345 46.4837C61.7819 47.0965 60.1817 47.403 58.4339 47.403ZM58.4339 42.5683C59.4326 42.5683 60.3519 42.3868 61.1917 42.0236C62.0315 41.6377 62.7579 41.1157 63.3707 40.4575C64.0062 39.7765 64.4942 38.9821 64.8347 38.0742C65.1752 37.1663 65.3454 36.1789 65.3454 35.1121C65.3454 34.0227 65.1752 33.024 64.8347 32.116C64.4942 31.2081 64.0062 30.4137 63.3707 29.7328C62.7579 29.0518 62.0315 28.5298 61.1917 28.1666C60.3519 27.7808 59.4326 27.5878 58.4339 27.5878C57.4352 27.5878 56.5046 27.7808 55.6421 28.1666C54.8023 28.5298 54.0646 29.0518 53.4291 29.7328C52.8162 30.391 52.3396 31.1854 51.9991 32.116C51.6587 33.024 51.4884 34.0227 51.4884 35.1121C51.4884 36.5421 51.7835 37.8245 52.3736 38.9594C52.9865 40.0716 53.8149 40.9568 54.859 41.615C55.9031 42.2506 57.0948 42.5683 58.4339 42.5683ZM72.7601 54.5528V29.0518H77.4245L77.5947 33.0693L76.7095 32.7629C76.8457 32.0593 77.2202 31.4011 77.833 30.7882C78.4686 30.1754 79.2517 29.676 80.1823 29.2902C81.1129 28.9043 82.0889 28.7114 83.1103 28.7114C84.6764 28.7114 86.061 29.1086 87.264 29.903C88.4896 30.6974 89.4543 31.7983 90.1579 33.2055C90.8615 34.6128 91.2134 36.2357 91.2134 38.0742C91.2134 39.8446 90.8615 41.4335 90.1579 42.8407C89.4543 44.248 88.4896 45.3602 87.264 46.1773C86.0383 46.9717 84.6537 47.3689 83.1103 47.3689C82.0662 47.3689 81.0675 47.1646 80.1142 46.7561C79.1836 46.3475 78.3891 45.8255 77.7309 45.1899C77.0727 44.5544 76.6641 43.8621 76.5052 43.1131L77.6288 42.6364V54.5528H72.7601ZM82.0208 43.2152C82.9287 43.2152 83.7118 42.9996 84.37 42.5683C85.0509 42.1371 85.573 41.5356 85.9361 40.7639C86.322 39.9695 86.5149 39.0729 86.5149 38.0742C86.5149 37.0528 86.322 36.1562 85.9361 35.3845C85.573 34.5901 85.0509 33.9773 84.37 33.546C83.7118 33.1147 82.9287 32.8991 82.0208 32.8991C81.1129 32.8991 80.3184 33.1147 79.6375 33.546C78.9566 33.9773 78.4232 34.5787 78.0373 35.3505C77.6515 36.1222 77.4585 37.0301 77.4585 38.0742C77.4585 39.0729 77.6515 39.9695 78.0373 40.7639C78.4232 41.5356 78.9566 42.1371 79.6375 42.5683C80.3184 42.9996 81.1129 43.2152 82.0208 43.2152ZM101.714 47.403C99.7618 47.403 98.0481 47.0058 96.5728 46.2113C95.1201 45.4169 93.9852 44.3274 93.1681 42.9429C92.3737 41.5583 91.9765 39.9808 91.9765 38.2104C91.9765 36.8031 92.2035 35.5207 92.6574 34.3631C93.1114 33.1828 93.7469 32.1728 94.564 31.333C95.3811 30.4932 96.3458 29.8463 97.458 29.3923C98.5929 28.9157 99.8299 28.6773 101.169 28.6773C102.395 28.6773 103.518 28.9043 104.54 29.3583C105.584 29.7895 106.48 30.4137 107.229 31.2308C108.001 32.0253 108.591 32.9672 109 34.0567C109.408 35.1462 109.601 36.3378 109.579 37.6316L109.545 39.1296H95.0747L94.2917 36.1335H105.561L104.982 36.7464V36.0314C104.937 35.3959 104.733 34.8398 104.369 34.3631C104.029 33.8865 103.586 33.512 103.042 33.2396C102.497 32.9445 101.895 32.797 101.237 32.797C100.216 32.797 99.3532 33.0013 98.6496 33.4098C97.9687 33.7957 97.4466 34.3631 97.0835 35.1121C96.743 35.8385 96.5728 36.7464 96.5728 37.8359C96.5728 38.9027 96.7998 39.8446 97.2537 40.6617C97.7077 41.4562 98.3545 42.069 99.1944 42.5003C100.057 42.9315 101.067 43.1471 102.225 43.1471C103.019 43.1471 103.745 43.0223 104.403 42.7726C105.062 42.523 105.777 42.0917 106.548 41.4789L108.83 44.7133C108.194 45.2807 107.479 45.7687 106.685 46.1773C105.89 46.5858 105.073 46.8923 104.233 47.0965C103.393 47.3008 102.554 47.403 101.714 47.403ZM111.448 47.0625V29.0518H116.113L116.249 32.7289L115.295 33.1374C115.522 32.3203 115.965 31.5826 116.623 30.9244C117.282 30.2435 118.065 29.6987 118.973 29.2902C119.88 28.8816 120.822 28.6773 121.798 28.6773C123.16 28.6773 124.295 28.9497 125.203 29.4945C126.134 30.0392 126.826 30.8677 127.28 31.9799C127.757 33.0693 127.995 34.4312 127.995 36.0654V47.0625H123.16V36.4059C123.16 35.5888 123.047 34.9079 122.82 34.3631C122.593 33.8184 122.252 33.4212 121.798 33.1715C121.344 32.9218 120.766 32.8083 120.062 32.831C119.517 32.831 119.018 32.9218 118.564 33.1034C118.11 33.2623 117.701 33.5006 117.338 33.8184C116.998 34.1361 116.737 34.4993 116.555 34.9079C116.374 35.3164 116.283 35.7704 116.283 36.2697V47.0625H113.866C113.366 47.0625 112.912 47.0625 112.504 47.0625C112.095 47.0625 111.743 47.0625 111.448 47.0625ZM131.606 47.0625V23.2299H142.161C143.659 23.2299 144.998 23.559 146.178 24.2172C147.381 24.8755 148.334 25.7834 149.038 26.941C149.742 28.0758 150.093 29.381 150.093 30.8563C150.093 32.2863 149.742 33.58 149.038 34.7376C148.334 35.8952 147.381 36.8145 146.178 37.4954C144.998 38.1763 143.659 38.5168 142.161 38.5168H136.509V47.0625H131.606ZM145.157 47.0625L139.096 36.2697L144.306 35.4186L151.047 47.0965L145.157 47.0625ZM136.509 34.3291H141.956C142.569 34.3291 143.103 34.1929 143.557 33.9205C144.033 33.6254 144.396 33.2282 144.646 32.7289C144.918 32.2295 145.055 31.6621 145.055 31.0266C145.055 30.3683 144.896 29.7895 144.578 29.2902C144.26 28.7681 143.818 28.3709 143.25 28.0985C142.683 27.8035 142.024 27.6559 141.275 27.6559H136.509V34.3291ZM160.772 47.403C158.956 47.403 157.322 47.0058 155.869 46.2113C154.439 45.3942 153.304 44.282 152.465 42.8748C151.647 41.4675 151.239 39.8673 151.239 38.0742C151.239 36.2357 151.647 34.6128 152.465 33.2055C153.304 31.7983 154.439 30.6974 155.869 29.903C157.322 29.0859 158.956 28.6773 160.772 28.6773C162.61 28.6773 164.245 29.0859 165.675 29.903C167.105 30.6974 168.228 31.7983 169.045 33.2055C169.885 34.6128 170.305 36.2357 170.305 38.0742C170.305 39.8673 169.885 41.4675 169.045 42.8748C168.228 44.282 167.105 45.3942 165.675 46.2113C164.245 47.0058 162.61 47.403 160.772 47.403ZM160.772 43.2152C161.68 43.2152 162.474 42.9883 163.155 42.5343C163.859 42.0803 164.404 41.4675 164.789 40.6958C165.198 39.9241 165.391 39.0502 165.368 38.0742C165.391 37.0528 165.198 36.1562 164.789 35.3845C164.404 34.5901 163.859 33.9773 163.155 33.546C162.474 33.092 161.68 32.8651 160.772 32.8651C159.887 32.8651 159.092 33.092 158.389 33.546C157.685 34 157.129 34.6128 156.72 35.3845C156.312 36.1562 156.119 37.0528 156.142 38.0742C156.119 39.0502 156.312 39.9241 156.72 40.6958C157.129 41.4675 157.685 42.0803 158.389 42.5343C159.092 42.9883 159.887 43.2152 160.772 43.2152ZM180.581 47.403C178.766 47.403 177.131 47.0058 175.679 46.2113C174.249 45.3942 173.114 44.282 172.274 42.8748C171.457 41.4675 171.048 39.8673 171.048 38.0742C171.048 36.2357 171.457 34.6128 172.274 33.2055C173.114 31.7983 174.249 30.6974 175.679 29.903C177.131 29.0859 178.766 28.6773 180.581 28.6773C182.42 28.6773 184.054 29.0859 185.484 29.903C186.914 30.6974 188.038 31.7983 188.855 33.2055C189.695 34.6128 190.114 36.2357 190.114 38.0742C190.114 39.8673 189.695 41.4675 188.855 42.8748C188.038 44.282 186.914 45.3942 185.484 46.2113C184.054 47.0058 182.42 47.403 180.581 47.403ZM180.581 43.2152C181.489 43.2152 182.284 42.9883 182.965 42.5343C183.668 42.0803 184.213 41.4675 184.599 40.6958C185.007 39.9241 185.2 39.0502 185.178 38.0742C185.2 37.0528 185.007 36.1562 184.599 35.3845C184.213 34.5901 183.668 33.9773 182.965 33.546C182.284 33.092 181.489 32.8651 180.581 32.8651C179.696 32.8651 178.902 33.092 178.198 33.546C177.495 34 176.938 34.6128 176.53 35.3845C176.121 36.1562 175.928 37.0528 175.951 38.0742C175.928 39.0502 176.121 39.9241 176.53 40.6958C176.938 41.4675 177.495 42.0803 178.198 42.5343C178.902 42.9883 179.696 43.2152 180.581 43.2152ZM192.815 47.0625V27.7921C192.815 26.6572 193.053 25.6472 193.529 24.762C194.029 23.8768 194.721 23.1731 195.606 22.6511C196.492 22.1063 197.524 21.834 198.705 21.834C199.499 21.834 200.237 21.9702 200.918 22.2425C201.621 22.4922 202.234 22.844 202.756 23.298L201.292 26.8729C200.997 26.6686 200.702 26.5097 200.407 26.3962C200.112 26.2827 199.839 26.226 199.59 26.226C199.159 26.226 198.795 26.2941 198.5 26.4303C198.205 26.5664 197.99 26.7821 197.853 27.0771C197.717 27.3495 197.649 27.69 197.649 28.0985V47.0625H195.232C194.732 47.0625 194.279 47.0625 193.87 47.0625C193.461 47.0625 193.11 47.0625 192.815 47.0625ZM190.091 33.6141V29.4945H201.53V33.6141H190.091Z" fill="#FFF5E9"/>
<path d="M2.64844 45.6409L23.7227 49.9894C25.1314 50.28 26.5811 49.7306 27.4433 48.5794L54.9173 11.8953C56.4476 9.85209 59.5359 9.92786 60.9641 12.0436L65.2867 18.4472C66.6742 20.5027 69.6485 20.6452 71.2262 18.7319L83.9799 3.26547M83.9799 3.26547L85.1387 9.63993M83.9799 3.26547L76.8273 4.19831" stroke="#FFF5E9" stroke-width="4.75058" stroke-linecap="round" stroke-linejoin="round"/>
<path d="M23.7977 34.2781L17.0776 43.1712L22.9119 44.1975L29.632 35.3044L23.7977 34.2781Z" fill="#FFF5E9" stroke="#FFF5E9" stroke-width="2.44952" stroke-linecap="round" stroke-linejoin="round"/>
<path d="M33.5321 21.2351L26.812 30.1283L32.6463 31.1546L39.3664 22.2614L33.5321 21.2351Z" fill="#FFF5E9" stroke="#FFF5E9" stroke-width="2.44952" stroke-linecap="round" stroke-linejoin="round"/>
<path d="M43.8368 8.29374L37.1167 17.1869L42.951 18.2131L49.671 9.32003L43.8368 8.29374Z" fill="#FFF5E9" stroke="#FFF5E9" stroke-width="2.44952" stroke-linecap="round" stroke-linejoin="round"/>
<path d="M12.7118 31.618L5.99169 40.5111L11.826 41.5374L18.546 32.6443L12.7118 31.618Z" fill="#FFF5E9" stroke="#FFF5E9" stroke-width="2.44952" stroke-linecap="round" stroke-linejoin="round"/>
<path d="M22.4461 18.5789L15.7261 27.472L21.5604 28.4983L28.2804 19.6052L22.4461 18.5789Z" fill="#FFF5E9" stroke="#FFF5E9" stroke-width="2.44952" stroke-linecap="round" stroke-linejoin="round"/>
<path d="M32.743 5.63749L26.0229 14.5306L31.8572 15.5569L38.5773 6.66378L32.743 5.63749Z" fill="#FFF5E9" stroke="#FFF5E9" stroke-width="2.44952" stroke-linecap="round" stroke-linejoin="round"/>
</g>
<defs>
<filter id="filter0_i_1816_13378" x="0.273438" y="0.890625" width="202.484" height="56.6641" filterUnits="userSpaceOnUse" color-interpolation-filters="sRGB">
<feFlood flood-opacity="0" result="BackgroundImageFix"/>
<feBlend mode="normal" in="SourceGraphic" in2="BackgroundImageFix" result="shape"/>
<feColorMatrix in="SourceAlpha" type="matrix" values="0 0 0 0 0 0 0 0 0 0 0 0 0 0 0 0 0 0 127 0" result="hardAlpha"/>
<feOffset dy="3.09515"/>
<feGaussianBlur stdDeviation="1.5"/>
<feComposite in2="hardAlpha" operator="arithmetic" k2="-1" k3="1"/>
<feColorMatrix type="matrix" values="0 0 0 0 0 0 0 0 0 0 0 0 0 0 0 0 0 0 0.12 0"/>
<feBlend mode="normal" in2="shape" result="effect1_innerShadow_1816_13378"/>
</filter>
</defs>
</svg>
