<svg width="70" height="70" viewBox="0 0 70 70" fill="none" xmlns="http://www.w3.org/2000/svg">
<path d="M43.1287 6.31318L55.6921 13.5666C60.8361 16.5365 64.0049 22.025 64.0049 27.9648V42.4717C64.0049 48.4114 60.8361 53.8999 55.6921 56.8698L43.1287 64.1233C37.9847 67.0931 31.6471 67.0931 26.5032 64.1233L13.9398 56.8698C8.79582 53.8999 5.62701 48.4114 5.62701 42.4717V27.9648C5.62701 22.0251 8.79582 16.5365 13.9398 13.5666L26.5032 6.31318C31.6471 3.34332 37.9847 3.34332 43.1287 6.31318Z" fill="#CE6D29" stroke="black" stroke-width="1.07262"/>
<path d="M34.6896 48.5717C32.6045 48.5717 30.7896 48.1212 29.245 47.2202C27.7005 46.3192 26.2589 44.7746 24.9202 42.5865L29.2064 39.9221C29.7728 40.8231 30.3648 41.5568 30.9827 42.1231C31.6005 42.6637 32.2312 43.0627 32.8748 43.3202C33.5441 43.5776 34.2391 43.7063 34.9599 43.7063C35.7322 43.7063 36.4401 43.5261 37.0837 43.1657C37.753 42.8053 38.2807 42.3033 38.6669 41.6597C39.0788 40.9904 39.2847 40.231 39.2847 39.3815C39.2847 38.532 39.1174 37.8112 38.7827 37.2191C38.4481 36.627 37.9718 36.1765 37.354 35.8676C36.7362 35.5587 35.9768 35.4043 35.0758 35.4043C34.6896 35.4043 34.2649 35.4557 33.8015 35.5587C33.3639 35.6359 32.8876 35.7518 32.3728 35.9062C31.8579 36.0607 31.3302 36.2538 30.7896 36.4854L29.4381 32.8943L36.5431 25.0943L38.0104 26.1368L26.6965 26.021V21.0012H42.9144L43.9956 23.1249L35.1144 32.7399L33.8015 31.1953C34.0074 31.1181 34.3421 31.0408 34.8055 30.9636C35.2688 30.8607 35.6936 30.8092 36.0797 30.8092C37.2382 30.8092 38.3322 31.028 39.3619 31.4656C40.3917 31.8775 41.3055 32.4696 42.1036 33.2419C42.9016 34.0141 43.5194 34.9151 43.957 35.9449C44.4204 36.9746 44.6521 38.0815 44.6521 39.2657C44.6521 41.0419 44.2016 42.638 43.3006 44.0538C42.4253 45.4439 41.2283 46.5509 39.7095 47.3746C38.2164 48.1727 36.5431 48.5717 34.6896 48.5717Z" fill="#FFF5E9"/>
</svg>
