<svg width="69" height="70" viewBox="0 0 69 70" fill="none" xmlns="http://www.w3.org/2000/svg">
<path d="M42.699 6.31318L55.2624 13.5666C60.4064 16.5365 63.5752 22.025 63.5752 27.9648V42.4717C63.5752 48.4114 60.4064 53.8999 55.2624 56.8698L42.699 64.1233C37.5551 67.0931 31.2174 67.0931 26.0735 64.1233L13.5101 56.8698C8.36614 53.8999 5.19732 48.4114 5.19732 42.4717V27.9648C5.19732 22.0251 8.36614 16.5365 13.5101 13.5666L26.0735 6.31318C31.2174 3.34332 37.5551 3.34332 42.699 6.31318Z" fill="#CE6D29" stroke="black" stroke-width="1.07262"/>
<path d="M26.8669 48.1855L25.554 44.9806L33.4699 36.1379C33.9333 35.6746 34.4095 35.134 34.8986 34.5161C35.4135 33.8983 35.9026 33.2676 36.366 32.624C36.8293 31.9547 37.2026 31.3111 37.4858 30.6933C37.7689 30.0755 37.9105 29.5092 37.9105 28.9943C37.9105 28.3765 37.7818 27.8487 37.5244 27.4111C37.2927 26.9477 36.9323 26.6002 36.4432 26.3685C35.9541 26.1111 35.3491 25.9824 34.6283 25.9824C33.9847 25.9824 33.3669 26.1626 32.7748 26.523C32.1827 26.8576 31.6293 27.3596 31.1144 28.0289C30.5996 28.6983 30.1491 29.522 29.7629 30.5003L25.4381 28.0289C25.953 26.5359 26.6867 25.2359 27.6391 24.1289C28.5916 22.9962 29.7243 22.121 31.0372 21.5031C32.3501 20.8853 33.7531 20.5893 35.2461 20.615C36.8165 20.615 38.2194 20.9497 39.4551 21.619C40.7165 22.2626 41.7076 23.1636 42.4284 24.322C43.1492 25.4804 43.5096 26.819 43.5096 28.3379C43.5096 29.0587 43.4066 29.8052 43.2007 30.5775C43.0205 31.324 42.7116 32.122 42.2739 32.9716C41.8363 33.7953 41.27 34.6835 40.5749 35.6359C39.8798 36.5884 39.0432 37.6053 38.065 38.6865L32.0025 45.2895L31.2303 42.9726H44.5908V48.1855H26.8669Z" fill="#FFF5E9"/>
</svg>
