<svg width="384" height="444" viewBox="0 0 384 444" fill="none" xmlns="http://www.w3.org/2000/svg">
<mask id="mask0_744_44485" style="mask-type:alpha" maskUnits="userSpaceOnUse" x="0" y="13" width="384" height="418">
<path d="M383.129 161.204V282.533C383.129 313.33 366.704 341.789 340.038 357.196L235.138 417.804C208.447 433.226 175.553 433.226 148.861 417.804L43.9616 357.196C17.2957 341.789 0.871002 313.33 0.871002 282.533V161.204C0.871002 130.407 17.2958 101.948 43.9617 86.541L103.636 52.0627L148.862 25.9323C175.553 10.5105 208.447 10.5105 235.138 25.9323L280.364 52.0627L340.038 86.541C366.704 101.948 383.129 130.407 383.129 161.204Z" fill="#4A584E" stroke="black" stroke-width="1.742"/>
</mask>
<g mask="url(#mask0_744_44485)">
<path d="M383.129 161.204V282.533C383.129 313.33 366.704 341.789 340.038 357.196L235.138 417.804C208.447 433.226 175.553 433.226 148.861 417.804L43.9616 357.196C17.2957 341.789 0.871002 313.33 0.871002 282.533V161.204C0.871002 130.407 17.2958 101.948 43.9617 86.541L103.636 52.0627L148.862 25.9323C175.553 10.5105 208.447 10.5105 235.138 25.9323L280.364 52.0627L340.038 86.541C366.704 101.948 383.129 130.407 383.129 161.204Z" fill="#4A584E" stroke="black" stroke-width="1.742"/>
<path d="M261.728 240.414C259.309 243.932 254.294 247.64 244.111 242.002L244.126 242.025C244.356 242.39 247.459 247.267 246.015 253.019C245.862 253.649 245.647 254.288 245.37 254.933L245.309 255.07C242.283 261.901 232.967 262.417 230.402 261.581V261.589C230.463 261.718 232.13 265.206 229.465 269.46C229.15 269.962 228.781 270.471 228.336 270.995C224.066 275.994 218.152 274.817 216.363 274.254C214.566 273.7 212.538 272.112 212.538 272.112C212.538 272.112 212.193 275.014 210.388 277.423C209.121 279.117 207.132 280.56 204.044 280.583C199.091 280.621 195.197 279.238 190.712 276.838C189.698 276.298 188.661 275.706 187.571 275.067C186.165 274.239 184.675 273.335 183.07 272.363C174.676 267.28 142.013 251.332 142.013 251.332C142.013 251.332 135.977 246.394 129.08 240.878C123.136 236.114 116.554 230.91 112.676 228.083L106.171 224.999L87.1859 216.003L78.2771 211.779L52.6953 199.66L87.8694 149.926L105.211 157.425L126.96 166.823L139.886 172.415L169.354 165.661L176.412 164.02L200.035 178.835L258.518 215.524L260.853 224.793L263.157 229.899L263.165 229.907C263.418 230.469 263.564 231.084 263.595 231.7L263.602 231.821C263.656 233.736 263.525 237.801 261.728 240.414Z" fill="#DE9076"/>
<path d="M187.57 275.07C187.282 274.901 186.99 274.728 186.696 274.551V274.551C186.99 274.726 187.282 274.899 187.57 275.068V275.07ZM142.822 246.646C138.68 243.149 134.745 241.729 131.841 241.185C130.121 240.259 128.769 239.891 127.738 239.803C125.391 237.928 122.986 236.019 120.721 234.243C117.606 231.798 114.753 229.601 112.676 228.088L106.172 225.003L108.915 217.326L119.934 222.47C119.934 222.47 133.578 233.841 146.422 244.028C145.038 244.551 143.787 245.42 142.822 246.646Z" fill="#B46B59"/>
<path d="M108.911 217.322L99.9219 213.125L122.311 164.818L126.954 166.826L108.911 217.322Z" fill="#B46B59"/>
<path d="M106.173 225.004H106.172L96.5391 220.439L99.9275 213.129L108.916 217.326L106.173 225.004Z" fill="#955142"/>
<path d="M263.587 231.705C262.152 229.809 259.895 227.52 256.362 225.169C249.88 220.856 219.443 204.084 203.841 195.538C194.313 191.562 186.451 188.731 183.883 188.731C183.604 188.731 183.387 188.765 183.237 188.834C179.398 190.61 170.209 205.54 159.328 206.448C158.774 206.494 158.24 206.516 157.724 206.516C152.692 206.516 149.456 204.432 147.516 202.446C148.528 202.658 149.721 202.804 151.059 202.804C151.084 202.804 151.111 202.804 151.136 202.804C151.796 202.801 152.489 202.76 153.216 202.672C158.983 201.99 166.663 198.386 174.04 186.858C174.256 186.519 174.509 186.203 174.791 185.921C174.897 185.815 175.009 185.715 175.123 185.618L175.196 185.555C175.311 185.46 175.428 185.369 175.551 185.283L175.583 185.262C175.7 185.181 175.819 185.105 175.942 185.034L176.009 184.995C176.146 184.917 176.286 184.844 176.43 184.778C176.435 184.776 176.44 184.773 176.445 184.77C176.525 184.733 176.607 184.697 176.689 184.664C176.785 184.625 176.882 184.589 176.981 184.555L177.531 184.367L187.17 181.076C187.279 181.04 187.388 181.007 187.497 180.977L187.586 180.955C187.662 180.935 187.739 180.916 187.815 180.899C188.214 180.814 188.619 180.771 189.023 180.771C190.04 180.771 191.049 181.041 191.942 181.57L225.433 201.431L230.263 204.294L246.06 213.664L254.403 218.612C256.352 219.765 258.069 221.268 259.467 223.041L260.848 224.793L260.849 224.797L262.516 228.492L263.152 229.904L263.157 229.909C263.411 230.476 263.558 231.086 263.587 231.705Z" fill="#B46B59"/>
<path d="M246.006 253.021C239.87 248.759 229.548 241.807 224.28 238.236C215.647 232.386 216.722 225.001 216.722 225.001L244.102 242.005L244.117 242.028C244.304 242.324 246.387 245.599 246.388 249.903C246.388 250.896 246.276 251.943 246.006 253.021Z" fill="#B46B59"/>
<path d="M229.46 269.463C225.095 266.551 217.94 261.77 213.585 258.843C206.983 254.407 206.695 245.876 206.695 245.876L230.398 261.586L230.399 261.586V261.59C230.424 261.643 230.719 262.261 230.875 263.265C231.097 264.709 231.031 266.952 229.46 269.463Z" fill="#B46B59"/>
<path d="M210.385 277.426C206.604 275.199 201.109 271.841 197.627 269.164C191.886 264.751 192.182 260.155 192.182 260.155L212.54 272.113C212.54 272.113 212.54 272.114 212.54 272.116C212.537 272.114 212.536 272.113 212.536 272.113C212.536 272.113 212.191 275.016 210.386 277.424C210.385 277.425 210.385 277.425 210.385 277.426Z" fill="#B46B59"/>
<path d="M346.401 186.643L297.215 204.445L277.231 211.676C277.089 211.842 276.945 212.004 276.801 212.166C273.059 216.384 268.473 219.857 265.18 222.085C262.626 223.818 260.852 224.799 260.852 224.799L259.468 223.041C258.07 221.269 256.353 219.766 254.404 218.613L246.061 213.665L230.263 204.295L227.322 202.551L225.434 201.432L191.942 181.57C190.706 180.837 189.247 180.602 187.856 180.89C187.625 180.938 187.398 181.001 187.171 181.077L177.532 184.368L176.981 184.555C176.794 184.62 176.608 184.694 176.43 184.779C175.818 185.059 175.265 185.449 174.792 185.922C174.51 186.204 174.256 186.519 174.04 186.859C166.664 198.387 158.983 201.991 153.216 202.673C152.49 202.761 151.796 202.802 151.137 202.805C149.627 202.811 148.298 202.63 147.204 202.38C144.835 201.836 143.525 199.319 144.427 197.085L154.903 174.417C155.819 172.15 157.508 170.274 159.677 169.114L188.086 153.911C189.943 152.916 192.062 152.496 194.162 152.705L243.27 157.596L258.518 152.02L278.41 144.751L324.194 128.013L342.87 177.319L346.401 186.643Z" fill="#FAB29A"/>
<path d="M123.679 161.863L93.6542 226.645L72.8489 217.299L51.7422 207.82L87.1063 144.436L101.804 151.44L123.679 161.863Z" fill="white"/>
<path d="M190.704 276.836C189.694 276.296 188.653 275.703 187.564 275.063L187.187 273.327C187.187 273.327 187.146 273.297 187.068 273.238C187.433 271.951 187.739 270.776 187.909 269.93C188.043 269.266 187.595 268.042 186.711 266.809C188.314 267.935 189.837 269.438 190.329 271.272C190.949 273.585 190.894 275.522 190.704 276.836Z" fill="#B46B59"/>
<path d="M175.498 264.92C175.442 264.881 175.384 264.842 175.328 264.803L176.256 262.892C177.273 259.931 177.201 256.505 175.495 253.806C176.975 254.712 180.855 257.581 181.947 263.311C181.805 263.273 181.661 263.239 181.515 263.21C181.112 263.129 180.696 263.085 180.268 263.085C178.789 263.085 177.175 263.606 175.498 264.92Z" fill="#B46B59"/>
<path d="M159.732 254.303C159.594 254.202 159.455 254.098 159.316 253.995C159.485 249.455 157.414 246.34 154.602 244.725C156.507 245.223 160.166 246.679 163.103 250.844C161.481 251.936 160.337 253.402 159.732 254.303Z" fill="#B46B59"/>
<path d="M135.704 255.741C134.376 255.918 132.851 255.726 131.238 254.985C126.013 252.59 121.099 243.188 125.018 240.44C125.018 240.44 127.117 238.355 132.559 241.589C135.754 243.486 137.832 245.315 139.058 247.13C139.921 248.403 140.362 249.67 140.478 250.95C140.669 253.09 138.677 255.344 135.704 255.741Z" fill="#FAB29A"/>
<path d="M135.695 255.744C136.532 252.432 138.104 249.023 139.049 247.133C139.869 248.342 140.308 249.544 140.449 250.758C139.905 251.926 139.449 253.088 139.069 254.199C138.233 254.981 137.069 255.56 135.695 255.744Z" fill="#E18971"/>
<path d="M144.492 268.131C139.808 267.146 136.912 262.453 138.016 257.842C138.722 254.887 140.028 250.876 142.377 247.257C147.016 240.106 160.581 243.132 159.226 255.115L154.002 266.741C154.002 266.741 149.27 269.135 144.492 268.131Z" fill="#FAB29A"/>
<path d="M176.257 262.894L169.964 275.855C169.613 276.017 163.429 278.117 158.197 274.438C157.854 274.197 157.54 273.956 157.25 273.71C153.165 270.286 154.01 266.741 154.01 266.741L159.233 255.115C159.233 255.115 162.98 248.013 169.483 249.659C169.617 249.691 169.753 249.728 169.889 249.77C176.64 251.822 177.94 257.993 176.257 262.894Z" fill="#FAB29A"/>
<path d="M187.919 269.931C187.239 273.319 184.365 281.985 184.365 281.985C183.171 283.104 181.2 284.331 175.823 282.399C174.761 282.019 173.888 281.53 173.175 280.995C170.277 278.822 169.969 275.852 169.969 275.852L175.127 265.227C177.428 263.27 179.621 262.829 181.521 263.209C185.519 264.007 188.223 268.423 187.919 269.931Z" fill="#FAB29A"/>
<path d="M157.243 273.711C154.354 271.29 153.93 268.809 153.93 267.563C153.93 267.047 154.003 266.742 154.003 266.742L159.226 255.116C159.226 255.116 162.236 249.413 167.54 249.413C168.155 249.413 168.8 249.49 169.476 249.66C167.625 251.018 164.182 254.208 161.843 260.361C160.096 264.956 158.431 269.974 157.243 273.711Z" fill="#E18971"/>
<path d="M173.175 280.996C170.277 278.823 169.969 275.854 169.969 275.854L175.127 265.229C176.939 263.687 178.686 263.086 180.274 263.086C180.701 263.086 181.118 263.13 181.521 263.211C180.286 264.268 178.454 266.475 176.732 270.979C175.295 274.746 174.064 278.319 173.175 280.996Z" fill="#E18971"/>
<path d="M260.855 224.799L260.851 224.794L259.47 223.041C258.072 221.269 256.355 219.766 254.406 218.613L246.063 213.665L230.266 204.295L227.324 202.551L225.437 201.432L191.945 181.57C191.051 181.041 190.041 180.771 189.025 180.771C188.635 180.771 188.244 180.811 187.858 180.89C187.627 180.938 187.401 181.001 187.173 181.077L177.534 184.368L176.984 184.555C176.802 184.618 176.622 184.69 176.448 184.771C176.443 184.774 176.438 184.777 176.433 184.779C175.82 185.059 175.267 185.449 174.794 185.922C174.512 186.204 174.259 186.519 174.043 186.859C166.666 198.387 158.986 201.991 153.219 202.673C156.112 201.296 159.813 199.184 164.051 195.979C174.071 188.399 174.829 176.222 174.829 176.222C174.829 176.222 186.816 172.363 189.804 172.363C189.832 172.363 189.86 172.364 189.887 172.364C191.592 172.409 214.801 186.373 234.13 198.279C238.559 195.552 243.17 190.634 245.983 181.788C245.983 181.788 246.784 193.319 237.655 200.454C243.128 203.837 248.135 206.958 252.05 209.426C254.597 208.854 257.888 207.8 261.115 205.852C262.23 205.18 266.715 203.452 273.421 201.036L276.804 212.166C276.14 212.915 275.45 213.639 274.745 214.338C271.475 217.577 267.891 220.252 265.183 222.085C262.628 223.818 260.855 224.799 260.855 224.799ZM327.231 193.582L323.04 183.967C329.664 181.737 336.36 179.494 342.872 177.319L346.404 186.643L327.231 193.582Z" fill="#E18971"/>
<path d="M277.229 211.675L284.527 209.034V209.035L277.229 211.675ZM273.416 201.035L258.516 152.019L263.925 150.042L280.815 198.406C278.131 199.35 275.65 200.231 273.416 201.035Z" fill="#E18971"/>
<path d="M276.805 212.164L273.422 201.034C275.655 200.23 278.137 199.349 280.821 198.405L284.532 209.033L277.234 211.674C277.197 211.717 277.161 211.759 277.124 211.802C277.018 211.923 276.912 212.044 276.805 212.164Z" fill="#CA6953"/>
<path d="M330.266 200.538L309.82 207.442L286.703 215.248L263.18 147.889L286.21 139.53L301.29 134.058L330.266 200.538Z" fill="white"/>
<path d="M309.813 207.441L286.203 139.53L301.283 134.058L330.258 200.537L309.813 207.441Z" fill="#B3B3B3"/>
<path d="M384.46 94.9339V200.185L327.643 226.055L318.665 204.454L315.855 197.693L311.738 187.778L305.133 171.883L303.459 167.849L291.816 139.844L290.964 137.8L289.773 134.928L334.01 118.829L384.46 94.9339Z" fill="black"/>
<path d="M72.8489 217.299L51.7422 207.82L87.1063 144.436L101.804 151.441L72.8489 217.299Z" fill="#B3B3B3"/>
<path d="M98.4803 146.42L97.0134 149.156L94.9552 153L81.6305 177.867L79.5722 181.719L66.4624 206.184L62.899 212.832L51.8399 233.475L14.3464 211.814L5.49912 206.7L0.460938 203.79V92.9024L56.0333 126.142L98.4803 146.42Z" fill="black"/>
<path d="M181.133 283.482C179.21 283.482 177.409 282.989 176.094 282.499C178.005 283.161 179.473 283.414 180.623 283.414C182.583 283.414 183.621 282.679 184.36 281.986C184.36 281.986 185.64 278.126 186.694 274.551C186.989 274.728 187.282 274.9 187.57 275.07C188.66 275.708 189.697 276.301 190.711 276.841C191.501 277.263 192.271 277.654 193.033 278.011C191.469 278.96 188.882 280.509 185.729 282.321C184.239 283.176 182.649 283.482 181.133 283.482Z" fill="#E18971"/>
<path d="M136.287 311.828C136.287 302.984 142.755 296.648 151.599 296.648C160.487 296.648 166.955 302.984 166.955 311.828C166.955 320.672 160.487 327.008 151.599 327.008C142.755 327.008 136.287 320.672 136.287 311.828ZM160.531 311.828C160.531 306.328 157.011 302.192 151.599 302.192C146.187 302.192 142.711 306.328 142.711 311.828C142.711 317.284 146.187 321.464 151.599 321.464C157.011 321.464 160.531 317.284 160.531 311.828ZM172.087 326.48V305.228H177.675V308.132C179.171 306.24 181.811 304.744 184.451 304.744V310.2C184.055 310.112 183.527 310.068 182.911 310.068C181.063 310.068 178.599 311.08 177.675 312.444V326.48H172.087ZM195.951 327.008C192.035 327.008 189.923 324.984 189.923 321.2V310.112H186.403V305.228H189.923V299.42H195.555V305.228H199.867V310.112H195.555V319.704C195.555 321.024 196.259 322.036 197.491 322.036C198.327 322.036 199.119 321.728 199.427 321.42L200.615 325.644C199.779 326.392 198.283 327.008 195.951 327.008ZM217.33 326.48V324.28C215.878 325.996 213.37 327.008 210.598 327.008C207.21 327.008 203.206 324.72 203.206 319.968C203.206 314.996 207.21 313.192 210.598 313.192C213.414 313.192 215.922 314.072 217.33 315.788V312.84C217.33 310.684 215.482 309.276 212.666 309.276C210.378 309.276 208.266 310.112 206.462 311.784L204.35 308.044C206.946 305.756 210.29 304.7 213.634 304.7C218.474 304.7 222.918 306.636 222.918 312.752V326.48H217.33ZM217.33 321.376V318.736C216.406 317.504 214.646 316.888 212.842 316.888C210.642 316.888 208.838 318.076 208.838 320.1C208.838 322.08 210.642 323.224 212.842 323.224C214.646 323.224 216.406 322.608 217.33 321.376ZM243.113 326.48L237.481 318.296L234.929 321.024V326.48H229.341V297.132H234.929V314.688L242.981 305.228H249.845L241.441 314.864L250.109 326.48H243.113ZM106.211 370.48V341.132H126.979V346.5H112.459V352.88H126.671V358.248H112.459V370.48H106.211ZM144.855 370.48V368.28C143.403 369.996 140.895 371.008 138.123 371.008C134.735 371.008 130.731 368.72 130.731 363.968C130.731 358.996 134.735 357.192 138.123 357.192C140.939 357.192 143.447 358.072 144.855 359.788V356.84C144.855 354.684 143.007 353.276 140.191 353.276C137.903 353.276 135.791 354.112 133.987 355.784L131.875 352.044C134.471 349.756 137.815 348.7 141.159 348.7C145.999 348.7 150.443 350.636 150.443 356.752V370.48H144.855ZM144.855 365.376V362.736C143.931 361.504 142.171 360.888 140.367 360.888C138.167 360.888 136.363 362.076 136.363 364.1C136.363 366.08 138.167 367.224 140.367 367.224C142.171 367.224 143.931 366.608 144.855 365.376ZM156.954 373.78C157.438 374 158.186 374.132 158.714 374.132C160.166 374.132 161.134 373.736 161.662 372.592L162.454 370.788L153.83 349.228H159.814L165.358 364.012L170.902 349.228H176.93L166.942 373.956C165.358 377.96 162.542 379.016 158.89 379.104C158.23 379.104 156.822 378.972 156.118 378.796L156.954 373.78ZM194.913 370.48V367.796C193.241 369.864 190.909 371.008 188.357 371.008C182.989 371.008 178.941 366.96 178.941 359.876C178.941 352.924 182.945 348.7 188.357 348.7C190.865 348.7 193.241 349.8 194.913 351.956V341.132H200.545V370.48H194.913ZM194.913 363.616V356.092C193.945 354.684 191.965 353.672 190.073 353.672C186.905 353.672 184.705 356.18 184.705 359.876C184.705 363.528 186.905 366.036 190.073 366.036C191.965 366.036 193.945 365.024 194.913 363.616ZM219.726 370.48V368.28C218.274 369.996 215.766 371.008 212.994 371.008C209.606 371.008 205.602 368.72 205.602 363.968C205.602 358.996 209.606 357.192 212.994 357.192C215.81 357.192 218.318 358.072 219.726 359.788V356.84C219.726 354.684 217.878 353.276 215.062 353.276C212.774 353.276 210.662 354.112 208.858 355.784L206.746 352.044C209.342 349.756 212.686 348.7 216.03 348.7C220.87 348.7 225.314 350.636 225.314 356.752V370.48H219.726ZM219.726 365.376V362.736C218.802 361.504 217.042 360.888 215.238 360.888C213.038 360.888 211.234 362.076 211.234 364.1C211.234 366.08 213.038 367.224 215.238 367.224C217.042 367.224 218.802 366.608 219.726 365.376ZM231.737 370.48V341.132H237.325V370.48H231.737ZM256.505 370.48V368.28C255.053 369.996 252.545 371.008 249.773 371.008C246.385 371.008 242.381 368.72 242.381 363.968C242.381 358.996 246.385 357.192 249.773 357.192C252.589 357.192 255.097 358.072 256.505 359.788V356.84C256.505 354.684 254.657 353.276 251.841 353.276C249.553 353.276 247.441 354.112 245.637 355.784L243.525 352.044C246.121 349.756 249.465 348.7 252.809 348.7C257.649 348.7 262.093 350.636 262.093 356.752V370.48H256.505ZM256.505 365.376V362.736C255.581 361.504 253.821 360.888 252.017 360.888C249.817 360.888 248.013 362.076 248.013 364.1C248.013 366.08 249.817 367.224 252.017 367.224C253.821 367.224 255.581 366.608 256.505 365.376ZM268.516 370.48V349.228H274.104V352.132C275.6 350.24 278.24 348.744 280.88 348.744V354.2C280.484 354.112 279.956 354.068 279.34 354.068C277.492 354.068 275.028 355.08 274.104 356.444V370.48H268.516Z" fill="#E7DAC9"/>
</g>
</svg>
