<svg width="379" height="450" viewBox="0 0 379 450" fill="none" xmlns="http://www.w3.org/2000/svg">
<path d="M378.14 171.104V290.853C378.14 321.249 361.929 349.337 335.611 364.544L232.077 424.363C205.733 439.584 173.267 439.584 146.923 424.363L43.3893 364.544C17.0706 349.337 0.859661 321.249 0.859661 290.853V171.104C0.859661 140.708 17.0706 112.62 43.3893 97.4132L102.286 63.3839L146.923 37.5937C173.267 22.3727 205.733 22.3727 232.077 37.5937L276.714 63.3839L335.611 97.4132C361.929 112.62 378.14 140.708 378.14 171.104Z" fill="#4A584E" stroke="black" stroke-width="1.71932"/>
<g clip-path="url(#clip0_1526_30803)">
<path d="M70.7048 208.867L173.978 176.858L193.791 165.952C198.174 163.55 204.793 163.278 208.585 165.367L266.051 197.041L303.727 213.505L315.102 207.717V213.839H315.058C315.189 215.531 314.006 217.328 311.485 218.707L199.796 280.175C195.413 282.577 188.794 282.849 185.002 280.76L73.2253 219.146C71.4061 218.143 70.5952 216.785 70.7048 215.364V208.867Z" fill="#645A44"/>
<path d="M312.559 209.476L315.102 208.181V214.302H315.058C315.167 215.723 314.291 217.186 312.559 218.46V209.476Z" fill="#031332"/>
<path d="M191.962 282.163C189.376 282.225 186.878 281.787 185.037 280.763L73.2598 219.149C71.4407 218.146 70.6298 216.788 70.7394 215.368V208.87L169.147 178.324H183.305L191.984 282.142L191.962 282.163Z" fill="#8F7D54"/>
<path d="M191.442 282.639C194.444 282.639 197.6 281.95 200.077 280.592L311.744 219.124C314.243 217.746 315.645 215.886 315.58 213.985C315.58 213.943 315.602 213.88 315.602 213.839V207.717C315.602 207.55 315.514 207.383 315.36 207.299C315.207 207.215 315.01 207.215 314.878 207.299L303.723 212.982L266.266 196.623L208.844 164.97C204.921 162.818 198.061 163.068 193.546 165.555L173.733 176.461L70.5473 208.427C70.35 208.49 70.1966 208.678 70.1966 208.887V215.385C70.1966 215.385 70.1966 215.447 70.1966 215.468C70.1309 217.098 71.1171 218.539 72.9801 219.584L184.735 281.198C186.51 282.18 188.921 282.66 191.42 282.66L191.442 282.639ZM314.593 213.692C314.593 213.692 314.55 213.818 314.55 213.88C314.681 215.447 313.454 217.056 311.24 218.289L199.551 279.756C195.321 282.096 188.899 282.347 185.239 280.341L73.4842 218.728C71.9281 217.871 71.1171 216.68 71.2048 215.385C71.2048 215.343 71.2048 215.28 71.2048 215.238V209.2L174.127 177.297L194.028 166.349C198.258 164.009 204.679 163.758 208.34 165.764L265.806 197.438L303.525 213.922C303.657 213.985 303.832 213.985 303.964 213.922L314.593 208.511V213.692Z" fill="#021433"/>
<path d="M73.2382 212.526L185.015 274.139C188.807 276.229 195.448 275.957 199.809 273.554L311.498 212.087C315.882 209.684 316.364 206.028 312.55 203.939L200.773 142.325C196.982 140.236 190.341 140.508 185.979 142.91L74.2903 204.378C69.9068 206.78 69.4247 210.437 73.2382 212.526Z" fill="#4D655B"/>
<path d="M191.443 276.02C194.446 276.02 197.602 275.33 200.078 273.972L311.746 212.505C314.2 211.147 315.625 209.329 315.625 207.491C315.625 205.945 314.617 204.545 312.82 203.542L201.043 141.928C197.12 139.756 190.26 140.027 185.745 142.513L74.0555 203.981C71.6008 205.339 70.1762 207.156 70.1762 208.995C70.1762 210.541 71.1844 211.941 72.9816 212.944L184.758 274.557C186.534 275.539 188.945 276.02 191.443 276.02ZM194.38 141.385C196.703 141.385 198.917 141.824 200.561 142.743L312.316 204.357C313.806 205.172 314.617 206.279 314.617 207.491C314.617 208.974 313.389 210.499 311.242 211.69L199.552 273.158C195.322 275.498 188.901 275.748 185.241 273.743L73.4857 212.129C71.9953 211.314 71.1844 210.207 71.1844 208.995C71.1844 207.512 72.4118 205.986 74.5596 204.796L186.249 143.328C188.572 142.054 191.553 141.385 194.38 141.385Z" fill="#021433"/>
<path d="M193.398 267.263L82.4544 205.691V114.033L193.398 175.605V267.263Z" fill="#8F7D54"/>
<path d="M84.6406 206.696L82.4489 205.212V113.555L84.6406 115.038V206.696Z" fill="#03122F"/>
<path d="M193.408 267.745C193.408 267.745 193.584 267.724 193.65 267.683C193.803 267.599 193.891 267.432 193.891 267.265V175.607C193.891 175.44 193.803 175.273 193.65 175.189L82.7056 113.617C82.5521 113.534 82.3549 113.534 82.2015 113.617C82.0481 113.701 81.9604 113.868 81.9604 114.035V205.693C81.9604 205.86 82.0481 206.027 82.2015 206.111L193.145 267.683C193.145 267.683 193.299 267.745 193.408 267.745ZM192.904 175.879V266.429L82.9686 205.421V114.871L192.904 175.879Z" fill="#021433"/>
<path d="M193.405 267.264L297.336 210.059V118.401L193.405 175.607V267.264Z" fill="#645A44"/>
<path d="M295.517 120.032L297.336 118.736V210.394L295.517 211.146V120.032Z" fill="#03122F"/>
<path d="M193.403 267.751C193.403 267.751 193.578 267.73 193.644 267.688L297.596 210.462C297.75 210.378 297.859 210.211 297.859 210.044V118.407C297.859 118.24 297.772 118.073 297.596 117.989C297.443 117.906 297.246 117.906 297.092 117.989L193.14 175.195C192.986 175.278 192.899 175.445 192.899 175.612V267.27C192.899 267.437 192.986 267.605 193.14 267.688C193.206 267.73 193.293 267.751 193.381 267.751H193.403ZM296.851 209.773L193.907 266.435V175.884L296.851 119.222V209.773Z" fill="#021433"/>
<path d="M101.778 198.216L132.594 215.16V160.567L101.778 143.602V198.216Z" fill="#EC7E10"/>
<path d="M132.597 215.643C132.597 215.643 132.773 215.622 132.839 215.58C132.992 215.497 133.102 215.329 133.102 215.162V160.569C133.102 160.402 133.014 160.234 132.839 160.151L102.023 143.186C101.87 143.102 101.673 143.102 101.519 143.186C101.366 143.269 101.278 143.436 101.278 143.604V198.197C101.278 198.364 101.366 198.531 101.519 198.615L132.334 215.58C132.334 215.58 132.488 215.643 132.576 215.643H132.597ZM132.093 160.84V214.327L102.286 197.925V144.418L132.093 160.819V160.84Z" fill="#021433"/>
<path d="M104.702 196.255L129.688 210.003V162.409L104.702 148.661V196.255Z" fill="white"/>
<path d="M129.668 210.55C129.668 210.55 129.843 210.529 129.909 210.487C130.062 210.404 130.172 210.237 130.172 210.07V162.475C130.172 162.308 130.084 162.141 129.909 162.057L104.923 148.31C104.77 148.226 104.573 148.226 104.419 148.31C104.266 148.393 104.156 148.56 104.156 148.728V196.322C104.156 196.489 104.244 196.656 104.419 196.74L129.405 210.487C129.405 210.487 129.558 210.55 129.646 210.55H129.668ZM129.164 162.768V209.255L105.186 196.05V149.563L129.164 162.768Z" fill="#021433"/>
<path d="M107.113 150.041V194.856L129.688 207.288V210.067L104.702 196.319V148.725L107.113 150.041Z" fill="#EC7E10"/>
<path d="M107.109 150.041L104.699 148.725V196.319H104.72L107.109 194.836V150.041Z" fill="#DD5E15"/>
<path d="M129.668 210.541C129.668 210.541 129.843 210.52 129.909 210.478C130.062 210.395 130.172 210.228 130.172 210.06V207.282C130.172 207.114 130.084 206.947 129.909 206.864L107.575 194.579V150.056C107.575 149.888 107.488 149.721 107.312 149.638L104.923 148.321C104.77 148.238 104.573 148.238 104.419 148.321C104.266 148.405 104.156 148.572 104.156 148.739V196.334C104.156 196.501 104.244 196.668 104.419 196.752L129.405 210.499C129.405 210.499 129.558 210.562 129.646 210.562L129.668 210.541ZM129.164 207.553V209.225L105.186 196.02V149.533L106.589 150.306V194.829C106.589 194.997 106.677 195.164 106.83 195.247L129.164 207.532V207.553Z" fill="#021433"/>
<path d="M117.95 201.293C118.234 201.293 118.453 201.084 118.453 200.812V156.122C118.453 155.851 118.234 155.642 117.95 155.642C117.665 155.642 117.446 155.851 117.446 156.122V200.812C117.446 201.084 117.665 201.293 117.95 201.293Z" fill="#021433"/>
<path d="M283.328 199.277L252.513 216.221V161.627L283.328 144.662V199.277Z" fill="#EC7E10"/>
<path d="M252.532 216.703C252.532 216.703 252.707 216.682 252.773 216.641L283.589 199.676C283.742 199.592 283.852 199.425 283.852 199.258V144.664C283.852 144.497 283.764 144.33 283.589 144.246C283.435 144.163 283.238 144.163 283.084 144.246L252.269 161.211C252.116 161.295 252.006 161.462 252.006 161.629V216.223C252.006 216.39 252.094 216.557 252.269 216.641C252.335 216.682 252.423 216.703 252.51 216.703H252.532ZM282.843 198.986L253.036 215.387V161.901L282.843 145.5V199.007V198.986Z" fill="#021433"/>
<path d="M280.422 197.316L255.458 211.064V163.469L280.422 149.722V197.316Z" fill="white"/>
<path d="M255.448 211.585C255.448 211.585 255.623 211.564 255.689 211.523L280.674 197.775C280.828 197.691 280.938 197.524 280.938 197.357V149.763C280.938 149.596 280.85 149.428 280.674 149.345C280.521 149.261 280.324 149.261 280.17 149.345L255.185 163.093C255.032 163.176 254.944 163.343 254.944 163.51V211.105C254.944 211.272 255.032 211.439 255.185 211.523C255.251 211.564 255.338 211.585 255.426 211.585H255.448ZM279.929 197.085L255.952 210.29V163.803L279.929 150.598V197.085Z" fill="#021433"/>
<path d="M278.033 151.099V195.915L255.458 208.326V211.125L280.422 197.378V149.783L278.033 151.099Z" fill="#EC7E10"/>
<path d="M278.033 151.099L280.422 149.783V197.378L278.033 195.894V151.099Z" fill="#DD5E15"/>
<path d="M255.448 211.585C255.448 211.585 255.623 211.564 255.689 211.523L280.674 197.775C280.828 197.691 280.938 197.524 280.938 197.357V149.763C280.938 149.596 280.85 149.428 280.674 149.345C280.521 149.261 280.324 149.261 280.17 149.345L277.781 150.661C277.628 150.745 277.518 150.912 277.518 151.079V195.602L255.185 207.887C255.032 207.971 254.944 208.138 254.944 208.305V211.084C254.944 211.251 255.032 211.418 255.185 211.502C255.251 211.543 255.338 211.564 255.426 211.564L255.448 211.585ZM279.929 197.085L255.952 210.29V208.618L278.286 196.333C278.439 196.25 278.527 196.083 278.527 195.915V151.392L279.907 150.619V197.106L279.929 197.085Z" fill="#021433"/>
<path d="M267.161 202.347C267.445 202.347 267.664 202.138 267.664 201.866V157.176C267.664 156.904 267.445 156.695 267.161 156.695C266.876 156.695 266.657 156.904 266.657 157.176V201.866C266.657 202.138 266.876 202.347 267.161 202.347Z" fill="#021433"/>
<path d="M241.844 222.742L211.028 239.687V185.093L241.844 168.128V222.742Z" fill="#EC7E10"/>
<path d="M211.023 240.169C211.023 240.169 211.198 240.169 211.264 240.106L242.079 223.141C242.233 223.058 242.32 222.891 242.32 222.723V168.13C242.32 167.963 242.233 167.796 242.079 167.712C241.926 167.629 241.729 167.629 241.575 167.712L210.76 184.677C210.606 184.761 210.519 184.928 210.519 185.095V239.689C210.519 239.856 210.606 240.023 210.76 240.106C210.826 240.148 210.913 240.169 211.001 240.169H211.023ZM241.334 222.452L211.527 238.853V185.367L241.334 168.966V222.473V222.452Z" fill="#021433"/>
<path d="M238.922 220.782L213.958 234.529V186.935L238.922 173.188V220.782Z" fill="white"/>
<path d="M213.97 235.076C213.97 235.076 214.145 235.056 214.211 235.014L239.196 221.266C239.35 221.183 239.438 221.015 239.438 220.848V173.254C239.438 173.087 239.35 172.92 239.196 172.836C239.043 172.753 238.846 172.753 238.692 172.836L213.707 186.584C213.553 186.667 213.444 186.834 213.444 187.002V234.596C213.444 234.763 213.532 234.93 213.707 235.014C213.773 235.056 213.86 235.076 213.948 235.076H213.97ZM238.451 220.577L214.474 233.76V187.273L238.451 174.069V220.556V220.577Z" fill="#021433"/>
<path d="M236.533 174.567V219.383L213.958 231.814V234.593L238.922 220.845V173.251L236.533 174.567Z" fill="#EC7E10"/>
<path d="M236.533 174.567L238.922 173.251V220.845H238.9L236.533 219.362V174.567Z" fill="#DD5E15"/>
<path d="M213.97 235.076C213.97 235.076 214.145 235.056 214.211 235.014L239.196 221.266C239.35 221.183 239.438 221.015 239.438 220.848V173.254C239.438 173.087 239.35 172.92 239.196 172.836C239.043 172.753 238.846 172.753 238.692 172.836L236.303 174.152C236.15 174.236 236.04 174.403 236.04 174.57V219.093L213.707 231.378C213.553 231.462 213.444 231.629 213.444 231.796V234.575C213.444 234.742 213.532 234.909 213.707 234.993C213.773 235.035 213.86 235.056 213.948 235.056L213.97 235.076ZM238.451 220.577L214.474 233.76V232.089L236.807 219.804C236.961 219.72 237.07 219.553 237.07 219.386V174.863L238.473 174.09V220.577H238.451Z" fill="#021433"/>
<path d="M225.708 225.825C225.992 225.825 226.211 225.616 226.211 225.345V180.654C226.211 180.383 225.992 180.174 225.708 180.174C225.423 180.174 225.204 180.383 225.204 180.654V225.345C225.204 225.616 225.423 225.825 225.708 225.825Z" fill="#021433"/>
<path d="M143.216 221.662L174.031 238.627V184.033L143.216 167.068V221.662Z" fill="#EC7E10"/>
<path d="M174.035 239.11C174.035 239.11 174.21 239.089 174.276 239.047C174.429 238.963 174.539 238.796 174.539 238.629V184.036C174.539 183.868 174.451 183.701 174.276 183.618L143.461 166.653C143.307 166.569 143.11 166.569 142.957 166.653C142.803 166.736 142.694 166.903 142.694 167.07V221.664C142.694 221.831 142.781 221.998 142.957 222.082L173.772 239.047C173.772 239.047 173.925 239.11 174.013 239.11H174.035ZM173.531 184.307V237.793L143.724 221.392V167.906L173.531 184.307Z" fill="#021433"/>
<path d="M146.14 219.722L171.125 233.47V185.876L146.14 172.128V219.722Z" fill="white"/>
<path d="M171.121 233.993C171.121 233.993 171.296 233.993 171.362 233.931C171.515 233.847 171.625 233.68 171.625 233.513V185.919C171.625 185.751 171.537 185.584 171.362 185.501L146.377 171.753C146.223 171.67 146.026 171.67 145.872 171.753C145.719 171.837 145.631 172.004 145.631 172.171V219.765C145.631 219.932 145.719 220.1 145.872 220.183L170.858 233.931C170.858 233.931 171.011 233.993 171.099 233.993H171.121ZM170.617 186.211V232.698L146.64 219.494V173.007L170.617 186.211Z" fill="#021433"/>
<path d="M148.55 173.508V218.302L171.125 230.734V233.512L146.14 219.765V172.191L148.55 173.508Z" fill="#EC7E10"/>
<path d="M148.547 173.508L146.136 172.191V219.765L146.158 219.786L148.547 218.302V173.508Z" fill="#DD5E15"/>
<path d="M171.121 233.996C171.121 233.996 171.296 233.996 171.362 233.933C171.515 233.85 171.625 233.683 171.625 233.515V230.737C171.625 230.57 171.537 230.402 171.362 230.319L149.029 218.034V173.511C149.029 173.344 148.941 173.176 148.766 173.093L146.377 171.777C146.223 171.693 146.026 171.693 145.872 171.777C145.719 171.86 145.631 172.027 145.631 172.194V219.789C145.631 219.956 145.719 220.123 145.872 220.207L170.858 233.954C170.858 233.954 171.011 234.017 171.099 234.017L171.121 233.996ZM170.617 231.008V232.68L146.64 219.475V172.988L148.042 173.761V218.284C148.042 218.452 148.13 218.619 148.305 218.702L170.639 230.987L170.617 231.008Z" fill="#021433"/>
<path d="M159.395 224.752C159.68 224.752 159.898 224.543 159.898 224.271V179.581C159.898 179.31 159.68 179.101 159.395 179.101C159.111 179.101 158.892 179.31 158.892 179.581V224.271C158.892 224.543 159.111 224.752 159.395 224.752Z" fill="#021433"/>
<path d="M245.508 62.9951L321.188 105.408L245.508 147.069L169.829 188.729L245.508 62.9951Z" fill="#E0610A"/>
<path d="M249.867 65.4396L245.528 75.5518L181.245 182.441L169.848 188.729L245.528 62.9951L249.867 65.4396Z" fill="#031332"/>
<path d="M169.81 189.184C169.81 189.184 169.986 189.163 170.051 189.121L321.432 105.821C321.586 105.737 321.695 105.591 321.695 105.403C321.695 105.215 321.608 105.069 321.454 104.985L245.753 62.5723C245.643 62.5096 245.49 62.4887 245.38 62.5305C245.249 62.5723 245.139 62.635 245.073 62.7604L169.394 188.495C169.284 188.683 169.306 188.913 169.482 189.08C169.569 189.163 169.701 189.226 169.832 189.226L169.81 189.184ZM320.205 105.403L171.191 187.408L245.687 63.6379L320.205 105.403Z" fill="#021433"/>
<path d="M226.879 149.179L302.558 107.539L239.853 72.397L245.508 62.9951L321.188 105.408L245.508 147.069L169.829 188.729L177.127 176.57L226.879 149.179Z" fill="#D77A12"/>
<path d="M196.438 166.227L189.205 178.345L169.83 189L177.129 176.861L196.438 166.227Z" fill="#031332"/>
<path d="M169.81 189.184C169.81 189.184 169.986 189.163 170.051 189.121L321.432 105.821C321.586 105.737 321.695 105.591 321.695 105.403C321.695 105.215 321.608 105.069 321.454 104.985L245.753 62.5723C245.643 62.5096 245.49 62.4887 245.38 62.5305C245.249 62.5723 245.139 62.635 245.073 62.7604L239.419 72.1622C239.287 72.392 239.353 72.6845 239.594 72.8099L301.575 107.513L176.889 176.147C176.889 176.147 176.758 176.251 176.714 176.314L169.394 188.474C169.284 188.662 169.306 188.892 169.482 189.059C169.569 189.142 169.701 189.205 169.832 189.205L169.81 189.184ZM320.205 105.403L171.191 187.408L177.503 176.899L302.825 107.931C302.978 107.848 303.066 107.68 303.066 107.513C303.066 107.346 302.978 107.179 302.825 107.095L240.537 72.1831L245.687 63.617L320.205 105.403Z" fill="#021433"/>
<path d="M245.508 73.379L179.165 183.569L169.829 188.729L245.508 62.9951L321.188 105.408L311.851 110.548L245.508 73.379Z" fill="#D77A12"/>
<path d="M169.81 189.184C169.81 189.184 169.986 189.163 170.051 189.121L179.41 183.982C179.41 183.982 179.541 183.877 179.585 183.815L245.665 74.0426L311.592 110.961C311.745 111.044 311.942 111.044 312.096 110.961L321.432 105.821C321.586 105.737 321.695 105.591 321.695 105.403C321.695 105.215 321.608 105.069 321.454 104.985L245.753 62.5723C245.643 62.5096 245.49 62.4887 245.38 62.5305C245.249 62.5723 245.139 62.635 245.073 62.7604L169.394 188.495C169.284 188.683 169.306 188.913 169.482 189.08C169.569 189.163 169.701 189.226 169.832 189.226L169.81 189.184ZM178.796 183.209L171.169 187.408L245.687 63.6379L320.205 105.403L311.855 110L245.775 72.9562C245.665 72.8935 245.512 72.8726 245.402 72.9144C245.271 72.9562 245.161 73.0188 245.095 73.1442L178.818 183.23L178.796 183.209Z" fill="#021433"/>
<path d="M235.145 135.028L255.812 123.662V96.167L235.145 107.554V135.028Z" fill="#EC7E10"/>
<path d="M235.148 135.511C235.148 135.511 235.324 135.49 235.39 135.448L256.057 124.061C256.211 123.978 256.32 123.811 256.32 123.643V96.169C256.32 96.0019 256.233 95.8347 256.057 95.7512C255.904 95.6676 255.707 95.6676 255.553 95.7512L234.885 107.117C234.732 107.201 234.622 107.368 234.622 107.535V135.009C234.622 135.176 234.71 135.343 234.885 135.427C234.951 135.469 235.039 135.49 235.127 135.49L235.148 135.511ZM255.312 123.372L235.653 134.194V107.806L255.312 96.9838V123.372Z" fill="#021433"/>
<path d="M237.752 130.144L253.203 121.641V101.082L237.752 109.585V130.144Z" fill="#97A0AC"/>
<path d="M237.754 130.626C237.754 130.626 237.929 130.626 237.995 130.563L253.446 122.06C253.6 121.976 253.688 121.809 253.688 121.642V101.083C253.688 100.916 253.6 100.749 253.446 100.665C253.293 100.582 253.096 100.582 252.942 100.665L237.491 109.169C237.337 109.252 237.25 109.419 237.25 109.587V130.145C237.25 130.312 237.337 130.48 237.491 130.563C237.557 130.605 237.644 130.626 237.732 130.626H237.754ZM252.701 121.37L238.236 129.33V109.879L252.701 101.919V121.37Z" fill="#021433"/>
<path d="M250.617 120.262V102.503L253.203 101.082V121.641L237.752 130.144V127.345L250.617 120.262Z" fill="#EC7E10"/>
<path d="M250.767 120.258V102.624L253.375 101.183V121.7L250.767 120.258Z" fill="#DB5C19"/>
<path d="M237.754 130.626C237.754 130.626 237.929 130.626 237.995 130.563L253.446 122.06C253.6 121.976 253.688 121.809 253.688 121.642V101.083C253.688 100.916 253.6 100.749 253.446 100.665C253.293 100.582 253.096 100.582 252.942 100.665L250.334 102.107C250.181 102.19 250.071 102.358 250.071 102.525V120.012L237.469 126.949C237.315 127.032 237.228 127.199 237.228 127.367V130.166C237.228 130.333 237.315 130.5 237.469 130.584C237.535 130.626 237.622 130.647 237.71 130.647L237.754 130.626ZM252.701 121.37L238.236 129.33V127.638L250.838 120.702C250.992 120.618 251.079 120.451 251.079 120.284V102.796L252.679 101.919V121.37H252.701Z" fill="#021433"/>
<path d="M311.867 110.548L302.574 107.539L244.538 75.0086L245.524 73.3789L311.867 110.548Z" fill="#021433"/>
<path d="M311.871 111.03C312.069 111.03 312.244 110.925 312.332 110.758C312.441 110.528 312.332 110.278 312.134 110.152L245.791 72.9834C245.682 72.9208 245.55 72.8999 245.397 72.9417C245.265 72.9834 245.156 73.0461 245.09 73.1715L244.104 74.8011C243.972 75.031 244.038 75.3235 244.279 75.4488L302.315 107.979L311.696 111.03C311.696 111.03 311.806 111.051 311.849 111.051L311.871 111.03ZM245.726 74.0281L307.356 108.585L302.754 107.081L245.244 74.8429L245.726 74.049V74.0281Z" fill="#021433"/>
<path d="M245.508 62.9984L133.424 1.48926L57.7447 127.203L169.828 188.733L245.508 62.9984Z" fill="#FEC93B"/>
<path d="M245.508 63.0766L234.878 80.7312L205.816 41.2852L245.508 63.0766Z" fill="#FEC93B"/>
<path d="M169.831 188.962L57.7469 127.453L58.9962 125.385L170.992 187.019L169.831 188.962Z" fill="#031231"/>
<path d="M169.822 189.188C169.822 189.188 169.91 189.188 169.953 189.188C170.085 189.147 170.194 189.084 170.26 188.959L245.962 63.2242C246.093 62.9944 246.005 62.7019 245.786 62.5766L133.703 1.06743C133.593 1.00475 133.44 0.98386 133.33 1.02565C133.199 1.06743 133.089 1.13011 133.023 1.25547L57.3437 126.99C57.2122 127.22 57.2999 127.512 57.519 127.637L169.581 189.147C169.581 189.147 169.734 189.209 169.822 189.209V189.188ZM244.844 63.1616L169.647 188.06L58.4395 127.032L133.637 2.13298L244.844 63.1616Z" fill="#021433"/>
<path d="M141.675 173.749C141.851 173.749 142.026 173.666 142.114 173.498L217.727 47.9312C217.859 47.7014 217.771 47.4089 217.552 47.2835C217.311 47.1582 217.004 47.2417 216.873 47.4507L141.237 173.039C141.105 173.269 141.193 173.561 141.412 173.686C141.5 173.728 141.566 173.749 141.653 173.749H141.675Z" fill="#021433"/>
<path d="M112.094 157.664C112.269 157.664 112.444 157.58 112.532 157.413L188.212 31.6997C188.343 31.4699 188.255 31.1774 188.036 31.0521C187.795 30.9267 187.488 31.0103 187.357 31.2192L111.677 156.954C111.546 157.183 111.634 157.476 111.853 157.601C111.94 157.643 112.006 157.664 112.094 157.664Z" fill="#021433"/>
<path d="M85.1175 142.724C85.2928 142.724 85.4681 142.641 85.5558 142.474L161.126 17.0946C161.257 16.8648 161.17 16.5723 160.95 16.4469C160.709 16.3215 160.402 16.4051 160.271 16.6349L84.701 142.014C84.5695 142.244 84.6572 142.536 84.8764 142.662C84.964 142.704 85.0298 142.724 85.1175 142.724Z" fill="#021433"/>
<g clip-path="url(#clip1_1526_30803)">
<path d="M194.137 108.455L221.534 65.6025L223.378 68.6961L195.719 111.931C195.074 112.947 193.901 113.531 192.605 113.64L190.793 110.399C192.189 110.212 193.42 109.563 194.123 108.455L194.137 108.455Z" fill="#3CAEF2"/>
<path d="M222.109 64.7444C222.432 64.2297 222.604 63.6566 222.665 63.0669L223.704 64.8592C223.98 65.338 224.13 65.8534 224.169 66.3654C224.217 67.0257 224.057 67.6663 223.691 68.2201L223.398 68.6819L221.553 65.5883L222.096 64.7305L222.109 64.7444Z" fill="#297DCD"/>
<path d="M161.844 97.9963C161.844 97.9963 161.817 97.9686 161.804 97.9548L159.592 94.2049C159.592 94.2049 159.619 94.2326 159.618 94.246L161.83 98.0094L161.844 97.9963Z" fill="#277DCF"/>
<path d="M161.666 96.0186C161.666 96.0186 161.707 96.0467 161.72 96.0605L186.862 109.65C188.132 110.334 189.529 110.563 190.799 110.4L192.61 113.64C191.621 113.718 190.557 113.525 189.574 112.998L164.432 99.4086C163.762 99.0525 163.209 98.552 162.784 97.9477L161.652 96.0316L161.666 96.0186Z" fill="#277DCF"/>
<path d="M188.064 46.334C189.207 44.5395 191.961 44.0569 194.201 45.2665L219.343 58.8563C220.285 59.355 221.011 60.1161 221.385 60.9878C221.554 61.3558 221.638 61.7483 221.668 62.1256C221.716 62.7858 221.541 63.4395 221.189 64.0071L193.236 107.717C192.093 109.512 189.339 109.994 187.099 108.785L161.957 95.195C161.015 94.6829 160.289 93.9352 159.914 93.077C159.461 92.0551 159.539 90.9549 160.111 90.0577L188.064 46.334ZM162.027 91.3653C162.047 91.6213 162.107 91.892 162.224 92.1509C162.496 92.7641 162.993 93.2898 163.634 93.6451L188.243 106.963C189.568 107.689 191.133 107.426 191.792 106.397L218.984 63.8472C219.337 63.2796 219.373 62.5816 219.076 61.9004C218.804 61.2873 218.307 60.7616 217.666 60.4063L193.057 47.1013C191.732 46.3895 190.167 46.6387 189.508 47.6677L162.316 90.2041C162.096 90.5471 161.999 90.9476 162.027 91.3653Z" fill="#C7F2F9"/>
<path d="M194.422 44.3985L219.564 57.9883C220.657 58.5722 221.504 59.431 222.055 60.429C222.137 60.4852 222.204 60.5678 222.257 60.6501L224.559 64.6044C225.4 66.0816 225.416 67.7089 224.625 68.9626L196.658 112.672C195.31 114.77 192.054 115.318 189.377 113.867L164.235 100.277C163.361 99.8076 162.591 99.1258 161.994 98.261L161.836 98.0008L159.624 94.2374C159.624 94.2374 159.598 94.2097 159.598 94.1963C159.359 93.8665 159.148 93.5241 158.992 93.1699C158.773 92.6658 158.651 92.1379 158.612 91.6392C158.556 90.8039 158.749 90.003 159.189 89.3035L187.142 45.5932C188.476 43.4818 191.746 42.9473 194.409 44.3847L194.422 44.3985ZM164.458 99.4101L189.6 113C190.57 113.526 191.634 113.719 192.637 113.642C193.933 113.532 195.091 112.962 195.751 111.933L223.397 68.684L223.69 68.2221C224.042 67.6679 224.202 67.0139 224.168 66.3675C224.129 65.8554 223.979 65.34 223.703 64.8612L222.664 63.0689C222.603 63.6587 222.431 64.2317 222.108 64.7464L221.566 65.6042L194.155 108.457C193.452 109.565 192.221 110.214 190.825 110.401C189.555 110.565 188.158 110.348 186.889 109.652L161.747 96.062C161.747 96.062 161.706 96.0339 161.692 96.0201L162.825 97.9362C163.249 98.5539 163.803 99.041 164.473 99.397L164.458 99.4101ZM159.913 93.0629C160.288 93.9211 161.014 94.6822 161.956 95.1809L187.098 108.784C189.337 109.994 192.091 109.511 193.234 107.717L221.188 64.0064C221.554 63.4392 221.714 62.7851 221.666 62.1249C221.637 61.7476 221.553 61.3551 221.384 60.9871C221.009 60.1289 220.283 59.3677 219.341 58.8556L194.199 45.2658C191.96 44.0562 189.206 44.5388 188.063 46.3333L160.11 90.0436C159.538 90.9408 159.46 92.041 159.913 93.0629Z" fill="#021433"/>
<path d="M189.499 47.6654C190.159 46.6229 191.723 46.3737 193.048 47.0989L217.644 60.3901C218.285 60.7453 218.796 61.2715 219.054 61.8842C219.351 62.5653 219.314 63.2768 218.962 63.831L191.756 106.38C191.096 107.423 189.531 107.672 188.207 106.947L163.598 93.6419C162.956 93.3 162.459 92.7609 162.188 92.1477C162.071 91.8888 162.01 91.6181 161.991 91.3621C161.963 90.9444 162.06 90.544 162.279 90.2009L189.499 47.6654ZM164.066 92.9164L166.538 94.2539L171.263 96.8149L173.735 98.1525C174.841 98.7502 176.197 98.5217 176.754 97.6375L178.014 95.6717L180.417 91.9115L181.677 89.9457C182.234 89.0615 181.8 87.8654 180.694 87.2677L178.222 85.9302L173.497 83.3692L171.026 82.0316C169.919 81.4339 168.564 81.6624 168.007 82.5466L166.747 84.5124L164.344 88.2726L163.084 90.2518C162.527 91.136 162.96 92.3321 164.066 92.9298L164.066 92.9164ZM191.189 105.436L192.449 103.47L194.852 99.7098L196.112 97.7441C196.669 96.8599 196.236 95.6638 195.129 95.0661L192.658 93.7285L187.933 91.1675L185.461 89.83C184.355 89.2323 182.999 89.4608 182.442 90.345L181.182 92.3108L178.779 96.071L177.519 98.0367C176.962 98.921 177.395 100.117 178.502 100.715L180.973 102.052L185.698 104.613L188.17 105.951C189.276 106.549 190.632 106.32 191.189 105.436ZM189.943 48.1089L188.683 50.0746L186.28 53.8348L185.021 55.8006C184.464 56.6848 184.897 57.8809 186.003 58.4786L188.475 59.8161L193.2 62.3772L195.672 63.7147C196.778 64.3124 198.133 64.0839 198.691 63.1997L199.95 61.2339L202.353 57.4737L203.613 55.5079C204.17 54.6237 203.737 53.4276 202.631 52.83L200.159 51.4924L195.434 48.9314L192.962 47.5938C191.856 46.9962 190.5 47.2246 189.943 48.1089ZM171.378 81.4505L173.85 82.7881L178.575 85.3491L181.047 86.6866C182.153 87.2843 183.509 87.0558 184.066 86.1716L185.326 84.2059L187.728 80.4456L188.988 78.4799C189.545 77.5957 189.112 76.3996 188.006 75.8019L185.534 74.4643L180.809 71.9033L178.337 70.5658C177.231 69.9681 175.875 70.1966 175.318 71.0808L174.058 73.0466L171.656 76.8068L170.396 78.7726C169.839 79.6568 170.272 80.8529 171.378 81.4505ZM198.501 93.9566L199.761 91.9908L202.164 88.2306L203.424 86.2648C203.981 85.3806 203.548 84.1845 202.442 83.5868L199.97 82.2493L195.245 79.6883L192.773 78.3507C191.667 77.753 190.311 77.9815 189.754 78.8657L188.494 80.8315L186.091 84.5917L184.831 86.5709C184.274 87.4551 184.707 88.6512 185.813 89.2489L188.285 90.5865L193.01 93.1475L195.482 94.485C196.588 95.0827 197.944 94.8542 198.501 93.97L198.501 93.9566ZM209.74 72.0937L207.268 70.7562L202.544 68.1952L200.072 66.8576C198.966 66.2599 197.61 66.4884 197.053 67.3726L195.793 69.3384L193.39 73.0986L192.13 75.0644C191.573 75.9486 192.006 77.1447 193.113 77.7424L195.584 79.0799L200.309 81.6409L202.781 82.9785C203.887 83.5762 205.243 83.3477 205.8 82.4635L207.06 80.4977L209.463 76.7375L210.723 74.7717C211.28 73.8875 210.846 72.6914 209.74 72.0937ZM178.691 69.9579L181.163 71.2954L185.888 73.8564L188.359 75.194C189.466 75.7916 190.821 75.5632 191.378 74.6789L192.639 72.6997L195.042 68.9395L196.301 66.9738C196.858 66.0896 196.425 64.8935 195.319 64.2958L192.847 62.9582L188.122 60.3972L185.65 59.0597C184.544 58.462 183.189 58.6905 182.631 59.5747L181.372 61.5404L178.969 65.3007L177.709 67.2664C177.152 68.1506 177.585 69.3467 178.691 69.9444L178.691 69.9579ZM217.066 60.6149L214.595 59.2773L209.87 56.7163L207.398 55.3788C206.292 54.7811 204.936 55.0096 204.379 55.8938L203.119 57.8596L200.716 61.6198L199.456 63.5855C198.899 64.4698 199.332 65.6659 200.439 66.2635L202.91 67.6011L207.635 70.1621L210.107 71.4996C211.213 72.0973 212.569 71.8688 213.126 70.9846L214.386 69.0189L216.789 65.2586L218.049 63.2929C218.606 62.4087 218.173 61.2126 217.066 60.6149Z" fill="#021433"/>
<path d="M218.096 63.309L216.836 65.2748L214.433 69.035L213.174 71.0008C212.616 71.885 211.261 72.1135 210.155 71.5158L207.683 70.1782L202.958 67.6172L200.486 66.2797C199.38 65.682 198.933 64.4855 199.504 63.6017L200.763 61.6359L203.166 57.8757L204.426 55.9099C204.983 55.0257 206.339 54.7972 207.445 55.3949L209.917 56.7325L214.642 59.2935L217.114 60.631C218.22 61.2287 218.667 62.4252 218.096 63.309Z" fill="#3CAEF2"/>
<path d="M209.469 76.7543L207.066 80.5145L205.806 82.4802C205.249 83.3645 203.894 83.5929 202.787 82.9953L200.316 81.6577L195.591 79.0967L193.119 77.7592C192.013 77.1615 191.565 75.965 192.136 75.0812L193.396 73.1154L195.799 69.3552L197.059 67.3894C197.616 66.5052 198.972 66.2767 200.078 66.8744L202.55 68.2119L207.275 70.773L209.746 72.1105C210.853 72.7082 211.3 73.9047 210.729 74.7885L209.469 76.7543Z" fill="#3CAEF2"/>
<path d="M193.003 93.1389L188.278 90.5779L185.806 89.2404C184.7 88.6427 184.252 87.4462 184.823 86.5624L186.084 84.5832L188.486 80.823L189.746 78.8572C190.303 77.973 191.659 77.7445 192.765 78.3422L195.237 79.6797L199.962 82.2407L202.434 83.5783C203.54 84.176 203.987 85.3725 203.416 86.2563L202.156 88.222L199.754 91.9823L198.494 93.948C197.937 94.8322 196.581 95.0607 195.475 94.463L193.003 93.1255L193.003 93.1389Z" fill="#3CAEF2"/>
<path d="M185.698 104.608L180.973 102.047L178.502 100.709C177.395 100.112 176.948 98.9152 177.519 98.0314L178.779 96.0656L181.182 92.3054L182.442 90.3396C182.999 89.4554 184.354 89.2269 185.461 89.8246L187.932 91.1621L192.657 93.7232L195.129 95.0607C196.235 95.6584 196.683 96.8549 196.112 97.7387L194.852 99.7045L192.449 103.465L191.189 105.43C190.632 106.315 189.276 106.543 188.17 105.945L185.698 104.608Z" fill="#3CAEF2"/>
<path d="M195.448 48.9366L200.173 51.4976L202.645 52.8351C203.751 53.4328 204.198 54.6293 203.627 55.5131L202.367 57.4789L199.965 61.2391L198.705 63.2049C198.148 64.0891 196.792 64.3176 195.686 63.7199L193.214 62.3823L188.489 59.8213L186.017 58.4838C184.911 57.8861 184.464 56.6896 185.035 55.8058L186.295 53.84L188.697 50.0798L189.957 48.114C190.514 47.2298 191.87 47.0013 192.976 47.599L195.448 48.9366Z" fill="#3CAEF2"/>
<path d="M177.723 67.2738L178.983 65.308L181.385 61.5478L182.645 59.582C183.202 58.6978 184.558 58.4693 185.664 59.067L188.136 60.4046L192.861 62.9656L195.333 64.3031C196.439 64.9008 196.886 66.0973 196.315 66.9811L195.055 68.9469L192.653 72.7071L191.392 74.6863C190.835 75.5705 189.479 75.799 188.373 75.2013L185.901 73.8638L181.176 71.3028L178.705 69.9652C177.598 69.3675 177.151 68.171 177.722 67.2872L177.723 67.2738Z" fill="#3CAEF2"/>
<path d="M170.386 78.7569L171.646 76.7912L174.049 73.031L175.309 71.0652C175.866 70.181 177.222 69.9525 178.328 70.5502L180.8 71.8877L185.525 74.4487L187.996 75.7863C189.103 76.384 189.55 77.5805 188.979 78.4643L187.719 80.43L185.316 84.1903L184.056 86.156C183.499 87.0402 182.144 87.2687 181.037 86.671L178.566 85.3335L173.841 82.7725L171.369 81.4349C170.263 80.8373 169.815 79.6407 170.386 78.7569Z" fill="#3CAEF2"/>
<path d="M163.081 90.2362L164.342 88.257L166.744 84.4968L168.004 82.531C168.561 81.6468 169.917 81.4183 171.023 82.016L173.495 83.3536L178.22 85.9146L180.692 87.2521C181.798 87.8498 182.245 89.0463 181.674 89.9301L180.414 91.8959L178.011 95.6561L176.752 97.6219C176.195 98.5061 174.839 98.7345 173.733 98.1369L171.261 96.7993L166.536 94.2383L164.064 92.9008C162.958 92.3031 162.511 91.1066 163.082 90.2228L163.081 90.2362Z" fill="#3CAEF2"/>
</g>
<g clip-path="url(#clip2_1526_30803)">
<path d="M158.887 165.427L186.283 122.573L188.127 125.667L160.469 168.903C159.824 169.919 158.651 170.502 157.355 170.611L155.543 167.371C156.939 167.184 158.17 166.535 158.873 165.426L158.887 165.427Z" fill="#3CAEF2"/>
<path d="M186.797 121.713C187.119 121.198 187.291 120.625 187.352 120.036L188.391 121.828C188.667 122.307 188.817 122.822 188.856 123.334C188.904 123.994 188.744 124.635 188.378 125.189L188.085 125.651L186.241 122.557L186.783 121.699L186.797 121.713Z" fill="#297DCD"/>
<path d="M126.586 154.969C126.586 154.969 126.559 154.941 126.546 154.927L124.334 151.178C124.334 151.178 124.361 151.205 124.36 151.219L126.572 154.982L126.586 154.969Z" fill="#277DCF"/>
<path d="M126.384 152.997C126.384 152.997 126.425 153.025 126.438 153.039L151.581 166.628C152.851 167.311 154.247 167.541 155.517 167.377L157.329 170.618C156.34 170.696 155.276 170.503 154.292 169.976L129.15 156.387C128.481 156.031 127.927 155.53 127.502 154.926L126.37 153.01L126.384 152.997Z" fill="#277DCF"/>
<path d="M152.781 103.305C153.924 101.511 156.678 101.028 158.918 102.238L184.06 115.827C185.003 116.326 185.728 117.087 186.103 117.958C186.271 118.327 186.356 118.719 186.385 119.096C186.433 119.757 186.259 120.41 185.907 120.978L157.955 164.689C156.812 166.483 154.058 166.966 151.818 165.756L126.676 152.167C125.733 151.655 125.007 150.907 124.633 150.049C124.18 149.027 124.257 147.927 124.829 147.03L152.781 103.305ZM126.746 148.337C126.765 148.594 126.826 148.864 126.942 149.123C127.214 149.736 127.711 150.262 128.353 150.617L152.962 163.935C154.286 164.66 155.851 164.398 156.511 163.368L183.702 120.818C184.054 120.25 184.091 119.552 183.793 118.871C183.522 118.258 183.025 117.732 182.383 117.377L157.774 104.073C156.449 103.361 154.884 103.61 154.225 104.639L127.034 147.176C126.814 147.519 126.718 147.92 126.746 148.337Z" fill="#C7F2F9"/>
<path d="M159.147 101.367L184.289 114.956C185.382 115.54 186.229 116.399 186.78 117.397C186.862 117.453 186.929 117.536 186.982 117.618L189.284 121.572C190.125 123.049 190.142 124.677 189.35 125.93L161.384 169.641C160.037 171.739 156.78 172.287 154.104 170.836L128.961 157.247C128.087 156.777 127.317 156.095 126.72 155.23L126.562 154.97L124.35 151.207C124.35 151.207 124.324 151.179 124.324 151.166C124.085 150.836 123.873 150.494 123.718 150.139C123.499 149.635 123.377 149.107 123.338 148.609C123.282 147.773 123.475 146.972 123.915 146.273L151.866 102.562C153.2 100.45 156.47 99.9159 159.133 101.353L159.147 101.367ZM129.184 156.379L154.327 169.969C155.296 170.495 156.36 170.688 157.363 170.61C158.66 170.501 159.818 169.93 160.477 168.901L188.122 125.652L188.415 125.19C188.767 124.636 188.927 123.982 188.893 123.335C188.854 122.823 188.704 122.308 188.428 121.829L187.389 120.037C187.328 120.626 187.156 121.2 186.834 121.714L186.291 122.572L158.882 165.425C158.178 166.534 156.948 167.183 155.552 167.37C154.281 167.534 152.885 167.317 151.615 166.621L126.473 153.031C126.473 153.031 126.432 153.003 126.418 152.989L127.551 154.906C127.975 155.523 128.529 156.01 129.199 156.366L129.184 156.379ZM124.639 150.032C125.014 150.891 125.74 151.652 126.682 152.15L151.824 165.753C154.064 166.962 156.818 166.48 157.961 164.685L185.913 120.974C186.279 120.407 186.439 119.753 186.391 119.093C186.362 118.715 186.278 118.323 186.109 117.955C185.734 117.097 185.008 116.336 184.066 115.824L158.924 102.234C156.684 101.025 153.93 101.507 152.787 103.302L124.835 147.013C124.264 147.91 124.186 149.01 124.639 150.032Z" fill="#021433"/>
<path d="M154.255 104.638C154.915 103.595 156.48 103.346 157.804 104.071L182.4 117.362C183.042 117.717 183.553 118.243 183.81 118.856C184.108 119.537 184.071 120.248 183.719 120.803L156.514 163.353C155.854 164.395 154.289 164.644 152.965 163.919L128.355 150.615C127.713 150.273 127.217 149.734 126.945 149.121C126.828 148.862 126.768 148.591 126.748 148.335C126.72 147.918 126.817 147.517 127.037 147.174L154.255 104.638ZM128.824 149.889L131.296 151.227L136.021 153.788L138.493 155.125C139.599 155.723 140.954 155.494 141.512 154.61L142.771 152.644L145.174 148.884L146.434 146.918C146.991 146.034 146.558 144.838 145.451 144.24L142.98 142.903L138.254 140.342L135.783 139.005C134.676 138.407 133.321 138.635 132.764 139.52L131.504 141.485L129.101 145.246L127.841 147.225C127.284 148.109 127.717 149.305 128.823 149.903L128.824 149.889ZM155.947 162.408L157.207 160.442L159.609 156.682L160.869 154.716C161.426 153.832 160.993 152.636 159.887 152.038L157.415 150.701L152.69 148.14L150.218 146.802C149.112 146.205 147.756 146.433 147.199 147.318L145.939 149.283L143.537 153.044L142.277 155.009C141.72 155.894 142.153 157.09 143.259 157.687L145.731 159.025L150.456 161.586L152.928 162.923C154.034 163.521 155.39 163.292 155.947 162.408ZM154.699 105.081L153.439 107.047L151.037 110.807L149.777 112.773C149.22 113.657 149.653 114.853 150.759 115.451L153.231 116.789L157.956 119.349L160.428 120.687C161.534 121.285 162.89 121.056 163.447 120.172L164.707 118.206L167.11 114.446L168.369 112.48C168.926 111.596 168.493 110.4 167.387 109.802L164.915 108.465L160.19 105.904L157.718 104.566C156.612 103.969 155.256 104.197 154.699 105.081ZM136.135 138.423L138.607 139.761L143.332 142.322L145.804 143.659C146.91 144.257 148.266 144.028 148.823 143.144L150.083 141.178L152.485 137.418L153.745 135.452C154.302 134.568 153.869 133.372 152.763 132.774L150.291 131.437L145.566 128.876L143.094 127.538C141.988 126.941 140.632 127.169 140.075 128.054L138.815 130.019L136.413 133.78L135.153 135.745C134.596 136.63 135.029 137.826 136.135 138.423ZM163.259 150.929L164.519 148.963L166.921 145.203L168.181 143.237C168.738 142.353 168.305 141.157 167.199 140.559L164.727 139.221L160.002 136.661L157.53 135.323C156.424 134.725 155.068 134.954 154.511 135.838L153.251 137.804L150.848 141.564L149.588 143.543C149.031 144.428 149.464 145.624 150.571 146.221L153.043 147.559L157.768 150.12L160.239 151.457C161.346 152.055 162.701 151.826 163.258 150.942L163.259 150.929ZM174.497 129.066L172.025 127.728L167.3 125.167L164.828 123.83C163.722 123.232 162.366 123.461 161.809 124.345L160.55 126.311L158.147 130.071L156.887 132.037C156.33 132.921 156.763 134.117 157.87 134.715L160.341 136.052L165.066 138.613L167.538 139.951C168.644 140.548 170 140.32 170.557 139.435L171.817 137.47L174.22 133.709L175.479 131.744C176.037 130.859 175.603 129.663 174.497 129.066ZM143.448 126.931L145.919 128.268L150.644 130.829L153.116 132.166C154.223 132.764 155.578 132.536 156.135 131.651L157.396 129.672L159.798 125.912L161.058 123.946C161.615 123.062 161.182 121.866 160.076 121.268L157.604 119.931L152.879 117.37L150.407 116.032C149.301 115.435 147.945 115.663 147.388 116.547L146.128 118.513L143.725 122.273L142.466 124.239C141.908 125.123 142.342 126.319 143.448 126.917L143.448 126.931ZM181.823 117.587L179.351 116.249L174.626 113.688L172.154 112.351C171.048 111.753 169.692 111.982 169.135 112.866L167.875 114.832L165.473 118.592L164.213 120.558C163.656 121.442 164.089 122.638 165.195 123.236L167.667 124.573L172.392 127.134L174.864 128.472C175.97 129.069 177.326 128.841 177.883 127.956L179.143 125.991L181.545 122.23L182.805 120.265C183.362 119.38 182.929 118.184 181.823 117.587Z" fill="#021433"/>
<path d="M182.775 120.282L181.516 122.247L179.113 126.008L177.853 127.974C177.296 128.858 175.94 129.086 174.834 128.489L172.362 127.151L167.637 124.59L165.165 123.253C164.059 122.655 163.612 121.459 164.183 120.575L165.443 118.609L167.845 114.849L169.105 112.883C169.662 111.999 171.018 111.77 172.124 112.368L174.596 113.705L179.321 116.266L181.793 117.604C182.899 118.201 183.346 119.398 182.775 120.282Z" fill="#3CAEF2"/>
<path d="M174.18 133.729L171.777 137.489L170.517 139.455C169.96 140.339 168.604 140.568 167.498 139.97L165.026 138.633L160.301 136.072L157.83 134.734C156.723 134.137 156.276 132.94 156.847 132.056L158.107 130.09L160.51 126.33L161.769 124.364C162.326 123.48 163.682 123.252 164.788 123.849L167.26 125.187L171.985 127.748L174.457 129.085C175.563 129.683 176.01 130.879 175.439 131.763L174.18 133.729Z" fill="#3CAEF2"/>
<path d="M157.737 150.112L153.012 147.551L150.54 146.213C149.434 145.616 148.987 144.419 149.558 143.536L150.818 141.556L153.22 137.796L154.48 135.83C155.037 134.946 156.393 134.717 157.499 135.315L159.971 136.653L164.696 139.213L167.168 140.551C168.274 141.149 168.721 142.345 168.15 143.229L166.891 145.195L164.488 148.955L163.228 150.921C162.671 151.805 161.315 152.034 160.209 151.436L157.737 150.098L157.737 150.112Z" fill="#3CAEF2"/>
<path d="M150.409 161.572L145.684 159.011L143.212 157.674C142.106 157.076 141.659 155.88 142.23 154.996L143.49 153.03L145.892 149.27L147.152 147.304C147.709 146.42 149.065 146.191 150.171 146.789L152.643 148.126L157.368 150.687L159.84 152.025C160.946 152.622 161.393 153.819 160.822 154.703L159.563 156.668L157.16 160.429L155.9 162.394C155.343 163.279 153.987 163.507 152.881 162.91L150.409 161.572Z" fill="#3CAEF2"/>
<path d="M160.182 105.911L164.907 108.472L167.379 109.81C168.485 110.407 168.932 111.604 168.361 112.488L167.102 114.454L164.699 118.214L163.439 120.18C162.882 121.064 161.526 121.292 160.42 120.695L157.948 119.357L153.223 116.796L150.751 115.459C149.645 114.861 149.198 113.665 149.769 112.781L151.029 110.815L153.431 107.055L154.691 105.089C155.248 104.205 156.604 103.976 157.71 104.574L160.182 105.911Z" fill="#3CAEF2"/>
<path d="M142.433 124.251L143.693 122.285L146.096 118.525L147.356 116.559C147.913 115.675 149.268 115.446 150.375 116.044L152.847 117.381L157.572 119.942L160.043 121.28C161.15 121.877 161.597 123.074 161.026 123.958L159.766 125.923L157.363 129.684L156.103 131.663C155.546 132.547 154.19 132.776 153.084 132.178L150.612 130.841L145.887 128.28L143.415 126.942C142.309 126.345 141.862 125.148 142.433 124.264L142.433 124.251Z" fill="#3CAEF2"/>
<path d="M135.136 135.736L136.396 133.77L138.799 130.01L140.058 128.044C140.615 127.16 141.971 126.931 143.077 127.529L145.549 128.866L150.274 131.427L152.746 132.765C153.852 133.362 154.3 134.559 153.729 135.443L152.469 137.409L150.066 141.169L148.806 143.135C148.249 144.019 146.894 144.247 145.787 143.65L143.315 142.312L138.59 139.751L136.119 138.414C135.012 137.816 134.565 136.62 135.136 135.736Z" fill="#3CAEF2"/>
<path d="M127.784 147.219L129.044 145.24L131.447 141.48L132.707 139.514C133.264 138.63 134.62 138.401 135.726 138.999L138.198 140.336L142.923 142.897L145.395 144.235C146.501 144.832 146.948 146.029 146.377 146.913L145.117 148.878L142.715 152.639L141.455 154.604C140.898 155.489 139.542 155.717 138.436 155.119L135.964 153.782L131.239 151.221L128.767 149.884C127.661 149.286 127.214 148.089 127.785 147.206L127.784 147.219Z" fill="#3CAEF2"/>
</g>
<g clip-path="url(#clip3_1526_30803)">
<path d="M142.207 81.2062L169.603 38.3525L171.447 41.4461L143.789 84.6818C143.144 85.6979 141.971 86.2814 140.675 86.3907L138.863 83.1502C140.259 82.9632 141.49 82.3142 142.193 81.2058L142.207 81.2062Z" fill="#3CAEF2"/>
<path d="M170.133 37.4964C170.455 36.9817 170.627 36.4086 170.688 35.8189L171.727 37.6111C172.003 38.0899 172.153 38.6053 172.192 39.1174C172.24 39.7776 172.08 40.4182 171.714 40.972L171.421 41.4339L169.577 38.3403L170.119 37.4826L170.133 37.4964Z" fill="#297DCD"/>
<path d="M109.907 70.7444C109.907 70.7444 109.88 70.7167 109.866 70.7028L107.654 66.953C107.654 66.953 107.681 66.9807 107.681 66.9941L109.892 70.7574L109.907 70.7444Z" fill="#277DCF"/>
<path d="M109.705 68.7714C109.705 68.7714 109.745 68.7995 109.759 68.8133L134.901 82.4024C136.171 83.0856 137.568 83.3155 138.838 83.1516L140.649 86.3921C139.66 86.4702 138.596 86.2772 137.613 85.7504L112.471 72.1613C111.801 71.8052 111.248 71.3047 110.823 70.7004L109.69 68.7844L109.705 68.7714Z" fill="#277DCF"/>
<path d="M136.102 19.0809C137.244 17.2864 139.998 16.8038 142.238 18.0133L167.38 31.6024C168.323 32.1011 169.049 32.8622 169.423 33.7339C169.592 34.1019 169.676 34.4943 169.705 34.8717C169.753 35.5319 169.579 36.1855 169.227 36.7532L141.275 80.4642C140.132 82.2587 137.378 82.7413 135.138 81.5318L109.996 67.9426C109.054 67.4305 108.328 66.6829 107.953 65.8247C107.5 64.8028 107.578 63.7026 108.149 62.8054L136.102 19.0809ZM110.066 64.1129C110.085 64.3689 110.146 64.6396 110.263 64.8985C110.534 65.5117 111.031 66.0374 111.673 66.3926L136.282 79.7104C137.607 80.4356 139.172 80.173 139.831 79.1439L167.022 36.5934C167.374 36.0257 167.411 35.3277 167.114 34.6466C166.842 34.0334 166.345 33.5077 165.703 33.1525L141.094 19.8481C139.769 19.1364 138.204 19.3855 137.545 20.4146L110.354 62.9517C110.135 63.2947 110.038 63.6952 110.066 64.1129Z" fill="#C7F2F9"/>
<path d="M142.475 17.1474L167.617 30.7365C168.71 31.3203 169.558 32.1791 170.109 33.1771C170.19 33.2333 170.257 33.3159 170.31 33.3982L172.612 37.3524C173.454 38.8296 173.47 40.4569 172.678 41.7106L144.712 85.4212C143.365 87.5189 140.108 88.0672 137.432 86.6161L112.29 73.0269C111.415 72.5572 110.646 71.8755 110.048 71.0106L109.89 70.7504L107.679 66.9871C107.679 66.9871 107.652 66.9595 107.652 66.946C107.413 66.6162 107.202 66.2738 107.046 65.9196C106.827 65.4156 106.705 64.8876 106.666 64.3889C106.61 63.5537 106.803 62.7527 107.243 62.0532L135.195 18.3422C136.529 16.2307 139.798 15.6962 142.462 17.1335L142.475 17.1474ZM112.513 72.1596L137.655 85.7488C138.624 86.2751 139.688 86.4682 140.692 86.3905C141.988 86.2812 143.146 85.7107 143.805 84.6816L171.45 41.432L171.743 40.9702C172.095 40.4159 172.256 39.7619 172.221 39.1155C172.182 38.6034 172.032 38.0881 171.756 37.6093L170.717 35.817C170.656 36.4068 170.484 36.9798 170.162 37.4945L169.619 38.3523L142.21 81.2056C141.506 82.314 140.276 82.963 138.88 83.15C137.61 83.3139 136.213 83.0975 134.943 82.4008L109.801 68.8117C109.801 68.8117 109.76 68.7836 109.747 68.7697L110.879 70.6858C111.304 71.3035 111.858 71.7906 112.527 72.1466L112.513 72.1596ZM107.967 65.8126C108.342 66.6708 109.068 67.4319 110.01 67.9305L135.152 81.5331C137.392 82.7427 140.146 82.26 141.289 80.4655L169.241 36.7545C169.607 36.1873 169.767 35.5332 169.719 34.873C169.69 34.4957 169.606 34.1032 169.437 33.7352C169.062 32.877 168.337 32.1159 167.394 31.6038L142.252 18.0146C140.012 16.8051 137.258 17.2877 136.115 19.0822L108.163 62.7933C107.592 63.6905 107.514 64.7907 107.967 65.8126Z" fill="#021433"/>
<path d="M137.575 20.4181C138.235 19.3755 139.8 19.1264 141.124 19.8515L165.72 33.142C166.362 33.4973 166.873 34.0234 167.131 34.6361C167.428 35.3173 167.391 36.0287 167.039 36.583L139.834 79.1331C139.174 80.1756 137.61 80.4248 136.285 79.6996L111.676 66.3952C111.034 66.0534 110.537 65.5143 110.265 64.9011C110.149 64.6422 110.088 64.3715 110.069 64.1155C110.041 63.6978 110.137 63.2974 110.357 62.9543L137.575 20.4181ZM112.144 65.6697L114.616 67.0072L119.341 69.5681L121.813 70.9056C122.919 71.5032 124.275 71.2747 124.832 70.3905L126.092 68.4247L128.494 64.6644L129.754 62.6986C130.311 61.8144 129.878 60.6183 128.772 60.0206L126.3 58.6832L121.575 56.1223L119.103 54.7848C117.997 54.1871 116.641 54.4156 116.084 55.2999L114.824 57.2657L112.422 61.026L111.161 63.0052C110.604 63.8894 111.038 65.0855 112.144 65.6831L112.144 65.6697ZM139.267 78.1885L140.527 76.2227L142.93 72.4624L144.19 70.4966C144.747 69.6124 144.313 68.4163 143.207 67.8186L140.735 66.4811L136.01 63.9203L133.538 62.5828C132.432 61.9851 131.076 62.2136 130.519 63.0979L129.26 65.0637L126.857 68.8239L125.597 70.7897C125.04 71.674 125.473 72.87 126.58 73.4677L129.051 74.8052L133.776 77.3661L136.248 78.7036C137.355 79.3012 138.71 79.0727 139.267 78.1885ZM138.019 20.8615L136.76 22.8273L134.357 26.5876L133.097 28.5534C132.54 29.4376 132.974 30.6337 134.08 31.2314L136.552 32.5689L141.277 35.1298L143.748 36.4672C144.855 37.0649 146.21 36.8364 146.767 35.9521L148.027 33.9863L150.43 30.2261L151.69 28.2603C152.247 27.376 151.813 26.18 150.707 25.5823L148.235 24.2448L143.51 21.6839L141.039 20.3464C139.932 19.7488 138.577 19.9773 138.019 20.8615ZM119.456 54.2037L121.927 55.5412L126.652 58.1021L129.124 59.4396C130.231 60.0372 131.586 59.8087 132.143 58.9245L133.403 56.9587L135.806 53.1984L137.066 51.2326C137.623 50.3484 137.189 49.1523 136.083 48.5546L133.611 47.2171L128.886 44.6562L126.414 43.3188C125.308 42.7211 123.952 42.9496 123.395 43.8339L122.136 45.7997L119.733 49.5599L118.473 51.5257C117.916 52.41 118.349 53.606 119.456 54.2037ZM146.579 66.709L147.839 64.7432L150.242 60.9829L151.501 59.0171C152.059 58.1329 151.625 56.9368 150.519 56.3392L148.047 55.0017L143.322 52.4408L140.85 51.1033C139.744 50.5057 138.388 50.7342 137.831 51.6184L136.571 53.5842L134.169 57.3445L132.909 59.3237C132.351 60.208 132.785 61.404 133.891 62.0017L136.363 63.3392L141.088 65.9001L143.56 67.2375C144.666 67.8352 146.022 67.6067 146.579 66.7225L146.579 66.709ZM157.817 44.8459L155.346 43.5084L150.62 40.9475L148.149 39.61C147.042 39.0124 145.687 39.2409 145.13 40.1251L143.87 42.0909L141.467 45.8512L140.207 47.817C139.65 48.7012 140.084 49.8973 141.19 50.495L143.662 51.8324L148.387 54.3933L150.859 55.7308C151.965 56.3285 153.32 56.1 153.878 55.2157L155.137 53.2499L157.54 49.4897L158.8 47.5239C159.357 46.6396 158.924 45.4435 157.817 44.8459ZM126.768 42.7108L129.24 44.0483L133.965 46.6092L136.437 47.9467C137.543 48.5443 138.898 48.3158 139.456 47.4316L140.716 45.4524L143.119 41.6921L144.378 39.7263C144.935 38.8421 144.502 37.646 143.396 37.0483L140.924 35.7108L136.199 33.1499L133.727 31.8125C132.621 31.2148 131.265 31.4433 130.708 32.3275L129.448 34.2933L127.046 38.0536L125.786 40.0194C125.229 40.9037 125.662 42.0997 126.768 42.6974L126.768 42.7108ZM165.143 33.3669L162.671 32.0294L157.946 29.4685L155.474 28.131C154.368 27.5334 153.012 27.7619 152.455 28.6461L151.196 30.6119L148.793 34.3722L147.533 36.338C146.976 37.2222 147.409 38.4183 148.516 39.0159L150.987 40.3534L155.712 42.9143L158.184 44.2518C159.291 44.8494 160.646 44.6209 161.203 43.7367L162.463 41.7709L164.866 38.0106L166.126 36.0448C166.683 35.1606 166.249 33.9645 165.143 33.3669Z" fill="#021433"/>
<path d="M166.111 36.059L164.852 38.0248L162.449 41.7851L161.189 43.7509C160.632 44.6351 159.276 44.8636 158.17 44.266L155.698 42.9285L150.973 40.3676L148.501 39.0301C147.395 38.4325 146.948 37.236 147.519 36.3522L148.779 34.3864L151.181 30.6261L152.441 28.6603C152.998 27.776 154.354 27.5475 155.46 28.1452L157.932 29.4827L162.657 32.0436L165.129 33.381C166.235 33.9787 166.682 35.1752 166.111 36.059Z" fill="#3CAEF2"/>
<path d="M157.531 49.5062L155.129 53.2665L153.869 55.2323C153.312 56.1166 151.956 56.3451 150.85 55.7474L148.378 54.4099L143.653 51.849L141.181 50.5116C140.075 49.9139 139.628 48.7174 140.199 47.8336L141.458 45.8678L143.861 42.1075L145.121 40.1417C145.678 39.2575 147.034 39.029 148.14 39.6266L150.612 40.9641L155.337 43.525L157.809 44.8625C158.915 45.4601 159.362 46.6566 158.791 47.5404L157.531 49.5062Z" fill="#3CAEF2"/>
<path d="M141.073 65.8892L136.348 63.3283L133.876 61.9908C132.77 61.3932 132.323 60.1967 132.894 59.3129L134.154 57.3336L136.556 53.5733L137.816 51.6075C138.373 50.7233 139.729 50.4948 140.835 51.0925L143.307 52.4299L148.032 54.9908L150.504 56.3283C151.61 56.926 152.057 58.1225 151.486 59.0063L150.227 60.9721L147.824 64.7324L146.564 66.6981C146.007 67.5824 144.651 67.8109 143.545 67.2132L141.073 65.8758L141.073 65.8892Z" fill="#3CAEF2"/>
<path d="M133.745 77.3474L129.02 74.7865L126.548 73.4491C125.442 72.8514 124.995 71.6549 125.566 70.7711L126.826 68.8053L129.228 65.045L130.488 63.0792C131.045 62.195 132.401 61.9665 133.507 62.5641L135.979 63.9016L140.704 66.4625L143.176 67.8C144.282 68.3976 144.729 69.5941 144.158 70.478L142.898 72.4437L140.496 76.204L139.236 78.1698C138.679 79.0541 137.323 79.2826 136.217 78.6849L133.745 77.3474Z" fill="#3CAEF2"/>
<path d="M143.534 21.6829L148.259 24.2438L150.73 25.5812C151.837 26.1789 152.284 27.3754 151.713 28.2592L150.453 30.225L148.05 33.9853L146.791 35.9511C146.234 36.8353 144.878 37.0638 143.772 36.4662L141.3 35.1287L136.575 32.5678L134.103 31.2303C132.997 30.6327 132.55 29.4362 133.121 28.5523L134.38 26.5866L136.783 22.8263L138.043 20.8605C138.6 19.9762 139.956 19.7477 141.062 20.3454L143.534 21.6829Z" fill="#3CAEF2"/>
<path d="M125.762 40.0301L127.021 38.0643L129.424 34.304L130.684 32.3382C131.241 31.454 132.597 31.2255 133.703 31.8232L136.175 33.1606L140.9 35.7215L143.372 37.059C144.478 37.6567 144.925 38.8532 144.354 39.737L143.094 41.7028L140.692 45.4631L139.431 47.4423C138.874 48.3265 137.519 48.555 136.412 47.9574L133.94 46.6199L129.215 44.059L126.744 42.7215C125.637 42.1239 125.19 40.9274 125.761 40.0436L125.762 40.0301Z" fill="#3CAEF2"/>
<path d="M118.48 51.5133L119.74 49.5475L122.142 45.7872L123.402 43.8214C123.959 42.9372 125.315 42.7087 126.421 43.3063L128.893 44.6438L133.618 47.2047L136.09 48.5422C137.196 49.1398 137.643 50.3363 137.072 51.2201L135.813 53.1859L133.41 56.9462L132.15 58.912C131.593 59.7962 130.237 60.0248 129.131 59.4271L126.659 58.0896L121.934 55.5287L119.462 54.1912C118.356 53.5936 117.909 52.3971 118.48 51.5133Z" fill="#3CAEF2"/>
<path d="M111.136 62.9945L112.396 61.0153L114.799 57.255L116.058 55.2892C116.615 54.405 117.971 54.1764 119.077 54.7741L121.549 56.1116L126.274 58.6725L128.746 60.01C129.852 60.6076 130.3 61.8041 129.729 62.6879L128.469 64.6537L126.066 68.414L124.806 70.3798C124.249 71.264 122.894 71.4925 121.787 70.8949L119.315 69.5574L114.59 66.9965L112.119 65.659C111.012 65.0614 110.565 63.8649 111.136 62.9811L111.136 62.9945Z" fill="#3CAEF2"/>
</g>
<g clip-path="url(#clip4_1526_30803)">
<path d="M106.457 138.079L133.853 95.2256L135.697 98.3191L108.039 141.555C107.394 142.571 106.221 143.154 104.925 143.264L103.113 140.023C104.509 139.836 105.74 139.187 106.443 138.079L106.457 138.079Z" fill="#3CAEF2"/>
<path d="M134.422 94.3597C134.744 93.8449 134.916 93.2719 134.977 92.6821L136.016 94.4744C136.292 94.9532 136.442 95.4686 136.481 95.9807C136.529 96.6409 136.369 97.2815 136.003 97.8353L135.71 98.2972L133.866 95.2036L134.408 94.3458L134.422 94.3597Z" fill="#297DCD"/>
<path d="M74.1958 127.617C74.1958 127.617 74.1689 127.59 74.1554 127.576L71.9433 123.826C71.9433 123.826 71.9702 123.854 71.9698 123.867L74.1814 127.63L74.1958 127.617Z" fill="#277DCF"/>
<path d="M73.978 125.639C73.978 125.639 74.0188 125.667 74.0322 125.68L99.1745 139.27C100.445 139.953 101.841 140.183 103.111 140.019L104.923 143.259C103.934 143.337 102.87 143.144 101.886 142.618L76.744 129.028C76.0746 128.672 75.5211 128.172 75.0962 127.568L73.9637 125.652L73.978 125.639Z" fill="#277DCF"/>
<path d="M100.367 75.9539C101.51 74.1594 104.264 73.6768 106.504 74.8864L131.646 88.4755C132.589 88.9742 133.314 89.7353 133.689 90.6069C133.857 90.9749 133.942 91.3674 133.971 91.7447C134.019 92.4049 133.845 93.0586 133.492 93.6262L105.54 137.337C104.398 139.132 101.644 139.614 99.4039 138.405L74.2616 124.816C73.3194 124.304 72.5934 123.556 72.2185 122.698C71.7655 121.676 71.8433 120.576 72.4147 119.678L100.367 75.9539ZM74.3316 120.986C74.351 121.242 74.4116 121.513 74.5282 121.772C74.8 122.385 75.297 122.91 75.9386 123.266L100.548 136.583C101.872 137.309 103.437 137.046 104.097 136.017L131.288 93.4664C131.64 92.8988 131.677 92.2007 131.379 91.5196C131.108 90.9065 130.611 90.3807 129.969 90.0255L105.359 76.7211C104.035 76.0094 102.47 76.2586 101.811 77.2877L74.6199 119.825C74.4001 120.168 74.3036 120.568 74.3316 120.986Z" fill="#C7F2F9"/>
<path d="M106.749 74.0126L131.891 87.6017C132.984 88.1855 133.831 89.0444 134.382 90.0423C134.464 90.0985 134.53 90.1812 134.583 90.2634L136.886 94.2177C137.727 95.6948 137.743 97.3221 136.952 98.5758L108.986 142.286C107.638 144.384 104.382 144.932 101.705 143.481L76.563 129.892C75.6888 129.422 74.919 128.741 74.3219 127.876L74.1636 127.616L71.952 123.852C71.952 123.852 71.9251 123.825 71.9255 123.811C71.6862 123.481 71.475 123.139 71.3198 122.785C71.1001 122.281 70.9784 121.753 70.9391 121.254C70.8831 120.419 71.0762 119.618 71.5161 118.918L99.468 75.2074C100.802 73.096 104.072 72.5614 106.735 73.9987L106.749 74.0126ZM76.786 129.025L101.928 142.614C102.898 143.14 103.962 143.333 104.965 143.256C106.261 143.146 107.42 142.576 108.079 141.547L135.724 98.2972L136.017 97.8354C136.369 97.2812 136.529 96.6271 136.495 95.9808C136.456 95.4687 136.306 94.9533 136.03 94.4745L134.99 92.6822C134.929 93.272 134.758 93.845 134.435 94.3598L133.893 95.2175L106.483 138.071C105.78 139.179 104.549 139.828 103.153 140.015C101.883 140.179 100.486 139.963 99.2165 139.266L74.0743 125.677C74.0743 125.677 74.0335 125.649 74.0201 125.635L75.1525 127.551C75.5771 128.169 76.1309 128.656 76.8003 129.012L76.786 129.025ZM72.2407 122.678C72.6156 123.536 73.3412 124.297 74.2838 124.796L99.4257 138.398C101.665 139.608 104.419 139.125 105.562 137.331L133.514 93.6197C133.88 93.0525 134.041 92.3985 133.993 91.7382C133.964 91.3609 133.879 90.9685 133.71 90.6004C133.336 89.7422 132.61 88.9811 131.668 88.469L106.525 74.8799C104.286 73.6703 101.532 74.153 100.389 75.9475L72.4369 119.658C71.8655 120.556 71.7877 121.656 72.2407 122.678Z" fill="#021433"/>
<path d="M101.849 77.2911C102.508 76.2486 104.073 75.9994 105.398 76.7246L129.994 90.0151C130.635 90.3703 131.146 90.8965 131.404 91.5092C131.702 92.1903 131.664 92.9018 131.313 93.456L104.107 136.006C103.448 137.049 101.883 137.298 100.559 136.573L75.9491 123.268C75.307 122.926 74.8104 122.387 74.5387 121.774C74.4221 121.515 74.3615 121.245 74.342 120.989C74.314 120.571 74.4106 120.17 74.6303 119.827L101.849 77.2911ZM76.4176 122.543L78.8895 123.88L83.6145 126.441L86.0863 127.779C87.1926 128.376 88.5482 128.148 89.1054 127.264L90.3651 125.298L92.7678 121.537L94.0275 119.572C94.5847 118.687 94.1513 117.491 93.0451 116.894L90.5733 115.556L85.8482 112.995L83.3764 111.658C82.2702 111.06 80.9145 111.289 80.3574 112.173L79.0976 114.139L76.6949 117.899L75.4348 119.878C74.8776 120.762 75.311 121.959 76.4172 122.556L76.4176 122.543ZM103.541 135.062L104.801 133.096L107.203 129.335L108.463 127.37C109.02 126.485 108.587 125.289 107.481 124.692L105.009 123.354L100.284 120.793L97.8118 119.456C96.7056 118.858 95.3499 119.087 94.7928 119.971L93.5331 121.937L91.1304 125.697L89.8706 127.663C89.3135 128.547 89.7468 129.743 90.853 130.341L93.3249 131.678L98.0499 134.239L100.522 135.577C101.628 136.174 102.984 135.946 103.541 135.062ZM102.293 77.7346L101.033 79.7004L98.6305 83.4607L97.3708 85.4265C96.8136 86.3107 97.247 87.5068 98.3532 88.1044L100.825 89.4419L105.55 92.0028L108.022 93.3403C109.128 93.9379 110.484 93.7094 111.041 92.8252L112.301 90.8594L114.703 87.0991L115.963 85.1333C116.52 84.2491 116.087 83.053 114.981 82.4554L112.509 81.1179L107.784 78.557L105.312 77.2195C104.206 76.6218 102.85 76.8504 102.293 77.7346ZM83.729 111.077L86.2009 112.414L90.9259 114.975L93.3978 116.313C94.504 116.91 95.8596 116.682 96.4168 115.798L97.6765 113.832L100.079 110.071L101.339 108.106C101.896 107.221 101.463 106.025 100.357 105.428L97.8847 104.09L93.1597 101.529L90.6878 100.192C89.5816 99.5942 88.2259 99.8227 87.6688 100.707L86.409 102.673L84.0064 106.433L82.7466 108.399C82.1895 109.283 82.6228 110.479 83.729 111.077ZM110.853 123.582L112.112 121.616L114.515 117.856L115.775 115.89C116.332 115.006 115.899 113.81 114.792 113.212L112.321 111.875L107.596 109.314L105.124 107.976C104.017 107.379 102.662 107.607 102.105 108.491L100.845 110.457L98.4422 114.218L97.182 116.197C96.6249 117.081 97.0582 118.277 98.1644 118.875L100.636 120.212L105.361 122.773L107.833 124.111C108.939 124.708 110.295 124.48 110.852 123.596L110.853 123.582ZM122.091 101.719L119.619 100.381L114.894 97.8206L112.422 96.4831C111.316 95.8854 109.96 96.1139 109.403 96.9982L108.143 98.964L105.741 102.724L104.481 104.69C103.924 105.574 104.357 106.77 105.463 107.368L107.935 108.705L112.66 111.266L115.132 112.604C116.238 113.202 117.594 112.973 118.151 112.089L119.411 110.123L121.813 106.363L123.073 104.397C123.63 103.513 123.197 102.317 122.091 101.719ZM91.0413 99.5839L93.5132 100.921L98.2382 103.482L100.71 104.82C101.816 105.417 103.172 105.189 103.729 104.305L104.989 102.325L107.392 98.5651L108.652 96.5993C109.209 95.7151 108.775 94.519 107.669 93.9214L105.197 92.5839L100.472 90.023L98.0005 88.6855C96.8943 88.0878 95.5387 88.3164 94.9815 89.2006L93.7218 91.1664L91.3191 94.9267L90.0593 96.8925C89.5022 97.7767 89.9355 98.9728 91.0418 99.5704L91.0413 99.5839ZM129.417 90.2399L126.945 88.9024L122.22 86.3415L119.748 85.0041C118.642 84.4064 117.286 84.6349 116.729 85.5191L115.469 87.4849L113.066 91.2452L111.807 93.211C111.249 94.0952 111.683 95.2913 112.789 95.889L115.261 97.2265L119.986 99.7874L122.458 101.125C123.564 101.722 124.92 101.494 125.477 100.61L126.737 98.644L129.139 94.8837L130.399 92.9179C130.956 92.0336 130.523 90.8376 129.417 90.2399Z" fill="#021433"/>
<path d="M130.4 92.9291L129.141 94.8949L126.738 98.6552L125.478 100.621C124.921 101.505 123.565 101.734 122.459 101.136L119.987 99.7986L115.262 97.2377L112.79 95.9002C111.684 95.3026 111.237 94.1061 111.808 93.2223L113.068 91.2565L115.47 87.4962L116.73 85.5304C117.287 84.6462 118.643 84.4177 119.749 85.0153L122.221 86.3528L126.946 88.9137L129.418 90.2512C130.524 90.8488 130.971 92.0453 130.4 92.9291Z" fill="#3CAEF2"/>
<path d="M121.805 106.369L119.402 110.129L118.142 112.095C117.585 112.979 116.229 113.207 115.123 112.61L112.651 111.272L107.926 108.711L105.455 107.374C104.348 106.776 103.901 105.58 104.472 104.696L105.732 102.73L108.135 98.9698L109.394 97.004C109.951 96.1198 111.307 95.8913 112.413 96.4889L114.885 97.8264L119.61 100.387L122.082 101.725C123.188 102.322 123.635 103.519 123.064 104.403L121.805 106.369Z" fill="#3CAEF2"/>
<path d="M105.354 122.752L100.629 120.192L98.1572 118.854C97.051 118.256 96.6038 117.06 97.1748 116.176L98.435 114.197L100.838 110.437L102.097 108.471C102.655 107.587 104.01 107.358 105.116 107.956L107.588 109.293L112.313 111.854L114.785 113.192C115.891 113.789 116.339 114.986 115.768 115.87L114.508 117.835L112.105 121.596L110.845 123.561C110.288 124.446 108.933 124.674 107.826 124.077L105.355 122.739L105.354 122.752Z" fill="#3CAEF2"/>
<path d="M98.0342 134.219L93.3092 131.658L90.8373 130.32C89.7311 129.723 89.2839 128.526 89.8549 127.642L91.1147 125.676L93.5173 121.916L94.7771 119.95C95.3342 119.066 96.6899 118.838 97.7961 119.435L100.268 120.773L104.993 123.334L107.465 124.671C108.571 125.269 109.018 126.465 108.447 127.349L107.188 129.315L104.785 133.075L103.525 135.041C102.968 135.925 101.612 136.154 100.506 135.556L98.0342 134.219Z" fill="#3CAEF2"/>
<path d="M107.807 78.554L112.532 81.1149L115.004 82.4523C116.11 83.05 116.557 84.2465 115.986 85.1303L114.727 87.0961L112.324 90.8564L111.064 92.8222C110.507 93.7064 109.151 93.9349 108.045 93.3373L105.573 91.9998L100.848 89.4389L98.3764 88.1014C97.2702 87.5038 96.823 86.3073 97.394 85.4234L98.6537 83.4576L101.056 79.6974L102.316 77.7316C102.873 76.8473 104.229 76.6188 105.335 77.2165L107.807 78.554Z" fill="#3CAEF2"/>
<path d="M90.0272 96.9012L91.287 94.9354L93.6897 91.1751L94.9494 89.2093C95.5065 88.3251 96.8622 88.0966 97.9684 88.6943L100.44 90.0317L105.165 92.5926L107.637 93.9301C108.743 94.5278 109.191 95.7243 108.62 96.6081L107.36 98.5739L104.957 102.334L103.697 104.313C103.14 105.198 101.784 105.426 100.678 104.828L98.2061 103.491L93.481 100.93L91.0092 99.5926C89.903 98.995 89.4558 97.7985 90.0268 96.9147L90.0272 96.9012Z" fill="#3CAEF2"/>
<path d="M82.7377 108.384L83.9975 106.419L86.4002 102.658L87.6599 100.692C88.217 99.8083 89.5727 99.5798 90.6789 100.177L93.1508 101.515L97.8758 104.076L100.348 105.413C101.454 106.011 101.901 107.207 101.33 108.091L100.07 110.057L97.6676 113.817L96.4079 115.783C95.8508 116.667 94.4951 116.896 93.3889 116.298L90.917 114.961L86.192 112.4L83.7201 111.062C82.6139 110.465 82.1667 109.268 82.7377 108.384Z" fill="#3CAEF2"/>
<path d="M75.417 119.862L76.6772 117.882L79.0798 114.122L80.3396 112.156C80.8967 111.272 82.2524 111.044 83.3586 111.641L85.8305 112.979L90.5555 115.54L93.0273 116.877C94.1336 117.475 94.5808 118.671 94.0098 119.555L92.75 121.521L90.3473 125.281L89.0876 127.247C88.5304 128.131 87.1748 128.36 86.0686 127.762L83.5967 126.425L78.8717 123.864L76.3998 122.526C75.2936 121.929 74.8464 120.732 75.4174 119.848L75.417 119.862Z" fill="#3CAEF2"/>
</g>
</g>
<path d="M72.8061 327.582V306.737L64.6418 327.582H61.9494L53.7851 306.737V327.582H47.6184V298.616H56.2604L63.2956 316.682L70.3308 298.616H79.0162V327.582H72.8061ZM90.7619 303.48C89.1116 303.48 87.8088 302.177 87.8088 300.527C87.8088 298.92 89.1116 297.617 90.7619 297.617C92.3687 297.617 93.6715 298.92 93.6715 300.527C93.6715 302.177 92.3687 303.48 90.7619 303.48ZM99.925 303.48C98.3182 303.48 96.9719 302.177 96.9719 300.527C96.9719 298.92 98.3182 297.617 99.925 297.617C101.532 297.617 102.878 298.92 102.878 300.527C102.878 302.177 101.532 303.48 99.925 303.48ZM99.6644 327.582V324.933C98.2313 326.54 95.7126 328.103 92.2818 328.103C87.6785 328.103 85.5072 325.584 85.5072 321.502V306.607H91.0224V319.331C91.0224 322.24 92.5424 323.196 94.8874 323.196C97.0154 323.196 98.709 322.023 99.6644 320.807V306.607H105.18V327.582H99.6644ZM111.524 327.582V298.616H117.04V327.582H111.524ZM136.97 327.582L131.411 319.505L128.892 322.197V327.582H123.377V298.616H128.892V315.944L136.839 306.607H143.614L135.319 316.117L143.875 327.582H136.97ZM157.598 323.5L160.985 318.81C163.027 320.938 166.197 322.718 170.192 322.718C173.579 322.718 175.23 321.111 175.23 319.461C175.23 317.29 172.711 316.552 169.367 315.77C164.633 314.684 158.554 313.381 158.554 306.911C158.554 302.09 162.723 298.182 169.541 298.182C174.144 298.182 177.965 299.572 180.832 302.221L177.401 306.737C175.056 304.566 171.929 303.567 169.106 303.567C166.327 303.567 164.851 304.783 164.851 306.52C164.851 308.474 167.282 309.082 170.626 309.864C175.403 310.949 181.483 312.383 181.483 318.81C181.483 324.108 177.705 328.103 169.888 328.103C164.329 328.103 160.334 326.236 157.598 323.5ZM198.967 327.582V325.411C197.534 327.104 195.059 328.103 192.323 328.103C188.979 328.103 185.027 325.845 185.027 321.155C185.027 316.248 188.979 314.467 192.323 314.467C195.102 314.467 197.578 315.336 198.967 317.029V314.12C198.967 311.992 197.143 310.602 194.364 310.602C192.106 310.602 190.021 311.427 188.241 313.077L186.156 309.386C188.718 307.128 192.019 306.086 195.319 306.086C200.096 306.086 204.482 307.996 204.482 314.033V327.582H198.967ZM198.967 322.544V319.939C198.055 318.723 196.318 318.115 194.538 318.115C192.366 318.115 190.586 319.287 190.586 321.285C190.586 323.239 192.366 324.368 194.538 324.368C196.318 324.368 198.055 323.76 198.967 322.544ZM225.022 327.582V314.814C225.022 311.905 223.502 310.993 221.114 310.993C218.986 310.993 217.292 312.209 216.337 313.468V327.582H210.821V298.616H216.337V309.343C217.683 307.736 220.289 306.086 223.719 306.086C228.323 306.086 230.537 308.604 230.537 312.687V327.582H225.022ZM239.617 303.523C237.837 303.523 236.317 302.047 236.317 300.223C236.317 298.399 237.837 296.923 239.617 296.923C241.441 296.923 242.917 298.399 242.917 300.223C242.917 302.047 241.441 303.523 239.617 303.523ZM236.881 327.582V306.607H242.396V327.582H236.881ZM248.734 327.582V298.616H254.249V309.299C255.899 307.171 258.244 306.086 260.72 306.086C266.061 306.086 270.013 310.255 270.013 317.116C270.013 324.108 266.018 328.103 260.72 328.103C258.201 328.103 255.899 326.974 254.249 324.933V327.582H248.734ZM254.249 320.851C255.161 322.197 257.202 323.196 258.982 323.196C262.196 323.196 264.324 320.764 264.324 317.116C264.324 313.468 262.196 310.993 258.982 310.993C257.202 310.993 255.161 312.035 254.249 313.425V320.851ZM277.784 303.523C276.003 303.523 274.483 302.047 274.483 300.223C274.483 298.399 276.003 296.923 277.784 296.923C279.608 296.923 281.084 298.399 281.084 300.223C281.084 302.047 279.608 303.523 277.784 303.523ZM275.048 327.582V306.607H280.563V327.582H275.048ZM301.058 327.582V314.901C301.058 311.992 299.538 310.993 297.193 310.993C295.021 310.993 293.328 312.209 292.416 313.468V327.582H286.9V306.607H292.416V309.343C293.762 307.736 296.324 306.086 299.755 306.086C304.358 306.086 306.573 308.691 306.573 312.773V327.582H301.058ZM311.571 317.073C311.571 310.993 316.044 306.086 322.428 306.086C328.682 306.086 332.937 310.776 332.937 317.637V318.853H317.347C317.695 321.502 319.822 323.717 323.383 323.717C325.338 323.717 327.639 322.935 328.986 321.633L331.417 325.194C329.29 327.148 326.033 328.103 322.775 328.103C316.392 328.103 311.571 323.804 311.571 317.073ZM322.428 310.472C318.997 310.472 317.521 313.034 317.26 315.118H327.596C327.466 313.121 326.076 310.472 322.428 310.472ZM104.349 370.582V341.616H124.847V346.914H110.516V353.211H124.543V358.509H110.516V370.582H104.349ZM142.491 370.582V368.411C141.058 370.104 138.582 371.103 135.846 371.103C132.503 371.103 128.551 368.845 128.551 364.155C128.551 359.248 132.503 357.467 135.846 357.467C138.626 357.467 141.101 358.336 142.491 360.029V357.12C142.491 354.992 140.667 353.602 137.888 353.602C135.629 353.602 133.545 354.427 131.764 356.077L129.68 352.386C132.242 350.128 135.542 349.086 138.843 349.086C143.62 349.086 148.006 350.996 148.006 357.033V370.582H142.491ZM142.491 365.544V362.939C141.579 361.723 139.842 361.115 138.061 361.115C135.89 361.115 134.109 362.287 134.109 364.285C134.109 366.239 135.89 367.368 138.061 367.368C139.842 367.368 141.579 366.76 142.491 365.544ZM154.432 373.839C154.91 374.056 155.648 374.186 156.169 374.186C157.602 374.186 158.557 373.796 159.079 372.667L159.86 370.886L151.349 349.607H157.255L162.726 364.198L168.198 349.607H174.148L164.29 374.013C162.726 377.965 159.947 379.007 156.343 379.094C155.691 379.094 154.302 378.963 153.607 378.79L154.432 373.839ZM191.896 370.582V367.933C190.246 369.974 187.944 371.103 185.426 371.103C180.128 371.103 176.132 367.108 176.132 360.116C176.132 353.255 180.084 349.086 185.426 349.086C187.901 349.086 190.246 350.171 191.896 352.299V341.616H197.455V370.582H191.896ZM191.896 363.807V356.381C190.941 354.992 188.987 353.993 187.119 353.993C183.993 353.993 181.821 356.468 181.821 360.116C181.821 363.721 183.993 366.196 187.119 366.196C188.987 366.196 190.941 365.197 191.896 363.807ZM216.386 370.582V368.411C214.953 370.104 212.478 371.103 209.742 371.103C206.398 371.103 202.446 368.845 202.446 364.155C202.446 359.248 206.398 357.467 209.742 357.467C212.521 357.467 214.997 358.336 216.386 360.029V357.12C216.386 354.992 214.562 353.602 211.783 353.602C209.525 353.602 207.44 354.427 205.66 356.077L203.575 352.386C206.138 350.128 209.438 349.086 212.739 349.086C217.516 349.086 221.902 350.996 221.902 357.033V370.582H216.386ZM216.386 365.544V362.939C215.474 361.723 213.737 361.115 211.957 361.115C209.786 361.115 208.005 362.287 208.005 364.285C208.005 366.239 209.786 367.368 211.957 367.368C213.737 367.368 215.474 366.76 216.386 365.544ZM228.241 370.582V341.616H233.756V370.582H228.241ZM252.687 370.582V368.411C251.254 370.104 248.779 371.103 246.043 371.103C242.699 371.103 238.747 368.845 238.747 364.155C238.747 359.248 242.699 357.467 246.043 357.467C248.822 357.467 251.297 358.336 252.687 360.029V357.12C252.687 354.992 250.863 353.602 248.084 353.602C245.826 353.602 243.741 354.427 241.961 356.077L239.876 352.386C242.438 350.128 245.739 349.086 249.039 349.086C253.816 349.086 258.202 350.996 258.202 357.033V370.582H252.687ZM252.687 365.544V362.939C251.775 361.723 250.038 361.115 248.257 361.115C246.086 361.115 244.306 362.287 244.306 364.285C244.306 366.239 246.086 367.368 248.257 367.368C250.038 367.368 251.775 366.76 252.687 365.544ZM264.541 370.582V349.607H270.057V352.473C271.533 350.606 274.139 349.129 276.744 349.129V354.514C276.353 354.427 275.832 354.384 275.224 354.384C273.4 354.384 270.969 355.383 270.057 356.729V370.582H264.541Z" fill="#E7DAC9"/>
<defs>
<clipPath id="clip0_1526_30803">
<rect width="264.451" height="292.586" fill="white" transform="matrix(-1 0 0 1 321.695 0.996094)"/>
</clipPath>
<clipPath id="clip1_1526_30803">
<rect width="71.0398" height="65.7481" fill="white" transform="matrix(0.0327941 -0.999462 -0.999556 -0.0298042 223.586 115.616)"/>
</clipPath>
<clipPath id="clip2_1526_30803">
<rect width="71.0398" height="65.7481" fill="white" transform="matrix(0.0327656 -0.999463 -0.999557 -0.0297782 188.305 172.589)"/>
</clipPath>
<clipPath id="clip3_1526_30803">
<rect width="71.0398" height="65.7481" fill="white" transform="matrix(0.0327656 -0.999463 -0.999557 -0.0297782 171.625 88.3662)"/>
</clipPath>
<clipPath id="clip4_1526_30803">
<rect width="71.0398" height="65.7481" fill="white" transform="matrix(0.0327656 -0.999463 -0.999557 -0.0297782 135.906 145.233)"/>
</clipPath>
</defs>
</svg>
