<svg width="379" height="484" viewBox="0 0 379 484" fill="none" xmlns="http://www.w3.org/2000/svg">
<path d="M378.14 171.105V290.854C378.14 321.25 361.929 349.338 335.611 364.545L232.077 424.364C205.733 439.585 173.267 439.585 146.923 424.364L43.3893 364.545C17.0706 349.338 0.859661 321.25 0.859661 290.854V171.105C0.859661 140.709 17.0706 112.621 43.3893 97.4142L102.286 63.3848L146.923 37.5947C173.267 22.3737 205.733 22.3737 232.077 37.5947L276.714 63.3848L335.611 97.4142C361.929 112.621 378.14 140.709 378.14 171.105Z" fill="#4A584E" stroke="black" stroke-width="1.71932"/>
<g clip-path="url(#clip0_744_44296)">
<path d="M70.7048 208.866L173.978 176.857L193.791 165.951C198.174 163.549 204.793 163.277 208.585 165.366L266.051 197.04L303.727 213.504L315.102 207.716V213.838H315.058C315.189 215.53 314.006 217.327 311.485 218.706L199.796 280.174C195.413 282.576 188.794 282.848 185.002 280.759L73.2253 219.145C71.4061 218.142 70.5952 216.784 70.7048 215.363V208.866Z" fill="#645A44"/>
<path d="M312.559 209.477L315.102 208.182V214.303H315.058C315.167 215.724 314.291 217.187 312.559 218.461V209.477Z" fill="#031332"/>
<path d="M191.962 282.163C189.376 282.225 186.878 281.787 185.037 280.763L73.2598 219.149C71.4407 218.146 70.6298 216.788 70.7394 215.368V208.87L169.147 178.324H183.305L191.984 282.142L191.962 282.163Z" fill="#8F7D54"/>
<path d="M191.442 282.638C194.444 282.638 197.6 281.949 200.077 280.591L311.744 219.124C314.243 217.745 315.645 215.885 315.58 213.984C315.58 213.942 315.602 213.879 315.602 213.838V207.716C315.602 207.549 315.514 207.382 315.36 207.298C315.207 207.214 315.01 207.214 314.878 207.298L303.723 212.981L266.266 196.622L208.844 164.969C204.921 162.817 198.061 163.067 193.546 165.554L173.733 176.46L70.5473 208.426C70.35 208.489 70.1966 208.677 70.1966 208.886V215.384C70.1966 215.384 70.1966 215.446 70.1966 215.467C70.1309 217.097 71.1171 218.539 72.9801 219.583L184.735 281.197C186.51 282.179 188.921 282.659 191.42 282.659L191.442 282.638ZM314.593 213.691C314.593 213.691 314.55 213.817 314.55 213.879C314.681 215.446 313.454 217.055 311.24 218.288L199.551 279.755C195.321 282.095 188.899 282.346 185.239 280.34L73.4842 218.727C71.9281 217.87 71.1171 216.679 71.2048 215.384C71.2048 215.342 71.2048 215.279 71.2048 215.237V209.199L174.127 177.296L194.028 166.348C198.258 164.008 204.679 163.757 208.34 165.763L265.806 197.437L303.525 213.921C303.657 213.984 303.832 213.984 303.964 213.921L314.593 208.51V213.691Z" fill="#021433"/>
<path d="M73.2382 212.526L185.015 274.139C188.807 276.229 195.448 275.957 199.809 273.554L311.498 212.087C315.882 209.684 316.364 206.028 312.55 203.939L200.773 142.325C196.982 140.236 190.341 140.508 185.979 142.91L74.2903 204.378C69.9068 206.78 69.4247 210.437 73.2382 212.526Z" fill="#4D655B"/>
<path d="M191.443 276.02C194.446 276.02 197.602 275.33 200.078 273.972L311.746 212.505C314.2 211.147 315.625 209.329 315.625 207.491C315.625 205.945 314.617 204.545 312.82 203.542L201.043 141.928C197.12 139.756 190.26 140.027 185.745 142.513L74.0555 203.981C71.6008 205.339 70.1762 207.156 70.1762 208.995C70.1762 210.541 71.1844 211.941 72.9816 212.944L184.758 274.557C186.534 275.539 188.945 276.02 191.443 276.02ZM194.38 141.385C196.703 141.385 198.917 141.824 200.561 142.743L312.316 204.357C313.806 205.172 314.617 206.279 314.617 207.491C314.617 208.974 313.389 210.499 311.242 211.69L199.552 273.158C195.322 275.498 188.901 275.748 185.241 273.743L73.4857 212.129C71.9953 211.314 71.1844 210.207 71.1844 208.995C71.1844 207.512 72.4118 205.986 74.5596 204.796L186.249 143.328C188.572 142.054 191.553 141.385 194.38 141.385Z" fill="#021433"/>
<path d="M193.398 267.263L82.4544 205.691V114.033L193.398 175.605V267.263Z" fill="#8F7D54"/>
<path d="M84.6406 206.696L82.4489 205.212V113.555L84.6406 115.038V206.696Z" fill="#03122F"/>
<path d="M193.408 267.745C193.408 267.745 193.584 267.724 193.65 267.683C193.803 267.599 193.891 267.432 193.891 267.265V175.607C193.891 175.44 193.803 175.273 193.65 175.189L82.7056 113.617C82.5521 113.534 82.3549 113.534 82.2015 113.617C82.0481 113.701 81.9604 113.868 81.9604 114.035V205.693C81.9604 205.86 82.0481 206.027 82.2015 206.111L193.145 267.683C193.145 267.683 193.299 267.745 193.408 267.745ZM192.904 175.879V266.429L82.9686 205.421V114.871L192.904 175.879Z" fill="#021433"/>
<path d="M193.405 267.263L297.336 210.058V118.4L193.405 175.606V267.263Z" fill="#645A44"/>
<path d="M295.517 120.032L297.336 118.736V210.394L295.517 211.146V120.032Z" fill="#03122F"/>
<path d="M193.403 267.75C193.403 267.75 193.578 267.729 193.644 267.687L297.596 210.461C297.75 210.377 297.859 210.21 297.859 210.043V118.406C297.859 118.239 297.772 118.072 297.596 117.988C297.443 117.905 297.246 117.905 297.092 117.988L193.14 175.194C192.986 175.277 192.899 175.444 192.899 175.611V267.269C192.899 267.436 192.986 267.604 193.14 267.687C193.206 267.729 193.293 267.75 193.381 267.75H193.403ZM296.851 209.772L193.907 266.434V175.883L296.851 119.221V209.772Z" fill="#021433"/>
<path d="M101.778 198.216L132.594 215.16V160.567L101.778 143.602V198.216Z" fill="#EC7E10"/>
<path d="M132.597 215.643C132.597 215.643 132.773 215.622 132.839 215.58C132.992 215.497 133.102 215.329 133.102 215.162V160.569C133.102 160.402 133.014 160.234 132.839 160.151L102.023 143.186C101.87 143.102 101.673 143.102 101.519 143.186C101.366 143.269 101.278 143.436 101.278 143.604V198.197C101.278 198.364 101.366 198.531 101.519 198.615L132.334 215.58C132.334 215.58 132.488 215.643 132.576 215.643H132.597ZM132.093 160.84V214.327L102.286 197.925V144.418L132.093 160.819V160.84Z" fill="#021433"/>
<path d="M104.702 196.256L129.688 210.004V162.41L104.702 148.662V196.256Z" fill="white"/>
<path d="M129.668 210.549C129.668 210.549 129.843 210.528 129.909 210.486C130.062 210.403 130.172 210.236 130.172 210.069V162.474C130.172 162.307 130.084 162.14 129.909 162.056L104.923 148.309C104.77 148.225 104.573 148.225 104.419 148.309C104.266 148.392 104.156 148.559 104.156 148.727V196.321C104.156 196.488 104.244 196.655 104.419 196.739L129.405 210.486C129.405 210.486 129.558 210.549 129.646 210.549H129.668ZM129.164 162.767V209.254L105.186 196.049V149.562L129.164 162.767Z" fill="#021433"/>
<path d="M107.113 150.041V194.856L129.688 207.288V210.067L104.702 196.319V148.725L107.113 150.041Z" fill="#EC7E10"/>
<path d="M107.109 150.041L104.699 148.725V196.319H104.72L107.109 194.836V150.041Z" fill="#DD5E15"/>
<path d="M129.668 210.54C129.668 210.54 129.843 210.519 129.909 210.477C130.062 210.394 130.172 210.227 130.172 210.059V207.281C130.172 207.114 130.084 206.946 129.909 206.863L107.575 194.578V150.055C107.575 149.887 107.488 149.72 107.312 149.637L104.923 148.32C104.77 148.237 104.573 148.237 104.419 148.32C104.266 148.404 104.156 148.571 104.156 148.738V196.333C104.156 196.5 104.244 196.667 104.419 196.751L129.405 210.498C129.405 210.498 129.558 210.561 129.646 210.561L129.668 210.54ZM129.164 207.552V209.224L105.186 196.019V149.532L106.589 150.305V194.828C106.589 194.996 106.677 195.163 106.83 195.246L129.164 207.531V207.552Z" fill="#021433"/>
<path d="M117.95 201.294C118.234 201.294 118.453 201.085 118.453 200.813V156.123C118.453 155.851 118.234 155.643 117.95 155.643C117.665 155.643 117.446 155.851 117.446 156.123V200.813C117.446 201.085 117.665 201.294 117.95 201.294Z" fill="#021433"/>
<path d="M283.328 199.277L252.513 216.221V161.627L283.328 144.662V199.277Z" fill="#EC7E10"/>
<path d="M252.532 216.703C252.532 216.703 252.707 216.682 252.773 216.641L283.589 199.676C283.742 199.592 283.852 199.425 283.852 199.258V144.664C283.852 144.497 283.764 144.33 283.589 144.246C283.435 144.163 283.238 144.163 283.084 144.246L252.269 161.211C252.116 161.295 252.006 161.462 252.006 161.629V216.223C252.006 216.39 252.094 216.557 252.269 216.641C252.335 216.682 252.423 216.703 252.51 216.703H252.532ZM282.843 198.986L253.036 215.387V161.901L282.843 145.5V199.007V198.986Z" fill="#021433"/>
<path d="M280.422 197.317L255.458 211.065V163.47L280.422 149.723V197.317Z" fill="white"/>
<path d="M255.448 211.586C255.448 211.586 255.623 211.565 255.689 211.524L280.674 197.776C280.828 197.692 280.938 197.525 280.938 197.358V149.764C280.938 149.597 280.85 149.429 280.674 149.346C280.521 149.262 280.324 149.262 280.17 149.346L255.185 163.094C255.032 163.177 254.944 163.344 254.944 163.511V211.106C254.944 211.273 255.032 211.44 255.185 211.524C255.251 211.565 255.338 211.586 255.426 211.586H255.448ZM279.929 197.086L255.952 210.291V163.804L279.929 150.599V197.086Z" fill="#021433"/>
<path d="M278.033 151.099V195.915L255.458 208.326V211.125L280.422 197.378V149.783L278.033 151.099Z" fill="#EC7E10"/>
<path d="M278.033 151.099L280.422 149.783V197.378L278.033 195.894V151.099Z" fill="#DD5E15"/>
<path d="M255.448 211.586C255.448 211.586 255.623 211.565 255.689 211.524L280.674 197.776C280.828 197.692 280.938 197.525 280.938 197.358V149.764C280.938 149.597 280.85 149.429 280.674 149.346C280.521 149.262 280.324 149.262 280.17 149.346L277.781 150.662C277.628 150.746 277.518 150.913 277.518 151.08V195.603L255.185 207.888C255.032 207.972 254.944 208.139 254.944 208.306V211.085C254.944 211.252 255.032 211.419 255.185 211.503C255.251 211.544 255.338 211.565 255.426 211.565L255.448 211.586ZM279.929 197.086L255.952 210.291V208.619L278.286 196.334C278.439 196.251 278.527 196.084 278.527 195.916V151.393L279.907 150.62V197.107L279.929 197.086Z" fill="#021433"/>
<path d="M267.161 202.347C267.445 202.347 267.664 202.138 267.664 201.866V157.176C267.664 156.904 267.445 156.695 267.161 156.695C266.876 156.695 266.657 156.904 266.657 157.176V201.866C266.657 202.138 266.876 202.347 267.161 202.347Z" fill="#021433"/>
<path d="M241.844 222.741L211.028 239.686V185.092L241.844 168.127V222.741Z" fill="#EC7E10"/>
<path d="M211.023 240.168C211.023 240.168 211.198 240.168 211.264 240.105L242.079 223.14C242.233 223.057 242.32 222.89 242.32 222.722V168.129C242.32 167.962 242.233 167.795 242.079 167.711C241.926 167.628 241.729 167.628 241.575 167.711L210.76 184.676C210.606 184.76 210.519 184.927 210.519 185.094V239.688C210.519 239.855 210.606 240.022 210.76 240.105C210.826 240.147 210.913 240.168 211.001 240.168H211.023ZM241.334 222.451L211.527 238.852V185.366L241.334 168.965V222.472V222.451Z" fill="#021433"/>
<path d="M238.922 220.782L213.958 234.529V186.935L238.922 173.188V220.782Z" fill="white"/>
<path d="M213.97 235.075C213.97 235.075 214.145 235.054 214.211 235.012L239.196 221.264C239.35 221.181 239.438 221.014 239.438 220.846V173.252C239.438 173.085 239.35 172.918 239.196 172.834C239.043 172.751 238.846 172.751 238.692 172.834L213.707 186.582C213.553 186.665 213.444 186.832 213.444 187V234.594C213.444 234.761 213.532 234.928 213.707 235.012C213.773 235.054 213.86 235.075 213.948 235.075H213.97ZM238.451 220.575L214.474 233.758V187.271L238.451 174.067V220.554V220.575Z" fill="#021433"/>
<path d="M236.533 174.566V219.382L213.958 231.813V234.592L238.922 220.844V173.25L236.533 174.566Z" fill="#EC7E10"/>
<path d="M236.533 174.566L238.922 173.25V220.844H238.9L236.533 219.361V174.566Z" fill="#DD5E15"/>
<path d="M213.97 235.075C213.97 235.075 214.145 235.054 214.211 235.012L239.196 221.264C239.35 221.181 239.438 221.014 239.438 220.846V173.252C239.438 173.085 239.35 172.918 239.196 172.834C239.043 172.751 238.846 172.751 238.692 172.834L236.303 174.15C236.15 174.234 236.04 174.401 236.04 174.568V219.091L213.707 231.376C213.553 231.46 213.444 231.627 213.444 231.794V234.573C213.444 234.74 213.532 234.907 213.707 234.991C213.773 235.033 213.86 235.054 213.948 235.054L213.97 235.075ZM238.451 220.575L214.474 233.758V232.087L236.807 219.802C236.961 219.718 237.07 219.551 237.07 219.384V174.861L238.473 174.088V220.575H238.451Z" fill="#021433"/>
<path d="M225.708 225.823C225.992 225.823 226.211 225.614 226.211 225.343V180.652C226.211 180.381 225.992 180.172 225.708 180.172C225.423 180.172 225.204 180.381 225.204 180.652V225.343C225.204 225.614 225.423 225.823 225.708 225.823Z" fill="#021433"/>
<path d="M143.216 221.662L174.031 238.627V184.033L143.216 167.068V221.662Z" fill="#EC7E10"/>
<path d="M174.035 239.11C174.035 239.11 174.21 239.089 174.276 239.047C174.429 238.963 174.539 238.796 174.539 238.629V184.036C174.539 183.868 174.451 183.701 174.276 183.618L143.461 166.653C143.307 166.569 143.11 166.569 142.957 166.653C142.803 166.736 142.694 166.903 142.694 167.07V221.664C142.694 221.831 142.781 221.998 142.957 222.082L173.772 239.047C173.772 239.047 173.925 239.11 174.013 239.11H174.035ZM173.531 184.307V237.793L143.724 221.392V167.906L173.531 184.307Z" fill="#021433"/>
<path d="M146.14 219.723L171.125 233.471V185.877L146.14 172.129V219.723Z" fill="white"/>
<path d="M171.121 233.994C171.121 233.994 171.296 233.994 171.362 233.932C171.515 233.848 171.625 233.681 171.625 233.514V185.92C171.625 185.752 171.537 185.585 171.362 185.502L146.377 171.754C146.223 171.671 146.026 171.671 145.872 171.754C145.719 171.838 145.631 172.005 145.631 172.172V219.766C145.631 219.933 145.719 220.101 145.872 220.184L170.858 233.932C170.858 233.932 171.011 233.994 171.099 233.994H171.121ZM170.617 186.212V232.699L146.64 219.495V173.008L170.617 186.212Z" fill="#021433"/>
<path d="M148.55 173.508V218.302L171.125 230.734V233.512L146.14 219.765V172.191L148.55 173.508Z" fill="#EC7E10"/>
<path d="M148.547 173.508L146.136 172.191V219.765L146.158 219.786L148.547 218.302V173.508Z" fill="#DD5E15"/>
<path d="M171.121 233.995C171.121 233.995 171.296 233.995 171.362 233.932C171.515 233.849 171.625 233.682 171.625 233.514V230.736C171.625 230.569 171.537 230.401 171.362 230.318L149.029 218.033V173.51C149.029 173.343 148.941 173.175 148.766 173.092L146.377 171.776C146.223 171.692 146.026 171.692 145.872 171.776C145.719 171.859 145.631 172.026 145.631 172.193V219.788C145.631 219.955 145.719 220.122 145.872 220.206L170.858 233.953C170.858 233.953 171.011 234.016 171.099 234.016L171.121 233.995ZM170.617 231.007V232.679L146.64 219.474V172.987L148.042 173.76V218.283C148.042 218.451 148.13 218.618 148.305 218.701L170.639 230.986L170.617 231.007Z" fill="#021433"/>
<path d="M159.395 224.751C159.68 224.751 159.898 224.542 159.898 224.27V179.58C159.898 179.309 159.68 179.1 159.395 179.1C159.111 179.1 158.892 179.309 158.892 179.58V224.27C158.892 224.542 159.111 224.751 159.395 224.751Z" fill="#021433"/>
<path d="M245.508 62.9941L321.188 105.407L245.508 147.068L169.829 188.728L245.508 62.9941Z" fill="#E0610A"/>
<path d="M249.867 65.4386L245.528 75.5509L181.245 182.44L169.848 188.728L245.528 62.9941L249.867 65.4386Z" fill="#031332"/>
<path d="M169.81 189.185C169.81 189.185 169.986 189.164 170.051 189.122L321.432 105.822C321.586 105.738 321.695 105.592 321.695 105.404C321.695 105.216 321.608 105.07 321.454 104.986L245.753 62.5733C245.643 62.5106 245.49 62.4897 245.38 62.5315C245.249 62.5733 245.139 62.636 245.073 62.7613L169.394 188.496C169.284 188.684 169.306 188.914 169.482 189.081C169.569 189.164 169.701 189.227 169.832 189.227L169.81 189.185ZM320.205 105.404L171.191 187.409L245.687 63.6388L320.205 105.404Z" fill="#021433"/>
<path d="M226.879 149.178L302.558 107.538L239.853 72.396L245.508 62.9941L321.188 105.407L245.508 147.068L169.829 188.728L177.127 176.569L226.879 149.178Z" fill="#D77A12"/>
<path d="M196.438 166.227L189.205 178.345L169.83 189L177.129 176.861L196.438 166.227Z" fill="#031332"/>
<path d="M169.81 189.185C169.81 189.185 169.986 189.164 170.051 189.122L321.432 105.822C321.586 105.738 321.695 105.592 321.695 105.404C321.695 105.216 321.608 105.07 321.454 104.986L245.753 62.5733C245.643 62.5106 245.49 62.4897 245.38 62.5315C245.249 62.5733 245.139 62.636 245.073 62.7613L239.419 72.1632C239.287 72.393 239.353 72.6855 239.594 72.8109L301.575 107.514L176.889 176.148C176.889 176.148 176.758 176.252 176.714 176.315L169.394 188.475C169.284 188.663 169.306 188.893 169.482 189.06C169.569 189.143 169.701 189.206 169.832 189.206L169.81 189.185ZM320.205 105.404L171.191 187.409L177.503 176.9L302.825 107.932C302.978 107.849 303.066 107.681 303.066 107.514C303.066 107.347 302.978 107.18 302.825 107.096L240.537 72.1841L245.687 63.6179L320.205 105.404Z" fill="#021433"/>
<path d="M245.508 73.378L179.165 183.568L169.829 188.728L245.508 62.9941L321.188 105.407L311.851 110.547L245.508 73.378Z" fill="#D77A12"/>
<path d="M169.81 189.185C169.81 189.185 169.986 189.164 170.051 189.122L179.41 183.983C179.41 183.983 179.541 183.878 179.585 183.816L245.665 74.0436L311.592 110.962C311.745 111.045 311.942 111.045 312.096 110.962L321.432 105.822C321.586 105.738 321.695 105.592 321.695 105.404C321.695 105.216 321.608 105.07 321.454 104.986L245.753 62.5733C245.643 62.5106 245.49 62.4897 245.38 62.5315C245.249 62.5733 245.139 62.636 245.073 62.7613L169.394 188.496C169.284 188.684 169.306 188.914 169.482 189.081C169.569 189.164 169.701 189.227 169.832 189.227L169.81 189.185ZM178.796 183.21L171.169 187.409L245.687 63.6388L320.205 105.404L311.855 110L245.775 72.9571C245.665 72.8945 245.512 72.8736 245.402 72.9153C245.271 72.9571 245.161 73.0198 245.095 73.1452L178.818 183.231L178.796 183.21Z" fill="#021433"/>
<path d="M235.145 135.029L255.812 123.663V96.168L235.145 107.555V135.029Z" fill="#EC7E10"/>
<path d="M235.148 135.512C235.148 135.512 235.324 135.491 235.39 135.449L256.057 124.062C256.211 123.979 256.32 123.811 256.32 123.644V96.17C256.32 96.0029 256.233 95.8357 256.057 95.7521C255.904 95.6686 255.707 95.6686 255.553 95.7521L234.885 107.118C234.732 107.202 234.622 107.369 234.622 107.536V135.01C234.622 135.177 234.71 135.344 234.885 135.428C234.951 135.47 235.039 135.491 235.127 135.491L235.148 135.512ZM255.312 123.373L235.653 134.195V107.807L255.312 96.9848V123.373Z" fill="#021433"/>
<path d="M237.752 130.146L253.203 121.643V101.084L237.752 109.587V130.146Z" fill="#97A0AC"/>
<path d="M237.754 130.627C237.754 130.627 237.929 130.627 237.995 130.564L253.446 122.061C253.6 121.977 253.688 121.81 253.688 121.643V101.084C253.688 100.917 253.6 100.75 253.446 100.666C253.293 100.583 253.096 100.583 252.942 100.666L237.491 109.17C237.337 109.253 237.25 109.42 237.25 109.588V130.146C237.25 130.313 237.337 130.481 237.491 130.564C237.557 130.606 237.644 130.627 237.732 130.627H237.754ZM252.701 121.371L238.236 129.331V109.88L252.701 101.92V121.371Z" fill="#021433"/>
<path d="M250.617 120.264V102.505L253.203 101.084V121.643L237.752 130.146V127.347L250.617 120.264Z" fill="#EC7E10"/>
<path d="M250.767 120.259V102.625L253.375 101.184V121.701L250.767 120.259Z" fill="#DB5C19"/>
<path d="M237.754 130.627C237.754 130.627 237.929 130.627 237.995 130.564L253.446 122.061C253.6 121.977 253.688 121.81 253.688 121.643V101.084C253.688 100.917 253.6 100.75 253.446 100.666C253.293 100.583 253.096 100.583 252.942 100.666L250.334 102.108C250.181 102.191 250.071 102.359 250.071 102.526V120.013L237.469 126.95C237.315 127.033 237.228 127.2 237.228 127.368V130.167C237.228 130.334 237.315 130.501 237.469 130.585C237.535 130.627 237.622 130.648 237.71 130.648L237.754 130.627ZM252.701 121.371L238.236 129.331V127.639L250.838 120.703C250.992 120.619 251.079 120.452 251.079 120.285V102.797L252.679 101.92V121.371H252.701Z" fill="#021433"/>
<path d="M311.867 110.548L302.574 107.539L244.538 75.0086L245.524 73.3789L311.867 110.548Z" fill="#021433"/>
<path d="M311.871 111.03C312.069 111.03 312.244 110.925 312.332 110.758C312.441 110.528 312.332 110.278 312.134 110.152L245.791 72.9834C245.682 72.9208 245.55 72.8999 245.397 72.9417C245.265 72.9834 245.156 73.0461 245.09 73.1715L244.104 74.8011C243.972 75.031 244.038 75.3235 244.279 75.4488L302.315 107.979L311.696 111.03C311.696 111.03 311.806 111.051 311.849 111.051L311.871 111.03ZM245.726 74.0281L307.356 108.585L302.754 107.081L245.244 74.8429L245.726 74.049V74.0281Z" fill="#021433"/>
<path d="M245.508 62.9994L133.424 1.49023L57.7447 127.204L169.828 188.734L245.508 62.9994Z" fill="#FEC93B"/>
<path d="M245.508 63.0766L234.878 80.7312L205.816 41.2852L245.508 63.0766Z" fill="#FEC93B"/>
<path d="M169.831 188.962L57.7469 127.453L58.9962 125.385L170.992 187.019L169.831 188.962Z" fill="#031231"/>
<path d="M169.822 189.188C169.822 189.188 169.91 189.188 169.953 189.188C170.085 189.147 170.194 189.084 170.26 188.959L245.962 63.2242C246.093 62.9944 246.005 62.7019 245.786 62.5766L133.703 1.06743C133.593 1.00475 133.44 0.98386 133.33 1.02565C133.199 1.06743 133.089 1.13011 133.023 1.25547L57.3437 126.99C57.2122 127.22 57.2999 127.512 57.519 127.637L169.581 189.147C169.581 189.147 169.734 189.209 169.822 189.209V189.188ZM244.844 63.1616L169.647 188.06L58.4395 127.032L133.637 2.13298L244.844 63.1616Z" fill="#021433"/>
<path d="M141.675 173.749C141.851 173.749 142.026 173.666 142.114 173.498L217.727 47.9312C217.859 47.7014 217.771 47.4089 217.552 47.2835C217.311 47.1582 217.004 47.2417 216.873 47.4507L141.237 173.039C141.105 173.269 141.193 173.561 141.412 173.686C141.5 173.728 141.566 173.749 141.653 173.749H141.675Z" fill="#021433"/>
<path d="M112.094 157.663C112.269 157.663 112.444 157.579 112.532 157.412L188.212 31.6988C188.343 31.4689 188.255 31.1764 188.036 31.0511C187.795 30.9257 187.488 31.0093 187.357 31.2182L111.677 156.953C111.546 157.182 111.634 157.475 111.853 157.6C111.94 157.642 112.006 157.663 112.094 157.663Z" fill="#021433"/>
<path d="M85.1175 142.724C85.2928 142.724 85.4681 142.641 85.5558 142.474L161.126 17.0946C161.257 16.8648 161.17 16.5723 160.95 16.4469C160.709 16.3215 160.402 16.4051 160.271 16.6349L84.701 142.014C84.5695 142.244 84.6572 142.536 84.8764 142.662C84.964 142.704 85.0298 142.724 85.1175 142.724Z" fill="#021433"/>
<g clip-path="url(#clip1_744_44296)">
<path d="M194.137 108.456L221.534 65.6035L223.378 68.6971L195.719 111.932C195.074 112.948 193.901 113.532 192.605 113.641L190.793 110.4C192.189 110.213 193.42 109.564 194.123 108.456L194.137 108.456Z" fill="#3CAEF2"/>
<path d="M222.109 64.7444C222.432 64.2297 222.604 63.6566 222.665 63.0669L223.704 64.8592C223.98 65.338 224.13 65.8534 224.169 66.3654C224.217 67.0257 224.057 67.6663 223.691 68.2201L223.398 68.6819L221.553 65.5883L222.096 64.7305L222.109 64.7444Z" fill="#297DCD"/>
<path d="M161.844 97.9963C161.844 97.9963 161.817 97.9686 161.804 97.9548L159.592 94.2049C159.592 94.2049 159.619 94.2326 159.618 94.246L161.83 98.0094L161.844 97.9963Z" fill="#277DCF"/>
<path d="M161.666 96.0205C161.666 96.0205 161.707 96.0487 161.72 96.0625L186.862 109.652C188.132 110.336 189.529 110.565 190.799 110.402L192.61 113.642C191.621 113.72 190.557 113.527 189.574 113L164.432 99.4105C163.762 99.0544 163.209 98.5539 162.784 97.9497L161.652 96.0336L161.666 96.0205Z" fill="#277DCF"/>
<path d="M188.064 46.3349C189.207 44.5405 191.961 44.0579 194.201 45.2675L219.343 58.8573C220.285 59.356 221.011 60.1171 221.385 60.9888C221.554 61.3568 221.638 61.7492 221.668 62.1266C221.716 62.7868 221.541 63.4404 221.189 64.0081L193.236 107.718C192.093 109.513 189.339 109.995 187.099 108.786L161.957 95.196C161.015 94.6839 160.289 93.9362 159.914 93.078C159.461 92.0561 159.539 90.9559 160.111 90.0587L188.064 46.3349ZM162.027 91.3662C162.047 91.6223 162.107 91.893 162.224 92.1519C162.496 92.765 162.993 93.2908 163.634 93.646L188.243 106.964C189.568 107.69 191.133 107.427 191.792 106.398L218.984 63.8482C219.337 63.2806 219.373 62.5825 219.076 61.9014C218.804 61.2883 218.307 60.7625 217.666 60.4073L193.057 47.1023C191.732 46.3905 190.167 46.6397 189.508 47.6687L162.316 90.2051C162.096 90.5481 161.999 90.9486 162.027 91.3662Z" fill="#C7F2F9"/>
<path d="M194.422 44.4005L219.564 57.9903C220.657 58.5741 221.504 59.433 222.055 60.4309C222.137 60.4871 222.204 60.5698 222.257 60.652L224.559 64.6064C225.4 66.0835 225.416 67.7108 224.625 68.9645L196.658 112.674C195.31 114.772 192.054 115.32 189.377 113.869L164.235 100.279C163.361 99.8095 162.591 99.1278 161.994 98.2629L161.836 98.0028L159.624 94.2394C159.624 94.2394 159.598 94.2117 159.598 94.1983C159.359 93.8684 159.148 93.526 158.992 93.1718C158.773 92.6678 158.651 92.1398 158.612 91.6412C158.556 90.8059 158.749 90.0049 159.189 89.3055L187.142 45.5952C188.476 43.4837 191.746 42.9493 194.409 44.3867L194.422 44.4005ZM164.458 99.412L189.6 113.002C190.57 113.528 191.634 113.721 192.637 113.644C193.933 113.534 195.091 112.964 195.751 111.935L223.397 68.6859L223.69 68.2241C224.042 67.6699 224.202 67.0158 224.168 66.3694C224.129 65.8574 223.979 65.342 223.703 64.8632L222.664 63.0709C222.603 63.6606 222.431 64.2337 222.108 64.7484L221.566 65.6062L194.155 108.459C193.452 109.567 192.221 110.216 190.825 110.403C189.555 110.567 188.158 110.35 186.889 109.654L161.747 96.064C161.747 96.064 161.706 96.0359 161.692 96.022L162.825 97.9381C163.249 98.5558 163.803 99.0429 164.473 99.399L164.458 99.412ZM159.913 93.0648C160.288 93.923 161.014 94.6842 161.956 95.1829L187.098 108.786C189.337 109.996 192.091 109.513 193.234 107.719L221.188 64.0083C221.554 63.4411 221.714 62.7871 221.666 62.1268C221.637 61.7495 221.553 61.3571 221.384 60.989C221.009 60.1308 220.283 59.3697 219.341 58.8576L194.199 45.2678C191.96 44.0582 189.206 44.5407 188.063 46.3352L160.11 90.0455C159.538 90.9427 159.46 92.0429 159.913 93.0648Z" fill="#021433"/>
<path d="M189.499 47.6673C190.159 46.6248 191.723 46.3757 193.048 47.1009L217.644 60.392C218.285 60.7473 218.796 61.2734 219.054 61.8862C219.351 62.5673 219.314 63.2788 218.962 63.833L191.756 106.382C191.096 107.425 189.531 107.674 188.207 106.949L163.598 93.6438C162.956 93.302 162.459 92.7628 162.188 92.1497C162.071 91.8908 162.01 91.6201 161.991 91.364C161.963 90.9464 162.06 90.5459 162.279 90.2029L189.499 47.6673ZM164.066 92.9183L166.538 94.2559L171.263 96.8169L173.735 98.1544C174.841 98.7521 176.197 98.5236 176.754 97.6394L178.014 95.6736L180.417 91.9134L181.677 89.9477C182.234 89.0634 181.8 87.8674 180.694 87.2697L178.222 85.9321L173.497 83.3711L171.026 82.0336C169.919 81.4359 168.564 81.6644 168.007 82.5486L166.747 84.5143L164.344 88.2746L163.084 90.2538C162.527 91.138 162.96 92.3341 164.066 92.9317L164.066 92.9183ZM191.189 105.438L192.449 103.472L194.852 99.7118L196.112 97.746C196.669 96.8618 196.236 95.6657 195.129 95.068L192.658 93.7305L187.933 91.1695L185.461 89.8319C184.355 89.2342 182.999 89.4627 182.442 90.3469L181.182 92.3127L178.779 96.0729L177.519 98.0387C176.962 98.9229 177.395 100.119 178.502 100.717L180.973 102.054L185.698 104.615L188.17 105.953C189.276 106.55 190.632 106.322 191.189 105.438ZM189.943 48.1108L188.683 50.0766L186.28 53.8368L185.021 55.8026C184.464 56.6868 184.897 57.8829 186.003 58.4805L188.475 59.8181L193.2 62.3791L195.672 63.7167C196.778 64.3143 198.133 64.0859 198.691 63.2016L199.95 61.2359L202.353 57.4757L203.613 55.5099C204.17 54.6257 203.737 53.4296 202.631 52.8319L200.159 51.4944L195.434 48.9333L192.962 47.5958C191.856 46.9981 190.5 47.2266 189.943 48.1108ZM171.378 81.4525L173.85 82.79L178.575 85.3511L181.047 86.6886C182.153 87.2863 183.509 87.0578 184.066 86.1736L185.326 84.2078L187.728 80.4476L188.988 78.4818C189.545 77.5976 189.112 76.4015 188.006 75.8038L185.534 74.4663L180.809 71.9053L178.337 70.5677C177.231 69.9701 175.875 70.1985 175.318 71.0828L174.058 73.0485L171.656 76.8087L170.396 78.7745C169.839 79.6587 170.272 80.8548 171.378 81.4525ZM198.501 93.9585L199.761 91.9928L202.164 88.2325L203.424 86.2668C203.981 85.3826 203.548 84.1865 202.442 83.5888L199.97 82.2512L195.245 79.6902L192.773 78.3527C191.667 77.755 190.311 77.9835 189.754 78.8677L188.494 80.8334L186.091 84.5937L184.831 86.5729C184.274 87.4571 184.707 88.6532 185.813 89.2509L188.285 90.5884L193.01 93.1494L195.482 94.487C196.588 95.0846 197.944 94.8562 198.501 93.972L198.501 93.9585ZM209.74 72.0957L207.268 70.7581L202.544 68.1971L200.072 66.8596C198.966 66.2619 197.61 66.4904 197.053 67.3746L195.793 69.3403L193.39 73.1006L192.13 75.0663C191.573 75.9505 192.006 77.1466 193.113 77.7443L195.584 79.0819L200.309 81.6429L202.781 82.9804C203.887 83.5781 205.243 83.3496 205.8 82.4654L207.06 80.4997L209.463 76.7394L210.723 74.7737C211.28 73.8895 210.846 72.6934 209.74 72.0957ZM178.691 69.9598L181.163 71.2974L185.888 73.8584L188.359 75.1959C189.466 75.7936 190.821 75.5651 191.378 74.6809L192.639 72.7017L195.042 68.9415L196.301 66.9757C196.858 66.0915 196.425 64.8954 195.319 64.2977L192.847 62.9602L188.122 60.3992L185.65 59.0616C184.544 58.4639 183.189 58.6924 182.631 59.5766L181.372 61.5424L178.969 65.3026L177.709 67.2684C177.152 68.1526 177.585 69.3487 178.691 69.9464L178.691 69.9598ZM217.066 60.6168L214.595 59.2793L209.87 56.7183L207.398 55.3807C206.292 54.7831 204.936 55.0115 204.379 55.8957L203.119 57.8615L200.716 61.6217L199.456 63.5875C198.899 64.4717 199.332 65.6678 200.439 66.2655L202.91 67.603L207.635 70.164L210.107 71.5016C211.213 72.0993 212.569 71.8708 213.126 70.9866L214.386 69.0208L216.789 65.2606L218.049 63.2948C218.606 62.4106 218.173 61.2145 217.066 60.6168Z" fill="#021433"/>
<path d="M218.096 63.31L216.836 65.2757L214.433 69.036L213.174 71.0017C212.616 71.8859 211.261 72.1144 210.155 71.5167L207.683 70.1792L202.958 67.6182L200.486 66.2806C199.38 65.683 198.933 64.4864 199.504 63.6026L200.763 61.6369L203.166 57.8767L204.426 55.9109C204.983 55.0267 206.339 54.7982 207.445 55.3959L209.917 56.7334L214.642 59.2944L217.114 60.632C218.22 61.2297 218.667 62.4262 218.096 63.31Z" fill="#3CAEF2"/>
<path d="M209.469 76.7543L207.066 80.5145L205.806 82.4802C205.249 83.3645 203.894 83.5929 202.787 82.9953L200.316 81.6577L195.591 79.0967L193.119 77.7592C192.013 77.1615 191.565 75.965 192.136 75.0812L193.396 73.1154L195.799 69.3552L197.059 67.3894C197.616 66.5052 198.972 66.2767 200.078 66.8744L202.55 68.2119L207.275 70.773L209.746 72.1105C210.853 72.7082 211.3 73.9047 210.729 74.7885L209.469 76.7543Z" fill="#3CAEF2"/>
<path d="M193.003 93.1399L188.278 90.5789L185.806 89.2413C184.7 88.6437 184.252 87.4471 184.823 86.5633L186.084 84.5842L188.486 80.8239L189.746 78.8582C190.303 77.9739 191.659 77.7455 192.765 78.3431L195.237 79.6807L199.962 82.2417L202.434 83.5793C203.54 84.1769 203.987 85.3734 203.416 86.2572L202.156 88.223L199.754 91.9832L198.494 93.949C197.937 94.8332 196.581 95.0617 195.475 94.464L193.003 93.1265L193.003 93.1399Z" fill="#3CAEF2"/>
<path d="M185.698 104.609L180.973 102.048L178.502 100.71C177.395 100.113 176.948 98.9161 177.519 98.0323L178.779 96.0666L181.182 92.3063L182.442 90.3406C182.999 89.4564 184.354 89.2279 185.461 89.8256L187.932 91.1631L192.657 93.7241L195.129 95.0617C196.235 95.6594 196.683 96.8559 196.112 97.7397L194.852 99.7054L192.449 103.466L191.189 105.431C190.632 106.316 189.276 106.544 188.17 105.946L185.698 104.609Z" fill="#3CAEF2"/>
<path d="M195.448 48.9366L200.173 51.4976L202.645 52.8351C203.751 53.4328 204.198 54.6293 203.627 55.5131L202.367 57.4789L199.965 61.2391L198.705 63.2049C198.148 64.0891 196.792 64.3176 195.686 63.7199L193.214 62.3823L188.489 59.8213L186.017 58.4838C184.911 57.8861 184.464 56.6896 185.035 55.8058L186.295 53.84L188.697 50.0798L189.957 48.114C190.514 47.2298 191.87 47.0013 192.976 47.599L195.448 48.9366Z" fill="#3CAEF2"/>
<path d="M177.723 67.2748L178.983 65.309L181.385 61.5488L182.645 59.583C183.202 58.6988 184.558 58.4703 185.664 59.068L188.136 60.4055L192.861 62.9666L195.333 64.3041C196.439 64.9018 196.886 66.0983 196.315 66.9821L195.055 68.9479L192.653 72.7081L191.392 74.6873C190.835 75.5715 189.479 75.8 188.373 75.2023L185.901 73.8647L181.176 71.3037L178.705 69.9662C177.598 69.3685 177.151 68.172 177.722 67.2882L177.723 67.2748Z" fill="#3CAEF2"/>
<path d="M170.386 78.7569L171.646 76.7912L174.049 73.031L175.309 71.0652C175.866 70.181 177.222 69.9525 178.328 70.5502L180.8 71.8877L185.525 74.4487L187.996 75.7863C189.103 76.384 189.55 77.5805 188.979 78.4643L187.719 80.43L185.316 84.1903L184.056 86.156C183.499 87.0402 182.144 87.2687 181.037 86.671L178.566 85.3335L173.841 82.7725L171.369 81.4349C170.263 80.8373 169.815 79.6407 170.386 78.7569Z" fill="#3CAEF2"/>
<path d="M163.081 90.2372L164.342 88.258L166.744 84.4978L168.004 82.532C168.561 81.6478 169.917 81.4193 171.023 82.017L173.495 83.3545L178.22 85.9155L180.692 87.2531C181.798 87.8508 182.245 89.0473 181.674 89.9311L180.414 91.8968L178.011 95.6571L176.752 97.6228C176.195 98.507 174.839 98.7355 173.733 98.1378L171.261 96.8003L166.536 94.2393L164.064 92.9017C162.958 92.3041 162.511 91.1075 163.082 90.2237L163.081 90.2372Z" fill="#3CAEF2"/>
</g>
<g clip-path="url(#clip2_744_44296)">
<path d="M158.887 165.428L186.283 122.574L188.127 125.668L160.469 168.903C159.824 169.92 158.651 170.503 157.355 170.612L155.543 167.372C156.939 167.185 158.17 166.536 158.873 165.427L158.887 165.428Z" fill="#3CAEF2"/>
<path d="M186.797 121.715C187.119 121.2 187.291 120.627 187.352 120.038L188.391 121.83C188.667 122.309 188.817 122.824 188.856 123.336C188.904 123.996 188.744 124.637 188.378 125.191L188.085 125.653L186.241 122.559L186.783 121.701L186.797 121.715Z" fill="#297DCD"/>
<path d="M126.586 154.971C126.586 154.971 126.559 154.943 126.546 154.929L124.334 151.18C124.334 151.18 124.361 151.207 124.36 151.221L126.572 154.984L126.586 154.971Z" fill="#277DCF"/>
<path d="M126.384 152.998C126.384 152.998 126.425 153.026 126.438 153.04L151.581 166.629C152.851 167.312 154.247 167.542 155.517 167.378L157.329 170.619C156.34 170.697 155.276 170.504 154.292 169.977L129.15 156.388C128.481 156.032 127.927 155.531 127.502 154.927L126.37 153.011L126.384 152.998Z" fill="#277DCF"/>
<path d="M152.781 103.306C153.924 101.512 156.678 101.029 158.918 102.239L184.06 115.828C185.003 116.327 185.728 117.088 186.103 117.959C186.271 118.327 186.356 118.72 186.385 119.097C186.433 119.757 186.259 120.411 185.907 120.979L157.955 164.69C156.812 166.484 154.058 166.967 151.818 165.757L126.676 152.168C125.733 151.656 125.007 150.908 124.633 150.05C124.18 149.028 124.257 147.928 124.829 147.031L152.781 103.306ZM126.746 148.338C126.765 148.594 126.826 148.865 126.942 149.124C127.214 149.737 127.711 150.263 128.353 150.618L152.962 163.936C154.286 164.661 155.851 164.399 156.511 163.369L183.702 120.819C184.054 120.251 184.091 119.553 183.793 118.872C183.522 118.259 183.025 117.733 182.383 117.378L157.774 104.074C156.449 103.362 154.884 103.611 154.225 104.64L127.034 147.177C126.814 147.52 126.718 147.921 126.746 148.338Z" fill="#C7F2F9"/>
<path d="M159.147 101.368L184.289 114.957C185.382 115.541 186.229 116.4 186.78 117.398C186.862 117.454 186.929 117.537 186.982 117.619L189.284 121.573C190.125 123.05 190.142 124.678 189.35 125.931L161.384 169.642C160.037 171.74 156.78 172.288 154.104 170.837L128.961 157.248C128.087 156.778 127.317 156.096 126.72 155.231L126.562 154.971L124.35 151.208C124.35 151.208 124.324 151.18 124.324 151.167C124.085 150.837 123.873 150.494 123.718 150.14C123.499 149.636 123.377 149.108 123.338 148.61C123.282 147.774 123.475 146.973 123.915 146.274L151.866 102.563C153.2 100.451 156.47 99.9169 159.133 101.354L159.147 101.368ZM129.184 156.38L154.327 169.969C155.296 170.496 156.36 170.689 157.363 170.611C158.66 170.502 159.818 169.931 160.477 168.902L188.122 125.653L188.415 125.191C188.767 124.637 188.927 123.983 188.893 123.336C188.854 122.824 188.704 122.309 188.428 121.83L187.389 120.038C187.328 120.627 187.156 121.2 186.834 121.715L186.291 122.573L158.882 165.426C158.178 166.535 156.948 167.184 155.552 167.371C154.281 167.535 152.885 167.318 151.615 166.622L126.473 153.032C126.473 153.032 126.432 153.004 126.418 152.99L127.551 154.906C127.975 155.524 128.529 156.011 129.199 156.367L129.184 156.38ZM124.639 150.033C125.014 150.891 125.74 151.653 126.682 152.151L151.824 165.754C154.064 166.963 156.818 166.481 157.961 164.686L185.913 120.975C186.279 120.408 186.439 119.754 186.391 119.094C186.362 118.716 186.278 118.324 186.109 117.956C185.734 117.098 185.008 116.337 184.066 115.824L158.924 102.235C156.684 101.026 153.93 101.508 152.787 103.303L124.835 147.014C124.264 147.911 124.186 149.011 124.639 150.033Z" fill="#021433"/>
<path d="M154.255 104.639C154.915 103.596 156.48 103.347 157.804 104.072L182.4 117.363C183.042 117.718 183.553 118.244 183.81 118.857C184.108 119.538 184.071 120.249 183.719 120.804L156.514 163.354C155.854 164.396 154.289 164.645 152.965 163.92L128.355 150.616C127.713 150.274 127.217 149.735 126.945 149.122C126.828 148.863 126.768 148.592 126.748 148.336C126.72 147.919 126.817 147.518 127.037 147.175L154.255 104.639ZM128.824 149.89L131.296 151.228L136.021 153.789L138.493 155.126C139.599 155.724 140.954 155.495 141.512 154.611L142.771 152.645L145.174 148.885L146.434 146.919C146.991 146.035 146.558 144.839 145.451 144.241L142.98 142.904L138.254 140.343L135.783 139.005C134.676 138.408 133.321 138.636 132.764 139.521L131.504 141.486L129.101 145.247L127.841 147.226C127.284 148.11 127.717 149.306 128.823 149.904L128.824 149.89ZM155.947 162.409L157.207 160.443L159.609 156.683L160.869 154.717C161.426 153.833 160.993 152.637 159.887 152.039L157.415 150.702L152.69 148.141L150.218 146.803C149.112 146.206 147.756 146.434 147.199 147.319L145.939 149.284L143.537 153.045L142.277 155.01C141.72 155.895 142.153 157.091 143.259 157.688L145.731 159.026L150.456 161.587L152.928 162.924C154.034 163.522 155.39 163.293 155.947 162.409ZM154.699 105.082L153.439 107.048L151.037 110.808L149.777 112.774C149.22 113.658 149.653 114.854 150.759 115.452L153.231 116.79L157.956 119.35L160.428 120.688C161.534 121.286 162.89 121.057 163.447 120.173L164.707 118.207L167.11 114.447L168.369 112.481C168.926 111.597 168.493 110.401 167.387 109.803L164.915 108.466L160.19 105.905L157.718 104.567C156.612 103.969 155.256 104.198 154.699 105.082ZM136.135 138.424L138.607 139.762L143.332 142.323L145.804 143.66C146.91 144.258 148.266 144.029 148.823 143.145L150.083 141.179L152.485 137.419L153.745 135.453C154.302 134.569 153.869 133.373 152.763 132.775L150.291 131.438L145.566 128.877L143.094 127.539C141.988 126.942 140.632 127.17 140.075 128.055L138.815 130.02L136.413 133.781L135.153 135.746C134.596 136.631 135.029 137.827 136.135 138.424ZM163.259 150.93L164.519 148.964L166.921 145.204L168.181 143.238C168.738 142.354 168.305 141.158 167.199 140.56L164.727 139.222L160.002 136.662L157.53 135.324C156.424 134.726 155.068 134.955 154.511 135.839L153.251 137.805L150.848 141.565L149.588 143.544C149.031 144.429 149.464 145.625 150.571 146.222L153.043 147.56L157.768 150.121L160.239 151.458C161.346 152.056 162.701 151.827 163.258 150.943L163.259 150.93ZM174.497 129.067L172.025 127.729L167.3 125.168L164.828 123.831C163.722 123.233 162.366 123.462 161.809 124.346L160.55 126.312L158.147 130.072L156.887 132.038C156.33 132.922 156.763 134.118 157.87 134.716L160.341 136.053L165.066 138.614L167.538 139.952C168.644 140.549 170 140.321 170.557 139.436L171.817 137.471L174.22 133.71L175.479 131.745C176.037 130.86 175.603 129.664 174.497 129.067ZM143.448 126.932L145.919 128.269L150.644 130.83L153.116 132.167C154.223 132.765 155.578 132.537 156.135 131.652L157.396 129.673L159.798 125.913L161.058 123.947C161.615 123.063 161.182 121.867 160.076 121.269L157.604 119.932L152.879 117.371L150.407 116.033C149.301 115.436 147.945 115.664 147.388 116.548L146.128 118.514L143.725 122.274L142.466 124.24C141.908 125.124 142.342 126.32 143.448 126.918L143.448 126.932ZM181.823 117.588L179.351 116.25L174.626 113.689L172.154 112.352C171.048 111.754 169.692 111.983 169.135 112.867L167.875 114.833L165.473 118.593L164.213 120.559C163.656 121.443 164.089 122.639 165.195 123.237L167.667 124.574L172.392 127.135L174.864 128.472C175.97 129.07 177.326 128.842 177.883 127.957L179.143 125.992L181.545 122.231L182.805 120.266C183.362 119.381 182.929 118.185 181.823 117.588Z" fill="#021433"/>
<path d="M182.775 120.283L181.516 122.248L179.113 126.009L177.853 127.975C177.296 128.859 175.94 129.087 174.834 128.49L172.362 127.152L167.637 124.591L165.165 123.254C164.059 122.656 163.612 121.46 164.183 120.576L165.443 118.61L167.845 114.85L169.105 112.884C169.662 112 171.018 111.771 172.124 112.369L174.596 113.706L179.321 116.267L181.793 117.605C182.899 118.202 183.346 119.399 182.775 120.283Z" fill="#3CAEF2"/>
<path d="M174.18 133.729L171.777 137.489L170.517 139.455C169.96 140.339 168.604 140.568 167.498 139.97L165.026 138.633L160.301 136.072L157.83 134.734C156.723 134.137 156.276 132.94 156.847 132.056L158.107 130.09L160.51 126.33L161.769 124.364C162.326 123.48 163.682 123.252 164.788 123.849L167.26 125.187L171.985 127.748L174.457 129.085C175.563 129.683 176.01 130.879 175.439 131.763L174.18 133.729Z" fill="#3CAEF2"/>
<path d="M157.737 150.113L153.012 147.552L150.54 146.214C149.434 145.617 148.987 144.42 149.558 143.536L150.818 141.557L153.22 137.797L154.48 135.831C155.037 134.947 156.393 134.718 157.499 135.316L159.971 136.654L164.696 139.214L167.168 140.552C168.274 141.15 168.721 142.346 168.15 143.23L166.891 145.196L164.488 148.956L163.228 150.922C162.671 151.806 161.315 152.035 160.209 151.437L157.737 150.099L157.737 150.113Z" fill="#3CAEF2"/>
<path d="M150.409 161.572L145.684 159.011L143.212 157.674C142.106 157.076 141.659 155.88 142.23 154.996L143.49 153.03L145.892 149.27L147.152 147.304C147.709 146.42 149.065 146.191 150.171 146.789L152.643 148.126L157.368 150.687L159.84 152.025C160.946 152.622 161.393 153.819 160.822 154.703L159.563 156.668L157.16 160.429L155.9 162.394C155.343 163.279 153.987 163.507 152.881 162.91L150.409 161.572Z" fill="#3CAEF2"/>
<path d="M160.182 105.913L164.907 108.474L167.379 109.812C168.485 110.409 168.932 111.606 168.361 112.49L167.102 114.455L164.699 118.216L163.439 120.182C162.882 121.066 161.526 121.294 160.42 120.697L157.948 119.359L153.223 116.798L150.751 115.461C149.645 114.863 149.198 113.667 149.769 112.783L151.029 110.817L153.431 107.057L154.691 105.091C155.248 104.207 156.604 103.978 157.71 104.576L160.182 105.913Z" fill="#3CAEF2"/>
<path d="M142.433 124.252L143.693 122.286L146.096 118.526L147.356 116.56C147.913 115.676 149.268 115.447 150.375 116.045L152.847 117.382L157.572 119.943L160.043 121.281C161.15 121.878 161.597 123.075 161.026 123.959L159.766 125.924L157.363 129.685L156.103 131.664C155.546 132.548 154.19 132.777 153.084 132.179L150.612 130.842L145.887 128.281L143.415 126.943C142.309 126.346 141.862 125.149 142.433 124.265L142.433 124.252Z" fill="#3CAEF2"/>
<path d="M135.136 135.738L136.396 133.772L138.799 130.012L140.058 128.046C140.615 127.162 141.971 126.933 143.077 127.531L145.549 128.868L150.274 131.429L152.746 132.767C153.852 133.364 154.3 134.561 153.729 135.445L152.469 137.411L150.066 141.171L148.806 143.137C148.249 144.021 146.894 144.249 145.787 143.652L143.315 142.314L138.59 139.753L136.119 138.416C135.012 137.818 134.565 136.622 135.136 135.738Z" fill="#3CAEF2"/>
<path d="M127.784 147.22L129.044 145.241L131.447 141.481L132.707 139.515C133.264 138.631 134.62 138.402 135.726 139L138.198 140.337L142.923 142.898L145.395 144.236C146.501 144.833 146.948 146.03 146.377 146.913L145.117 148.879L142.715 152.64L141.455 154.605C140.898 155.49 139.542 155.718 138.436 155.12L135.964 153.783L131.239 151.222L128.767 149.885C127.661 149.287 127.214 148.09 127.785 147.207L127.784 147.22Z" fill="#3CAEF2"/>
</g>
<g clip-path="url(#clip3_744_44296)">
<path d="M142.207 81.2072L169.603 38.3535L171.447 41.447L143.789 84.6828C143.144 85.6989 141.971 86.2824 140.675 86.3917L138.863 83.1512C140.259 82.9642 141.49 82.3152 142.193 81.2067L142.207 81.2072Z" fill="#3CAEF2"/>
<path d="M170.133 37.4964C170.455 36.9817 170.627 36.4086 170.688 35.8189L171.727 37.6111C172.003 38.0899 172.153 38.6053 172.192 39.1174C172.24 39.7776 172.08 40.4182 171.714 40.972L171.421 41.4339L169.577 38.3403L170.119 37.4826L170.133 37.4964Z" fill="#297DCD"/>
<path d="M109.907 70.7463C109.907 70.7463 109.88 70.7186 109.866 70.7048L107.654 66.9549C107.654 66.9549 107.681 66.9826 107.681 66.996L109.892 70.7594L109.907 70.7463Z" fill="#277DCF"/>
<path d="M109.705 68.7733C109.705 68.7733 109.745 68.8014 109.759 68.8153L134.901 82.4044C136.171 83.0876 137.568 83.3174 138.838 83.1536L140.649 86.3941C139.66 86.4721 138.596 86.2791 137.613 85.7523L112.471 72.1632C111.801 71.8071 111.248 71.3066 110.823 70.7024L109.69 68.7863L109.705 68.7733Z" fill="#277DCF"/>
<path d="M136.102 19.0819C137.244 17.2874 139.998 16.8047 142.238 18.0143L167.38 31.6034C168.323 32.1021 169.049 32.8632 169.423 33.7348C169.592 34.1029 169.676 34.4953 169.705 34.8726C169.753 35.5329 169.579 36.1865 169.227 36.7541L141.275 80.4652C140.132 82.2597 137.378 82.7423 135.138 81.5327L109.996 67.9436C109.054 67.4315 108.328 66.6839 107.953 65.8256C107.5 64.8038 107.578 63.7036 108.149 62.8063L136.102 19.0819ZM110.066 64.1138C110.085 64.3699 110.146 64.6406 110.263 64.8995C110.534 65.5126 111.031 66.0384 111.673 66.3936L136.282 79.7114C137.607 80.4366 139.172 80.1739 139.831 79.1449L167.022 36.5943C167.374 36.0267 167.411 35.3286 167.114 34.6475C166.842 34.0344 166.345 33.5087 165.703 33.1534L141.094 19.8491C139.769 19.1373 138.204 19.3865 137.545 20.4156L110.354 62.9527C110.135 63.2957 110.038 63.6962 110.066 64.1138Z" fill="#C7F2F9"/>
<path d="M142.475 17.1493L167.617 30.7384C168.71 31.3223 169.558 32.1811 170.109 33.179C170.19 33.2352 170.257 33.3179 170.31 33.4001L172.612 37.3544C173.454 38.8315 173.47 40.4588 172.678 41.7126L144.712 85.4232C143.365 87.5208 140.108 88.0692 137.432 86.618L112.29 73.0289C111.415 72.5592 110.646 71.8774 110.048 71.0126L109.89 70.7524L107.679 66.9891C107.679 66.9891 107.652 66.9614 107.652 66.948C107.413 66.6182 107.202 66.2757 107.046 65.9215C106.827 65.4175 106.705 64.8895 106.666 64.3909C106.61 63.5556 106.803 62.7547 107.243 62.0552L135.195 18.3442C136.529 16.2327 139.798 15.6982 142.462 17.1355L142.475 17.1493ZM112.513 72.1616L137.655 85.7507C138.624 86.2771 139.688 86.4701 140.692 86.3924C141.988 86.2832 143.146 85.7126 143.805 84.6836L171.45 41.434L171.743 40.9721C172.095 40.4179 172.256 39.7639 172.221 39.1175C172.182 38.6054 172.032 38.09 171.756 37.6112L170.717 35.8189C170.656 36.4087 170.484 36.9817 170.162 37.4965L169.619 38.3543L142.21 81.2075C141.506 82.3159 140.276 82.965 138.88 83.152C137.61 83.3158 136.213 83.0994 134.943 82.4028L109.801 68.8136C109.801 68.8136 109.76 68.7855 109.747 68.7717L110.879 70.6877C111.304 71.3054 111.858 71.7925 112.527 72.1486L112.513 72.1616ZM107.967 65.8145C108.342 66.6727 109.068 67.4338 110.01 67.9325L135.152 81.5351C137.392 82.7446 140.146 82.262 141.289 80.4675L169.241 36.7565C169.607 36.1892 169.767 35.5352 169.719 34.8749C169.69 34.4976 169.606 34.1052 169.437 33.7371C169.062 32.8789 168.337 32.1178 167.394 31.6057L142.252 18.0166C140.012 16.807 137.258 17.2897 136.115 19.0842L108.163 62.7952C107.592 63.6925 107.514 64.7926 107.967 65.8145Z" fill="#021433"/>
<path d="M137.575 20.42C138.235 19.3775 139.8 19.1283 141.124 19.8535L165.72 33.144C166.362 33.4992 166.873 34.0254 167.131 34.6381C167.428 35.3192 167.391 36.0307 167.039 36.5849L139.834 79.135C139.174 80.1775 137.61 80.4267 136.285 79.7015L111.676 66.3972C111.034 66.0554 110.537 65.5162 110.265 64.9031C110.149 64.6442 110.088 64.3735 110.069 64.1174C110.041 63.6998 110.137 63.2993 110.357 62.9563L137.575 20.42ZM112.144 65.6717L114.616 67.0091L119.341 69.57L121.813 70.9075C122.919 71.5052 124.275 71.2767 124.832 70.3924L126.092 68.4266L128.494 64.6663L129.754 62.7006C130.311 61.8163 129.878 60.6202 128.772 60.0226L126.3 58.6851L121.575 56.1242L119.103 54.7867C117.997 54.1891 116.641 54.4176 116.084 55.3018L114.824 57.2676L112.422 61.0279L111.161 63.0071C110.604 63.8914 111.038 65.0874 112.144 65.6851L112.144 65.6717ZM139.267 78.1904L140.527 76.2246L142.93 72.4643L144.19 70.4985C144.747 69.6143 144.313 68.4182 143.207 67.8206L140.735 66.4831L136.01 63.9222L133.538 62.5847C132.432 61.9871 131.076 62.2156 130.519 63.0998L129.26 65.0656L126.857 68.8259L125.597 70.7917C125.04 71.6759 125.473 72.872 126.58 73.4697L129.051 74.8071L133.776 77.368L136.248 78.7055C137.355 79.3032 138.71 79.0746 139.267 78.1904ZM138.019 20.8635L136.76 22.8293L134.357 26.5896L133.097 28.5554C132.54 29.4396 132.974 30.6357 134.08 31.2333L136.552 32.5708L141.277 35.1317L143.748 36.4692C144.855 37.0668 146.21 36.8383 146.767 35.9541L148.027 33.9883L150.43 30.228L151.69 28.2622C152.247 27.378 151.813 26.1819 150.707 25.5843L148.235 24.2468L143.51 21.6859L141.039 20.3484C139.932 19.7507 138.577 19.9793 138.019 20.8635ZM119.456 54.2056L121.927 55.5431L126.652 58.104L129.124 59.4415C130.231 60.0392 131.586 59.8106 132.143 58.9264L133.403 56.9606L135.806 53.2003L137.066 51.2345C137.623 50.3503 137.189 49.1542 136.083 48.5566L133.611 47.2191L128.886 44.6582L126.414 43.3207C125.308 42.7231 123.952 42.9516 123.395 43.8358L122.136 45.8016L119.733 49.5619L118.473 51.5277C117.916 52.4119 118.349 53.608 119.456 54.2056ZM146.579 66.711L147.839 64.7452L150.242 60.9849L151.501 59.0191C152.059 58.1349 151.625 56.9388 150.519 56.3411L148.047 55.0037L143.322 52.4428L140.85 51.1053C139.744 50.5076 138.388 50.7361 137.831 51.6204L136.571 53.5862L134.169 57.3465L132.909 59.3257C132.351 60.2099 132.785 61.406 133.891 62.0036L136.363 63.3411L141.088 65.902L143.56 67.2395C144.666 67.8372 146.022 67.6086 146.579 66.7244L146.579 66.711ZM157.817 44.8478L155.346 43.5104L150.62 40.9495L148.149 39.612C147.042 39.0143 145.687 39.2429 145.13 40.1271L143.87 42.0929L141.467 45.8532L140.207 47.819C139.65 48.7032 140.084 49.8993 141.19 50.4969L143.662 51.8344L148.387 54.3953L150.859 55.7328C151.965 56.3304 153.32 56.1019 153.878 55.2177L155.137 53.2519L157.54 49.4916L158.8 47.5258C159.357 46.6416 158.924 45.4455 157.817 44.8478ZM126.768 42.7128L129.24 44.0503L133.965 46.6112L136.437 47.9486C137.543 48.5463 138.898 48.3178 139.456 47.4335L140.716 45.4543L143.119 41.694L144.378 39.7282C144.935 38.844 144.502 37.6479 143.396 37.0503L140.924 35.7128L136.199 33.1519L133.727 31.8144C132.621 31.2168 131.265 31.4453 130.708 32.3295L129.448 34.2953L127.046 38.0556L125.786 40.0214C125.229 40.9056 125.662 42.1017 126.768 42.6993L126.768 42.7128ZM165.143 33.3688L162.671 32.0313L157.946 29.4704L155.474 28.133C154.368 27.5353 153.012 27.7638 152.455 28.648L151.196 30.6138L148.793 34.3741L147.533 36.3399C146.976 37.2242 147.409 38.4202 148.516 39.0179L150.987 40.3554L155.712 42.9163L158.184 44.2537C159.291 44.8514 160.646 44.6229 161.203 43.7387L162.463 41.7729L164.866 38.0126L166.126 36.0468C166.683 35.1625 166.249 33.9665 165.143 33.3688Z" fill="#021433"/>
<path d="M166.111 36.06L164.852 38.0258L162.449 41.7861L161.189 43.7519C160.632 44.6361 159.276 44.8646 158.17 44.267L155.698 42.9295L150.973 40.3686L148.501 39.0311C147.395 38.4334 146.948 37.2369 147.519 36.3531L148.779 34.3873L151.181 30.627L152.441 28.6613C152.998 27.777 154.354 27.5485 155.46 28.1462L157.932 29.4836L162.657 32.0445L165.129 33.382C166.235 33.9797 166.682 35.1762 166.111 36.06Z" fill="#3CAEF2"/>
<path d="M157.531 49.5062L155.129 53.2665L153.869 55.2323C153.312 56.1166 151.956 56.3451 150.85 55.7474L148.378 54.4099L143.653 51.849L141.181 50.5116C140.075 49.9139 139.628 48.7174 140.199 47.8336L141.458 45.8678L143.861 42.1075L145.121 40.1417C145.678 39.2575 147.034 39.029 148.14 39.6266L150.612 40.9641L155.337 43.525L157.809 44.8625C158.915 45.4601 159.362 46.6566 158.791 47.5404L157.531 49.5062Z" fill="#3CAEF2"/>
<path d="M141.073 65.8902L136.348 63.3293L133.876 61.9918C132.77 61.3941 132.323 60.1976 132.894 59.3138L134.154 57.3346L136.556 53.5743L137.816 51.6085C138.373 50.7243 139.729 50.4958 140.835 51.0934L143.307 52.4309L148.032 54.9918L150.504 56.3293C151.61 56.9269 152.057 58.1234 151.486 59.0072L150.227 60.973L147.824 64.7333L146.564 66.6991C146.007 67.5834 144.651 67.8119 143.545 67.2142L141.073 65.8767L141.073 65.8902Z" fill="#3CAEF2"/>
<path d="M133.745 77.3474L129.02 74.7865L126.548 73.4491C125.442 72.8514 124.995 71.6549 125.566 70.7711L126.826 68.8053L129.228 65.045L130.488 63.0792C131.045 62.195 132.401 61.9665 133.507 62.5641L135.979 63.9016L140.704 66.4625L143.176 67.8C144.282 68.3976 144.729 69.5941 144.158 70.478L142.898 72.4437L140.496 76.204L139.236 78.1698C138.679 79.0541 137.323 79.2826 136.217 78.6849L133.745 77.3474Z" fill="#3CAEF2"/>
<path d="M143.534 21.6848L148.259 24.2457L150.73 25.5832C151.837 26.1808 152.284 27.3773 151.713 28.2612L150.453 30.2269L148.05 33.9872L146.791 35.953C146.234 36.8373 144.878 37.0658 143.772 36.4681L141.3 35.1306L136.575 32.5697L134.103 31.2323C132.997 30.6346 132.55 29.4381 133.121 28.5543L134.38 26.5885L136.783 22.8282L138.043 20.8624C138.6 19.9782 139.956 19.7497 141.062 20.3473L143.534 21.6848Z" fill="#3CAEF2"/>
<path d="M125.762 40.0311L127.021 38.0653L129.424 34.305L130.684 32.3392C131.241 31.455 132.597 31.2265 133.703 31.8241L136.175 33.1616L140.9 35.7225L143.372 37.06C144.478 37.6576 144.925 38.8541 144.354 39.738L143.094 41.7038L140.692 45.464L139.431 47.4433C138.874 48.3275 137.519 48.556 136.412 47.9584L133.94 46.6209L129.215 44.06L126.744 42.7225C125.637 42.1248 125.19 40.9284 125.761 40.0445L125.762 40.0311Z" fill="#3CAEF2"/>
<path d="M118.48 51.5133L119.74 49.5475L122.142 45.7872L123.402 43.8214C123.959 42.9372 125.315 42.7087 126.421 43.3063L128.893 44.6438L133.618 47.2047L136.09 48.5422C137.196 49.1398 137.643 50.3363 137.072 51.2201L135.813 53.1859L133.41 56.9462L132.15 58.912C131.593 59.7962 130.237 60.0248 129.131 59.4271L126.659 58.0896L121.934 55.5287L119.462 54.1912C118.356 53.5936 117.909 52.3971 118.48 51.5133Z" fill="#3CAEF2"/>
<path d="M111.136 62.9955L112.396 61.0162L114.799 57.256L116.058 55.2902C116.615 54.4059 117.971 54.1774 119.077 54.7751L121.549 56.1126L126.274 58.6734L128.746 60.0109C129.852 60.6086 130.3 61.8051 129.729 62.6889L128.469 64.6547L126.066 68.415L124.806 70.3808C124.249 71.265 122.894 71.4935 121.787 70.8959L119.315 69.5584L114.59 66.9975L112.119 65.66C111.012 65.0623 110.565 63.8659 111.136 62.982L111.136 62.9955Z" fill="#3CAEF2"/>
</g>
<g clip-path="url(#clip4_744_44296)">
<path d="M106.457 138.078L133.853 95.2246L135.697 98.3181L108.039 141.554C107.394 142.57 106.221 143.153 104.925 143.263L103.113 140.022C104.509 139.835 105.74 139.186 106.443 138.078L106.457 138.078Z" fill="#3CAEF2"/>
<path d="M134.422 94.3577C134.744 93.843 134.916 93.27 134.977 92.6802L136.016 94.4725C136.292 94.9513 136.442 95.4666 136.481 95.9787C136.529 96.639 136.369 97.2796 136.003 97.8334L135.71 98.2952L133.866 95.2017L134.408 94.3439L134.422 94.3577Z" fill="#297DCD"/>
<path d="M74.1958 127.615C74.1958 127.615 74.1689 127.588 74.1554 127.574L71.9433 123.824C71.9433 123.824 71.9702 123.852 71.9698 123.865L74.1814 127.628L74.1958 127.615Z" fill="#277DCF"/>
<path d="M73.978 125.639C73.978 125.639 74.0188 125.667 74.0322 125.68L99.1745 139.27C100.445 139.953 101.841 140.183 103.111 140.019L104.923 143.259C103.934 143.337 102.87 143.144 101.886 142.618L76.744 129.028C76.0746 128.672 75.5211 128.172 75.0962 127.568L73.9637 125.652L73.978 125.639Z" fill="#277DCF"/>
<path d="M100.367 75.953C101.51 74.1585 104.264 73.6758 106.504 74.8854L131.646 88.4745C132.589 88.9732 133.314 89.7343 133.689 90.6059C133.857 90.974 133.942 91.3664 133.971 91.7437C134.019 92.404 133.845 93.0576 133.492 93.6252L105.54 137.336C104.398 139.131 101.644 139.613 99.4039 138.404L74.2616 124.815C73.3194 124.303 72.5934 123.555 72.2185 122.697C71.7655 121.675 71.8433 120.575 72.4147 119.677L100.367 75.953ZM74.3316 120.985C74.351 121.241 74.4116 121.512 74.5282 121.771C74.8 122.384 75.297 122.909 75.9386 123.265L100.548 136.582C101.872 137.308 103.437 137.045 104.097 136.016L131.288 93.4654C131.64 92.8978 131.677 92.1997 131.379 91.5186C131.108 90.9055 130.611 90.3798 129.969 90.0245L105.359 76.7202C104.035 76.0084 102.47 76.2576 101.811 77.2867L74.6199 119.824C74.4001 120.167 74.3036 120.567 74.3316 120.985Z" fill="#C7F2F9"/>
<path d="M106.749 74.0126L131.891 87.6017C132.984 88.1855 133.831 89.0444 134.382 90.0423C134.464 90.0985 134.53 90.1812 134.583 90.2634L136.886 94.2177C137.727 95.6948 137.743 97.3221 136.952 98.5758L108.986 142.286C107.638 144.384 104.382 144.932 101.705 143.481L76.563 129.892C75.6888 129.422 74.919 128.741 74.3219 127.876L74.1636 127.616L71.952 123.852C71.952 123.852 71.9251 123.825 71.9255 123.811C71.6862 123.481 71.475 123.139 71.3198 122.785C71.1001 122.281 70.9784 121.753 70.9391 121.254C70.8831 120.419 71.0762 119.618 71.5161 118.918L99.468 75.2074C100.802 73.096 104.072 72.5614 106.735 73.9987L106.749 74.0126ZM76.786 129.025L101.928 142.614C102.898 143.14 103.962 143.333 104.965 143.256C106.261 143.146 107.42 142.576 108.079 141.547L135.724 98.2972L136.017 97.8354C136.369 97.2812 136.529 96.6271 136.495 95.9808C136.456 95.4687 136.306 94.9533 136.03 94.4745L134.99 92.6822C134.929 93.272 134.758 93.845 134.435 94.3598L133.893 95.2175L106.483 138.071C105.78 139.179 104.549 139.828 103.153 140.015C101.883 140.179 100.486 139.963 99.2165 139.266L74.0743 125.677C74.0743 125.677 74.0335 125.649 74.0201 125.635L75.1525 127.551C75.5771 128.169 76.1309 128.656 76.8003 129.012L76.786 129.025ZM72.2407 122.678C72.6156 123.536 73.3412 124.297 74.2838 124.796L99.4257 138.398C101.665 139.608 104.419 139.125 105.562 137.331L133.514 93.6197C133.88 93.0525 134.041 92.3985 133.993 91.7382C133.964 91.3609 133.879 90.9685 133.71 90.6004C133.336 89.7422 132.61 88.9811 131.668 88.469L106.525 74.8799C104.286 73.6703 101.532 74.153 100.389 75.9475L72.4369 119.658C71.8655 120.556 71.7877 121.656 72.2407 122.678Z" fill="#021433"/>
<path d="M101.849 77.2911C102.508 76.2486 104.073 75.9994 105.398 76.7246L129.994 90.0151C130.635 90.3703 131.146 90.8965 131.404 91.5092C131.702 92.1903 131.664 92.9018 131.313 93.456L104.107 136.006C103.448 137.049 101.883 137.298 100.559 136.573L75.9491 123.268C75.307 122.926 74.8104 122.387 74.5387 121.774C74.4221 121.515 74.3615 121.245 74.342 120.989C74.314 120.571 74.4106 120.17 74.6303 119.827L101.849 77.2911ZM76.4176 122.543L78.8895 123.88L83.6145 126.441L86.0863 127.779C87.1926 128.376 88.5482 128.148 89.1054 127.264L90.3651 125.298L92.7678 121.537L94.0275 119.572C94.5847 118.687 94.1513 117.491 93.0451 116.894L90.5733 115.556L85.8482 112.995L83.3764 111.658C82.2702 111.06 80.9145 111.289 80.3574 112.173L79.0976 114.139L76.6949 117.899L75.4348 119.878C74.8776 120.762 75.311 121.959 76.4172 122.556L76.4176 122.543ZM103.541 135.062L104.801 133.096L107.203 129.335L108.463 127.37C109.02 126.485 108.587 125.289 107.481 124.692L105.009 123.354L100.284 120.793L97.8118 119.456C96.7056 118.858 95.3499 119.087 94.7928 119.971L93.5331 121.937L91.1304 125.697L89.8706 127.663C89.3135 128.547 89.7468 129.743 90.853 130.341L93.3249 131.678L98.0499 134.239L100.522 135.577C101.628 136.174 102.984 135.946 103.541 135.062ZM102.293 77.7346L101.033 79.7004L98.6305 83.4607L97.3708 85.4265C96.8136 86.3107 97.247 87.5068 98.3532 88.1044L100.825 89.4419L105.55 92.0028L108.022 93.3403C109.128 93.9379 110.484 93.7094 111.041 92.8252L112.301 90.8594L114.703 87.0991L115.963 85.1333C116.52 84.2491 116.087 83.053 114.981 82.4554L112.509 81.1179L107.784 78.557L105.312 77.2195C104.206 76.6218 102.85 76.8504 102.293 77.7346ZM83.729 111.077L86.2009 112.414L90.9259 114.975L93.3978 116.313C94.504 116.91 95.8596 116.682 96.4168 115.798L97.6765 113.832L100.079 110.071L101.339 108.106C101.896 107.221 101.463 106.025 100.357 105.428L97.8847 104.09L93.1597 101.529L90.6878 100.192C89.5816 99.5942 88.2259 99.8227 87.6688 100.707L86.409 102.673L84.0064 106.433L82.7466 108.399C82.1895 109.283 82.6228 110.479 83.729 111.077ZM110.853 123.582L112.112 121.616L114.515 117.856L115.775 115.89C116.332 115.006 115.899 113.81 114.792 113.212L112.321 111.875L107.596 109.314L105.124 107.976C104.017 107.379 102.662 107.607 102.105 108.491L100.845 110.457L98.4422 114.218L97.182 116.197C96.6249 117.081 97.0582 118.277 98.1644 118.875L100.636 120.212L105.361 122.773L107.833 124.111C108.939 124.708 110.295 124.48 110.852 123.596L110.853 123.582ZM122.091 101.719L119.619 100.381L114.894 97.8206L112.422 96.4831C111.316 95.8854 109.96 96.1139 109.403 96.9982L108.143 98.964L105.741 102.724L104.481 104.69C103.924 105.574 104.357 106.77 105.463 107.368L107.935 108.705L112.66 111.266L115.132 112.604C116.238 113.202 117.594 112.973 118.151 112.089L119.411 110.123L121.813 106.363L123.073 104.397C123.63 103.513 123.197 102.317 122.091 101.719ZM91.0413 99.5839L93.5132 100.921L98.2382 103.482L100.71 104.82C101.816 105.417 103.172 105.189 103.729 104.305L104.989 102.325L107.392 98.5651L108.652 96.5993C109.209 95.7151 108.775 94.519 107.669 93.9214L105.197 92.5839L100.472 90.023L98.0005 88.6855C96.8943 88.0878 95.5387 88.3164 94.9815 89.2006L93.7218 91.1664L91.3191 94.9267L90.0593 96.8925C89.5022 97.7767 89.9355 98.9728 91.0418 99.5704L91.0413 99.5839ZM129.417 90.2399L126.945 88.9024L122.22 86.3415L119.748 85.0041C118.642 84.4064 117.286 84.6349 116.729 85.5191L115.469 87.4849L113.066 91.2452L111.807 93.211C111.249 94.0952 111.683 95.2913 112.789 95.889L115.261 97.2265L119.986 99.7874L122.458 101.125C123.564 101.722 124.92 101.494 125.477 100.61L126.737 98.644L129.139 94.8837L130.399 92.9179C130.956 92.0336 130.523 90.8376 129.417 90.2399Z" fill="#021433"/>
<path d="M130.4 92.9291L129.141 94.8949L126.738 98.6552L125.478 100.621C124.921 101.505 123.565 101.734 122.459 101.136L119.987 99.7986L115.262 97.2377L112.79 95.9002C111.684 95.3026 111.237 94.1061 111.808 93.2223L113.068 91.2565L115.47 87.4962L116.73 85.5304C117.287 84.6462 118.643 84.4177 119.749 85.0153L122.221 86.3528L126.946 88.9137L129.418 90.2512C130.524 90.8488 130.971 92.0453 130.4 92.9291Z" fill="#3CAEF2"/>
<path d="M121.805 106.368L119.402 110.128L118.142 112.094C117.585 112.978 116.229 113.206 115.123 112.609L112.651 111.271L107.926 108.71L105.455 107.373C104.348 106.775 103.901 105.579 104.472 104.695L105.732 102.729L108.135 98.9688L109.394 97.003C109.951 96.1188 111.307 95.8903 112.413 96.488L114.885 97.8254L119.61 100.386L122.082 101.724C123.188 102.321 123.635 103.518 123.064 104.402L121.805 106.368Z" fill="#3CAEF2"/>
<path d="M105.354 122.751L100.629 120.191L98.1572 118.853C97.051 118.255 96.6038 117.059 97.1748 116.175L98.435 114.196L100.838 110.436L102.097 108.47C102.655 107.586 104.01 107.357 105.116 107.955L107.588 109.292L112.313 111.853L114.785 113.191C115.891 113.788 116.339 114.985 115.768 115.869L114.508 117.834L112.105 121.595L110.845 123.56C110.288 124.445 108.933 124.673 107.826 124.076L105.355 122.738L105.354 122.751Z" fill="#3CAEF2"/>
<path d="M98.0342 134.217L93.3092 131.656L90.8373 130.318C89.7311 129.721 89.2839 128.524 89.8549 127.64L91.1147 125.674L93.5173 121.914L94.7771 119.948C95.3342 119.064 96.6899 118.836 97.7961 119.433L100.268 120.771L104.993 123.332L107.465 124.669C108.571 125.267 109.018 126.463 108.447 127.347L107.188 129.313L104.785 133.073L103.525 135.039C102.968 135.923 101.612 136.152 100.506 135.554L98.0342 134.217Z" fill="#3CAEF2"/>
<path d="M107.807 78.552L112.532 81.1129L115.004 82.4504C116.11 83.048 116.557 84.2445 115.986 85.1283L114.727 87.0941L112.324 90.8544L111.064 92.8202C110.507 93.7044 109.151 93.933 108.045 93.3353L105.573 91.9978L100.848 89.4369L98.3764 88.0995C97.2702 87.5018 96.823 86.3053 97.394 85.4215L98.6537 83.4557L101.056 79.6954L102.316 77.7296C102.873 76.8454 104.229 76.6169 105.335 77.2145L107.807 78.552Z" fill="#3CAEF2"/>
<path d="M90.0272 96.9002L91.287 94.9345L93.6897 91.1742L94.9494 89.2084C95.5065 88.3241 96.8622 88.0956 97.9684 88.6933L100.44 90.0308L105.165 92.5916L107.637 93.9291C108.743 94.5268 109.191 95.7233 108.62 96.6071L107.36 98.5729L104.957 102.333L103.697 104.312C103.14 105.197 101.784 105.425 100.678 104.827L98.2061 103.49L93.481 100.929L91.0092 99.5916C89.903 98.994 89.4558 97.7975 90.0268 96.9137L90.0272 96.9002Z" fill="#3CAEF2"/>
<path d="M82.7377 108.382L83.9975 106.417L86.4002 102.656L87.6599 100.691C88.217 99.8063 89.5727 99.5778 90.6789 100.175L93.1508 101.513L97.8758 104.074L100.348 105.411C101.454 106.009 101.901 107.205 101.33 108.089L100.07 110.055L97.6676 113.815L96.4079 115.781C95.8508 116.665 94.4951 116.894 93.3889 116.296L90.917 114.959L86.192 112.398L83.7201 111.06C82.6139 110.463 82.1667 109.266 82.7377 108.382Z" fill="#3CAEF2"/>
<path d="M75.417 119.861L76.6772 117.881L79.0798 114.121L80.3396 112.155C80.8967 111.271 82.2524 111.043 83.3586 111.64L85.8305 112.978L90.5555 115.539L93.0273 116.876C94.1336 117.474 94.5808 118.67 94.0098 119.554L92.75 121.52L90.3473 125.28L89.0876 127.246C88.5304 128.13 87.1748 128.359 86.0686 127.761L83.5967 126.424L78.8717 123.863L76.3998 122.525C75.2936 121.928 74.8464 120.731 75.4174 119.847L75.417 119.861Z" fill="#3CAEF2"/>
</g>
</g>
<path d="M72.8061 327.582V306.737L64.6418 327.582H61.9494L53.7851 306.737V327.582H47.6184V298.616H56.2604L63.2956 316.682L70.3308 298.616H79.0162V327.582H72.8061ZM90.7619 303.48C89.1116 303.48 87.8088 302.177 87.8088 300.527C87.8088 298.92 89.1116 297.617 90.7619 297.617C92.3687 297.617 93.6715 298.92 93.6715 300.527C93.6715 302.177 92.3687 303.48 90.7619 303.48ZM99.925 303.48C98.3182 303.48 96.9719 302.177 96.9719 300.527C96.9719 298.92 98.3182 297.617 99.925 297.617C101.532 297.617 102.878 298.92 102.878 300.527C102.878 302.177 101.532 303.48 99.925 303.48ZM99.6644 327.582V324.933C98.2313 326.54 95.7126 328.103 92.2818 328.103C87.6785 328.103 85.5072 325.584 85.5072 321.502V306.607H91.0224V319.331C91.0224 322.24 92.5424 323.196 94.8874 323.196C97.0154 323.196 98.709 322.023 99.6644 320.807V306.607H105.18V327.582H99.6644ZM111.524 327.582V298.616H117.04V327.582H111.524ZM136.97 327.582L131.411 319.505L128.892 322.197V327.582H123.377V298.616H128.892V315.944L136.839 306.607H143.614L135.319 316.117L143.875 327.582H136.97ZM157.598 323.5L160.985 318.81C163.027 320.938 166.197 322.718 170.192 322.718C173.579 322.718 175.23 321.111 175.23 319.461C175.23 317.29 172.711 316.552 169.367 315.77C164.633 314.684 158.554 313.381 158.554 306.911C158.554 302.09 162.723 298.182 169.541 298.182C174.144 298.182 177.965 299.572 180.832 302.221L177.401 306.737C175.056 304.566 171.929 303.567 169.106 303.567C166.327 303.567 164.851 304.783 164.851 306.52C164.851 308.474 167.282 309.082 170.626 309.864C175.403 310.949 181.483 312.383 181.483 318.81C181.483 324.108 177.705 328.103 169.888 328.103C164.329 328.103 160.334 326.236 157.598 323.5ZM198.967 327.582V325.411C197.534 327.104 195.059 328.103 192.323 328.103C188.979 328.103 185.027 325.845 185.027 321.155C185.027 316.248 188.979 314.467 192.323 314.467C195.102 314.467 197.578 315.336 198.967 317.029V314.12C198.967 311.992 197.143 310.602 194.364 310.602C192.106 310.602 190.021 311.427 188.241 313.077L186.156 309.386C188.718 307.128 192.019 306.086 195.319 306.086C200.096 306.086 204.482 307.996 204.482 314.033V327.582H198.967ZM198.967 322.544V319.939C198.055 318.723 196.318 318.115 194.538 318.115C192.366 318.115 190.586 319.287 190.586 321.285C190.586 323.239 192.366 324.368 194.538 324.368C196.318 324.368 198.055 323.76 198.967 322.544ZM225.022 327.582V314.814C225.022 311.905 223.502 310.993 221.114 310.993C218.986 310.993 217.292 312.209 216.337 313.468V327.582H210.821V298.616H216.337V309.343C217.683 307.736 220.289 306.086 223.719 306.086C228.323 306.086 230.537 308.604 230.537 312.687V327.582H225.022ZM239.617 303.523C237.837 303.523 236.317 302.047 236.317 300.223C236.317 298.399 237.837 296.923 239.617 296.923C241.441 296.923 242.917 298.399 242.917 300.223C242.917 302.047 241.441 303.523 239.617 303.523ZM236.881 327.582V306.607H242.396V327.582H236.881ZM248.734 327.582V298.616H254.249V309.299C255.899 307.171 258.244 306.086 260.72 306.086C266.061 306.086 270.013 310.255 270.013 317.116C270.013 324.108 266.018 328.103 260.72 328.103C258.201 328.103 255.899 326.974 254.249 324.933V327.582H248.734ZM254.249 320.851C255.161 322.197 257.202 323.196 258.982 323.196C262.196 323.196 264.324 320.764 264.324 317.116C264.324 313.468 262.196 310.993 258.982 310.993C257.202 310.993 255.161 312.035 254.249 313.425V320.851ZM277.784 303.523C276.003 303.523 274.483 302.047 274.483 300.223C274.483 298.399 276.003 296.923 277.784 296.923C279.608 296.923 281.084 298.399 281.084 300.223C281.084 302.047 279.608 303.523 277.784 303.523ZM275.048 327.582V306.607H280.563V327.582H275.048ZM301.058 327.582V314.901C301.058 311.992 299.538 310.993 297.193 310.993C295.021 310.993 293.328 312.209 292.416 313.468V327.582H286.9V306.607H292.416V309.343C293.762 307.736 296.324 306.086 299.755 306.086C304.358 306.086 306.573 308.691 306.573 312.773V327.582H301.058ZM311.571 317.073C311.571 310.993 316.044 306.086 322.428 306.086C328.682 306.086 332.937 310.776 332.937 317.637V318.853H317.347C317.695 321.502 319.822 323.717 323.383 323.717C325.338 323.717 327.639 322.935 328.986 321.633L331.417 325.194C329.29 327.148 326.033 328.103 322.775 328.103C316.392 328.103 311.571 323.804 311.571 317.073ZM322.428 310.472C318.997 310.472 317.521 313.034 317.26 315.118H327.596C327.466 313.121 326.076 310.472 322.428 310.472ZM104.349 370.582V341.616H124.847V346.914H110.516V353.211H124.543V358.509H110.516V370.582H104.349ZM142.491 370.582V368.411C141.058 370.104 138.582 371.103 135.846 371.103C132.503 371.103 128.551 368.845 128.551 364.155C128.551 359.248 132.503 357.467 135.846 357.467C138.626 357.467 141.101 358.336 142.491 360.029V357.12C142.491 354.992 140.667 353.602 137.888 353.602C135.629 353.602 133.545 354.427 131.764 356.077L129.68 352.386C132.242 350.128 135.542 349.086 138.843 349.086C143.62 349.086 148.006 350.996 148.006 357.033V370.582H142.491ZM142.491 365.544V362.939C141.579 361.723 139.842 361.115 138.061 361.115C135.89 361.115 134.109 362.287 134.109 364.285C134.109 366.239 135.89 367.368 138.061 367.368C139.842 367.368 141.579 366.76 142.491 365.544ZM154.432 373.839C154.91 374.056 155.648 374.186 156.169 374.186C157.602 374.186 158.557 373.796 159.079 372.667L159.86 370.886L151.349 349.607H157.255L162.726 364.198L168.198 349.607H174.148L164.29 374.013C162.726 377.965 159.947 379.007 156.343 379.094C155.691 379.094 154.302 378.963 153.607 378.79L154.432 373.839ZM191.896 370.582V367.933C190.246 369.974 187.944 371.103 185.426 371.103C180.128 371.103 176.132 367.108 176.132 360.116C176.132 353.255 180.084 349.086 185.426 349.086C187.901 349.086 190.246 350.171 191.896 352.299V341.616H197.455V370.582H191.896ZM191.896 363.807V356.381C190.941 354.992 188.987 353.993 187.119 353.993C183.993 353.993 181.821 356.468 181.821 360.116C181.821 363.721 183.993 366.196 187.119 366.196C188.987 366.196 190.941 365.197 191.896 363.807ZM216.386 370.582V368.411C214.953 370.104 212.478 371.103 209.742 371.103C206.398 371.103 202.446 368.845 202.446 364.155C202.446 359.248 206.398 357.467 209.742 357.467C212.521 357.467 214.997 358.336 216.386 360.029V357.12C216.386 354.992 214.562 353.602 211.783 353.602C209.525 353.602 207.44 354.427 205.66 356.077L203.575 352.386C206.138 350.128 209.438 349.086 212.739 349.086C217.516 349.086 221.902 350.996 221.902 357.033V370.582H216.386ZM216.386 365.544V362.939C215.474 361.723 213.737 361.115 211.957 361.115C209.786 361.115 208.005 362.287 208.005 364.285C208.005 366.239 209.786 367.368 211.957 367.368C213.737 367.368 215.474 366.76 216.386 365.544ZM228.241 370.582V341.616H233.756V370.582H228.241ZM252.687 370.582V368.411C251.254 370.104 248.779 371.103 246.043 371.103C242.699 371.103 238.747 368.845 238.747 364.155C238.747 359.248 242.699 357.467 246.043 357.467C248.822 357.467 251.297 358.336 252.687 360.029V357.12C252.687 354.992 250.863 353.602 248.084 353.602C245.826 353.602 243.741 354.427 241.961 356.077L239.876 352.386C242.438 350.128 245.739 349.086 249.039 349.086C253.816 349.086 258.202 350.996 258.202 357.033V370.582H252.687ZM252.687 365.544V362.939C251.775 361.723 250.038 361.115 248.257 361.115C246.086 361.115 244.306 362.287 244.306 364.285C244.306 366.239 246.086 367.368 248.257 367.368C250.038 367.368 251.775 366.76 252.687 365.544ZM264.541 370.582V349.607H270.057V352.473C271.533 350.606 274.139 349.129 276.744 349.129V354.514C276.353 354.427 275.832 354.384 275.224 354.384C273.4 354.384 270.969 355.383 270.057 356.729V370.582H264.541Z" fill="#E7DAC9"/>
<path d="M234.5 222H267" stroke="black"/>
<defs>
<clipPath id="clip0_744_44296">
<rect width="264.451" height="292.586" fill="white" transform="matrix(-1 0 0 1 321.695 0.996094)"/>
</clipPath>
<clipPath id="clip1_744_44296">
<rect width="71.0398" height="65.7481" fill="white" transform="matrix(0.0327941 -0.999462 -0.999556 -0.0298042 223.586 115.617)"/>
</clipPath>
<clipPath id="clip2_744_44296">
<rect width="71.0398" height="65.7481" fill="white" transform="matrix(0.0327656 -0.999463 -0.999557 -0.0297782 188.305 172.59)"/>
</clipPath>
<clipPath id="clip3_744_44296">
<rect width="71.0398" height="65.7481" fill="white" transform="matrix(0.0327656 -0.999463 -0.999557 -0.0297782 171.625 88.3672)"/>
</clipPath>
<clipPath id="clip4_744_44296">
<rect width="71.0398" height="65.7481" fill="white" transform="matrix(0.0327656 -0.999463 -0.999557 -0.0297782 135.906 145.232)"/>
</clipPath>
</defs>
</svg>
