<svg width="70" height="70" viewBox="0 0 70 70" fill="none" xmlns="http://www.w3.org/2000/svg">
<path d="M43.2693 6.1081L55.8327 13.3616C60.9767 16.3314 64.1455 21.82 64.1455 27.7597V42.2666C64.1455 48.2063 60.9767 53.6949 55.8327 56.6647L43.2693 63.9182C38.1254 66.8881 31.7878 66.8881 26.6438 63.9182L14.0804 56.6647C8.93645 53.6949 5.76763 48.2063 5.76763 42.2666V27.7597C5.76763 21.82 8.93645 16.3314 14.0804 13.3616L26.6438 6.1081C31.7878 3.13824 38.1254 3.13824 43.2693 6.1081Z" fill="#CE6D29" stroke="black" stroke-width="1.07262"/>
<path d="M32.5335 46.0498V24.1941L33.9622 26.7427L28.3632 29.4843L27.2048 24.3872L34.7731 20.5644H38.2484V46.0498H32.5335ZM27.8226 47.9805V42.7676H43.0752V47.9805H27.8226Z" fill="#FFF5E9"/>
</svg>
