<svg width="82" height="83" viewBox="0 0 82 83" fill="none" xmlns="http://www.w3.org/2000/svg">
<circle cx="42" cy="42.5977" r="40" fill="#4A584E"/>
<path d="M63.1869 52.5323C63.0231 52.1188 62.7772 51.7428 62.464 51.427C62.1508 51.1113 61.7768 50.8624 61.3646 50.6952C60.9663 50.5266 60.5381 50.4396 60.1054 50.4396C59.6727 50.4396 59.2445 50.5266 58.8461 50.6952L49.4165 54.036C49.4488 53.8475 49.4661 53.6568 49.4683 53.4656C49.4683 52.6248 49.1343 51.8184 48.5398 51.2238C47.9452 50.6292 47.1388 50.2952 46.298 50.2952H43.8535C41.6797 50.2933 39.5389 49.762 37.6165 48.7471C35.4823 47.6185 33.1047 47.0286 30.6906 47.0286H26.9869V44.3989C26.9869 44.2025 26.9088 44.0141 26.7699 43.8752C26.631 43.7363 26.4426 43.6582 26.2461 43.6582H21.2017C21.0052 43.6582 20.8168 43.7363 20.6779 43.8752C20.539 44.0141 20.4609 44.2025 20.4609 44.3989V62.5471C20.4609 62.7435 20.539 62.932 20.6779 63.0709C20.8168 63.2098 21.0052 63.2878 21.2017 63.2878H26.2461C26.4426 63.2878 26.631 63.2098 26.7699 63.0709C26.9088 62.932 26.9869 62.7435 26.9869 62.5471V60.8804C28.3166 60.9415 29.6309 61.1909 30.8906 61.6212L34.698 62.9693C36.6495 63.6558 38.7033 64.0064 40.772 64.0064H41.5128C43.7304 63.906 45.9115 63.4041 47.9498 62.5249L61.6017 56.6952C62.3352 56.3215 62.9036 55.6886 63.1966 54.9192C63.4895 54.1499 63.486 53.2992 63.1869 52.5323ZM25.5054 61.8064H21.9424V45.1397H25.5054V61.8064ZM61.0017 55.3767L47.3943 61.1915C45.5183 61.9992 43.5093 62.4538 41.4683 62.5323C39.3289 62.6214 37.192 62.3021 35.172 61.5915L31.3795 60.2508C29.9646 59.7544 28.4847 59.4675 26.9869 59.3989V48.5101H30.6906C32.8626 48.5075 35.002 49.0392 36.9202 50.0582C39.0578 51.1849 41.4372 51.7746 43.8535 51.7767H46.298C46.5204 51.7767 46.7406 51.8206 46.946 51.906C47.1514 51.9913 47.3379 52.1164 47.4949 52.274C47.6518 52.4316 47.776 52.6186 47.8604 52.8244C47.9449 53.0302 47.9878 53.2506 47.9869 53.473C47.9881 53.7141 47.9364 53.9526 47.8353 54.1715C47.7341 54.3904 47.5861 54.5844 47.4017 54.7397L46.1572 55.1767H38.0758C37.8793 55.1767 37.6909 55.2548 37.552 55.3937C37.4131 55.5326 37.335 55.721 37.335 55.9175C37.335 56.1139 37.4131 56.3024 37.552 56.4412C37.6909 56.5801 37.8793 56.6582 38.0758 56.6582H46.298C46.4017 56.6582 59.3943 52.0952 59.3943 52.0952C59.6175 51.998 59.8583 51.9478 60.1017 51.9478C60.3451 51.9478 60.5859 51.998 60.8091 52.0952C61.0352 52.1869 61.2403 52.3235 61.4121 52.4966C61.584 52.6698 61.719 52.8759 61.8091 53.1026C61.9754 53.5161 61.9852 53.9759 61.8365 54.396C61.6878 54.816 61.391 55.1674 61.0017 55.3841V55.3767Z" fill="white"/>
<path d="M37.5571 42.459L49.9497 49.1257C50.0568 49.1827 50.1763 49.2125 50.2978 49.2125C50.4192 49.2125 50.5388 49.1827 50.646 49.1257L63.0311 42.459C63.1494 42.396 63.2484 42.3021 63.3175 42.1873C63.3866 42.0725 63.4234 41.9411 63.4237 41.8071V28.4738C63.4234 28.3398 63.3866 28.2084 63.3175 28.0936C63.2484 27.9788 63.1494 27.8849 63.0311 27.8219L50.646 21.1553C50.5388 21.0982 50.4192 21.0684 50.2978 21.0684C50.1763 21.0684 50.0568 21.0982 49.9497 21.1553L37.5571 27.8219C37.4401 27.8859 37.3426 27.9802 37.2748 28.0949C37.2071 28.2096 37.1715 28.3405 37.1719 28.4738V41.8071C37.1715 41.9404 37.2071 42.0713 37.2748 42.1859C37.3426 42.3007 37.4401 42.395 37.5571 42.459ZM38.6534 29.7108L49.5571 35.5849V47.2368L38.6534 41.3627V29.7108ZM42.4978 26.8442L52.9422 32.8738L50.2978 34.296L39.4756 28.4738L42.4978 26.8442ZM46.3867 24.7701L56.8385 30.7997L54.4978 32.059L44.0311 26.0219L46.3867 24.7701ZM55.3719 33.2516L57.4237 32.1775V34.6219L56.8756 34.0738C56.7893 33.9884 56.6834 33.9255 56.5671 33.8906C56.4509 33.8557 56.3279 33.8499 56.2089 33.8738C56.0905 33.8987 55.9799 33.9522 55.8869 34.0296C55.794 34.1071 55.7214 34.2062 55.6756 34.3182L55.3719 35.059V33.2516ZM51.0385 47.2368V35.5849L53.8904 34.0516V38.7775C53.8924 38.9475 53.9528 39.1116 54.0614 39.2423C54.1702 39.3731 54.3205 39.4624 54.4872 39.4954C54.654 39.5285 54.8271 39.5031 54.9774 39.4236C55.1276 39.3442 55.246 39.2154 55.3126 39.059L56.6163 35.8812L57.646 36.9034C57.7499 37.0054 57.8817 37.0744 58.0246 37.1019C58.1677 37.1294 58.3156 37.1141 58.45 37.0579C58.5842 37.0019 58.6991 36.9074 58.7801 36.7863C58.8611 36.6653 58.9046 36.5231 58.9052 36.3775V31.3479L61.9422 29.7108V41.3627L51.0385 47.2368ZM50.2978 22.6516L61.12 28.4738L58.3497 29.9553L47.9052 23.9405L50.2978 22.6516Z" fill="white"/>
</svg>
