<svg width="70" height="71" viewBox="0 0 70 71" fill="none" xmlns="http://www.w3.org/2000/svg">
<circle cx="35" cy="35.3516" r="35" fill="#4A584E"/>
<path d="M43.2111 32.3438C39.4201 32.3438 36.3359 35.4279 36.3359 39.2188C36.3359 43.0096 39.4201 46.0938 43.2111 46.0938C47.0021 46.0938 50.0864 43.0096 50.0864 39.2188C50.0864 35.4279 47.0021 32.3438 43.2111 32.3438ZM43.2111 44.5312C40.2817 44.5312 37.8985 42.1481 37.8985 39.2188C37.8985 36.2894 40.2817 33.9062 43.2111 33.9062C46.1406 33.9062 48.5238 36.2894 48.5238 39.2188C48.5238 42.1481 46.1406 44.5312 43.2111 44.5312Z" fill="white"/>
<path d="M58.2173 50.4776L52.0169 44.277C52.8763 42.7869 53.3685 41.0593 53.3685 39.2188C53.3685 36.5023 52.2964 34.032 50.5535 32.2077V23.4366H50.5517C50.5517 23.2334 50.4742 23.0337 50.3249 22.8842L42.6694 15.2289C42.5199 15.0794 42.3199 15.0021 42.1166 15.0021C42.1166 15.0013 42.1166 15.0009 42.117 15H21.336C20.0435 15 18.9922 16.0513 18.9922 17.3438V52.6562C18.9922 53.9487 20.0435 55 21.336 55H48.21C49.5022 55 50.5538 53.9487 50.5538 52.6562V50.307L54.4708 54.2242C54.9873 54.7406 55.6656 54.9988 56.3443 54.9988C57.0228 54.9988 57.7013 54.7406 58.2176 54.2242C59.2504 53.1913 59.2504 51.5106 58.2173 50.4776ZM43.212 47.8125C38.4734 47.8125 34.618 43.9572 34.618 39.2188C34.618 34.4803 38.4734 30.625 43.212 30.625C47.9506 30.625 51.806 34.4803 51.806 39.2188C51.806 43.9572 47.9506 47.8125 43.212 47.8125ZM42.8982 17.6676L47.8862 22.6556H43.6795C43.2486 22.6556 42.8982 22.305 42.8982 21.8744V17.6676ZM48.9913 52.6562C48.9913 53.0872 48.6406 53.4375 48.21 53.4375H21.336C20.9051 53.4375 20.5547 53.0872 20.5547 52.6562V17.3438C20.5547 16.9128 20.9051 16.5625 21.336 16.5625H41.3357V21.8741C41.3357 23.1665 42.387 24.2178 43.6795 24.2178H48.991V30.8719C47.3497 29.7317 45.3578 29.0625 43.2119 29.0625C37.6115 29.0625 33.0553 33.6184 33.0553 39.2188C33.0553 40.3122 33.23 41.3659 33.5514 42.3538H24.0042C23.573 42.3538 23.2229 42.7035 23.2229 43.1351C23.2229 43.5663 23.573 43.9163 24.0042 43.9163H33.9808C34.0543 43.9163 34.1257 43.9054 34.1931 43.8861C35.8863 47.1441 39.2934 49.375 43.212 49.375C45.0523 49.375 46.7799 48.8828 48.2701 48.0234L48.9912 48.7445L48.9913 52.6562ZM57.1126 53.1192C56.689 53.5431 55.9996 53.5431 55.576 53.1192L49.5806 47.124C50.1458 46.6677 50.6609 46.1527 51.1171 45.5875L57.1126 51.5823C57.5365 52.0062 57.5365 52.6956 57.1126 53.1192Z" fill="white"/>
<path d="M43.2159 35.704C42.7843 35.704 42.4346 36.0537 42.4346 36.4852C42.4346 36.9167 42.7843 37.2665 43.2159 37.2665C44.2926 37.2665 45.1688 38.1427 45.1688 39.2193C45.1688 39.6508 45.5186 40.0005 45.9501 40.0005C46.3816 40.0005 46.7313 39.6508 46.7313 39.2193C46.7313 37.2808 45.1544 35.704 43.2159 35.704ZM31.0393 36.9375H24.0081C23.5769 36.9375 23.2269 37.2873 23.2269 37.7188C23.2269 38.1502 23.5769 38.5 24.0081 38.5H31.0393C31.4709 38.5 31.8206 38.1502 31.8206 37.7188C31.8206 37.2873 31.4709 36.9375 31.0393 36.9375ZM31.5023 31.5209H24.0081C23.5769 31.5209 23.2269 31.8706 23.2269 32.3021C23.2269 32.7334 23.5769 33.0834 24.0081 33.0834H31.5023C31.9339 33.0834 32.2836 32.7334 32.2836 32.3021C32.2836 31.8706 31.9339 31.5209 31.5023 31.5209ZM33.8403 47.7709C33.6346 47.7709 33.4333 47.8542 33.288 47.9998C33.142 48.1466 33.0597 48.3451 33.059 48.5521C33.059 48.7576 33.1426 48.9593 33.288 49.1042C33.4347 49.2504 33.6332 49.3328 33.8403 49.3334C34.0457 49.3334 34.2474 49.2498 34.3933 49.1042C34.5391 48.9574 34.6212 48.7591 34.6216 48.5522C34.6216 48.3465 34.5385 48.1451 34.3933 47.9998C34.2462 47.8539 34.0476 47.7716 33.8403 47.7709V47.7709ZM30.6316 47.7709H24.0081C23.5769 47.7709 23.2269 48.1207 23.2269 48.5521C23.2269 48.9834 23.5769 49.3334 24.0081 49.3334H30.6316C31.0629 49.3334 31.4129 48.9834 31.4129 48.5521C31.4129 48.1207 31.0631 47.7709 30.6316 47.7709ZM24.0078 27.6669C24.2142 27.6669 24.415 27.5833 24.5602 27.438C24.7064 27.2913 24.7887 27.0927 24.7891 26.8856C24.7891 26.6802 24.7065 26.4788 24.5602 26.3327C24.4133 26.1869 24.2148 26.1049 24.0078 26.1044C23.8025 26.1044 23.6017 26.1873 23.4555 26.3327C23.3094 26.4797 23.2271 26.6784 23.2266 26.8856C23.2266 27.0913 23.3102 27.2927 23.4555 27.438C23.6024 27.5839 23.8008 27.6661 24.0078 27.6669ZM38.9967 26.1044H27.3198C26.8885 26.1044 26.5385 26.4541 26.5385 26.8856C26.5385 27.3169 26.8885 27.6669 27.3198 27.6669H38.9967C39.4282 27.6669 39.778 27.3169 39.778 26.8856C39.778 26.4541 39.4282 26.1044 38.9967 26.1044ZM24.0081 22.25H38.9967C39.4282 22.25 39.778 21.9002 39.778 21.4688C39.778 21.0373 39.4282 20.6875 38.9967 20.6875H24.0081C23.5769 20.6875 23.2269 21.0373 23.2269 21.4688C23.2269 21.9002 23.5769 22.25 24.0081 22.25Z" fill="white"/>
</svg>
