<svg width="70" height="72" viewBox="0 0 70 72" fill="none" xmlns="http://www.w3.org/2000/svg">
<circle cx="35" cy="36.1875" r="35" fill="#4A584E"/>
<path d="M16.304 56.8764H22.8573C23.3338 56.8754 23.7955 56.7113 24.1659 56.4116C24.5362 56.1118 24.7928 55.6943 24.8931 55.2286L26.0893 49.5715C26.2353 48.8781 26.649 48.2703 27.2405 47.8801C28.1721 47.2593 28.8409 46.3158 29.1183 45.2313L29.6829 43.0231H40.3292L40.8944 45.2313C41.175 46.3218 41.8503 47.2694 42.7895 47.8904C43.374 48.2802 43.7819 48.8839 43.9255 49.5715L45.1189 55.2279C45.219 55.6937 45.4755 56.1112 45.8457 56.4111C46.2159 56.711 46.6776 56.8752 47.154 56.8764H53.708C54.0001 56.8764 54.289 56.8148 54.5557 56.6957C54.8224 56.5765 55.061 56.4025 55.2559 56.1849C55.4508 55.9673 55.5977 55.7111 55.6868 55.4329C55.776 55.1547 55.8056 54.8609 55.7735 54.5705C55.5233 52.2581 55.0709 49.9721 54.4215 47.7387C54.3243 47.4709 54.3202 47.1781 54.4097 46.9076C54.8776 45.4275 55.1083 43.8826 55.0933 42.3304C55.1341 41.5908 55.0453 40.8498 54.8308 40.1409C54.5835 39.2227 54.4922 38.2695 54.5607 37.321C54.5745 36.2807 54.7609 35.25 55.1107 34.2698C55.2409 33.9048 55.3372 33.5287 55.3988 33.147C55.4399 32.8486 55.4211 32.545 55.3434 32.254C55.2657 31.963 55.1308 31.6903 54.9465 31.4521C54.7568 31.2039 54.5182 30.9973 54.2455 30.8449C53.9728 30.6926 53.6718 30.5977 53.361 30.5662C53.0502 30.5348 52.7362 30.5673 52.4385 30.6619C52.1408 30.7565 51.8657 30.9111 51.63 31.1161V18.0871C51.63 17.3522 51.3381 16.6475 50.8185 16.1279C50.2989 15.6083 49.5942 15.3164 48.8593 15.3164H21.1527C20.4179 15.3164 19.7131 15.6083 19.1935 16.1279C18.6739 16.6475 18.382 17.3522 18.382 18.0871V31.1161C18.1464 30.9115 17.8715 30.7573 17.574 30.663C17.2766 30.5686 16.963 30.5362 16.6525 30.5677C16.3421 30.5992 16.0414 30.6939 15.7689 30.846C15.4964 30.9981 15.258 31.2043 15.0683 31.4521C14.8849 31.6883 14.7504 31.9587 14.6725 32.2474C14.5946 32.5361 14.5749 32.8375 14.6146 33.1339C14.6757 33.5207 14.7726 33.901 14.9041 34.2698C15.2539 35.25 15.4396 36.2807 15.4541 37.321C15.5226 38.2695 15.4313 39.2227 15.184 40.1409C14.9686 40.8497 14.8788 41.5907 14.9187 42.3304C14.9026 43.8837 15.1327 45.4297 15.6003 46.911C15.6903 47.1812 15.6855 47.4742 15.5885 47.7422C14.9402 49.9743 14.4887 52.2589 14.2392 54.5698C14.207 54.8602 14.2365 55.154 14.3256 55.4323C14.4147 55.7105 14.5615 55.9667 14.7563 56.1844C14.9511 56.4021 15.1897 56.5762 15.4564 56.6954C15.7231 56.8147 16.0119 56.8763 16.304 56.8764ZM52.1253 32.9503C52.2908 32.5222 52.4647 31.8483 53.2398 31.9466C53.3591 31.9619 53.4742 32.0007 53.5783 32.0608C53.6825 32.121 53.7736 32.2013 53.8464 32.297C53.9192 32.3928 53.9722 32.5021 54.0023 32.6185C54.0324 32.7349 54.039 32.8562 54.0218 32.9753C53.9671 33.2731 53.8888 33.5668 53.787 33.8522C53.3936 34.967 53.1861 36.1389 53.1726 37.321C53.0988 38.4053 53.2101 39.4943 53.5016 40.5412C53.6762 41.1203 53.7461 41.7264 53.708 42.3304C53.7238 43.7371 53.5169 45.1374 53.095 46.4795C52.9109 47.0436 52.9204 47.653 53.122 48.2111C53.7343 50.3404 54.161 52.5195 54.3986 54.7222C54.41 54.8182 54.4007 54.9155 54.3714 55.0076C54.3422 55.0997 54.2936 55.1845 54.2289 55.2563C54.164 55.3304 54.0839 55.3898 53.994 55.4303C53.9041 55.4708 53.8066 55.4915 53.708 55.4911H47.154C46.9954 55.4909 46.8416 55.4362 46.7184 55.3362C46.5952 55.2362 46.5101 55.097 46.4773 54.9418L45.281 49.2848C45.0607 48.2367 44.436 47.3179 43.5424 46.7275C42.8949 46.2965 42.4296 45.6412 42.2361 44.8877L41.7588 43.0231H48.8593C49.5942 43.0231 50.2989 42.7312 50.8185 42.2116C51.3381 41.692 51.63 40.9872 51.63 40.2524V35.3345C51.6358 34.5148 51.8042 33.7045 52.1253 32.9503ZM40.2488 31.5387L41.889 38.9606C41.9286 39.1401 42.0379 39.2965 42.1928 39.3954C42.3477 39.4943 42.5356 39.5276 42.715 39.488C42.8945 39.4485 43.0509 39.3392 43.1499 39.1843C43.2488 39.0294 43.2821 38.8415 43.2425 38.662L41.3342 30.0363C41.2553 29.7453 41.3342 29.4343 41.542 29.2161C41.6316 29.1413 41.7387 29.0905 41.8534 29.0685C41.9681 29.0465 42.0864 29.0541 42.1973 29.0906C42.3082 29.127 42.408 29.1911 42.4873 29.2769C42.5665 29.3626 42.6226 29.4671 42.6503 29.5805C44.7892 39.2328 42.2014 27.5586 44.4041 37.4963C44.4439 37.6758 44.5533 37.8321 44.7084 37.9309C44.8634 38.0297 45.0513 38.0628 45.2308 38.0231C45.4103 37.9833 45.5666 37.8738 45.6654 37.7188C45.7642 37.5638 45.7974 37.3758 45.7576 37.1964C45.5484 36.2626 46.5043 40.578 43.7336 28.0663C43.6954 27.9238 43.6951 27.7738 43.7327 27.6311C43.7704 27.4885 43.8447 27.3582 43.9483 27.2531C44.0394 27.1806 44.1472 27.1322 44.2619 27.1124C44.3767 27.0926 44.4945 27.102 44.6046 27.1397C44.7147 27.1775 44.8135 27.2424 44.8919 27.3284C44.9703 27.4145 45.0258 27.5189 45.0531 27.632L46.9642 36.246C46.9839 36.3348 47.0208 36.4189 47.073 36.4935C47.1251 36.568 47.1914 36.6316 47.2681 36.6805C47.3448 36.7294 47.4304 36.7627 47.52 36.7786C47.6096 36.7944 47.7014 36.7924 47.7902 36.7728C47.879 36.7531 47.9631 36.7162 48.0377 36.6641C48.1122 36.6119 48.1758 36.5456 48.2247 36.4689C48.2736 36.3922 48.3069 36.3066 48.3228 36.217C48.3386 36.1274 48.3366 36.0356 48.317 35.9468C48.1868 35.3573 46.6103 28.2381 46.71 28.6786C46.6903 28.5904 46.6882 28.4991 46.7037 28.4101C46.7193 28.321 46.7523 28.2359 46.8008 28.1596C46.8493 28.0833 46.9124 28.0173 46.9864 27.9654C47.0605 27.9135 47.144 27.8767 47.2323 27.8571C47.6112 27.7823 47.9804 28.0234 48.0635 28.4002L50.2447 36.8854V40.2524C50.2447 40.6198 50.0987 40.9722 49.8389 41.232C49.5791 41.4918 49.2268 41.6377 48.8593 41.6377H41.4042L38.8974 31.8448C38.8775 31.7559 38.8753 31.664 38.8909 31.5743C38.9066 31.4846 38.9398 31.3988 38.9886 31.3219C39.0374 31.245 39.101 31.1785 39.1755 31.1262C39.2501 31.0739 39.3342 31.0368 39.4231 31.0171C39.6007 30.9884 39.7826 31.0256 39.9346 31.1217C40.0867 31.2177 40.1984 31.366 40.2488 31.5387ZM21.1527 16.7017H48.8593C49.2268 16.7017 49.5791 16.8477 49.8389 17.1075C50.0987 17.3673 50.2447 17.7197 50.2447 18.0871V31.3246L49.4135 28.0788C49.291 27.5437 48.9618 27.0788 48.4978 26.7856C48.2691 26.6376 48.0134 26.5366 47.7454 26.4883C47.4773 26.44 47.2024 26.4455 46.9365 26.5044C46.6781 26.5598 46.4329 26.6637 46.2147 26.8133C45.9532 26.3363 45.5193 25.9773 45.0019 25.8096C44.667 25.6977 44.3085 25.6763 43.9626 25.7476C43.6168 25.8189 43.296 25.9803 43.0326 26.2155C42.6117 26.5968 42.3589 27.1292 42.3296 27.6964C42.0244 27.6402 41.7103 27.6557 41.4122 27.7418C41.114 27.8279 40.84 27.9821 40.6118 28.1924C40.2049 28.5729 39.9611 29.0962 39.9316 29.6525C39.6653 29.6011 39.3913 29.6051 39.1267 29.6643C38.8582 29.7239 38.6042 29.8361 38.3794 29.9946C38.1547 30.153 37.9636 30.3545 37.8173 30.5874C37.6709 30.8202 37.5723 31.0798 37.527 31.3511C37.4818 31.6223 37.4908 31.8999 37.5536 32.1676L39.9745 41.6377H30.0375L32.4674 32.1482C32.527 31.8815 32.5335 31.6056 32.4864 31.3364C32.4392 31.0672 32.3395 30.8099 32.1928 30.5793C32.0461 30.3487 31.8553 30.1493 31.6315 29.9925C31.4076 29.8358 31.155 29.7247 30.8881 29.6657C30.6235 29.6078 30.35 29.6041 30.0839 29.6546C30.0544 29.0983 29.8106 28.575 29.4037 28.1945C29.1756 27.9841 28.9015 27.8297 28.6034 27.7437C28.3052 27.6576 27.9911 27.6421 27.6859 27.6985C27.6566 27.131 27.4036 26.5982 26.9822 26.2169C26.7188 25.9819 26.3981 25.8207 26.0524 25.7496C25.7067 25.6784 25.3483 25.6998 25.0136 25.8117C24.4962 25.9794 24.0622 26.3381 23.8001 26.8147C23.5846 26.6668 23.3422 26.5628 23.0866 26.5085C22.553 26.3925 21.9952 26.4894 21.5321 26.7788C21.069 27.0681 20.7372 27.5269 20.6076 28.0573L19.7673 31.3219V18.0871C19.7673 17.7197 19.9133 17.3673 20.1731 17.1075C20.4329 16.8477 20.7853 16.7017 21.1527 16.7017ZM19.7673 36.8854L21.9548 28.3759C22.0007 28.1997 22.1126 28.0478 22.2672 27.9515C22.4219 27.8552 22.6075 27.8219 22.786 27.8585C22.9627 27.8996 23.116 28.0089 23.2125 28.1625C23.309 28.3161 23.3409 28.5016 23.3013 28.6786C23.2861 28.7479 21.7082 35.8768 21.6943 35.9468C21.6747 36.0356 21.6727 36.1274 21.6886 36.217C21.7044 36.3066 21.7377 36.3922 21.7867 36.4689C21.8356 36.5456 21.8991 36.6119 21.9737 36.6641C22.0482 36.7162 22.1323 36.7531 22.2211 36.7728C22.3099 36.7924 22.4018 36.7944 22.4913 36.7786C22.5809 36.7627 22.6665 36.7294 22.7432 36.6805C22.8199 36.6316 22.8862 36.568 22.9384 36.4935C22.9905 36.4189 23.0275 36.3348 23.0471 36.246L24.9596 27.6265C24.9878 27.5142 25.0438 27.4107 25.1223 27.3256C25.2009 27.2405 25.2995 27.1765 25.4092 27.1393C25.5189 27.1022 25.6362 27.0931 25.7503 27.113C25.8643 27.1329 25.9716 27.1811 26.0623 27.2531C26.2736 27.4665 26.356 27.7768 26.2777 28.067L24.2233 37.3391C24.2036 37.4279 24.2016 37.5197 24.2174 37.6093C24.2332 37.6989 24.2665 37.7845 24.3153 37.8613C24.4141 38.0162 24.5703 38.1256 24.7497 38.1654C24.9291 38.2052 25.1169 38.1721 25.2719 38.0733C25.4269 37.9746 25.5363 37.8184 25.576 37.639L27.3617 29.5805C27.3894 29.4671 27.4455 29.3626 27.5248 29.2769C27.604 29.1911 27.7038 29.127 27.8147 29.0906C27.9256 29.0541 28.044 29.0465 28.1586 29.0685C28.2733 29.0905 28.3804 29.1413 28.47 29.2161C28.6778 29.4343 28.7561 29.7447 28.6778 30.0356L26.7841 38.5956C26.7644 38.6844 26.7625 38.7762 26.7783 38.8658C26.7941 38.9554 26.8275 39.0409 26.8764 39.1177C26.9253 39.1944 26.9888 39.2607 27.0634 39.3128C27.1379 39.365 27.222 39.4019 27.3108 39.4216C27.3997 39.4412 27.4915 39.4432 27.5811 39.4273C27.6706 39.4115 27.7562 39.3782 27.8329 39.3292C27.9096 39.2803 27.976 39.2168 28.0281 39.1422C28.0802 39.0677 28.1172 38.9836 28.1368 38.8948L29.7632 31.5394C29.8664 31.1812 30.2204 30.9575 30.5882 31.0164C30.7647 31.055 30.9191 31.1611 31.0185 31.312C31.1178 31.4629 31.1543 31.6466 31.1202 31.824L28.6079 41.6377H21.1527C20.7853 41.6377 20.4329 41.4918 20.1731 41.232C19.9133 40.9722 19.7673 40.6198 19.7673 40.2524V36.8854ZM16.8928 48.2181C17.0944 47.66 17.1039 47.0505 16.9198 46.4864C16.4962 45.1423 16.2884 43.7396 16.304 42.3304C16.2664 41.7264 16.3368 41.1205 16.5118 40.5412C16.8034 39.4943 16.9146 38.4053 16.8408 37.321C16.8274 36.1389 16.6198 34.967 16.2264 33.8522C16.1231 33.5626 16.0441 33.2648 15.9902 32.9621C15.9617 32.7383 16.0179 32.512 16.1477 32.3276C16.2775 32.1431 16.4716 32.0138 16.6918 31.9652C16.9121 31.9165 17.1425 31.9519 17.338 32.0644C17.5335 32.177 17.6798 32.3586 17.7482 32.5735C18.1403 33.4428 18.3557 34.3814 18.382 35.3345V40.2524C18.382 40.9872 18.6739 41.692 19.1935 42.2116C19.7131 42.7312 20.4179 43.0231 21.1527 43.0231H28.2532L27.776 44.8877C27.5793 45.6481 27.107 46.3082 26.4509 46.7399C25.5661 47.3299 24.9484 48.2438 24.731 49.2848L23.5348 54.9418C23.5019 55.097 23.4168 55.2362 23.2936 55.3362C23.1704 55.4362 23.0167 55.4909 22.858 55.4911H16.304C16.2067 55.4918 16.1104 55.4719 16.0213 55.4326C15.9323 55.3933 15.8526 55.3356 15.7876 55.2633C15.7225 55.1909 15.6735 55.1056 15.6438 55.0129C15.6142 54.9203 15.6045 54.8224 15.6155 54.7257C15.8531 52.5237 16.2805 50.3466 16.8928 48.2181Z" fill="white"/>
<path d="M21.8488 20.8573C22.0325 20.8573 22.2086 20.7843 22.3385 20.6544L23.7238 19.269C23.79 19.2051 23.8427 19.1287 23.879 19.0442C23.9153 18.9597 23.9345 18.8688 23.9353 18.7768C23.9361 18.6848 23.9185 18.5936 23.8837 18.5085C23.8489 18.4234 23.7974 18.346 23.7324 18.281C23.6674 18.216 23.59 18.1645 23.5049 18.1297C23.4198 18.0949 23.3286 18.0774 23.2366 18.0782C23.1446 18.079 23.0537 18.0981 22.9692 18.1344C22.8847 18.1707 22.8083 18.2234 22.7444 18.2896L21.3591 19.6749C21.2622 19.7718 21.1963 19.8952 21.1696 20.0295C21.1428 20.1639 21.1566 20.3031 21.209 20.4297C21.2614 20.5562 21.3501 20.6644 21.464 20.7405C21.5779 20.8166 21.7118 20.8573 21.8488 20.8573ZM21.8488 24.3206C22.0325 24.3206 22.2086 24.2476 22.3385 24.1177L27.1872 19.269C27.2533 19.2051 27.3061 19.1287 27.3424 19.0442C27.3787 18.9597 27.3978 18.8688 27.3986 18.7768C27.3994 18.6848 27.3819 18.5936 27.347 18.5085C27.3122 18.4234 27.2608 18.346 27.1957 18.281C27.1307 18.216 27.0534 18.1645 26.9682 18.1297C26.8831 18.0949 26.7919 18.0774 26.6999 18.0782C26.608 18.079 26.5171 18.0981 26.4326 18.1344C26.348 18.1707 26.2716 18.2234 26.2077 18.2896L21.3591 23.1383C21.2622 23.2351 21.1963 23.3585 21.1696 23.4929C21.1428 23.6272 21.1566 23.7665 21.209 23.893C21.2614 24.0196 21.3501 24.1277 21.464 24.2039C21.5779 24.28 21.7118 24.3206 21.8488 24.3206Z" fill="white"/>
</svg>
