<svg width="70" height="71" viewBox="0 0 70 71" fill="none" xmlns="http://www.w3.org/2000/svg">
<circle cx="35" cy="35.3516" r="35" fill="#4A584E"/>
<g clip-path="url(#clip0_2128_8174)">
<path d="M35.0044 16.8166C33.214 16.8166 31.7576 18.2731 31.7576 20.0634C31.7576 21.8537 33.214 23.3101 35.0044 23.3101C36.7947 23.3101 38.2512 21.8536 38.2512 20.0634C38.2513 18.2731 36.7947 16.8166 35.0044 16.8166ZM35.0044 22.0143C33.9286 22.0143 33.0533 21.1391 33.0533 20.0633C33.0533 18.9875 33.9285 18.1123 35.0044 18.1123C36.0802 18.1123 36.9554 18.9875 36.9554 20.0633C36.9554 21.1392 36.0802 22.0143 35.0044 22.0143ZM35.0044 13.3516C34.8325 13.3516 34.6678 13.4198 34.5463 13.5413C34.4247 13.6628 34.3565 13.8276 34.3565 13.9994V14.8657C34.3593 15.0357 34.4287 15.1978 34.5499 15.317C34.6711 15.4363 34.8344 15.5031 35.0044 15.5031C35.1744 15.5031 35.3376 15.4363 35.4588 15.317C35.58 15.1978 35.6495 15.0357 35.6523 14.8657V13.9994C35.6523 13.9144 35.6355 13.8301 35.603 13.7515C35.5704 13.6729 35.5227 13.6015 35.4625 13.5413C35.4024 13.4811 35.3309 13.4334 35.2523 13.4009C35.1737 13.3683 35.0895 13.3516 35.0044 13.3516ZM31.7873 15.9299L31.1747 15.3174C31.0526 15.1989 30.8887 15.1331 30.7186 15.1344C30.5484 15.1357 30.3855 15.2039 30.2652 15.3242C30.1449 15.4446 30.0767 15.6074 30.0755 15.7776C30.0742 15.9478 30.14 16.1116 30.2585 16.2337L30.871 16.8463C30.9975 16.9728 31.1634 17.0361 31.3292 17.0361C31.4949 17.0361 31.6608 16.9728 31.7874 16.8462C31.9089 16.7247 31.9771 16.5599 31.9771 16.388C31.9771 16.2162 31.9088 16.0514 31.7873 15.9299ZM29.8069 19.4153H28.9406C28.8555 19.4153 28.7713 19.4321 28.6927 19.4647C28.6141 19.4972 28.5426 19.5449 28.4825 19.6051C28.4223 19.6653 28.3746 19.7367 28.342 19.8153C28.3095 19.8939 28.2927 19.9781 28.2927 20.0632C28.2927 20.2351 28.361 20.3998 28.4825 20.5213C28.604 20.6428 28.7688 20.7111 28.9406 20.7111H29.8069C29.9769 20.7083 30.139 20.6389 30.2582 20.5177C30.3774 20.3965 30.4443 20.2332 30.4443 20.0632C30.4443 19.8932 30.3774 19.73 30.2582 19.6088C30.139 19.4876 29.9769 19.4181 29.8069 19.4153ZM31.7873 23.2805C31.6657 23.159 31.5009 23.0907 31.3291 23.0907C31.1572 23.0907 30.9924 23.159 30.8709 23.2805L30.2584 23.893C30.1977 23.953 30.1494 24.0245 30.1164 24.1032C30.0834 24.182 30.0663 24.2665 30.066 24.3519C30.0658 24.4373 30.0825 24.5219 30.115 24.6009C30.1476 24.6798 30.1955 24.7515 30.2559 24.8119C30.3163 24.8723 30.388 24.9201 30.4669 24.9527C30.5459 24.9853 30.6305 25.0019 30.7159 25.0016C30.8013 25.0014 30.8858 24.9843 30.9646 24.9512C31.0433 24.9182 31.1148 24.87 31.1748 24.8092L31.7873 24.1967C31.9088 24.0752 31.977 23.9104 31.977 23.7386C31.977 23.5668 31.9088 23.402 31.7873 23.2805ZM35.0044 24.613C34.8325 24.613 34.6678 24.6813 34.5463 24.8028C34.4247 24.9243 34.3565 25.0891 34.3565 25.2609V26.1272C34.3593 26.2972 34.4287 26.4593 34.5499 26.5785C34.6711 26.6978 34.8344 26.7646 35.0044 26.7646C35.1744 26.7646 35.3376 26.6978 35.4588 26.5785C35.58 26.4593 35.6495 26.2972 35.6523 26.1272V25.2609C35.6523 25.1758 35.6355 25.0916 35.603 25.013C35.5704 24.9344 35.5227 24.8629 35.4625 24.8028C35.4024 24.7426 35.3309 24.6949 35.2523 24.6623C35.1737 24.6298 35.0895 24.613 35.0044 24.613ZM39.7505 23.8931L39.138 23.2806C39.0162 23.1603 38.8518 23.0929 38.6806 23.0934C38.5094 23.0939 38.3453 23.1621 38.2242 23.2831C38.1031 23.4042 38.0349 23.5683 38.0344 23.7395C38.0339 23.9107 38.1012 24.0752 38.2215 24.1969L38.834 24.8094C38.8941 24.8696 38.9656 24.9174 39.0442 24.95C39.1228 24.9825 39.2071 24.9993 39.2922 24.9991C39.4204 24.9992 39.5457 24.9612 39.6522 24.89C39.7588 24.8188 39.8419 24.7176 39.8909 24.5992C39.9399 24.4808 39.9528 24.3506 39.9278 24.2249C39.9028 24.0992 39.8411 23.9837 39.7505 23.8931ZM41.0683 19.4155H40.2021C40.0321 19.4183 39.87 19.4878 39.7507 19.609C39.6315 19.7302 39.5646 19.8934 39.5646 20.0634C39.5646 20.2334 39.6315 20.3966 39.7507 20.5178C39.87 20.639 40.0321 20.7085 40.2021 20.7113H41.0683C41.4263 20.7113 41.7162 20.4212 41.7162 20.0634C41.7162 19.7056 41.4263 19.4155 41.0683 19.4155ZM39.7504 15.3173C39.6289 15.1958 39.4641 15.1276 39.2922 15.1276C39.1204 15.1276 38.9556 15.1958 38.8341 15.3173L38.2216 15.9298C38.1001 16.0513 38.0319 16.2161 38.0319 16.388C38.0319 16.5598 38.1002 16.7246 38.2217 16.8461C38.2818 16.9064 38.3532 16.9542 38.4318 16.9868C38.5104 17.0194 38.5947 17.0361 38.6798 17.036C38.7649 17.0361 38.8492 17.0194 38.9278 16.9868C39.0065 16.9542 39.0779 16.9064 39.138 16.8461L39.7505 16.2337C39.872 16.1121 39.9402 15.9473 39.9402 15.7755C39.9402 15.6036 39.8719 15.4388 39.7504 15.3173ZM52.9761 46.5391C52.9756 46.5278 52.9755 46.5165 52.9744 46.5052C52.9722 46.4826 52.9688 46.4602 52.9641 46.438L52.9638 46.4365L51.8099 40.9556L51.8087 40.9497L50.6549 35.4691L50.6537 35.4633L49.4988 29.9773C49.4682 29.8318 49.3885 29.7013 49.273 29.6076C49.1576 29.5139 49.0134 29.4628 48.8648 29.4628H21.1439C20.9952 29.4628 20.8511 29.514 20.7357 29.6076C20.6202 29.7013 20.5405 29.8318 20.5098 29.9773L19.3552 35.4627L19.3537 35.4696L18.2 40.9502C18.1996 40.9518 18.1993 40.9534 18.1991 40.955L17.0453 46.436C17.0404 46.4593 17.0368 46.4829 17.0344 46.5066C17.0339 46.5121 17.034 46.5178 17.0336 46.5233C17.0325 46.5387 17.0312 46.5541 17.0312 46.5698V49.1688C17.0312 49.3406 17.0995 49.5054 17.221 49.6269C17.3425 49.7484 17.5073 49.8167 17.6791 49.8167H33.0569V53.4567H28.074C27.9022 53.4567 27.7374 53.5249 27.6159 53.6464C27.4944 53.768 27.4261 53.9327 27.4261 54.1046V56.0557H21.144C20.974 56.0585 20.8119 56.128 20.6926 56.2492C20.5734 56.3704 20.5066 56.5336 20.5066 56.7036C20.5066 56.8736 20.5734 57.0368 20.6926 57.158C20.8119 57.2792 20.974 57.3487 21.144 57.3515H48.8637C49.0337 57.3487 49.1958 57.2792 49.3151 57.158C49.4343 57.0368 49.5012 56.8736 49.5012 56.7036C49.5012 56.5336 49.4343 56.3704 49.3151 56.2492C49.1958 56.128 49.0337 56.0585 48.8637 56.0557H42.5825V54.1046C42.5825 53.9327 42.5143 53.768 42.3928 53.6464C42.2713 53.5249 42.1065 53.4567 41.9347 53.4567H36.9518V49.8167H52.3296C52.5014 49.8167 52.6662 49.7484 52.7877 49.6269C52.9092 49.5054 52.9775 49.3406 52.9775 49.1688V46.5814L52.9776 46.5785V46.5701C52.9777 46.5595 52.9766 46.5494 52.9761 46.5391ZM51.5313 45.922H41.3837L41.0895 41.7314H50.6491L51.5313 45.922ZM49.4941 36.2451L50.3764 40.4356H40.9986L40.7045 36.2451H49.4941ZM48.3391 30.7587L49.2214 34.9493H40.6135L40.3194 30.7587H48.3391ZM30.9882 30.7587H39.0204L39.3146 34.9493H30.6942L30.9882 30.7587ZM30.6033 36.2451H39.4055L39.6997 40.4356H30.3092L30.6033 36.2451ZM30.2184 41.7315H39.7906L40.0847 45.922H29.9243L30.2184 41.7315ZM21.6697 30.7587H29.6893L29.3952 34.9493H20.7874L21.6697 30.7587ZM20.5147 36.2451H29.3043L29.0102 40.4356H19.6325L20.5147 36.2451ZM41.2868 54.7527V56.0559H28.7221V54.7527H41.2868ZM34.3528 53.4569V49.8169H35.656V53.4569H34.3528ZM36.3115 48.521C36.309 48.521 36.3065 48.5207 36.304 48.5207H33.7049C33.7024 48.5207 33.6999 48.521 33.6974 48.521H18.327V47.2179H21.4135C21.5853 47.2179 21.7501 47.1496 21.8716 47.0281C21.9931 46.9066 22.0614 46.7418 22.0614 46.57C22.0614 46.3981 21.9931 46.2334 21.8716 46.1119C21.7501 45.9903 21.5853 45.9221 21.4135 45.9221H18.4776L19.3597 41.7315H28.9193L28.6252 45.922H24.2153C24.0435 45.922 23.8787 45.9903 23.7572 46.1118C23.6357 46.2333 23.5674 46.3981 23.5674 46.5699C23.5674 46.7417 23.6357 46.9065 23.7572 47.028C23.8787 47.1495 24.0435 47.2178 24.2153 47.2178H51.6816V48.5209H36.3115V48.521Z" fill="white"/>
</g>
<defs>
<clipPath id="clip0_2128_8174">
<rect width="44" height="44" fill="white" transform="translate(13 13.3516)"/>
</clipPath>
</defs>
</svg>
