<svg width="70" height="71" viewBox="0 0 70 71" fill="none" xmlns="http://www.w3.org/2000/svg">
<circle cx="35" cy="35.3516" r="35" fill="#4A584E"/>
<g clip-path="url(#clip0_2128_8151)">
<path d="M55.3303 30.4107H52.482C52.0379 28.4976 51.2879 26.6885 50.2472 25.0191L52.2622 23.0041C52.3911 22.8752 52.4635 22.7004 52.4635 22.518C52.4635 22.3357 52.3911 22.1609 52.2622 22.0319L47.4666 17.2359C47.4027 17.1721 47.3269 17.1214 47.2435 17.0869C47.1601 17.0523 47.0707 17.0345 46.9804 17.0345C46.8901 17.0345 46.8007 17.0523 46.7173 17.0869C46.6339 17.1214 46.5581 17.1721 46.4943 17.2359L44.4792 19.251C42.8088 18.2099 40.9998 17.4599 39.0875 17.016V14.168C39.0875 13.9856 39.015 13.8108 38.8861 13.6818C38.7572 13.5529 38.5823 13.4805 38.4 13.4805H31.6177C31.4354 13.4805 31.2605 13.5529 31.1316 13.6818C31.0026 13.8108 30.9302 13.9856 30.9302 14.168V17.0161C29.0171 17.4602 27.208 18.2102 25.5385 19.2509L23.5236 17.2359C23.3946 17.1071 23.2198 17.0347 23.0374 17.0347C22.8551 17.0347 22.6803 17.1071 22.5513 17.2359L17.7555 22.0317C17.6916 22.0955 17.6409 22.1713 17.6064 22.2547C17.5718 22.3381 17.554 22.4275 17.554 22.5178C17.554 22.6081 17.5718 22.6975 17.6063 22.7809C17.6409 22.8643 17.6915 22.9401 17.7554 23.004L19.7704 25.019C18.7294 26.6891 17.9794 28.4982 17.5355 30.4107H14.6875C14.5052 30.4107 14.3303 30.4831 14.2014 30.612C14.0724 30.741 14 30.9158 14 31.0982V37.8804C14 38.0628 14.0724 38.2377 14.2014 38.3666C14.3303 38.4955 14.5052 38.5679 14.6875 38.5679H17.5355C17.9797 40.4812 18.7296 42.2902 19.7704 43.9598L17.7556 45.9746C17.6266 46.1036 17.5542 46.2784 17.5542 46.4607C17.5542 46.6431 17.6266 46.8179 17.7556 46.9469L22.5513 51.7428C22.6151 51.8066 22.6909 51.8573 22.7743 51.8918C22.8577 51.9264 22.9472 51.9442 23.0374 51.9442C23.1277 51.9442 23.2171 51.9264 23.3006 51.8918C23.384 51.8573 23.4598 51.8066 23.5236 51.7428L25.5385 49.7278C26.7047 50.454 27.9509 51.0432 29.2523 51.4837V51.8552C29.2523 52.9289 29.9678 53.8383 30.9469 54.1328L30.9446 54.1659C30.8896 54.9701 31.1735 55.7494 31.7439 56.3601C32.3579 57.0174 33.2256 57.3945 34.1246 57.3945H35.8933C37.5841 57.3945 38.9512 56.0468 39.0734 54.2596L39.0823 54.1294C40.0556 53.8315 40.7657 52.9247 40.7657 51.8551V51.4835C42.067 51.0431 43.3131 50.4539 44.4793 49.7276L46.4942 51.7426C46.7627 52.011 47.198 52.0111 47.4664 51.7426L52.2623 46.9469C52.3262 46.883 52.3768 46.8072 52.4114 46.7238C52.4459 46.6404 52.4637 46.551 52.4637 46.4607C52.4638 46.3704 52.446 46.281 52.4114 46.1976C52.3769 46.1142 52.3262 46.0384 52.2624 45.9746L50.2474 43.9596C51.2884 42.2894 52.0383 40.4803 52.4823 38.5679H55.3304C55.5128 38.5679 55.6876 38.4954 55.8166 38.3665C55.9455 38.2376 56.0179 38.0627 56.0179 37.8804V31.0981C56.0178 30.9158 55.9454 30.7409 55.8164 30.612C55.6875 30.4831 55.5126 30.4107 55.3303 30.4107ZM30.6273 48.9202H39.3906V50.1884H30.6273V48.9202ZM39.3905 47.2045V47.5452H30.6273V47.2045C30.6273 46.0558 30.0612 45.0596 29.0741 44.4714C25.5729 42.3853 23.3978 38.5603 23.3978 34.4892C23.3978 28.0868 28.6065 22.8782 35.0089 22.8782C41.4113 22.8782 46.62 28.0868 46.62 34.4892C46.62 38.5603 44.4449 42.3853 40.9436 44.4714C39.9566 45.0596 39.3905 46.0558 39.3905 47.2045ZM35.8933 56.0195H34.1245C33.8665 56.0191 33.6113 55.9658 33.3747 55.863C33.1381 55.7601 32.925 55.6099 32.7487 55.4216C32.4412 55.0924 32.2877 54.6797 32.3164 54.2596L32.3182 54.2332H37.694C37.5937 55.256 36.8311 56.0195 35.8933 56.0195ZM38.3873 52.8583H31.6303C31.0772 52.8583 30.6272 52.4084 30.6272 51.8552V51.5633H39.3905V51.8552C39.3905 52.4084 38.9405 52.8583 38.3873 52.8583ZM54.6428 37.1929H51.9271C51.7681 37.1929 51.614 37.2481 51.4911 37.3489C51.3681 37.4497 51.284 37.5901 51.2529 37.746C50.8293 39.8707 50.003 41.8644 48.7969 43.6719C48.7086 43.8041 48.6689 43.9628 48.6846 44.121C48.7002 44.2792 48.7701 44.4271 48.8825 44.5396L50.8038 46.4609L46.9801 50.2843L45.0591 48.3632C44.9466 48.2508 44.7987 48.1808 44.6405 48.1652C44.4822 48.1496 44.3235 48.1893 44.1912 48.2775C43.1214 48.9918 41.9716 49.5785 40.7655 50.0256V47.2046C40.7655 46.5428 41.0787 45.9917 41.6475 45.6527C43.5499 44.5177 45.1324 42.9174 46.2462 41.0024C47.3902 39.0322 47.9951 36.78 47.9951 34.4893C47.9951 27.3288 42.1695 21.5033 35.009 21.5033C27.8484 21.5033 22.0229 27.3288 22.0229 34.4893C22.0229 36.78 22.6276 39.0322 23.7718 41.0024C24.8855 42.9174 26.468 44.5176 28.3704 45.6526C28.9392 45.9916 29.2524 46.5427 29.2524 47.2046V50.0257C28.0462 49.5786 26.8964 48.9919 25.8265 48.2776C25.6942 48.1893 25.5355 48.1496 25.3772 48.1652C25.219 48.1809 25.0711 48.2509 24.9587 48.3634L23.0376 50.2845L19.2142 46.4609L21.1353 44.5398C21.2477 44.4274 21.3177 44.2794 21.3333 44.1212C21.3489 43.963 21.3092 43.8042 21.221 43.6719C20.015 41.8654 19.1887 39.8715 18.7648 37.746C18.7337 37.5901 18.6495 37.4497 18.5266 37.3489C18.4037 37.2481 18.2496 37.1929 18.0905 37.1929H15.375V31.7857H18.0904C18.2494 31.7857 18.4035 31.7306 18.5264 31.6297C18.6494 31.5289 18.7335 31.3885 18.7646 31.2326C19.1882 29.108 20.0146 27.1143 21.2208 25.3068C21.309 25.1745 21.3487 25.0158 21.3331 24.8575C21.3175 24.6993 21.2475 24.5514 21.1351 24.439L19.2138 22.5177L23.0374 18.6943L24.9586 20.6155C25.071 20.7279 25.219 20.7979 25.3772 20.8135C25.5354 20.8291 25.6942 20.7894 25.8265 20.7012C27.633 19.4954 29.6268 18.6691 31.7522 18.2452C31.9081 18.2141 32.0485 18.1299 32.1493 18.007C32.2502 17.884 32.3053 17.7299 32.3053 17.5709V14.8555H37.7126V17.5711C37.7126 17.7301 37.7677 17.8842 37.8685 18.0072C37.9694 18.1301 38.1098 18.2143 38.2657 18.2454C40.39 18.6688 42.3837 19.4951 44.1915 20.7015C44.3237 20.7897 44.4825 20.8294 44.6407 20.8138C44.7989 20.7982 44.9468 20.7282 45.0593 20.6158L46.9805 18.6944L50.8039 22.518L48.8826 24.4392C48.7702 24.5517 48.7003 24.6996 48.6846 24.8578C48.669 25.0161 48.7087 25.1748 48.797 25.3071C50.0028 27.1137 50.8292 29.1074 51.253 31.2327C51.2841 31.3886 51.3683 31.529 51.4913 31.6298C51.6142 31.7307 51.7683 31.7858 51.9273 31.7858H54.6429V37.1929H54.6428ZM42.7897 32.6603C42.7378 32.4998 42.6396 32.3582 42.5074 32.2534C42.3752 32.1486 42.2149 32.0852 42.0467 32.0713L37.5479 31.6935L35.7984 27.5316C35.6645 27.2134 35.3547 27.0076 35.0089 27.0076C34.6631 27.0076 34.3533 27.2134 34.2193 27.5317L32.4699 31.6935L27.9709 32.0713C27.8028 32.0852 27.6425 32.1486 27.5104 32.2534C27.3782 32.3581 27.2799 32.4997 27.228 32.6602C27.1757 32.8205 27.172 32.9928 27.2174 33.1552C27.2628 33.3177 27.3552 33.463 27.483 33.5731L30.9006 36.5231L29.8698 40.9183C29.8399 41.0437 29.8389 41.1744 29.8669 41.3003C29.8949 41.4263 29.9512 41.5442 30.0315 41.6452C30.1115 41.7469 30.2136 41.8291 30.33 41.8855C30.4464 41.9419 30.5742 41.9711 30.7036 41.9709C30.8594 41.9709 31.0128 41.9279 31.1472 41.8465L35.0089 39.5078L38.8707 41.8465C39.0044 41.9277 39.1578 41.9707 39.3142 41.9709C39.4435 41.9711 39.5713 41.9419 39.6877 41.8855C39.8041 41.8291 39.9062 41.7469 39.9862 41.6453C40.0665 41.5443 40.1228 41.4264 40.1509 41.3005C40.1789 41.1745 40.178 41.0439 40.1481 40.9183L39.1171 36.523L42.5347 33.5731C42.6625 33.4631 42.7549 33.3177 42.8003 33.1553C42.8457 32.9929 42.842 32.8207 42.7897 32.6603ZM37.9035 35.7544C37.8085 35.8364 37.7377 35.9429 37.6989 36.0624C37.6601 36.1818 37.6547 36.3095 37.6833 36.4318L38.5277 40.0315L35.365 38.1162C35.2576 38.0511 35.1344 38.0167 35.0088 38.0167C34.8832 38.0167 34.76 38.0511 34.6526 38.1162L31.49 40.0315L32.3342 36.4318C32.3629 36.3095 32.3575 36.1818 32.3187 36.0623C32.2799 35.9429 32.2091 35.8364 32.1141 35.7544L29.3152 33.3383L32.9997 33.0288C33.1248 33.0183 33.2446 32.9738 33.3462 32.9C33.4478 32.8262 33.5272 32.726 33.5759 32.6102L35.0089 29.2017L36.4417 32.6102C36.4904 32.726 36.5698 32.8262 36.6714 32.9C36.773 32.9738 36.8928 33.0183 37.0179 33.0288L40.7024 33.3383L37.9035 35.7544Z" fill="white"/>
</g>
<defs>
<clipPath id="clip0_2128_8151">
<rect width="44" height="44" fill="white" transform="translate(13 13.4375)"/>
</clipPath>
</defs>
</svg>
