<svg width="70" height="71" viewBox="0 0 70 71" fill="none" xmlns="http://www.w3.org/2000/svg">
<circle cx="35" cy="35.3516" r="35" fill="#4A584E"/>
<g clip-path="url(#clip0_2128_8205)">
<path d="M55.1313 23.3876L44.2608 14.7405C44.0137 14.5552 43.7049 14.5552 43.5196 14.7405L32.649 23.3876C32.4637 23.5729 32.3402 23.8199 32.4637 24.067C32.5255 24.3141 32.7725 24.4994 33.0196 24.4994H34.2549V32.9611H33.4519C33.0813 32.9611 32.8343 33.2082 32.8343 33.5788V36.2347C32.8343 36.6052 33.0813 36.8523 33.4519 36.8523H54.3284C54.699 36.8523 54.9461 36.6052 54.9461 36.2347V33.5788C54.9461 33.2082 54.699 32.9611 54.3284 32.9611H53.5255V24.4994H54.7608C55.0078 24.4994 55.2549 24.3141 55.3166 24.067C55.4402 23.8199 55.3784 23.5729 55.1313 23.3876ZM43.8902 16.0376L52.9696 23.2641H34.8108L43.8902 16.0376ZM45.9284 32.9611V24.4994H49.449V32.9611H45.9284ZM38.3313 32.9611V24.4994H41.8519V32.9611H38.3313ZM43.0872 24.4994H44.6931V32.9611H43.0872V24.4994ZM35.4902 24.4994H37.096V32.9611H35.4902V24.4994ZM53.7108 35.617H34.0696V34.1964H53.7108V35.617ZM52.2902 32.9611H50.6843V24.4994H52.2902V32.9611ZM26.5343 33.2699C26.2872 33.0847 25.9784 33.0847 25.7931 33.2699L14.9225 41.917C14.7372 42.1023 14.6137 42.3494 14.7372 42.5964C14.7372 42.8435 14.9843 43.0288 15.2313 43.0288H16.4666V51.4905H15.6637C15.2931 51.4905 15.046 51.7376 15.046 52.1082V54.7641C15.046 55.1347 15.2931 55.3817 15.6637 55.3817H36.5402C36.9108 55.3817 37.1578 55.1347 37.1578 54.7641V52.1082C37.1578 51.7376 36.9108 51.4905 36.5402 51.4905H35.7372V43.0288H36.9725C37.2196 43.0288 37.4666 42.8435 37.5284 42.5964C37.5902 42.3494 37.5284 42.1023 37.3431 41.917L26.5343 33.2699ZM26.1019 34.567L35.2431 41.7935H17.0225L26.1019 34.567ZM28.1402 51.4905V43.0288H31.6608V51.4905H28.1402ZM20.5431 51.4905V43.0288H24.0637V51.4905H20.5431ZM25.299 43.0288H26.9049V51.4905H25.299V43.0288ZM17.7019 43.0288H19.3078V51.4905H17.7019V43.0288ZM35.9843 54.1464H16.2813V52.7258H35.9225V54.1464H35.9843ZM34.5019 51.4905H32.896V43.0288H34.5019V51.4905ZM49.5108 38.3347C49.3872 38.2111 49.2019 38.0876 49.0166 38.0876C48.8313 38.0876 48.7078 38.1494 48.5843 38.2729L45.0019 42.2876C44.7549 42.5347 44.8166 42.9052 45.0637 43.1523C45.3108 43.3994 45.6813 43.3376 45.9284 43.0905L48.399 40.2494V52.7258H39.3813C39.0108 52.7258 38.7637 52.9729 38.7637 53.3435C38.7637 53.7141 39.0108 53.9611 39.3813 53.9611H49.0784C49.449 53.9611 49.696 53.7141 49.696 53.3435V40.3729L52.1666 43.2141C52.4137 43.4611 52.7843 43.5229 53.0313 43.2758C53.2784 43.0288 53.3402 42.6582 53.0931 42.4111L49.5108 38.3347ZM19.3078 35.6788C19.6784 35.6788 19.9255 35.4317 19.9255 35.0611V20.4847H30.549L27.7078 22.9552C27.4608 23.2023 27.399 23.5729 27.646 23.8199C27.8931 24.067 28.2637 24.1288 28.5108 23.8817C28.5108 23.8817 32.5255 20.2994 32.5872 20.2994C32.7108 20.1758 32.7725 19.9905 32.7725 19.867C32.7725 19.6817 32.649 19.4964 32.5872 19.4347L28.5108 15.8523C28.2637 15.6052 27.8931 15.667 27.646 15.9141C27.399 16.1611 27.4608 16.5317 27.7078 16.7788L30.549 19.2494H19.3078C18.9372 19.2494 18.6902 19.4964 18.6902 19.867V35.1229C18.6902 35.4317 18.9372 35.6788 19.3078 35.6788Z" fill="white"/>
<path d="M26.0993 40.8068C27.3346 40.8068 28.261 39.8186 28.261 38.645C28.261 37.4097 27.2728 36.4833 26.0993 36.4833C24.9257 36.4833 23.9375 37.4715 23.9375 38.645C23.9375 39.8186 24.9257 40.8068 26.0993 40.8068ZM26.0993 37.6568C26.5934 37.6568 27.0257 38.0892 27.0257 38.5833C27.0257 39.0774 26.5934 39.5097 26.0993 39.5097C25.6051 39.5097 25.1728 39.0774 25.1728 38.5833C25.1728 38.0892 25.6051 37.6568 26.0993 37.6568ZM43.8875 22.3392C45.1228 22.3392 46.0493 21.3509 46.0493 20.1774C46.0493 18.9421 45.061 18.0156 43.8875 18.0156C42.714 18.0156 41.664 18.9421 41.664 20.1156C41.664 21.3509 42.6522 22.3392 43.8875 22.3392ZM43.8875 19.1892C44.3816 19.1892 44.814 19.6215 44.814 20.1156C44.814 20.6097 44.3816 21.0421 43.8875 21.0421C43.3934 21.0421 42.961 20.6097 42.961 20.1156C42.961 19.6215 43.3316 19.1892 43.8875 19.1892Z" fill="white"/>
</g>
<defs>
<clipPath id="clip0_2128_8205">
<rect width="42" height="42" fill="white" transform="translate(14 14)"/>
</clipPath>
</defs>
</svg>
