<svg width="70" height="71" viewBox="0 0 70 71" fill="none" xmlns="http://www.w3.org/2000/svg">
<circle cx="35" cy="35.3516" r="35" fill="#4A584E"/>
<g clip-path="url(#clip0_2128_8161)">
<path d="M57.6517 18.1591C57.0557 16.2849 56.2481 14.943 56.2138 14.8866C56.0814 14.6683 55.8087 14.5548 55.5617 14.6114C55.4978 14.626 53.9725 14.982 52.2132 15.8607C49.838 17.0465 48.1788 18.6296 47.4144 20.4382C46.7782 21.9442 46.6868 23.7854 47.1382 25.8194C46.1767 24.7457 45.0951 23.8063 43.9161 23.0155C43.5561 22.3042 42.6041 20.5532 41.1159 18.7231C40.6257 18.1206 39.6828 18.8767 40.1781 19.4852C41.1808 20.7186 41.9357 21.9316 42.4077 22.765L36.9033 21.6919L31.6735 14.5586C32.1813 14.5656 32.6909 14.6146 33.198 14.7142C34.8055 15.0288 36.3934 15.8476 37.9184 17.1473C38.5159 17.6566 39.2918 16.7296 38.7022 16.2273C37.0176 14.7917 35.2439 13.8833 33.4301 13.528C30.6614 12.9862 27.4322 13.6975 24.0907 15.5858C21.6002 16.9932 19.9347 18.539 19.8652 18.604C19.6424 18.8122 19.6069 19.1904 19.7935 19.4336C20.0377 19.9346 20.9632 21.7421 22.5037 23.688C23.4119 24.8352 24.3696 25.8172 25.3604 26.6241C25.0774 26.8609 24.8037 27.1084 24.5399 27.3663C23.1239 28.7514 22.0397 30.385 21.328 32.1711C20.6988 33.7492 20.3605 35.4469 20.3416 37.1967C20.3104 40.0581 21.1394 42.8177 22.7397 45.1778C24.3029 47.4831 26.4883 49.253 29.0593 50.2961C29.7789 50.5874 30.2339 49.4682 29.5138 49.1762C28.5893 48.8008 27.712 48.3182 26.8999 47.7384C27.0032 47.1658 27.2426 45.1053 25.874 42.9723C25.6824 42.674 26.2552 41.5023 26.5971 40.8023C26.95 40.081 27.3144 39.3353 27.4846 38.6331C27.6653 37.8871 27.4619 37.2609 26.8967 36.8216C26.4818 36.4991 25.9387 36.3321 25.4601 36.1848C25.1491 36.0892 24.7966 35.9809 24.6708 35.8759C24.4115 35.6587 23.988 34.8558 23.6476 34.211C23.2699 33.4957 22.9104 32.8149 22.5433 32.3957C23.3694 30.4339 24.6962 28.698 26.3579 27.3699C27.8758 28.4039 29.6083 29.1174 31.4497 29.262C29.3142 30.9165 28.6233 33.0297 29.6108 35.0595C30.7639 37.4296 33.1373 37.0509 35.2313 36.7173C35.5935 36.6594 35.9684 36.5998 36.3274 36.5549C36.4622 36.5381 36.5028 36.5749 36.5299 36.5987C36.9884 37.0066 36.9748 38.9546 36.965 40.3771C36.9516 42.3447 36.939 44.2032 37.6719 45.1575C38.0458 45.6439 38.5723 45.8926 39.1894 45.8926C39.5592 45.8926 39.961 45.8035 40.3825 45.6227C42.2051 44.8422 44.0996 42.4932 43.8106 40.6347C43.5581 39.0097 43.3909 37.9362 43.7849 37.0708C44.1492 36.2699 45.0299 35.5285 46.7644 34.5823C46.9759 35.5365 47.0771 36.5118 47.066 37.489C47.029 40.8965 45.6669 44.0857 43.231 46.4686C40.5087 49.1318 36.6825 50.4471 32.8976 50.0299C32.1265 49.9463 31.9932 51.1463 32.7654 51.2313C36.9083 51.6877 41.097 50.2475 44.0759 47.3328C46.743 44.7237 48.2339 41.2326 48.2744 37.5018C48.3284 32.5553 45.7903 28.173 41.9266 25.6485C42.7249 25.0793 43.3197 24.587 43.6495 24.3013C45.0581 25.3119 46.3076 26.5569 47.3472 28.0074C49.8428 31.4901 50.8324 35.7357 50.1345 39.9629C48.6932 48.689 40.4218 54.6164 31.6942 53.1745C27.4667 52.4764 23.7644 50.1742 21.2689 46.6914C18.7731 43.209 17.7834 38.9629 18.4816 34.7359C18.6069 33.9753 17.4153 33.7757 17.2895 34.5391C16.5384 39.0847 17.6032 43.6506 20.2863 47.3957C22.9698 51.1403 26.9516 53.6162 31.4973 54.3672C32.4385 54.5229 33.3909 54.6013 34.3449 54.6016C37.9175 54.6016 41.3929 53.4924 44.3544 51.3701C48.1001 48.6865 50.5762 44.7055 51.3267 40.1598C51.8768 36.8288 51.4511 33.4871 50.1288 30.4654C50.7392 30.2853 51.7777 29.9359 52.9151 29.3679C55.2899 28.1821 56.9492 26.599 57.7134 24.7904C58.4783 22.9815 58.4568 20.6884 57.6517 18.1591ZM22.5786 34.775C23.0283 35.6274 23.4535 36.4331 23.8954 36.8027C24.2083 37.0643 24.6439 37.1982 25.1049 37.34C26.286 37.703 26.4231 37.8813 26.3099 38.3483C26.1709 38.9226 25.8355 39.6084 25.5115 40.2713C24.8873 41.5483 24.298 42.7538 24.8567 43.6249C25.4716 44.5798 25.7898 45.6955 25.771 46.8312C22.1718 43.5856 20.7062 38.4594 22.0469 33.8C22.2246 34.1047 22.4114 34.4587 22.5786 34.775ZM51.8154 22.8997L50.0981 18.7379C50.9337 17.9563 51.9033 17.3683 52.729 16.9541C53.4325 16.6011 54.1017 16.3373 54.6385 16.1502L51.8154 22.8997ZM55.7525 16.6187C55.9925 17.1343 56.2707 17.7993 56.5084 18.5508C56.769 19.3756 57.0082 20.3978 57.0557 21.4641L53.0312 23.1244L55.7525 16.6187ZM48.5275 20.9087C48.7057 20.4872 48.9362 20.0965 49.2022 19.7356L51.1572 24.4728L49.4029 28.6678C49.1564 28.1449 48.8662 27.458 48.6199 26.6778C48.1257 25.1156 47.7087 22.846 48.5275 20.9087ZM52.399 28.2745C51.722 28.6144 51.0759 28.8717 50.5498 29.0572L52.3703 24.7049L57.0044 22.7927C56.9371 23.3118 56.809 23.8265 56.6002 24.3199C55.7817 26.2573 53.8638 27.54 52.399 28.2745ZM30.609 27.9305C30.3965 27.8886 30.1856 27.8382 29.9771 27.7795L36.6651 22.877L42.1721 23.9503C40.166 25.531 35.284 28.8465 30.609 27.9305ZM24.4968 24.1497C23.0665 22.6081 22.0181 20.9598 21.4161 19.9044L28.4241 21.2708L24.4968 24.1497ZM25.7345 16.0873L28.6666 20.0867L21.6132 18.7117C22.5013 18.0106 23.9671 16.958 25.7345 16.0873ZM30.4149 20.4275L26.8602 15.5787C27.9244 15.1414 29.0667 14.7972 30.2377 14.6442L35.1552 21.3513L30.4149 20.4275ZM30.0388 21.5854L35.0508 22.5623L28.6183 27.2772C27.4053 26.717 26.3136 25.9116 25.3584 25.0163L30.0388 21.5854ZM46.436 33.3859C44.2575 34.5466 43.1907 35.4582 42.6847 36.5703C42.1411 37.7645 42.3403 39.0462 42.616 40.8202C42.7788 41.8663 41.5356 43.8143 39.9067 44.5119C39.3039 44.77 38.8746 44.7395 38.6302 44.421C38.15 43.7961 38.1631 41.9048 38.1735 40.3854C38.1878 38.2831 38.2004 36.4676 37.333 35.6959C37.0211 35.4185 36.6221 35.3012 36.1787 35.3555C35.7987 35.4029 35.4133 35.4643 35.041 35.5237C32.8196 35.8777 31.4217 36.0194 30.6977 34.5307C29.5244 32.1195 31.8993 30.3335 32.9749 29.6776C33.1939 29.5442 33.3971 29.3868 33.5859 29.2116C36.1855 28.9009 38.6418 27.7855 40.8307 26.3885C43.4551 27.9565 45.4697 30.438 46.436 33.3859Z" fill="white"/>
</g>
<defs>
<clipPath id="clip0_2128_8161">
<rect width="44" height="44" fill="white" transform="translate(17 13.3516)"/>
</clipPath>
</defs>
</svg>
