<svg width="81" height="81" viewBox="0 0 81 81" fill="none" xmlns="http://www.w3.org/2000/svg">
<ellipse cx="40.2513" cy="40.5384" rx="40.0013" ry="40.0013" fill="#4A584E"/>
<path d="M54.9595 34.6164C55.509 34.6164 55.9539 35.0613 55.9539 35.6109C55.9539 36.1604 55.509 36.6053 54.9595 36.6053H45.1657C44.6162 36.6053 44.1713 36.1604 44.1713 35.6109V25.6631C44.1713 25.1135 44.6162 24.6686 45.1657 24.6686C45.7153 24.6686 46.1602 25.1135 46.1602 25.6631V26.6706V33.1116L49.2743 29.8208L57.8577 20.7431C58.2339 20.3473 58.8619 20.3277 59.2578 20.7039C59.6536 21.0801 59.6732 21.7082 59.297 22.104L50.671 31.2274L47.4653 34.6164H54.0239H54.9595ZM34.3416 25.8201C34.3416 25.2705 34.7864 24.8256 35.336 24.8256C35.8855 24.8256 36.3304 25.2705 36.3304 25.8201V35.6109C36.3304 36.1604 35.8855 36.6053 35.336 36.6053H25.3885C24.8389 36.6053 24.3941 36.1604 24.3941 35.6109C24.3941 35.0613 24.8389 34.6164 25.3885 34.6164H26.4058H32.8368L29.5624 31.5218L20.4687 22.9251C20.0696 22.5489 20.05 21.9208 20.4262 21.5217C20.7991 21.1193 21.4304 21.103 21.8295 21.4792L30.9854 30.1348L34.3416 33.3079V26.8473V25.8201ZM25.5455 46.455C24.9959 46.455 24.5511 46.0101 24.5511 45.4605C24.5511 44.911 24.9959 44.4661 25.5455 44.4661H35.3393C35.8888 44.4661 36.3337 44.911 36.3337 45.4605V55.4083C36.3337 55.9579 35.8888 56.4028 35.3393 56.4028C34.7897 56.4028 34.3448 55.9579 34.3448 55.4083V54.391V47.9597L31.2503 51.2342L22.6505 60.3315C22.2744 60.7306 21.6463 60.7502 21.2472 60.374C20.8482 59.9978 20.8285 59.3698 21.2047 58.9707L29.8601 49.8145L33.0331 46.4582H26.5726H25.5455V46.455ZM46.1634 55.2513C46.1634 55.8009 45.7185 56.2457 45.169 56.2457C44.6195 56.2457 44.1746 55.8009 44.1746 55.2513V45.4605C44.1746 44.911 44.6195 44.4661 45.169 44.4661H55.1165C55.6661 44.4661 56.1109 44.911 56.1109 45.4605C56.1109 46.0101 55.6661 46.455 55.1165 46.455H54.109H47.6649L50.9589 49.5692L60.0363 58.1496C60.4354 58.5258 60.455 59.1539 60.0788 59.553C59.7026 59.952 59.0746 59.9717 58.6755 59.5955L49.549 50.966L46.1634 47.7667V54.3157V55.2513Z" fill="white"/>
</svg>
