<svg width="70" height="71" viewBox="0 0 70 71" fill="none" xmlns="http://www.w3.org/2000/svg">
<circle cx="35" cy="35.3516" r="35" fill="#4A584E"/>
<g clip-path="url(#clip0_2128_8193)">
<path d="M54.6022 41.565C54.226 41.1886 53.7411 40.9398 53.216 40.8539C52.6908 40.7679 52.1519 40.8491 51.6753 41.086L43.8331 45.0235H43.3278C43.6934 44.536 43.9161 43.9563 43.9708 43.3494C44.0255 42.7425 43.9102 42.1323 43.6377 41.5873C43.3652 41.0423 42.9462 40.5839 42.4279 40.2635C41.9095 39.9432 41.3122 39.7735 40.7028 39.7735H35.7022C34.5899 39.7711 33.4836 39.937 32.421 40.2657L26.3966 42.1097C26.2867 41.6358 26.0054 41.2194 25.6067 40.9407C25.208 40.662 24.7203 40.5408 24.2375 40.6003L15.2338 41.7422C15.0737 41.7616 14.9264 41.8391 14.8198 41.9602C14.7133 42.0812 14.6551 42.2372 14.6563 42.3985V53.5547C14.6551 53.7159 14.7133 53.872 14.8198 53.993C14.9264 54.114 15.0737 54.1916 15.2338 54.211L24.2572 55.3463H24.5C25.0222 55.3463 25.5229 55.1389 25.8921 54.7696C26.2613 54.4004 26.4688 53.8997 26.4688 53.3775V52.2422H29.1725C29.8205 52.2389 30.4671 52.3026 31.1019 52.4325L37.3691 53.686C37.8405 53.777 38.3195 53.8231 38.7997 53.8238C40.1487 53.8198 41.4696 53.4378 42.6125 52.7213L54.156 45.5025C54.4786 45.3003 54.7516 45.028 54.9544 44.7057C55.1573 44.3835 55.285 44.0197 55.3279 43.6413C55.3707 43.2629 55.3278 42.8798 55.2021 42.5203C55.0765 42.1608 54.8714 41.8343 54.6022 41.565ZM25.1563 53.3775C25.1561 53.4707 25.1362 53.5628 25.0977 53.6477C25.0592 53.7325 25.0031 53.8082 24.9331 53.8697C24.8637 53.9305 24.7822 53.9759 24.694 54.0031C24.6058 54.0302 24.5129 54.0384 24.4213 54.0272L15.9688 52.9707V42.976L24.4213 41.9194C24.5129 41.9082 24.6058 41.9164 24.694 41.9436C24.7822 41.9707 24.8637 42.0161 24.9331 42.0769C25.0031 42.1384 25.0592 42.2141 25.0977 42.299C25.1362 42.3838 25.1561 42.4759 25.1563 42.5691V53.3775ZM53.4603 44.4066L41.9169 51.6253C40.6388 52.425 39.1011 52.7001 37.625 52.3932L31.3578 51.1397C30.6356 51 29.9016 50.9297 29.166 50.9297H26.4688V43.4747L32.8278 41.506C33.7589 41.2186 34.7278 41.0726 35.7022 41.0728H40.7225C41.1084 41.077 41.4846 41.1945 41.8043 41.4107C42.1239 41.6268 42.373 41.9322 42.5205 42.2888C42.6681 42.6454 42.7076 43.0375 42.6341 43.4164C42.5606 43.7952 42.3774 44.1441 42.1072 44.4197C41.9269 44.6039 41.7114 44.7499 41.4735 44.8491C41.2356 44.9483 40.9802 44.9987 40.7225 44.9972H36.1288C35.9547 44.9972 35.7878 45.0664 35.6647 45.1894C35.5417 45.3125 35.4725 45.4794 35.4725 45.6535C35.4725 45.8275 35.5417 45.9944 35.6647 46.1175C35.7878 46.2406 35.9547 46.3097 36.1288 46.3097H44.0038C44.1065 46.3091 44.2076 46.2844 44.2991 46.2375L52.2791 42.2475C52.4191 42.1691 52.5732 42.119 52.7326 42.1002C52.892 42.0813 53.0536 42.094 53.2081 42.1376C53.3625 42.1812 53.5069 42.2547 53.633 42.3541C53.759 42.4535 53.8643 42.5767 53.9427 42.7167C54.0211 42.8568 54.0712 43.0109 54.09 43.1703C54.1089 43.3297 54.0962 43.4912 54.0526 43.6457C54.009 43.8002 53.9355 43.9446 53.8361 44.0706C53.7367 44.1967 53.6135 44.3019 53.4735 44.3803L53.4603 44.4066Z" fill="white"/>
<path d="M23.6534 51.7738C23.5924 51.7122 23.5198 51.6634 23.4399 51.6301C23.3599 51.5968 23.2741 51.5796 23.1875 51.5796C23.1009 51.5796 23.0151 51.5968 22.9351 51.6301C22.8552 51.6634 22.7826 51.7122 22.7216 51.7738C22.6625 51.8342 22.6157 51.9055 22.5837 51.9838C22.5493 52.0647 22.5314 52.1517 22.5312 52.2397C22.532 52.4119 22.6003 52.5768 22.7216 52.6991C22.7826 52.7606 22.8552 52.8094 22.9351 52.8427C23.0151 52.876 23.1009 52.8932 23.1875 52.8932C23.2741 52.8932 23.3599 52.876 23.4399 52.8427C23.5198 52.8094 23.5924 52.7606 23.6534 52.6991C23.7747 52.5768 23.843 52.4119 23.8438 52.2397C23.8436 52.1517 23.8257 52.0647 23.7913 51.9838C23.7593 51.9055 23.7125 51.8342 23.6534 51.7738ZM33.6875 30.4063C33.9238 30.4063 34.1534 30.4063 34.3831 30.3669C34.3831 30.5966 34.3438 30.8263 34.3438 31.0625C34.3438 32.4902 34.7671 33.8859 35.5603 35.073C36.3535 36.2601 37.4809 37.1854 38.8 37.7318C40.1191 38.2781 41.5705 38.4211 42.9708 38.1425C44.3711 37.864 45.6574 37.1765 46.6669 36.1669C47.6765 35.1574 48.364 33.8711 48.6425 32.4708C48.9211 31.0705 48.7781 29.6191 48.2318 28.3C47.6854 26.981 46.7601 25.8535 45.573 25.0603C44.3859 24.2671 42.9902 23.8438 41.5625 23.8438C41.3262 23.8438 41.0966 23.8438 40.8669 23.8831C40.8669 23.6534 40.9062 23.4238 40.9062 23.1875C40.9062 21.7598 40.4829 20.3641 39.6897 19.177C38.8965 17.9899 37.7691 17.0646 36.45 16.5182C35.1309 15.9719 33.6795 15.8289 32.2792 16.1075C30.8789 16.386 29.5926 17.0735 28.5831 18.0831C27.5735 19.0926 26.886 20.3789 26.6075 21.7792C26.3289 23.1795 26.4719 24.6309 27.0182 25.95C27.5646 27.2691 28.4899 28.3965 29.677 29.1897C30.8641 29.9829 32.2598 30.4063 33.6875 30.4063ZM47.4688 31.0625C47.4707 31.8951 47.2967 32.7186 46.958 33.4792C46.6194 34.2397 46.1238 34.9201 45.5037 35.4756C44.8836 36.0312 44.153 36.4494 43.36 36.7027C42.5669 36.9561 41.7293 37.039 40.9019 36.9458C40.0746 36.8527 39.2763 36.5858 38.5594 36.1624C37.8425 35.7391 37.2232 35.169 36.7421 34.4895C36.2611 33.8101 35.9291 33.0365 35.7679 32.2197C35.6068 31.4029 35.6202 30.5613 35.8072 29.75C35.8725 29.48 35.9558 29.2148 36.0566 28.9559C36.5542 27.6739 37.4836 26.6058 38.6844 25.9356C39.8853 25.2655 41.2823 25.0354 42.6347 25.285C43.987 25.5346 45.2099 26.2483 46.0924 27.303C46.9748 28.3577 47.4616 29.6873 47.4688 31.0625ZM33.6875 17.2813C35.2539 17.2813 36.7562 17.9035 37.8638 19.0112C38.9715 20.1188 39.5938 21.6211 39.5938 23.1875C39.5941 23.5063 39.5678 23.8246 39.515 24.1391C39.41 24.1719 39.305 24.2178 39.2 24.2572L38.8259 24.395C38.6488 24.4672 38.4716 24.5525 38.2944 24.6444L37.9663 24.815C37.7825 24.92 37.6053 25.0447 37.4347 25.1628L37.1787 25.34C36.9327 25.5293 36.6983 25.7331 36.4766 25.9503C36.2538 26.1688 36.0476 26.4035 35.8597 26.6525C35.7941 26.7378 35.7416 26.8297 35.6759 26.915C35.6103 27.0003 35.4397 27.2563 35.3347 27.44L35.1575 27.7813C35.0722 27.9519 34.9869 28.1225 34.9147 28.2997C34.8425 28.4769 34.8228 28.5491 34.7769 28.6738C34.7309 28.7984 34.6916 28.8838 34.6587 28.9888C34.3386 29.0515 34.0137 29.0866 33.6875 29.0938C32.1211 29.0938 30.6188 28.4715 29.5112 27.3639C28.4035 26.2562 27.7812 24.7539 27.7812 23.1875C27.7812 21.6211 28.4035 20.1188 29.5112 19.0112C30.6188 17.9035 32.1211 17.2813 33.6875 17.2813Z" fill="white"/>
<path d="M34.3438 25.1562H33.0312C32.8572 25.1562 32.6903 25.0871 32.5672 24.964C32.4441 24.841 32.375 24.674 32.375 24.5C32.375 24.326 32.3059 24.159 32.1828 24.036C32.0597 23.9129 31.8928 23.8438 31.7188 23.8438C31.5447 23.8438 31.3778 23.9129 31.2547 24.036C31.1316 24.159 31.0625 24.326 31.0625 24.5C31.0625 25.0221 31.2699 25.5229 31.6391 25.8921C32.0083 26.2613 32.5091 26.4688 33.0312 26.4688V27.125C33.0312 27.299 33.1004 27.466 33.2235 27.589C33.3465 27.7121 33.5135 27.7812 33.6875 27.7812C33.8615 27.7812 34.0285 27.7121 34.1515 27.589C34.2746 27.466 34.3438 27.299 34.3438 27.125V26.4688C34.8659 26.4688 35.3667 26.2613 35.7359 25.8921C36.1051 25.5229 36.3125 25.0221 36.3125 24.5C36.3125 23.9779 36.1051 23.4771 35.7359 23.1079C35.3667 22.7387 34.8659 22.5312 34.3438 22.5312H33.0312C32.8572 22.5312 32.6903 22.4621 32.5672 22.339C32.4441 22.216 32.375 22.049 32.375 21.875C32.375 21.701 32.4441 21.534 32.5672 21.411C32.6903 21.2879 32.8572 21.2188 33.0312 21.2188H34.3438C34.5178 21.2188 34.6847 21.2879 34.8078 21.411C34.9309 21.534 35 21.701 35 21.875C35 22.049 35.0691 22.216 35.1922 22.339C35.3153 22.4621 35.4822 22.5312 35.6562 22.5312C35.8303 22.5312 35.9972 22.4621 36.1203 22.339C36.2434 22.216 36.3125 22.049 36.3125 21.875C36.3125 21.3529 36.1051 20.8521 35.7359 20.4829C35.3667 20.1137 34.8659 19.9062 34.3438 19.9062V19.25C34.3438 19.076 34.2746 18.909 34.1515 18.786C34.0285 18.6629 33.8615 18.5938 33.6875 18.5938C33.5135 18.5938 33.3465 18.6629 33.2235 18.786C33.1004 18.909 33.0312 19.076 33.0312 19.25V19.9062C32.5091 19.9062 32.0083 20.1137 31.6391 20.4829C31.2699 20.8521 31.0625 21.3529 31.0625 21.875C31.0625 22.3971 31.2699 22.8979 31.6391 23.2671C32.0083 23.6363 32.5091 23.8438 33.0312 23.8438H34.3438C34.5178 23.8438 34.6847 23.9129 34.8078 24.036C34.9309 24.159 35 24.326 35 24.5C35 24.674 34.9309 24.841 34.8078 24.964C34.6847 25.0871 34.5178 25.1562 34.3438 25.1562ZM38.9375 29.75C38.9375 30.2721 39.1449 30.7729 39.5141 31.1421C39.8833 31.5113 40.3841 31.7187 40.9062 31.7188H42.2188C42.3928 31.7188 42.5597 31.7879 42.6828 31.911C42.8059 32.034 42.875 32.201 42.875 32.375C42.875 32.549 42.8059 32.716 42.6828 32.839C42.5597 32.9621 42.3928 33.0312 42.2188 33.0312H40.9062C40.7322 33.0312 40.5653 32.9621 40.4422 32.839C40.3191 32.716 40.25 32.549 40.25 32.375C40.25 32.201 40.1809 32.034 40.0578 31.911C39.9347 31.7879 39.7678 31.7188 39.5938 31.7188C39.4197 31.7188 39.2528 31.7879 39.1297 31.911C39.0066 32.034 38.9375 32.201 38.9375 32.375C38.9375 32.8971 39.1449 33.3979 39.5141 33.7671C39.8833 34.1363 40.3841 34.3438 40.9062 34.3438V35C40.9062 35.174 40.9754 35.341 41.0985 35.464C41.2215 35.5871 41.3885 35.6562 41.5625 35.6562C41.7365 35.6562 41.9035 35.5871 42.0265 35.464C42.1496 35.341 42.2188 35.174 42.2188 35V34.3438C42.7409 34.3438 43.2417 34.1363 43.6109 33.7671C43.9801 33.3979 44.1875 32.8971 44.1875 32.375C44.1875 31.8529 43.9801 31.3521 43.6109 30.9829C43.2417 30.6137 42.7409 30.4062 42.2188 30.4062H40.9062C40.7322 30.4062 40.5653 30.3371 40.4422 30.214C40.3191 30.091 40.25 29.924 40.25 29.75C40.25 29.576 40.3191 29.409 40.4422 29.286C40.5653 29.1629 40.7322 29.0938 40.9062 29.0938H42.2188C42.3928 29.0938 42.5597 29.1629 42.6828 29.286C42.8059 29.409 42.875 29.576 42.875 29.75C42.875 29.924 42.9441 30.091 43.0672 30.214C43.1903 30.3371 43.3572 30.4062 43.5312 30.4062C43.7053 30.4062 43.8722 30.3371 43.9953 30.214C44.1184 30.091 44.1875 29.924 44.1875 29.75C44.1875 29.2279 43.9801 28.7271 43.6109 28.3579C43.2417 27.9887 42.7409 27.7812 42.2188 27.7812V27.125C42.2188 26.951 42.1496 26.784 42.0265 26.661C41.9035 26.5379 41.7365 26.4688 41.5625 26.4688C41.3885 26.4688 41.2215 26.5379 41.0985 26.661C40.9754 26.784 40.9062 26.951 40.9062 27.125V27.7812C40.3841 27.7812 39.8833 27.9887 39.5141 28.3579C39.1449 28.7271 38.9375 29.2279 38.9375 29.75ZM44.1875 21.2188C44.3615 21.2188 44.5285 21.1496 44.6515 21.0265C44.7746 20.9035 44.8438 20.7365 44.8438 20.5625V17.9375C44.8438 17.7635 44.7746 17.5965 44.6515 17.4735C44.5285 17.3504 44.3615 17.2812 44.1875 17.2812C44.0135 17.2812 43.8465 17.3504 43.7235 17.4735C43.6004 17.5965 43.5312 17.7635 43.5312 17.9375V20.5625C43.5312 20.7365 43.6004 20.9035 43.7235 21.0265C43.8465 21.1496 44.0135 21.2188 44.1875 21.2188ZM46.8125 18.5938C46.9865 18.5938 47.1535 18.5246 47.2765 18.4015C47.3996 18.2785 47.4688 18.1115 47.4688 17.9375V15.3125C47.4688 15.1385 47.3996 14.9715 47.2765 14.8485C47.1535 14.7254 46.9865 14.6562 46.8125 14.6562C46.6385 14.6562 46.4715 14.7254 46.3485 14.8485C46.2254 14.9715 46.1562 15.1385 46.1562 15.3125V17.9375C46.1562 18.1115 46.2254 18.2785 46.3485 18.4015C46.4715 18.5246 46.6385 18.5938 46.8125 18.5938ZM46.8125 22.5312C46.9865 22.5312 47.1535 22.4621 47.2765 22.339C47.3996 22.216 47.4688 22.049 47.4688 21.875V20.5625C47.4688 20.3885 47.3996 20.2215 47.2765 20.0985C47.1535 19.9754 46.9865 19.9062 46.8125 19.9062C46.6385 19.9062 46.4715 19.9754 46.3485 20.0985C46.2254 20.2215 46.1562 20.3885 46.1562 20.5625V21.875C46.1562 22.049 46.2254 22.216 46.3485 22.339C46.4715 22.4621 46.6385 22.5312 46.8125 22.5312ZM21.875 18.5938C22.049 18.5938 22.216 18.5246 22.339 18.4015C22.4621 18.2785 22.5312 18.1115 22.5312 17.9375V15.3125C22.5312 15.1385 22.4621 14.9715 22.339 14.8485C22.216 14.7254 22.049 14.6562 21.875 14.6562C21.701 14.6562 21.534 14.7254 21.411 14.8485C21.2879 14.9715 21.2188 15.1385 21.2188 15.3125V17.9375C21.2188 18.1115 21.2879 18.2785 21.411 18.4015C21.534 18.5246 21.701 18.5938 21.875 18.5938ZM24.5 22.5312C24.674 22.5312 24.841 22.4621 24.964 22.339C25.0871 22.216 25.1562 22.049 25.1562 21.875V17.9375C25.1562 17.7635 25.0871 17.5965 24.964 17.4735C24.841 17.3504 24.674 17.2812 24.5 17.2812C24.326 17.2812 24.159 17.3504 24.036 17.4735C23.9129 17.5965 23.8438 17.7635 23.8438 17.9375V21.875C23.8438 22.049 23.9129 22.216 24.036 22.339C24.159 22.4621 24.326 22.5312 24.5 22.5312ZM21.875 25.1562C22.049 25.1562 22.216 25.0871 22.339 24.964C22.4621 24.841 22.5312 24.674 22.5312 24.5V21.875C22.5312 21.701 22.4621 21.534 22.339 21.411C22.216 21.2879 22.049 21.2188 21.875 21.2188C21.701 21.2188 21.534 21.2879 21.411 21.411C21.2879 21.534 21.2188 21.701 21.2188 21.875V24.5C21.2188 24.674 21.2879 24.841 21.411 24.964C21.534 25.0871 21.701 25.1562 21.875 25.1562Z" fill="white"/>
</g>
<defs>
<clipPath id="clip0_2128_8193">
<rect width="42" height="42" fill="white" transform="translate(14 14)"/>
</clipPath>
</defs>
</svg>
