<svg width="380" height="239" viewBox="0 0 380 239" fill="none" xmlns="http://www.w3.org/2000/svg">
<path fill-rule="evenodd" clip-rule="evenodd" d="M35.1953 168.334V20.3273H292.037C292.037 20.3273 220.445 168.334 209.714 168.334H123.563H35.1953Z" fill="#718878"/>
<path fill-rule="evenodd" clip-rule="evenodd" d="M355.195 220.327H293.163V201.205C293.163 197.892 290.476 195.205 287.163 195.205H35.1953V168.334H123.563H209.714C220.445 168.334 292.037 20.3273 292.037 20.3273H349.195C352.509 20.3273 355.195 23.0136 355.195 26.3273V120.327V220.327Z" fill="url(#paint0_linear_2189_5790)"/>
<path d="M35.1953 195.205V214.327C35.1953 217.641 37.8816 220.327 41.1953 220.327H293.163V201.205C293.163 197.892 290.476 195.205 287.163 195.205H35.1953Z" fill="#4C6C7F"/>
<path d="M35.1953 0.00390625L29.4218 10.0039H40.9688L35.1953 0.00390625ZM379.419 220.327L369.419 214.554V226.101L379.419 220.327ZM35.1953 168.334C35.1953 169.334 35.1959 169.334 35.1972 169.334C35.1984 169.334 35.2003 169.334 35.2028 169.334C35.2053 169.334 35.2084 169.334 35.2121 169.334C35.2158 169.334 35.2202 169.334 35.2252 169.334C35.2301 169.334 35.2357 169.334 35.2419 169.334C35.2481 169.334 35.2549 169.334 35.2623 169.334C35.2697 169.334 35.2777 169.334 35.2863 169.334C35.295 169.334 35.3042 169.334 35.3141 169.334C35.3239 169.334 35.3344 169.334 35.3454 169.334C35.3565 169.334 35.3681 169.334 35.3804 169.334C35.3927 169.334 35.4055 169.334 35.419 169.334C35.4324 169.334 35.4465 169.334 35.4611 169.334C35.4758 169.334 35.4911 169.334 35.5069 169.334C35.5227 169.334 35.5392 169.334 35.5562 169.334C35.5732 169.334 35.5909 169.334 35.6091 169.334C35.6273 169.334 35.6461 169.334 35.6655 169.334C35.6849 169.334 35.7049 169.334 35.7254 169.334C35.746 169.334 35.7671 169.334 35.7888 169.334C35.8106 169.334 35.8329 169.334 35.8558 169.334C35.8787 169.334 35.9021 169.334 35.9262 169.334C35.9502 169.334 35.9749 169.334 36.0001 169.334C36.0253 169.334 36.051 169.334 36.0774 169.334C36.1037 169.334 36.1306 169.334 36.1581 169.334C36.1856 169.334 36.2137 169.334 36.2423 169.334C36.271 169.334 36.3002 169.334 36.3299 169.334C36.3597 169.334 36.39 169.334 36.4209 169.334C36.4518 169.334 36.4833 169.334 36.5153 169.334C36.5473 169.334 36.5799 169.334 36.613 169.334C36.6461 169.334 36.6798 169.334 36.7141 169.334C36.7484 169.334 36.7832 169.334 36.8185 169.334C36.8539 169.334 36.8898 169.334 36.9263 169.334C36.9627 169.334 36.9998 169.334 37.0373 169.334C37.0749 169.334 37.113 169.334 37.1517 169.334C37.1904 169.334 37.2296 169.334 37.2693 169.334C37.3091 169.334 37.3494 169.334 37.3902 169.334C37.4311 169.334 37.4725 169.334 37.5144 169.334C37.5563 169.334 37.5988 169.334 37.6418 169.334C37.6848 169.334 37.7283 169.334 37.7724 169.334C37.8165 169.334 37.8611 169.334 37.9062 169.334C37.9514 169.334 37.997 169.334 38.0432 169.334C38.0895 169.334 38.1362 169.334 38.1835 169.334C38.2307 169.334 38.2785 169.334 38.3268 169.334C38.3752 169.334 38.424 169.334 38.4734 169.334C38.5227 169.334 38.5726 169.334 38.623 169.334C38.6734 169.334 38.7244 169.334 38.7758 169.334C38.8273 169.334 38.8793 169.334 38.9317 169.334C38.9842 169.334 39.0372 169.334 39.0907 169.334C39.1443 169.334 39.1983 169.334 39.2528 169.334C39.3074 169.334 39.3624 169.334 39.418 169.334C39.4735 169.334 39.5296 169.334 39.5862 169.334C39.6428 169.334 39.6999 169.334 39.7574 169.334C39.815 169.334 39.8731 169.334 39.9317 169.334C39.9903 169.334 40.0494 169.334 40.109 169.334C40.1686 169.334 40.2287 169.334 40.2893 169.334C40.3499 169.334 40.411 169.334 40.4726 169.334C40.5342 169.334 40.5962 169.334 40.6588 169.334C40.7214 169.334 40.7845 169.334 40.848 169.334C40.9116 169.334 40.9756 169.334 41.0402 169.334C41.1047 169.334 41.1697 169.334 41.2352 169.334C41.3007 169.334 41.3667 169.334 41.4332 169.334C41.4997 169.334 41.5666 169.334 41.6341 169.334C41.7015 169.334 41.7694 169.334 41.8378 169.334C41.9062 169.334 41.9751 169.334 42.0445 169.334C42.1138 169.334 42.1837 169.334 42.254 169.334C42.3243 169.334 42.3951 169.334 42.4663 169.334C42.5376 169.334 42.6093 169.334 42.6815 169.334C42.7537 169.334 42.8263 169.334 42.8994 169.334C42.9726 169.334 43.0462 169.334 43.1202 169.334C43.1943 169.334 43.2688 169.334 43.3438 169.334C43.4188 169.334 43.4942 169.334 43.5701 169.334C43.646 169.334 43.7224 169.334 43.7992 169.334C43.876 169.334 43.9533 169.334 44.031 169.334C44.1088 169.334 44.1869 169.334 44.2656 169.334C44.3442 169.334 44.4233 169.334 44.5029 169.334C44.5824 169.334 44.6624 169.334 44.7428 169.334C44.8233 169.334 44.9042 169.334 44.9855 169.334C45.0668 169.334 45.1486 169.334 45.2308 169.334C45.3131 169.334 45.3957 169.334 45.4788 169.334C45.5619 169.334 45.6455 169.334 45.7295 169.334C45.8135 169.334 45.8979 169.334 45.9827 169.334C46.0676 169.334 46.1529 169.334 46.2386 169.334C46.3243 169.334 46.4105 169.334 46.4971 169.334C46.5837 169.334 46.6707 169.334 46.7582 169.334C46.8456 169.334 46.9335 169.334 47.0218 169.334C47.1101 169.334 47.1989 169.334 47.288 169.334C47.3772 169.334 47.4668 169.334 47.5568 169.334C47.6468 169.334 47.7372 169.334 47.828 169.334C47.9189 169.334 48.0102 169.334 48.1018 169.334C48.1935 169.334 48.2856 169.334 48.3781 169.334C48.4707 169.334 48.5636 169.334 48.6569 169.334C48.7503 169.334 48.844 169.334 48.9382 169.334C49.0324 169.334 49.1269 169.334 49.2219 169.334C49.3169 169.334 49.4123 169.334 49.5081 169.334C49.6039 169.334 49.7001 169.334 49.7967 169.334C49.8933 169.334 49.9903 169.334 50.0877 169.334C50.1851 169.334 50.2829 169.334 50.3811 169.334C50.4793 169.334 50.5779 169.334 50.6769 169.334C50.7759 169.334 50.8753 169.334 50.9751 169.334C51.0749 169.334 51.1751 169.334 51.2756 169.334C51.3762 169.334 51.4772 169.334 51.5785 169.334C51.6799 169.334 51.7816 169.334 51.8838 169.334C51.9859 169.334 52.0884 169.334 52.1913 169.334C52.2942 169.334 52.3975 169.334 52.5011 169.334C52.6048 169.334 52.7088 169.334 52.8133 169.334C52.9177 169.334 53.0225 169.334 53.1277 169.334C53.2329 169.334 53.3384 169.334 53.4443 169.334C53.5503 169.334 53.6566 169.334 53.7633 169.334C53.8699 169.334 53.977 169.334 54.0844 169.334C54.1918 169.334 54.2996 169.334 54.4078 169.334C54.5159 169.334 54.6245 169.334 54.7334 169.334C54.8423 169.334 54.9515 169.334 55.0611 169.334C55.1708 169.334 55.2807 169.334 55.3911 169.334C55.5014 169.334 55.6121 169.334 55.7232 169.334C55.8342 169.334 55.9457 169.334 56.0574 169.334C56.1692 169.334 56.2813 169.334 56.3938 169.334C56.5063 169.334 56.6191 169.334 56.7323 169.334C56.8455 169.334 56.9591 169.334 57.0729 169.334C57.1868 169.334 57.3011 169.334 57.4156 169.334C57.5302 169.334 57.6452 169.334 57.7604 169.334C57.8757 169.334 57.9913 169.334 58.1073 169.334C58.2232 169.334 58.3395 169.334 58.4562 169.334C58.5728 169.334 58.6898 169.334 58.8071 169.334C58.9244 169.334 59.0421 169.334 59.1601 169.334C59.278 169.334 59.3964 169.334 59.515 169.334C59.6337 169.334 59.7526 169.334 59.872 169.334C59.9913 169.334 60.1109 169.334 60.2309 169.334C60.3509 169.334 60.4712 169.334 60.5918 169.334C60.7124 169.334 60.8334 169.334 60.9546 169.334C61.0759 169.334 61.1975 169.334 61.3194 169.334C61.4413 169.334 61.5635 169.334 61.6861 169.334C61.8087 169.334 61.9315 169.334 62.0547 169.334C62.1779 169.334 62.3014 169.334 62.4252 169.334C62.549 169.334 62.6731 169.334 62.7976 169.334C62.922 169.334 63.0468 169.334 63.1718 169.334C63.2969 169.334 63.4223 169.334 63.5479 169.334C63.6736 169.334 63.7996 169.334 63.9259 169.334C64.0521 169.334 64.1787 169.334 64.3056 169.334C64.4325 169.334 64.5597 169.334 64.6872 169.334C64.8147 169.334 64.9424 169.334 65.0705 169.334C65.1986 169.334 65.327 169.334 65.4557 169.334C65.5843 169.334 65.7133 169.334 65.8426 169.334C65.9718 169.334 66.1014 169.334 66.2312 169.334C66.3611 169.334 66.4912 169.334 66.6216 169.334C66.752 169.334 66.8827 169.334 67.0137 169.334C67.1447 169.334 67.276 169.334 67.4076 169.334C67.5391 169.334 67.671 169.334 67.8031 169.334C67.9352 169.334 68.0676 169.334 68.2003 169.334C68.333 169.334 68.4659 169.334 68.5991 169.334C68.7324 169.334 68.8659 169.334 68.9997 169.334C69.1334 169.334 69.2675 169.334 69.4018 169.334C69.5361 169.334 69.6707 169.334 69.8056 169.334C69.9405 169.334 70.0756 169.334 70.211 169.334C70.3464 169.334 70.4821 169.334 70.618 169.334C70.7539 169.334 70.8901 169.334 71.0265 169.334C71.163 169.334 71.2997 169.334 71.4367 169.334C71.5737 169.334 71.7109 169.334 71.8484 169.334C71.9859 169.334 72.1236 169.334 72.2616 169.334C72.3996 169.334 72.5379 169.334 72.6764 169.334C72.8149 169.334 72.9536 169.334 73.0926 169.334C73.2316 169.334 73.3709 169.334 73.5104 169.334C73.6499 169.334 73.7896 169.334 73.9296 169.334C74.0696 169.334 74.2099 169.334 74.3503 169.334C74.4908 169.334 74.6316 169.334 74.7725 169.334C74.9135 169.334 75.0547 169.334 75.1961 169.334C75.3376 169.334 75.4792 169.334 75.6212 169.334C75.7631 169.334 75.9052 169.334 76.0476 169.334C76.19 169.334 76.3326 169.334 76.4754 169.334C76.6183 169.334 76.7614 169.334 76.9047 169.334C77.048 169.334 77.1915 169.334 77.3353 169.334C77.479 169.334 77.623 169.334 77.7672 169.334C77.9114 169.334 78.0559 169.334 78.2005 169.334C78.3452 169.334 78.49 169.334 78.6351 169.334C78.7802 169.334 78.9255 169.334 79.0711 169.334C79.2166 169.334 79.3623 169.334 79.5083 169.334C79.6542 169.334 79.8004 169.334 79.9468 169.334C80.0932 169.334 80.2398 169.334 80.3866 169.334C80.5334 169.334 80.6804 169.334 80.8276 169.334C80.9748 169.334 81.1223 169.334 81.2699 169.334C81.4175 169.334 81.5654 169.334 81.7134 169.334C81.8614 169.334 82.0097 169.334 82.1581 169.334C82.3066 169.334 82.4552 169.334 82.6041 169.334C82.7529 169.334 82.9019 169.334 83.0512 169.334C83.2004 169.334 83.3498 169.334 83.4994 169.334C83.6491 169.334 83.7989 169.334 83.9489 169.334C84.0989 169.334 84.2491 169.334 84.3994 169.334C84.5498 169.334 84.7004 169.334 84.8512 169.334C85.0019 169.334 85.1528 169.334 85.304 169.334C85.4551 169.334 85.6064 169.334 85.7579 169.334C85.9094 169.334 86.061 169.334 86.2129 169.334C86.3647 169.334 86.5168 169.334 86.669 169.334C86.8212 169.334 86.9736 169.334 87.1261 169.334C87.2787 169.334 87.4314 169.334 87.5843 169.334C87.7372 169.334 87.8903 169.334 88.0435 169.334C88.1967 169.334 88.3501 169.334 88.5037 169.334C88.6573 169.334 88.811 169.334 88.9649 169.334C89.1188 169.334 89.2729 169.334 89.4272 169.334C89.5814 169.334 89.7358 169.334 89.8903 169.334C90.0449 169.334 90.1996 169.334 90.3545 169.334C90.5093 169.334 90.6644 169.334 90.8196 169.334C90.9747 169.334 91.1301 169.334 91.2856 169.334C91.4411 169.334 91.5967 169.334 91.7525 169.334C91.9083 169.334 92.0643 169.334 92.2203 169.334C92.3764 169.334 92.5327 169.334 92.6891 169.334C92.8455 169.334 93.002 169.334 93.1587 169.334C93.3153 169.334 93.4722 169.334 93.6291 169.334C93.7861 169.334 93.9432 169.334 94.1004 169.334C94.2577 169.334 94.415 169.334 94.5725 169.334C94.7301 169.334 94.8877 169.334 95.0455 169.334C95.2033 169.334 95.3612 169.334 95.5192 169.334C95.6773 169.334 95.8355 169.334 95.9938 169.334C96.1521 169.334 96.3105 169.334 96.4691 169.334C96.6277 169.334 96.7864 169.334 96.9452 169.334C97.104 169.334 97.2629 169.334 97.422 169.334C97.5811 169.334 97.7402 169.334 97.8995 169.334C98.0588 169.334 98.2183 169.334 98.3778 169.334C98.5374 169.334 98.697 169.334 98.8568 169.334C99.0166 169.334 99.1764 169.334 99.3364 169.334C99.4964 169.334 99.6566 169.334 99.8168 169.334C99.977 169.334 100.137 169.334 100.298 169.334C100.458 169.334 100.619 169.334 100.779 169.334C100.94 169.334 101.101 169.334 101.262 169.334C101.423 169.334 101.584 169.334 101.745 169.334C101.906 169.334 102.067 169.334 102.228 169.334C102.389 169.334 102.551 169.334 102.712 169.334C102.874 169.334 103.035 169.334 103.197 169.334C103.359 169.334 103.52 169.334 103.682 169.334C103.844 169.334 104.006 169.334 104.168 169.334C104.33 169.334 104.492 169.334 104.654 169.334C104.816 169.334 104.979 169.334 105.141 169.334C105.303 169.334 105.466 169.334 105.628 169.334C105.791 169.334 105.953 169.334 106.116 169.334C106.279 169.334 106.442 169.334 106.604 169.334C106.767 169.334 106.93 169.334 107.093 169.334C107.256 169.334 107.419 169.334 107.582 169.334C107.746 169.334 107.909 169.334 108.072 169.334C108.235 169.334 108.399 169.334 108.562 169.334C108.726 169.334 108.889 169.334 109.053 169.334C109.216 169.334 109.38 169.334 109.544 169.334C109.707 169.334 109.871 169.334 110.035 169.334C110.199 169.334 110.362 169.334 110.526 169.334C110.69 169.334 110.854 169.334 111.018 169.334C111.182 169.334 111.346 169.334 111.511 169.334C111.675 169.334 111.839 169.334 112.003 169.334C112.167 169.334 112.332 169.334 112.496 169.334C112.661 169.334 112.825 169.334 112.989 169.334C113.154 169.334 113.318 169.334 113.483 169.334C113.647 169.334 113.812 169.334 113.977 169.334C114.141 169.334 114.306 169.334 114.471 169.334C114.635 169.334 114.8 169.334 114.965 169.334C115.13 169.334 115.294 169.334 115.459 169.334C115.624 169.334 115.789 169.334 115.954 169.334C116.119 169.334 116.284 169.334 116.449 169.334C116.614 169.334 116.779 169.334 116.944 169.334C117.109 169.334 117.274 169.334 117.439 169.334C117.604 169.334 117.769 169.334 117.934 169.334C118.1 169.334 118.265 169.334 118.43 169.334C118.595 169.334 118.76 169.334 118.926 169.334C119.091 169.334 119.256 169.334 119.421 169.334C119.587 169.334 119.752 169.334 119.917 169.334C120.082 169.334 120.248 169.334 120.413 169.334C120.578 169.334 120.744 169.334 120.909 169.334C121.074 169.334 121.24 169.334 121.405 169.334C121.57 169.334 121.736 169.334 121.901 169.334C122.066 169.334 122.232 169.334 122.397 169.334C122.563 169.334 122.728 169.334 122.893 169.334C123.059 169.334 123.224 169.334 123.389 169.334C123.555 169.334 123.72 169.334 123.885 169.334C124.051 169.334 124.216 169.334 124.382 169.334C124.547 169.334 124.712 169.334 124.877 169.334C125.043 169.334 125.208 169.334 125.373 169.334C125.539 169.334 125.704 169.334 125.869 169.334C126.035 169.334 126.2 169.334 126.365 169.334C126.53 169.334 126.696 169.334 126.861 169.334C127.026 169.334 127.191 169.334 127.356 169.334C127.521 169.334 127.687 169.334 127.852 169.334C128.017 169.334 128.182 169.334 128.347 169.334C128.512 169.334 128.677 169.334 128.842 169.334C129.007 169.334 129.172 169.334 129.337 169.334C129.502 169.334 129.667 169.334 129.832 169.334C129.997 169.334 130.161 169.334 130.326 169.334C130.491 169.334 130.656 169.334 130.821 169.334C130.985 169.334 131.15 169.334 131.315 169.334C131.479 169.334 131.644 169.334 131.808 169.334C131.973 169.334 132.138 169.334 132.302 169.334C132.467 169.334 132.631 169.334 132.795 169.334C132.96 169.334 133.124 169.334 133.288 169.334C133.453 169.334 133.617 169.334 133.781 169.334C133.945 169.334 134.109 169.334 134.274 169.334C134.438 169.334 134.602 169.334 134.766 169.334C134.93 169.334 135.093 169.334 135.257 169.334C135.421 169.334 135.585 169.334 135.749 169.334C135.912 169.334 136.076 169.334 136.24 169.334C136.403 169.334 136.567 169.334 136.73 169.334C136.894 169.334 137.057 169.334 137.221 169.334C137.384 169.334 137.547 169.334 137.71 169.334C137.874 169.334 138.037 169.334 138.2 169.334C138.363 169.334 138.526 169.334 138.689 169.334C138.852 169.334 139.014 169.334 139.177 169.334C139.34 169.334 139.502 169.334 139.665 169.334C139.828 169.334 139.99 169.334 140.153 169.334C140.315 169.334 140.477 169.334 140.64 169.334C140.802 169.334 140.964 169.334 141.126 169.334C141.288 169.334 141.45 169.334 141.612 169.334C141.774 169.334 141.936 169.334 142.097 169.334C142.259 169.334 142.421 169.334 142.582 169.334C142.744 169.334 142.905 169.334 143.067 169.334C143.228 169.334 143.389 169.334 143.55 169.334C143.711 169.334 143.872 169.334 144.033 169.334C144.194 169.334 144.355 169.334 144.516 169.334C144.677 169.334 144.837 169.334 144.998 169.334C145.158 169.334 145.319 169.334 145.479 169.334C145.639 169.334 145.799 169.334 145.96 169.334C146.12 169.334 146.28 169.334 146.439 169.334C146.599 169.334 146.759 169.334 146.919 169.334C147.078 169.334 147.238 169.334 147.397 169.334C147.557 169.334 147.716 169.334 147.875 169.334C148.034 169.334 148.193 169.334 148.352 169.334C148.511 169.334 148.67 169.334 148.828 169.334C148.987 169.334 149.146 169.334 149.304 169.334C149.462 169.334 149.621 169.334 149.779 169.334C149.937 169.334 150.095 169.334 150.253 169.334C150.411 169.334 150.568 169.334 150.726 169.334C150.884 169.334 151.041 169.334 151.198 169.334C151.356 169.334 151.513 169.334 151.67 169.334C151.827 169.334 151.984 169.334 152.141 169.334C152.297 169.334 152.454 169.334 152.611 169.334C152.767 169.334 152.923 169.334 153.08 169.334C153.236 169.334 153.392 169.334 153.548 169.334C153.704 169.334 153.859 169.334 154.015 169.334C154.171 169.334 154.326 169.334 154.481 169.334C154.637 169.334 154.792 169.334 154.947 169.334C155.102 169.334 155.257 169.334 155.411 169.334C155.566 169.334 155.72 169.334 155.875 169.334C156.029 169.334 156.183 169.334 156.337 169.334C156.491 169.334 156.645 169.334 156.799 169.334C156.953 169.334 157.106 169.334 157.259 169.334C157.413 169.334 157.566 169.334 157.719 169.334C157.872 169.334 158.025 169.334 158.177 169.334C158.33 169.334 158.483 169.334 158.635 169.334C158.787 169.334 158.939 169.334 159.091 169.334C159.243 169.334 159.395 169.334 159.547 169.334C159.698 169.334 159.85 169.334 160.001 169.334C160.152 169.334 160.303 169.334 160.454 169.334C160.605 169.334 160.756 169.334 160.906 169.334C161.057 169.334 161.207 169.334 161.357 169.334C161.507 169.334 161.657 169.334 161.807 169.334C161.957 169.334 162.106 169.334 162.256 169.334C162.405 169.334 162.554 169.334 162.703 169.334C162.852 169.334 163.001 169.334 163.15 169.334C163.298 169.334 163.447 169.334 163.595 169.334C163.743 169.334 163.891 169.334 164.039 169.334C164.187 169.334 164.334 169.334 164.481 169.334C164.629 169.334 164.776 169.334 164.923 169.334C165.07 169.334 165.217 169.334 165.363 169.334C165.51 169.334 165.656 169.334 165.802 169.334C165.948 169.334 166.094 169.334 166.24 169.334C166.385 169.334 166.531 169.334 166.676 169.334C166.821 169.334 166.966 169.334 167.111 169.334C167.256 169.334 167.401 169.334 167.545 169.334C167.689 169.334 167.833 169.334 167.977 169.334C168.121 169.334 168.265 169.334 168.408 169.334C168.552 169.334 168.695 169.334 168.838 169.334C168.981 169.334 169.124 169.334 169.266 169.334C169.409 169.334 169.551 169.334 169.693 169.334C169.835 169.334 169.977 169.334 170.119 169.334C170.26 169.334 170.402 169.334 170.543 169.334C170.684 169.334 170.825 169.334 170.966 169.334C171.106 169.334 171.247 169.334 171.387 169.334C171.527 169.334 171.667 169.334 171.807 169.334C171.946 169.334 172.086 169.334 172.225 169.334C172.364 169.334 172.503 169.334 172.642 169.334C172.78 169.334 172.919 169.334 173.057 169.334C173.195 169.334 173.333 169.334 173.471 169.334C173.608 169.334 173.746 169.334 173.883 169.334C174.02 169.334 174.157 169.334 174.294 169.334C174.43 169.334 174.567 169.334 174.703 169.334C174.839 169.334 174.975 169.334 175.11 169.334C175.246 169.334 175.381 169.334 175.516 169.334C175.651 169.334 175.786 169.334 175.92 169.334C176.055 169.334 176.189 169.334 176.323 169.334C176.457 169.334 176.591 169.334 176.724 169.334C176.858 169.334 176.991 169.334 177.124 169.334C177.257 169.334 177.389 169.334 177.521 169.334C177.654 169.334 177.786 169.334 177.918 169.334C178.049 169.334 178.181 169.334 178.312 169.334C178.443 169.334 178.574 169.334 178.705 169.334C178.835 169.334 178.966 169.334 179.096 169.334C179.226 169.334 179.355 169.334 179.485 169.334C179.614 169.334 179.744 169.334 179.872 169.334C180.001 169.334 180.13 169.334 180.258 169.334C180.386 169.334 180.514 169.334 180.642 169.334C180.77 169.334 180.897 169.334 181.024 169.334C181.151 169.334 181.278 169.334 181.405 169.334C181.531 169.334 181.657 169.334 181.783 169.334C181.909 169.334 182.035 169.334 182.16 169.334C182.285 169.334 182.41 169.334 182.535 169.334C182.659 169.334 182.784 169.334 182.908 169.334C183.032 169.334 183.156 169.334 183.279 169.334C183.402 169.334 183.525 169.334 183.648 169.334C183.771 169.334 183.893 169.334 184.016 169.334C184.138 169.334 184.26 169.334 184.381 169.334C184.503 169.334 184.624 169.334 184.745 169.334C184.865 169.334 184.986 169.334 185.106 169.334C185.226 169.334 185.346 169.334 185.466 169.334C185.585 169.334 185.704 169.334 185.823 169.334C185.942 169.334 186.061 169.334 186.179 169.334C186.297 169.334 186.415 169.334 186.533 169.334C186.65 169.334 186.767 169.334 186.884 169.334C187.001 169.334 187.118 169.334 187.234 169.334C187.35 169.334 187.466 169.334 187.581 169.334C187.697 169.334 187.812 169.334 187.927 169.334C188.042 169.334 188.156 169.334 188.27 169.334C188.384 169.334 188.498 169.334 188.612 169.334C188.725 169.334 188.838 169.334 188.951 169.334C189.064 169.334 189.176 169.334 189.288 169.334C189.4 169.334 189.512 169.334 189.623 169.334C189.734 169.334 189.845 169.334 189.956 169.334C190.066 169.334 190.177 169.334 190.286 169.334C190.396 169.334 190.506 169.334 190.615 169.334C190.724 169.334 190.833 169.334 190.941 169.334C191.05 169.334 191.158 169.334 191.265 169.334C191.373 169.334 191.48 169.334 191.587 169.334C191.694 169.334 191.801 169.334 191.907 169.334C192.013 169.334 192.119 169.334 192.224 169.334C192.33 169.334 192.435 169.334 192.54 169.334C192.644 169.334 192.749 169.334 192.853 169.334C192.956 169.334 193.06 169.334 193.163 169.334C193.266 169.334 193.369 169.334 193.472 169.334C193.574 169.334 193.676 169.334 193.778 169.334C193.879 169.334 193.98 169.334 194.081 169.334C194.182 169.334 194.283 169.334 194.383 169.334C194.483 169.334 194.582 169.334 194.682 169.334C194.781 169.334 194.88 169.334 194.978 169.334C195.077 169.334 195.175 169.334 195.272 169.334C195.37 169.334 195.467 169.334 195.564 169.334C195.661 169.334 195.758 169.334 195.854 169.334C195.95 169.334 196.045 169.334 196.141 169.334C196.236 169.334 196.331 169.334 196.425 169.334C196.52 169.334 196.614 169.334 196.707 169.334C196.801 169.334 196.894 169.334 196.987 169.334C197.08 169.334 197.172 169.334 197.264 169.334C197.356 169.334 197.448 169.334 197.539 169.334C197.63 169.334 197.721 169.334 197.811 169.334C197.901 169.334 197.991 169.334 198.081 169.334C198.17 169.334 198.259 169.334 198.348 169.334C198.436 169.334 198.524 169.334 198.612 169.334C198.7 169.334 198.787 169.334 198.874 169.334C198.961 169.334 199.047 169.334 199.133 169.334C199.219 169.334 199.305 169.334 199.39 169.334C199.475 169.334 199.56 169.334 199.644 169.334C199.729 169.334 199.813 169.334 199.896 169.334C199.979 169.334 200.062 169.334 200.145 169.334C200.227 169.334 200.309 169.334 200.391 169.334C200.473 169.334 200.554 169.334 200.635 169.334C200.715 169.334 200.796 169.334 200.876 169.334C200.955 169.334 201.035 169.334 201.114 169.334C201.193 169.334 201.271 169.334 201.349 169.334C201.427 169.334 201.505 169.334 201.582 169.334C201.659 169.334 201.736 169.334 201.812 169.334C201.888 169.334 201.964 169.334 202.039 169.334C202.115 169.334 202.189 169.334 202.264 169.334C202.338 169.334 202.412 169.334 202.486 169.334C202.559 169.334 202.632 169.334 202.705 169.334C202.777 169.334 202.849 169.334 202.921 169.334C202.992 169.334 203.063 169.334 203.134 169.334C203.205 169.334 203.275 169.334 203.344 169.334C203.414 169.334 203.483 169.334 203.552 169.334C203.621 169.334 203.689 169.334 203.757 169.334C203.825 169.334 203.892 169.334 203.959 169.334C204.025 169.334 204.092 169.334 204.158 169.334C204.223 169.334 204.289 169.334 204.354 169.334C204.419 169.334 204.483 169.334 204.547 169.334C204.611 169.334 204.674 169.334 204.737 169.334C204.8 169.334 204.862 169.334 204.924 169.334C204.986 169.334 205.048 169.334 205.109 169.334C205.169 169.334 205.23 169.334 205.29 169.334C205.35 169.334 205.409 169.334 205.468 169.334C205.527 169.334 205.586 169.334 205.643 169.334C205.701 169.334 205.759 169.334 205.816 169.334C205.873 169.334 205.929 169.334 205.985 169.334C206.041 169.334 206.096 169.334 206.151 169.334C206.206 169.334 206.261 169.334 206.314 169.334C206.368 169.334 206.422 169.334 206.474 169.334C206.527 169.334 206.58 169.334 206.631 169.334C206.683 169.334 206.734 169.334 206.785 169.334C206.836 169.334 206.886 169.334 206.936 169.334C206.986 169.334 207.035 169.334 207.084 169.334C207.132 169.334 207.18 169.334 207.228 169.334C207.276 169.334 207.323 169.334 207.369 169.334C207.416 169.334 207.462 169.334 207.507 169.334C207.553 169.334 207.598 169.334 207.642 169.334C207.687 169.334 207.731 169.334 207.774 169.334C207.817 169.334 207.86 169.334 207.903 169.334C207.945 169.334 207.987 169.334 208.028 169.334C208.069 169.334 208.11 169.334 208.15 169.334C208.19 169.334 208.23 169.334 208.269 169.334C208.308 169.334 208.346 169.334 208.384 169.334C208.422 169.334 208.459 169.334 208.496 169.334C208.533 169.334 208.569 169.334 208.605 169.334C208.641 169.334 208.676 169.334 208.711 169.334C208.745 169.334 208.779 169.334 208.813 169.334C208.847 169.334 208.879 169.334 208.912 169.334C208.944 169.334 208.976 169.334 209.007 169.334C209.039 169.334 209.069 169.334 209.1 169.334C209.13 169.334 209.159 169.334 209.188 169.334C209.217 169.334 209.246 169.334 209.274 169.334C209.302 169.334 209.329 169.334 209.356 169.334C209.382 169.334 209.409 169.334 209.434 169.334C209.46 169.334 209.485 169.334 209.509 169.334C209.534 169.334 209.557 169.334 209.581 169.334C209.604 169.334 209.627 169.334 209.649 169.334C209.671 169.334 209.693 169.334 209.714 169.334V167.334C209.693 167.334 209.671 167.334 209.649 167.334C209.627 167.334 209.604 167.334 209.581 167.334C209.557 167.334 209.534 167.334 209.509 167.334C209.485 167.334 209.46 167.334 209.434 167.334C209.409 167.334 209.382 167.334 209.356 167.334C209.329 167.334 209.302 167.334 209.274 167.334C209.246 167.334 209.217 167.334 209.188 167.334C209.159 167.334 209.13 167.334 209.1 167.334C209.069 167.334 209.039 167.334 209.007 167.334C208.976 167.334 208.944 167.334 208.912 167.334C208.879 167.334 208.847 167.334 208.813 167.334C208.779 167.334 208.745 167.334 208.711 167.334C208.676 167.334 208.641 167.334 208.605 167.334C208.569 167.334 208.533 167.334 208.496 167.334C208.459 167.334 208.422 167.334 208.384 167.334C208.346 167.334 208.308 167.334 208.269 167.334C208.23 167.334 208.19 167.334 208.15 167.334C208.11 167.334 208.069 167.334 208.028 167.334C207.987 167.334 207.945 167.334 207.903 167.334C207.86 167.334 207.817 167.334 207.774 167.334C207.731 167.334 207.687 167.334 207.642 167.334C207.598 167.334 207.553 167.334 207.507 167.334C207.462 167.334 207.416 167.334 207.369 167.334C207.323 167.334 207.276 167.334 207.228 167.334C207.18 167.334 207.132 167.334 207.084 167.334C207.035 167.334 206.986 167.334 206.936 167.334C206.886 167.334 206.836 167.334 206.785 167.334C206.734 167.334 206.683 167.334 206.631 167.334C206.58 167.334 206.527 167.334 206.474 167.334C206.422 167.334 206.368 167.334 206.314 167.334C206.261 167.334 206.206 167.334 206.151 167.334C206.096 167.334 206.041 167.334 205.985 167.334C205.929 167.334 205.873 167.334 205.816 167.334C205.759 167.334 205.701 167.334 205.643 167.334C205.586 167.334 205.527 167.334 205.468 167.334C205.409 167.334 205.35 167.334 205.29 167.334C205.23 167.334 205.169 167.334 205.109 167.334C205.048 167.334 204.986 167.334 204.924 167.334C204.862 167.334 204.8 167.334 204.737 167.334C204.674 167.334 204.611 167.334 204.547 167.334C204.483 167.334 204.419 167.334 204.354 167.334C204.289 167.334 204.223 167.334 204.158 167.334C204.092 167.334 204.025 167.334 203.959 167.334C203.892 167.334 203.825 167.334 203.757 167.334C203.689 167.334 203.621 167.334 203.552 167.334C203.483 167.334 203.414 167.334 203.344 167.334C203.275 167.334 203.205 167.334 203.134 167.334C203.063 167.334 202.992 167.334 202.921 167.334C202.849 167.334 202.777 167.334 202.705 167.334C202.632 167.334 202.559 167.334 202.486 167.334C202.412 167.334 202.338 167.334 202.264 167.334C202.189 167.334 202.115 167.334 202.039 167.334C201.964 167.334 201.888 167.334 201.812 167.334C201.736 167.334 201.659 167.334 201.582 167.334C201.505 167.334 201.427 167.334 201.349 167.334C201.271 167.334 201.193 167.334 201.114 167.334C201.035 167.334 200.955 167.334 200.876 167.334C200.796 167.334 200.715 167.334 200.635 167.334C200.554 167.334 200.473 167.334 200.391 167.334C200.309 167.334 200.227 167.334 200.145 167.334C200.062 167.334 199.979 167.334 199.896 167.334C199.813 167.334 199.729 167.334 199.644 167.334C199.56 167.334 199.475 167.334 199.39 167.334C199.305 167.334 199.219 167.334 199.133 167.334C199.047 167.334 198.961 167.334 198.874 167.334C198.787 167.334 198.7 167.334 198.612 167.334C198.524 167.334 198.436 167.334 198.348 167.334C198.259 167.334 198.17 167.334 198.081 167.334C197.991 167.334 197.901 167.334 197.811 167.334C197.721 167.334 197.63 167.334 197.539 167.334C197.448 167.334 197.356 167.334 197.264 167.334C197.172 167.334 197.08 167.334 196.987 167.334C196.894 167.334 196.801 167.334 196.707 167.334C196.614 167.334 196.52 167.334 196.425 167.334C196.331 167.334 196.236 167.334 196.141 167.334C196.045 167.334 195.95 167.334 195.854 167.334C195.758 167.334 195.661 167.334 195.564 167.334C195.467 167.334 195.37 167.334 195.272 167.334C195.175 167.334 195.077 167.334 194.978 167.334C194.88 167.334 194.781 167.334 194.682 167.334C194.582 167.334 194.483 167.334 194.383 167.334C194.283 167.334 194.182 167.334 194.081 167.334C193.98 167.334 193.879 167.334 193.778 167.334C193.676 167.334 193.574 167.334 193.472 167.334C193.369 167.334 193.266 167.334 193.163 167.334C193.06 167.334 192.956 167.334 192.853 167.334C192.749 167.334 192.644 167.334 192.54 167.334C192.435 167.334 192.33 167.334 192.224 167.334C192.119 167.334 192.013 167.334 191.907 167.334C191.801 167.334 191.694 167.334 191.587 167.334C191.48 167.334 191.373 167.334 191.265 167.334C191.158 167.334 191.05 167.334 190.941 167.334C190.833 167.334 190.724 167.334 190.615 167.334C190.506 167.334 190.396 167.334 190.286 167.334C190.177 167.334 190.066 167.334 189.956 167.334C189.845 167.334 189.734 167.334 189.623 167.334C189.512 167.334 189.4 167.334 189.288 167.334C189.176 167.334 189.064 167.334 188.951 167.334C188.838 167.334 188.725 167.334 188.612 167.334C188.498 167.334 188.384 167.334 188.27 167.334C188.156 167.334 188.042 167.334 187.927 167.334C187.812 167.334 187.697 167.334 187.581 167.334C187.466 167.334 187.35 167.334 187.234 167.334C187.118 167.334 187.001 167.334 186.884 167.334C186.767 167.334 186.65 167.334 186.533 167.334C186.415 167.334 186.297 167.334 186.179 167.334C186.061 167.334 185.942 167.334 185.823 167.334C185.704 167.334 185.585 167.334 185.466 167.334C185.346 167.334 185.226 167.334 185.106 167.334C184.986 167.334 184.865 167.334 184.745 167.334C184.624 167.334 184.503 167.334 184.381 167.334C184.26 167.334 184.138 167.334 184.016 167.334C183.893 167.334 183.771 167.334 183.648 167.334C183.525 167.334 183.402 167.334 183.279 167.334C183.156 167.334 183.032 167.334 182.908 167.334C182.784 167.334 182.659 167.334 182.535 167.334C182.41 167.334 182.285 167.334 182.16 167.334C182.035 167.334 181.909 167.334 181.783 167.334C181.657 167.334 181.531 167.334 181.405 167.334C181.278 167.334 181.151 167.334 181.024 167.334C180.897 167.334 180.77 167.334 180.642 167.334C180.514 167.334 180.386 167.334 180.258 167.334C180.13 167.334 180.001 167.334 179.872 167.334C179.744 167.334 179.614 167.334 179.485 167.334C179.355 167.334 179.226 167.334 179.096 167.334C178.966 167.334 178.835 167.334 178.705 167.334C178.574 167.334 178.443 167.334 178.312 167.334C178.181 167.334 178.049 167.334 177.918 167.334C177.786 167.334 177.654 167.334 177.521 167.334C177.389 167.334 177.257 167.334 177.124 167.334C176.991 167.334 176.858 167.334 176.724 167.334C176.591 167.334 176.457 167.334 176.323 167.334C176.189 167.334 176.055 167.334 175.92 167.334C175.786 167.334 175.651 167.334 175.516 167.334C175.381 167.334 175.246 167.334 175.11 167.334C174.975 167.334 174.839 167.334 174.703 167.334C174.567 167.334 174.43 167.334 174.294 167.334C174.157 167.334 174.02 167.334 173.883 167.334C173.746 167.334 173.608 167.334 173.471 167.334C173.333 167.334 173.195 167.334 173.057 167.334C172.919 167.334 172.78 167.334 172.642 167.334C172.503 167.334 172.364 167.334 172.225 167.334C172.086 167.334 171.946 167.334 171.807 167.334C171.667 167.334 171.527 167.334 171.387 167.334C171.247 167.334 171.106 167.334 170.966 167.334C170.825 167.334 170.684 167.334 170.543 167.334C170.402 167.334 170.26 167.334 170.119 167.334C169.977 167.334 169.835 167.334 169.693 167.334C169.551 167.334 169.409 167.334 169.266 167.334C169.124 167.334 168.981 167.334 168.838 167.334C168.695 167.334 168.552 167.334 168.408 167.334C168.265 167.334 168.121 167.334 167.977 167.334C167.833 167.334 167.689 167.334 167.545 167.334C167.401 167.334 167.256 167.334 167.111 167.334C166.966 167.334 166.821 167.334 166.676 167.334C166.531 167.334 166.385 167.334 166.24 167.334C166.094 167.334 165.948 167.334 165.802 167.334C165.656 167.334 165.51 167.334 165.363 167.334C165.217 167.334 165.07 167.334 164.923 167.334C164.776 167.334 164.629 167.334 164.481 167.334C164.334 167.334 164.187 167.334 164.039 167.334C163.891 167.334 163.743 167.334 163.595 167.334C163.447 167.334 163.298 167.334 163.15 167.334C163.001 167.334 162.852 167.334 162.703 167.334C162.554 167.334 162.405 167.334 162.256 167.334C162.106 167.334 161.957 167.334 161.807 167.334C161.657 167.334 161.507 167.334 161.357 167.334C161.207 167.334 161.057 167.334 160.906 167.334C160.756 167.334 160.605 167.334 160.454 167.334C160.303 167.334 160.152 167.334 160.001 167.334C159.85 167.334 159.698 167.334 159.547 167.334C159.395 167.334 159.243 167.334 159.091 167.334C158.939 167.334 158.787 167.334 158.635 167.334C158.483 167.334 158.33 167.334 158.177 167.334C158.025 167.334 157.872 167.334 157.719 167.334C157.566 167.334 157.413 167.334 157.259 167.334C157.106 167.334 156.953 167.334 156.799 167.334C156.645 167.334 156.491 167.334 156.337 167.334C156.183 167.334 156.029 167.334 155.875 167.334C155.72 167.334 155.566 167.334 155.411 167.334C155.257 167.334 155.102 167.334 154.947 167.334C154.792 167.334 154.637 167.334 154.481 167.334C154.326 167.334 154.171 167.334 154.015 167.334C153.859 167.334 153.704 167.334 153.548 167.334C153.392 167.334 153.236 167.334 153.08 167.334C152.923 167.334 152.767 167.334 152.611 167.334C152.454 167.334 152.297 167.334 152.141 167.334C151.984 167.334 151.827 167.334 151.67 167.334C151.513 167.334 151.356 167.334 151.198 167.334C151.041 167.334 150.884 167.334 150.726 167.334C150.568 167.334 150.411 167.334 150.253 167.334C150.095 167.334 149.937 167.334 149.779 167.334C149.621 167.334 149.462 167.334 149.304 167.334C149.146 167.334 148.987 167.334 148.828 167.334C148.67 167.334 148.511 167.334 148.352 167.334C148.193 167.334 148.034 167.334 147.875 167.334C147.716 167.334 147.557 167.334 147.397 167.334C147.238 167.334 147.078 167.334 146.919 167.334C146.759 167.334 146.599 167.334 146.439 167.334C146.28 167.334 146.12 167.334 145.96 167.334C145.799 167.334 145.639 167.334 145.479 167.334C145.319 167.334 145.158 167.334 144.998 167.334C144.837 167.334 144.677 167.334 144.516 167.334C144.355 167.334 144.194 167.334 144.033 167.334C143.872 167.334 143.711 167.334 143.55 167.334C143.389 167.334 143.228 167.334 143.067 167.334C142.905 167.334 142.744 167.334 142.582 167.334C142.421 167.334 142.259 167.334 142.097 167.334C141.936 167.334 141.774 167.334 141.612 167.334C141.45 167.334 141.288 167.334 141.126 167.334C140.964 167.334 140.802 167.334 140.64 167.334C140.477 167.334 140.315 167.334 140.153 167.334C139.99 167.334 139.828 167.334 139.665 167.334C139.502 167.334 139.34 167.334 139.177 167.334C139.014 167.334 138.852 167.334 138.689 167.334C138.526 167.334 138.363 167.334 138.2 167.334C138.037 167.334 137.874 167.334 137.71 167.334C137.547 167.334 137.384 167.334 137.221 167.334C137.057 167.334 136.894 167.334 136.73 167.334C136.567 167.334 136.403 167.334 136.24 167.334C136.076 167.334 135.912 167.334 135.749 167.334C135.585 167.334 135.421 167.334 135.257 167.334C135.093 167.334 134.93 167.334 134.766 167.334C134.602 167.334 134.438 167.334 134.274 167.334C134.109 167.334 133.945 167.334 133.781 167.334C133.617 167.334 133.453 167.334 133.288 167.334C133.124 167.334 132.96 167.334 132.795 167.334C132.631 167.334 132.467 167.334 132.302 167.334C132.138 167.334 131.973 167.334 131.808 167.334C131.644 167.334 131.479 167.334 131.315 167.334C131.15 167.334 130.985 167.334 130.821 167.334C130.656 167.334 130.491 167.334 130.326 167.334C130.161 167.334 129.997 167.334 129.832 167.334C129.667 167.334 129.502 167.334 129.337 167.334C129.172 167.334 129.007 167.334 128.842 167.334C128.677 167.334 128.512 167.334 128.347 167.334C128.182 167.334 128.017 167.334 127.852 167.334C127.687 167.334 127.521 167.334 127.356 167.334C127.191 167.334 127.026 167.334 126.861 167.334C126.696 167.334 126.53 167.334 126.365 167.334C126.2 167.334 126.035 167.334 125.869 167.334C125.704 167.334 125.539 167.334 125.373 167.334C125.208 167.334 125.043 167.334 124.877 167.334C124.712 167.334 124.547 167.334 124.382 167.334C124.216 167.334 124.051 167.334 123.885 167.334C123.72 167.334 123.555 167.334 123.389 167.334C123.224 167.334 123.059 167.334 122.893 167.334C122.728 167.334 122.563 167.334 122.397 167.334C122.232 167.334 122.066 167.334 121.901 167.334C121.736 167.334 121.57 167.334 121.405 167.334C121.24 167.334 121.074 167.334 120.909 167.334C120.744 167.334 120.578 167.334 120.413 167.334C120.248 167.334 120.082 167.334 119.917 167.334C119.752 167.334 119.587 167.334 119.421 167.334C119.256 167.334 119.091 167.334 118.926 167.334C118.76 167.334 118.595 167.334 118.43 167.334C118.265 167.334 118.1 167.334 117.934 167.334C117.769 167.334 117.604 167.334 117.439 167.334C117.274 167.334 117.109 167.334 116.944 167.334C116.779 167.334 116.614 167.334 116.449 167.334C116.284 167.334 116.119 167.334 115.954 167.334C115.789 167.334 115.624 167.334 115.459 167.334C115.294 167.334 115.13 167.334 114.965 167.334C114.8 167.334 114.635 167.334 114.471 167.334C114.306 167.334 114.141 167.334 113.977 167.334C113.812 167.334 113.647 167.334 113.483 167.334C113.318 167.334 113.154 167.334 112.989 167.334C112.825 167.334 112.661 167.334 112.496 167.334C112.332 167.334 112.167 167.334 112.003 167.334C111.839 167.334 111.675 167.334 111.511 167.334C111.346 167.334 111.182 167.334 111.018 167.334C110.854 167.334 110.69 167.334 110.526 167.334C110.362 167.334 110.199 167.334 110.035 167.334C109.871 167.334 109.707 167.334 109.544 167.334C109.38 167.334 109.216 167.334 109.053 167.334C108.889 167.334 108.726 167.334 108.562 167.334C108.399 167.334 108.235 167.334 108.072 167.334C107.909 167.334 107.746 167.334 107.582 167.334C107.419 167.334 107.256 167.334 107.093 167.334C106.93 167.334 106.767 167.334 106.604 167.334C106.442 167.334 106.279 167.334 106.116 167.334C105.953 167.334 105.791 167.334 105.628 167.334C105.466 167.334 105.303 167.334 105.141 167.334C104.979 167.334 104.816 167.334 104.654 167.334C104.492 167.334 104.33 167.334 104.168 167.334C104.006 167.334 103.844 167.334 103.682 167.334C103.52 167.334 103.359 167.334 103.197 167.334C103.035 167.334 102.874 167.334 102.712 167.334C102.551 167.334 102.389 167.334 102.228 167.334C102.067 167.334 101.906 167.334 101.745 167.334C101.584 167.334 101.423 167.334 101.262 167.334C101.101 167.334 100.94 167.334 100.779 167.334C100.619 167.334 100.458 167.334 100.298 167.334C100.137 167.334 99.977 167.334 99.8168 167.334C99.6566 167.334 99.4964 167.334 99.3364 167.334C99.1764 167.334 99.0166 167.334 98.8568 167.334C98.697 167.334 98.5374 167.334 98.3778 167.334C98.2183 167.334 98.0588 167.334 97.8995 167.334C97.7402 167.334 97.5811 167.334 97.422 167.334C97.2629 167.334 97.104 167.334 96.9452 167.334C96.7864 167.334 96.6277 167.334 96.4691 167.334C96.3105 167.334 96.1521 167.334 95.9938 167.334C95.8355 167.334 95.6773 167.334 95.5192 167.334C95.3612 167.334 95.2033 167.334 95.0455 167.334C94.8877 167.334 94.7301 167.334 94.5725 167.334C94.415 167.334 94.2577 167.334 94.1004 167.334C93.9432 167.334 93.7861 167.334 93.6291 167.334C93.4722 167.334 93.3153 167.334 93.1587 167.334C93.002 167.334 92.8455 167.334 92.6891 167.334C92.5327 167.334 92.3764 167.334 92.2203 167.334C92.0643 167.334 91.9083 167.334 91.7525 167.334C91.5967 167.334 91.4411 167.334 91.2856 167.334C91.1301 167.334 90.9747 167.334 90.8196 167.334C90.6644 167.334 90.5093 167.334 90.3545 167.334C90.1996 167.334 90.0449 167.334 89.8903 167.334C89.7358 167.334 89.5814 167.334 89.4272 167.334C89.2729 167.334 89.1188 167.334 88.9649 167.334C88.811 167.334 88.6573 167.334 88.5037 167.334C88.3501 167.334 88.1967 167.334 88.0435 167.334C87.8903 167.334 87.7372 167.334 87.5843 167.334C87.4314 167.334 87.2787 167.334 87.1261 167.334C86.9736 167.334 86.8212 167.334 86.669 167.334C86.5168 167.334 86.3647 167.334 86.2129 167.334C86.061 167.334 85.9094 167.334 85.7579 167.334C85.6064 167.334 85.4551 167.334 85.304 167.334C85.1528 167.334 85.0019 167.334 84.8512 167.334C84.7004 167.334 84.5498 167.334 84.3994 167.334C84.2491 167.334 84.0989 167.334 83.9489 167.334C83.7989 167.334 83.6491 167.334 83.4994 167.334C83.3498 167.334 83.2004 167.334 83.0512 167.334C82.9019 167.334 82.7529 167.334 82.6041 167.334C82.4552 167.334 82.3066 167.334 82.1581 167.334C82.0097 167.334 81.8614 167.334 81.7134 167.334C81.5654 167.334 81.4175 167.334 81.2699 167.334C81.1223 167.334 80.9748 167.334 80.8276 167.334C80.6804 167.334 80.5334 167.334 80.3866 167.334C80.2398 167.334 80.0932 167.334 79.9468 167.334C79.8004 167.334 79.6542 167.334 79.5083 167.334C79.3623 167.334 79.2166 167.334 79.0711 167.334C78.9255 167.334 78.7802 167.334 78.6351 167.334C78.49 167.334 78.3452 167.334 78.2005 167.334C78.0559 167.334 77.9114 167.334 77.7672 167.334C77.623 167.334 77.479 167.334 77.3353 167.334C77.1915 167.334 77.048 167.334 76.9047 167.334C76.7614 167.334 76.6183 167.334 76.4754 167.334C76.3326 167.334 76.19 167.334 76.0476 167.334C75.9052 167.334 75.7631 167.334 75.6212 167.334C75.4792 167.334 75.3376 167.334 75.1961 167.334C75.0547 167.334 74.9135 167.334 74.7725 167.334C74.6316 167.334 74.4908 167.334 74.3503 167.334C74.2099 167.334 74.0696 167.334 73.9296 167.334C73.7896 167.334 73.6499 167.334 73.5104 167.334C73.3709 167.334 73.2316 167.334 73.0926 167.334C72.9536 167.334 72.8149 167.334 72.6764 167.334C72.5379 167.334 72.3996 167.334 72.2616 167.334C72.1236 167.334 71.9859 167.334 71.8484 167.334C71.7109 167.334 71.5737 167.334 71.4367 167.334C71.2997 167.334 71.163 167.334 71.0265 167.334C70.8901 167.334 70.7539 167.334 70.618 167.334C70.4821 167.334 70.3464 167.334 70.211 167.334C70.0756 167.334 69.9405 167.334 69.8056 167.334C69.6707 167.334 69.5361 167.334 69.4018 167.334C69.2675 167.334 69.1334 167.334 68.9997 167.334C68.8659 167.334 68.7324 167.334 68.5991 167.334C68.4659 167.334 68.333 167.334 68.2003 167.334C68.0676 167.334 67.9352 167.334 67.8031 167.334C67.671 167.334 67.5391 167.334 67.4076 167.334C67.276 167.334 67.1447 167.334 67.0137 167.334C66.8827 167.334 66.752 167.334 66.6216 167.334C66.4912 167.334 66.3611 167.334 66.2312 167.334C66.1014 167.334 65.9718 167.334 65.8426 167.334C65.7133 167.334 65.5843 167.334 65.4557 167.334C65.327 167.334 65.1986 167.334 65.0705 167.334C64.9424 167.334 64.8147 167.334 64.6872 167.334C64.5597 167.334 64.4325 167.334 64.3056 167.334C64.1787 167.334 64.0521 167.334 63.9259 167.334C63.7996 167.334 63.6736 167.334 63.5479 167.334C63.4223 167.334 63.2969 167.334 63.1718 167.334C63.0468 167.334 62.922 167.334 62.7976 167.334C62.6731 167.334 62.549 167.334 62.4252 167.334C62.3014 167.334 62.1779 167.334 62.0547 167.334C61.9315 167.334 61.8087 167.334 61.6861 167.334C61.5635 167.334 61.4413 167.334 61.3194 167.334C61.1975 167.334 61.0759 167.334 60.9546 167.334C60.8334 167.334 60.7124 167.334 60.5918 167.334C60.4712 167.334 60.3509 167.334 60.2309 167.334C60.1109 167.334 59.9913 167.334 59.872 167.334C59.7526 167.334 59.6337 167.334 59.515 167.334C59.3964 167.334 59.278 167.334 59.1601 167.334C59.0421 167.334 58.9244 167.334 58.8071 167.334C58.6898 167.334 58.5728 167.334 58.4562 167.334C58.3395 167.334 58.2232 167.334 58.1073 167.334C57.9913 167.334 57.8757 167.334 57.7604 167.334C57.6452 167.334 57.5302 167.334 57.4156 167.334C57.3011 167.334 57.1868 167.334 57.0729 167.334C56.9591 167.334 56.8455 167.334 56.7323 167.334C56.6191 167.334 56.5063 167.334 56.3938 167.334C56.2813 167.334 56.1692 167.334 56.0574 167.334C55.9457 167.334 55.8342 167.334 55.7232 167.334C55.6121 167.334 55.5014 167.334 55.3911 167.334C55.2807 167.334 55.1708 167.334 55.0611 167.334C54.9515 167.334 54.8423 167.334 54.7334 167.334C54.6245 167.334 54.5159 167.334 54.4078 167.334C54.2996 167.334 54.1918 167.334 54.0844 167.334C53.977 167.334 53.8699 167.334 53.7633 167.334C53.6566 167.334 53.5503 167.334 53.4443 167.334C53.3384 167.334 53.2329 167.334 53.1277 167.334C53.0225 167.334 52.9177 167.334 52.8133 167.334C52.7088 167.334 52.6048 167.334 52.5011 167.334C52.3975 167.334 52.2942 167.334 52.1913 167.334C52.0884 167.334 51.9859 167.334 51.8838 167.334C51.7816 167.334 51.6799 167.334 51.5785 167.334C51.4772 167.334 51.3762 167.334 51.2756 167.334C51.1751 167.334 51.0749 167.334 50.9751 167.334C50.8753 167.334 50.7759 167.334 50.6769 167.334C50.5779 167.334 50.4793 167.334 50.3811 167.334C50.2829 167.334 50.1851 167.334 50.0877 167.334C49.9903 167.334 49.8933 167.334 49.7967 167.334C49.7001 167.334 49.6039 167.334 49.5081 167.334C49.4123 167.334 49.3169 167.334 49.2219 167.334C49.1269 167.334 49.0324 167.334 48.9382 167.334C48.844 167.334 48.7503 167.334 48.6569 167.334C48.5636 167.334 48.4707 167.334 48.3781 167.334C48.2856 167.334 48.1935 167.334 48.1018 167.334C48.0102 167.334 47.9189 167.334 47.828 167.334C47.7372 167.334 47.6468 167.334 47.5568 167.334C47.4668 167.334 47.3772 167.334 47.288 167.334C47.1989 167.334 47.1101 167.334 47.0218 167.334C46.9335 167.334 46.8456 167.334 46.7582 167.334C46.6707 167.334 46.5837 167.334 46.4971 167.334C46.4105 167.334 46.3243 167.334 46.2386 167.334C46.1529 167.334 46.0676 167.334 45.9827 167.334C45.8979 167.334 45.8135 167.334 45.7295 167.334C45.6455 167.334 45.5619 167.334 45.4788 167.334C45.3957 167.334 45.3131 167.334 45.2308 167.334C45.1486 167.334 45.0668 167.334 44.9855 167.334C44.9042 167.334 44.8233 167.334 44.7428 167.334C44.6624 167.334 44.5824 167.334 44.5029 167.334C44.4233 167.334 44.3442 167.334 44.2656 167.334C44.1869 167.334 44.1088 167.334 44.031 167.334C43.9533 167.334 43.876 167.334 43.7992 167.334C43.7224 167.334 43.646 167.334 43.5701 167.334C43.4942 167.334 43.4188 167.334 43.3438 167.334C43.2688 167.334 43.1943 167.334 43.1202 167.334C43.0462 167.334 42.9726 167.334 42.8994 167.334C42.8263 167.334 42.7537 167.334 42.6815 167.334C42.6093 167.334 42.5376 167.334 42.4663 167.334C42.3951 167.334 42.3243 167.334 42.254 167.334C42.1837 167.334 42.1138 167.334 42.0445 167.334C41.9751 167.334 41.9062 167.334 41.8378 167.334C41.7694 167.334 41.7015 167.334 41.6341 167.334C41.5666 167.334 41.4997 167.334 41.4332 167.334C41.3667 167.334 41.3007 167.334 41.2352 167.334C41.1697 167.334 41.1047 167.334 41.0402 167.334C40.9756 167.334 40.9116 167.334 40.848 167.334C40.7845 167.334 40.7214 167.334 40.6588 167.334C40.5962 167.334 40.5342 167.334 40.4726 167.334C40.411 167.334 40.3499 167.334 40.2893 167.334C40.2287 167.334 40.1686 167.334 40.109 167.334C40.0494 167.334 39.9903 167.334 39.9317 167.334C39.8731 167.334 39.815 167.334 39.7574 167.334C39.6999 167.334 39.6428 167.334 39.5862 167.334C39.5296 167.334 39.4735 167.334 39.418 167.334C39.3624 167.334 39.3074 167.334 39.2528 167.334C39.1983 167.334 39.1443 167.334 39.0907 167.334C39.0372 167.334 38.9842 167.334 38.9317 167.334C38.8793 167.334 38.8273 167.334 38.7758 167.334C38.7244 167.334 38.6734 167.334 38.623 167.334C38.5726 167.334 38.5227 167.334 38.4734 167.334C38.424 167.334 38.3752 167.334 38.3268 167.334C38.2785 167.334 38.2307 167.334 38.1835 167.334C38.1362 167.334 38.0895 167.334 38.0432 167.334C37.997 167.334 37.9514 167.334 37.9062 167.334C37.8611 167.334 37.8165 167.334 37.7724 167.334C37.7283 167.334 37.6848 167.334 37.6418 167.334C37.5988 167.334 37.5563 167.334 37.5144 167.334C37.4725 167.334 37.4311 167.334 37.3902 167.334C37.3494 167.334 37.3091 167.334 37.2693 167.334C37.2296 167.334 37.1904 167.334 37.1517 167.334C37.113 167.334 37.0749 167.334 37.0373 167.334C36.9998 167.334 36.9627 167.334 36.9263 167.334C36.8898 167.334 36.8539 167.334 36.8185 167.334C36.7832 167.334 36.7484 167.334 36.7141 167.334C36.6798 167.334 36.6461 167.334 36.613 167.334C36.5799 167.334 36.5473 167.334 36.5153 167.334C36.4833 167.334 36.4518 167.334 36.4209 167.334C36.39 167.334 36.3597 167.334 36.3299 167.334C36.3002 167.334 36.271 167.334 36.2423 167.334C36.2137 167.334 36.1856 167.334 36.1581 167.334C36.1306 167.334 36.1037 167.334 36.0774 167.334C36.051 167.334 36.0253 167.334 36.0001 167.334C35.9749 167.334 35.9502 167.334 35.9262 167.334C35.9021 167.334 35.8787 167.334 35.8558 167.334C35.8329 167.334 35.8106 167.334 35.7888 167.334C35.7671 167.334 35.746 167.334 35.7254 167.334C35.7049 167.334 35.6849 167.334 35.6655 167.334C35.6461 167.334 35.6273 167.334 35.6091 167.334C35.5909 167.334 35.5732 167.334 35.5562 167.334C35.5392 167.334 35.5227 167.334 35.5069 167.334C35.4911 167.334 35.4758 167.334 35.4611 167.334C35.4465 167.334 35.4324 167.334 35.419 167.334C35.4055 167.334 35.3927 167.334 35.3804 167.334C35.3681 167.334 35.3565 167.334 35.3454 167.334C35.3344 167.334 35.3239 167.334 35.3141 167.334C35.3042 167.334 35.295 167.334 35.2863 167.334C35.2777 167.334 35.2697 167.334 35.2623 167.334C35.2549 167.334 35.2481 167.334 35.2419 167.334C35.2357 167.334 35.2301 167.334 35.2252 167.334C35.2202 167.334 35.2158 167.334 35.2121 167.334C35.2084 167.334 35.2053 167.334 35.2028 167.334C35.2003 167.334 35.1984 167.334 35.1972 167.334C35.1959 167.334 35.1953 167.334 35.1953 168.334ZM35.1953 21.3273H292.037V19.3273H35.1953V21.3273ZM292.037 21.3273H349.195V19.3273H292.037V21.3273ZM36.1953 168.334V20.3273H34.1953V168.334H36.1953ZM292.037 20.3273C291.137 19.8919 291.136 19.8924 291.136 19.8935C291.135 19.8947 291.134 19.8963 291.133 19.8986C291.131 19.903 291.128 19.9097 291.124 19.9187C291.115 19.9365 291.102 19.9633 291.085 19.9988C291.051 20.0698 290.999 20.1758 290.931 20.3156C290.796 20.5954 290.594 21.0106 290.331 21.5523C289.804 22.6357 289.03 24.225 288.041 26.2478C286.063 30.2935 283.226 36.0733 279.787 43.0092C272.909 56.8816 263.628 75.3763 254.012 93.8695C244.395 112.366 234.45 130.847 226.244 144.698C222.138 151.628 218.482 157.375 215.527 161.381C214.047 163.388 212.766 164.927 211.709 165.955C211.18 166.47 210.732 166.833 210.366 167.061C209.984 167.298 209.779 167.334 209.714 167.334V169.334C210.319 169.334 210.904 169.081 211.422 168.759C211.956 168.427 212.519 167.958 213.104 167.389C214.275 166.249 215.632 164.609 217.137 162.568C220.152 158.48 223.849 152.664 227.964 145.718C236.2 131.818 246.165 113.297 255.787 94.7921C265.41 76.2836 274.698 57.7766 281.579 43.8976C285.02 36.9579 287.859 31.1747 289.838 27.1262C290.828 25.102 291.602 23.5114 292.13 22.4267C292.393 21.8844 292.595 21.4686 292.731 21.1882C292.799 21.0481 292.85 20.9418 292.885 20.8705C292.902 20.8348 292.915 20.808 292.924 20.79C292.928 20.781 292.932 20.7742 292.934 20.7696C292.935 20.7674 292.936 20.7657 292.936 20.7645C292.937 20.7634 292.937 20.7628 292.037 20.3273ZM36.1953 20.3273V9.00391H34.1953V20.3273H36.1953ZM355.195 221.327H370.419V219.327H355.195V221.327ZM354.195 26.3273V120.327H356.195V26.3273H354.195ZM354.195 120.327V220.327H356.195V120.327H354.195ZM209.714 167.334H123.563V169.334H209.714V167.334ZM123.563 167.334H35.1953V169.334H123.563V167.334ZM36.1953 214.327V195.205H34.1953V214.327H36.1953ZM36.1953 195.205V168.334H34.1953V195.205H36.1953ZM35.1953 196.205H287.163V194.205H35.1953V196.205ZM355.195 219.327H293.163V221.327H355.195V219.327ZM293.163 219.327H41.1953V221.327H293.163V219.327ZM292.163 201.205V220.327H294.163V201.205H292.163ZM287.163 196.205C289.924 196.205 292.163 198.444 292.163 201.205H294.163C294.163 197.339 291.029 194.205 287.163 194.205V196.205ZM349.195 21.3273C351.957 21.3273 354.195 23.5659 354.195 26.3273H356.195C356.195 22.4614 353.061 19.3273 349.195 19.3273V21.3273ZM34.1953 214.327C34.1953 218.193 37.3293 221.327 41.1953 221.327V219.327C38.4339 219.327 36.1953 217.089 36.1953 214.327H34.1953Z" fill="#4A584E"/>
<rect x="107" y="80" width="69" height="14" rx="4" fill="#E7DAC9" fill-opacity="0.8"/>
<path d="M113.2 90V87.208L113.256 87.6L110.992 84.4H112.368L114.096 86.872L113.56 86.848L115.112 84.4H116.448L114.28 87.688L114.4 87.136V90H113.2ZM118.869 90V87.352C118.869 87.128 118.8 86.9573 118.661 86.84C118.528 86.7173 118.346 86.656 118.117 86.656C117.898 86.656 117.704 86.6987 117.533 86.784C117.362 86.8693 117.202 87.0027 117.053 87.184L116.357 86.512C116.613 86.2453 116.898 86.04 117.213 85.896C117.533 85.752 117.88 85.68 118.253 85.68C118.594 85.68 118.89 85.7333 119.141 85.84C119.397 85.9467 119.594 86.1067 119.733 86.32C119.872 86.5333 119.941 86.8027 119.941 87.128V90H118.869ZM117.709 90.08C117.442 90.08 117.2 90.0267 116.981 89.92C116.768 89.8133 116.597 89.6667 116.469 89.48C116.346 89.288 116.285 89.064 116.285 88.808C116.285 88.5893 116.325 88.3973 116.405 88.232C116.485 88.0613 116.602 87.9227 116.757 87.816C116.917 87.704 117.114 87.6187 117.349 87.56C117.589 87.5013 117.866 87.472 118.181 87.472H119.429L119.357 88.232H118.165C118.037 88.232 117.922 88.2427 117.821 88.264C117.725 88.2853 117.642 88.32 117.573 88.368C117.509 88.416 117.458 88.472 117.421 88.536C117.389 88.6 117.373 88.6747 117.373 88.76C117.373 88.8507 117.397 88.9307 117.445 89C117.493 89.0693 117.557 89.1227 117.637 89.16C117.722 89.1973 117.818 89.216 117.925 89.216C118.08 89.216 118.226 89.1893 118.365 89.136C118.509 89.0827 118.637 89.008 118.749 88.912C118.861 88.816 118.949 88.7067 119.013 88.584L119.229 89.152C119.117 89.3333 118.981 89.4933 118.821 89.632C118.661 89.7707 118.488 89.88 118.301 89.96C118.114 90.04 117.917 90.08 117.709 90.08ZM121.53 90V84.696H122.666V90H121.53ZM120.738 86.784V85.768H123.538V86.784H120.738ZM124.391 90V85.768H125.527V90H124.391ZM126.786 90V85.768H127.882L127.922 87.128L127.73 86.84C127.799 86.6267 127.903 86.432 128.042 86.256C128.186 86.08 128.354 85.9413 128.546 85.84C128.743 85.7333 128.949 85.68 129.162 85.68C129.258 85.68 129.346 85.688 129.426 85.704C129.511 85.7147 129.583 85.7333 129.642 85.76L129.338 87C129.279 86.9733 129.202 86.9493 129.106 86.928C129.015 86.9013 128.922 86.888 128.826 86.888C128.703 86.888 128.586 86.912 128.474 86.96C128.367 87.0027 128.271 87.0667 128.186 87.152C128.106 87.232 128.042 87.328 127.994 87.44C127.951 87.552 127.93 87.6773 127.93 87.816V90H126.786ZM130.414 90V85.768H131.55V90H130.414ZM132.801 90V85.768H133.897L133.921 86.576L133.753 86.624C133.807 86.4853 133.881 86.36 133.977 86.248C134.079 86.1307 134.193 86.032 134.321 85.952C134.449 85.872 134.585 85.808 134.729 85.76C134.879 85.712 135.025 85.688 135.169 85.688C135.393 85.688 135.591 85.7227 135.761 85.792C135.937 85.8613 136.087 85.9707 136.209 86.12C136.332 86.2693 136.425 86.464 136.489 86.704L136.321 86.672L136.377 86.552C136.447 86.4293 136.535 86.3147 136.641 86.208C136.748 86.1013 136.868 86.0107 137.001 85.936C137.135 85.856 137.273 85.7947 137.417 85.752C137.561 85.7093 137.703 85.688 137.841 85.688C138.172 85.688 138.444 85.7547 138.657 85.888C138.876 86.0213 139.039 86.2187 139.145 86.48C139.257 86.736 139.313 87.056 139.313 87.44V90H138.177V87.52C138.177 87.232 138.119 87.0187 138.001 86.88C137.889 86.7413 137.716 86.672 137.481 86.672C137.359 86.672 137.244 86.6933 137.137 86.736C137.031 86.7733 136.94 86.8293 136.865 86.904C136.791 86.9787 136.732 87.064 136.689 87.16C136.647 87.256 136.625 87.3627 136.625 87.48V90H135.489V87.504C135.489 87.2373 135.428 87.032 135.305 86.888C135.188 86.744 135.017 86.672 134.793 86.672C134.676 86.672 134.564 86.6933 134.457 86.736C134.351 86.7733 134.26 86.8293 134.185 86.904C134.111 86.9733 134.052 87.0587 134.009 87.16C133.967 87.256 133.945 87.3627 133.945 87.48V90H132.801ZM142.395 90.08C141.99 90.08 141.627 89.984 141.307 89.792C140.987 89.6 140.734 89.3387 140.547 89.008C140.366 88.672 140.275 88.2987 140.275 87.888C140.275 87.4667 140.366 87.0907 140.547 86.76C140.734 86.424 140.987 86.16 141.307 85.968C141.627 85.776 141.99 85.68 142.395 85.68C142.774 85.68 143.118 85.752 143.427 85.896C143.742 86.0347 143.987 86.2267 144.163 86.472L143.547 87.224C143.473 87.1227 143.379 87.0293 143.267 86.944C143.155 86.8587 143.033 86.792 142.899 86.744C142.771 86.696 142.638 86.672 142.499 86.672C142.281 86.672 142.086 86.7253 141.915 86.832C141.745 86.9333 141.611 87.0773 141.515 87.264C141.419 87.4453 141.371 87.6507 141.371 87.88C141.371 88.104 141.422 88.3067 141.523 88.488C141.625 88.6693 141.761 88.8133 141.931 88.92C142.102 89.0267 142.291 89.08 142.499 89.08C142.638 89.08 142.769 89.0613 142.891 89.024C143.019 88.9813 143.137 88.92 143.243 88.84C143.35 88.76 143.451 88.6667 143.547 88.56L144.163 89.312C143.987 89.5413 143.737 89.728 143.411 89.872C143.091 90.0107 142.753 90.08 142.395 90.08ZM145.011 90V85.768H146.147V90H145.011ZM152.74 90.08C152.302 90.08 151.905 90.008 151.548 89.864C151.19 89.72 150.881 89.5173 150.62 89.256C150.358 88.9947 150.156 88.688 150.012 88.336C149.873 87.984 149.804 87.6027 149.804 87.192C149.804 86.7813 149.876 86.4 150.02 86.048C150.169 85.696 150.377 85.392 150.644 85.136C150.916 84.8747 151.233 84.672 151.596 84.528C151.958 84.384 152.356 84.312 152.788 84.312C153.086 84.312 153.372 84.352 153.644 84.432C153.916 84.512 154.164 84.6213 154.388 84.76C154.612 84.8987 154.796 85.0587 154.94 85.24L154.196 86.024C153.988 85.8267 153.766 85.6747 153.532 85.568C153.297 85.456 153.044 85.4 152.772 85.4C152.521 85.4 152.289 85.4453 152.076 85.536C151.868 85.6213 151.684 85.7467 151.524 85.912C151.369 86.072 151.246 86.2613 151.156 86.48C151.07 86.6987 151.028 86.936 151.028 87.192C151.028 87.4427 151.073 87.6773 151.164 87.896C151.26 88.1147 151.388 88.3067 151.548 88.472C151.713 88.632 151.905 88.76 152.124 88.856C152.342 88.9467 152.577 88.992 152.828 88.992C153.004 88.992 153.169 88.9653 153.324 88.912C153.484 88.8533 153.622 88.776 153.74 88.68C153.862 88.584 153.958 88.472 154.028 88.344C154.097 88.216 154.132 88.0773 154.132 87.928V87.736L154.284 87.96H152.7V86.952H155.276C155.286 87.0107 155.294 87.0827 155.3 87.168C155.305 87.2533 155.308 87.336 155.308 87.416C155.313 87.496 155.316 87.5627 155.316 87.616C155.316 87.9787 155.252 88.312 155.124 88.616C154.996 88.9147 154.814 89.1733 154.58 89.392C154.345 89.6107 154.07 89.7813 153.756 89.904C153.441 90.0213 153.102 90.08 152.74 90.08ZM158.391 90.08C157.932 90.08 157.529 89.9867 157.183 89.8C156.841 89.6133 156.575 89.3573 156.383 89.032C156.196 88.7067 156.103 88.336 156.103 87.92C156.103 87.5893 156.156 87.288 156.263 87.016C156.369 86.7387 156.519 86.5013 156.711 86.304C156.903 86.1067 157.129 85.9547 157.391 85.848C157.657 85.736 157.948 85.68 158.263 85.68C158.551 85.68 158.815 85.7333 159.055 85.84C159.3 85.9413 159.511 86.088 159.687 86.28C159.868 86.4667 160.007 86.688 160.103 86.944C160.199 87.2 160.244 87.48 160.239 87.784L160.231 88.136H156.831L156.647 87.432H159.295L159.159 87.576V87.408C159.148 87.2587 159.1 87.128 159.015 87.016C158.935 86.904 158.831 86.816 158.703 86.752C158.575 86.6827 158.433 86.648 158.279 86.648C158.039 86.648 157.836 86.696 157.671 86.792C157.511 86.8827 157.388 87.016 157.303 87.192C157.223 87.3627 157.183 87.576 157.183 87.832C157.183 88.0827 157.236 88.304 157.343 88.496C157.449 88.6827 157.601 88.8267 157.799 88.928C158.001 89.0293 158.239 89.08 158.511 89.08C158.697 89.08 158.868 89.0507 159.023 88.992C159.177 88.9333 159.345 88.832 159.527 88.688L160.063 89.448C159.913 89.5813 159.745 89.696 159.559 89.792C159.372 89.888 159.18 89.96 158.983 90.008C158.785 90.056 158.588 90.08 158.391 90.08ZM161.246 90V84.08H162.382V90H161.246ZM163.783 90V85.768H164.919V90H163.783ZM164.351 84.896C164.127 84.896 163.954 84.8427 163.831 84.736C163.708 84.6293 163.647 84.4773 163.647 84.28C163.647 84.0987 163.708 83.952 163.831 83.84C163.959 83.7227 164.132 83.664 164.351 83.664C164.564 83.664 164.732 83.7173 164.855 83.824C164.978 83.9307 165.039 84.0827 165.039 84.28C165.039 84.4667 164.978 84.616 164.855 84.728C164.732 84.84 164.564 84.896 164.351 84.896ZM166.3 90V85.768H167.396L167.436 87.128L167.244 86.84C167.314 86.6267 167.418 86.432 167.556 86.256C167.7 86.08 167.868 85.9413 168.06 85.84C168.258 85.7333 168.463 85.68 168.676 85.68C168.772 85.68 168.86 85.688 168.94 85.704C169.026 85.7147 169.098 85.7333 169.156 85.76L168.852 87C168.794 86.9733 168.716 86.9493 168.62 86.928C168.53 86.9013 168.436 86.888 168.34 86.888C168.218 86.888 168.1 86.912 167.988 86.96C167.882 87.0027 167.786 87.0667 167.7 87.152C167.62 87.232 167.556 87.328 167.508 87.44C167.466 87.552 167.444 87.6773 167.444 87.816V90H166.3ZM170.064 90V85.768H171.2V90H170.064ZM170.632 84.896C170.408 84.896 170.235 84.8427 170.112 84.736C169.989 84.6293 169.928 84.4773 169.928 84.28C169.928 84.0987 169.989 83.952 170.112 83.84C170.24 83.7227 170.413 83.664 170.632 83.664C170.845 83.664 171.013 83.7173 171.136 83.824C171.259 83.9307 171.32 84.0827 171.32 84.28C171.32 84.4667 171.259 84.616 171.136 84.728C171.013 84.84 170.845 84.896 170.632 84.896Z" fill="black"/>
<rect x="81.5" y="174" width="81" height="14" rx="4" fill="#E7DAC9" fill-opacity="0.8"/>
<path d="M86.228 184V178.4H87.324L89.356 181.712L88.644 181.704L90.708 178.4H91.764V184H90.588V182.104C90.588 181.619 90.5987 181.181 90.62 180.792C90.6467 180.403 90.6893 180.019 90.748 179.64L90.884 180.016L89.244 182.552H88.708L87.108 180.032L87.236 179.64C87.3 179.997 87.3427 180.365 87.364 180.744C87.3907 181.123 87.404 181.576 87.404 182.104V184H86.228ZM94.6684 184.08C94.3644 184.08 94.1004 184.013 93.8764 183.88C93.6524 183.741 93.479 183.547 93.3564 183.296C93.239 183.04 93.1804 182.736 93.1804 182.384V179.768H94.3164V182.176C94.3164 182.475 94.3857 182.709 94.5244 182.88C94.6684 183.045 94.8657 183.128 95.1164 183.128C95.2444 183.128 95.359 183.109 95.4604 183.072C95.567 183.029 95.6577 182.971 95.7324 182.896C95.807 182.821 95.8657 182.733 95.9084 182.632C95.951 182.531 95.9724 182.419 95.9724 182.296V179.768H97.1084V184H96.0284L95.9964 183.128L96.1964 183.032C96.1377 183.229 96.031 183.408 95.8764 183.568C95.727 183.728 95.5484 183.853 95.3404 183.944C95.1324 184.035 94.9084 184.08 94.6684 184.08ZM96.0764 178.92C95.8684 178.92 95.7057 178.864 95.5884 178.752C95.4764 178.64 95.4204 178.485 95.4204 178.288C95.4204 178.101 95.479 177.949 95.5964 177.832C95.719 177.715 95.879 177.656 96.0764 177.656C96.279 177.656 96.4364 177.712 96.5484 177.824C96.6657 177.936 96.7244 178.091 96.7244 178.288C96.7244 178.475 96.6657 178.627 96.5484 178.744C96.431 178.861 96.2737 178.92 96.0764 178.92ZM94.2604 178.92C94.0524 178.92 93.8924 178.864 93.7804 178.752C93.6684 178.64 93.6124 178.485 93.6124 178.288C93.6124 178.101 93.6684 177.949 93.7804 177.832C93.8977 177.715 94.0577 177.656 94.2604 177.656C94.4684 177.656 94.6284 177.712 94.7404 177.824C94.8524 177.936 94.9084 178.091 94.9084 178.288C94.9084 178.475 94.8497 178.627 94.7324 178.744C94.615 178.861 94.4577 178.92 94.2604 178.92ZM98.4194 184V178.08H99.5554V184H98.4194ZM101.932 182.728L101.62 181.784L103.604 179.768H105.1L101.932 182.728ZM100.86 184V178.08H101.996V184H100.86ZM103.724 184L102.204 182.104L103.012 181.456L105.092 184H103.724ZM110.461 184.08C109.939 184.08 109.491 183.987 109.117 183.8C108.749 183.608 108.432 183.331 108.165 182.968L108.917 182.12C109.179 182.483 109.437 182.731 109.693 182.864C109.955 182.992 110.235 183.056 110.533 183.056C110.699 183.056 110.845 183.032 110.973 182.984C111.107 182.936 111.211 182.869 111.285 182.784C111.365 182.699 111.405 182.6 111.405 182.488C111.405 182.403 111.387 182.325 111.349 182.256C111.312 182.181 111.259 182.117 111.189 182.064C111.12 182.005 111.037 181.955 110.941 181.912C110.845 181.864 110.739 181.824 110.621 181.792C110.504 181.76 110.376 181.731 110.237 181.704C109.939 181.64 109.677 181.557 109.453 181.456C109.229 181.355 109.043 181.232 108.893 181.088C108.744 180.944 108.632 180.779 108.557 180.592C108.488 180.4 108.453 180.187 108.453 179.952C108.453 179.621 108.547 179.333 108.733 179.088C108.92 178.837 109.168 178.643 109.477 178.504C109.787 178.36 110.128 178.288 110.501 178.288C111.008 178.288 111.424 178.373 111.749 178.544C112.08 178.715 112.344 178.955 112.541 179.264L111.773 180.016C111.608 179.787 111.419 179.613 111.205 179.496C110.992 179.379 110.763 179.32 110.517 179.32C110.347 179.32 110.195 179.344 110.061 179.392C109.933 179.435 109.835 179.501 109.765 179.592C109.696 179.677 109.661 179.779 109.661 179.896C109.661 179.992 109.685 180.077 109.733 180.152C109.781 180.227 109.848 180.293 109.933 180.352C110.024 180.405 110.133 180.453 110.261 180.496C110.389 180.539 110.531 180.573 110.685 180.6C110.979 180.659 111.243 180.739 111.477 180.84C111.712 180.936 111.912 181.053 112.077 181.192C112.248 181.331 112.379 181.491 112.469 181.672C112.56 181.853 112.605 182.056 112.605 182.28C112.605 182.659 112.515 182.981 112.333 183.248C112.152 183.515 111.901 183.72 111.581 183.864C111.261 184.008 110.888 184.08 110.461 184.08ZM116.036 184V181.352C116.036 181.128 115.967 180.957 115.828 180.84C115.695 180.717 115.513 180.656 115.284 180.656C115.065 180.656 114.871 180.699 114.7 180.784C114.529 180.869 114.369 181.003 114.22 181.184L113.524 180.512C113.78 180.245 114.065 180.04 114.38 179.896C114.7 179.752 115.047 179.68 115.42 179.68C115.761 179.68 116.057 179.733 116.308 179.84C116.564 179.947 116.761 180.107 116.9 180.32C117.039 180.533 117.108 180.803 117.108 181.128V184H116.036ZM114.876 184.08C114.609 184.08 114.367 184.027 114.148 183.92C113.935 183.813 113.764 183.667 113.636 183.48C113.513 183.288 113.452 183.064 113.452 182.808C113.452 182.589 113.492 182.397 113.572 182.232C113.652 182.061 113.769 181.923 113.924 181.816C114.084 181.704 114.281 181.619 114.516 181.56C114.756 181.501 115.033 181.472 115.348 181.472H116.596L116.524 182.232H115.332C115.204 182.232 115.089 182.243 114.988 182.264C114.892 182.285 114.809 182.32 114.74 182.368C114.676 182.416 114.625 182.472 114.588 182.536C114.556 182.6 114.54 182.675 114.54 182.76C114.54 182.851 114.564 182.931 114.612 183C114.66 183.069 114.724 183.123 114.804 183.16C114.889 183.197 114.985 183.216 115.092 183.216C115.247 183.216 115.393 183.189 115.532 183.136C115.676 183.083 115.804 183.008 115.916 182.912C116.028 182.816 116.116 182.707 116.18 182.584L116.396 183.152C116.284 183.333 116.148 183.493 115.988 183.632C115.828 183.771 115.655 183.88 115.468 183.96C115.281 184.04 115.084 184.08 114.876 184.08ZM118.29 184V178.08H119.418V180.632L119.194 180.728C119.247 180.536 119.351 180.363 119.506 180.208C119.66 180.048 119.844 179.92 120.058 179.824C120.271 179.728 120.492 179.68 120.722 179.68C121.042 179.68 121.308 179.744 121.522 179.872C121.74 180 121.903 180.195 122.01 180.456C122.122 180.712 122.178 181.032 122.178 181.416V184H121.042V181.496C121.042 181.304 121.015 181.144 120.962 181.016C120.908 180.888 120.828 180.795 120.722 180.736C120.615 180.677 120.479 180.651 120.314 180.656C120.186 180.656 120.068 180.677 119.962 180.72C119.855 180.757 119.759 180.813 119.674 180.888C119.594 180.963 119.532 181.048 119.49 181.144C119.447 181.24 119.426 181.347 119.426 181.464V184H118.858C118.74 184 118.634 184 118.538 184C118.442 184 118.359 184 118.29 184ZM123.522 184V179.768H124.658V184H123.522ZM124.09 178.896C123.866 178.896 123.693 178.843 123.57 178.736C123.447 178.629 123.386 178.477 123.386 178.28C123.386 178.099 123.447 177.952 123.57 177.84C123.698 177.723 123.871 177.664 124.09 177.664C124.303 177.664 124.471 177.717 124.594 177.824C124.717 177.931 124.778 178.083 124.778 178.28C124.778 178.467 124.717 178.616 124.594 178.728C124.471 178.84 124.303 178.896 124.09 178.896ZM128.479 184.08C128.293 184.08 128.111 184.053 127.935 184C127.759 183.941 127.599 183.867 127.455 183.776C127.311 183.685 127.191 183.581 127.095 183.464C126.999 183.347 126.938 183.224 126.911 183.096L127.167 182.992L127.119 183.984H126.039V178.08H127.183V180.752L126.959 180.664C126.991 180.536 127.053 180.413 127.143 180.296C127.234 180.179 127.349 180.075 127.487 179.984C127.626 179.888 127.778 179.813 127.943 179.76C128.109 179.707 128.277 179.68 128.447 179.68C128.821 179.68 129.151 179.776 129.439 179.968C129.727 180.155 129.954 180.416 130.119 180.752C130.29 181.083 130.375 181.459 130.375 181.88C130.375 182.307 130.293 182.685 130.127 183.016C129.962 183.347 129.735 183.608 129.447 183.8C129.165 183.987 128.842 184.08 128.479 184.08ZM128.207 183.112C128.421 183.112 128.605 183.061 128.759 182.96C128.919 182.853 129.045 182.709 129.135 182.528C129.226 182.341 129.271 182.125 129.271 181.88C129.271 181.64 129.226 181.429 129.135 181.248C129.05 181.061 128.927 180.917 128.767 180.816C128.607 180.709 128.421 180.656 128.207 180.656C127.999 180.656 127.815 180.709 127.655 180.816C127.495 180.917 127.37 181.061 127.279 181.248C127.189 181.429 127.143 181.64 127.143 181.88C127.143 182.125 127.189 182.341 127.279 182.528C127.37 182.709 127.495 182.853 127.655 182.96C127.815 183.061 127.999 183.112 128.207 183.112ZM131.491 184V179.768H132.627V184H131.491ZM132.059 178.896C131.835 178.896 131.661 178.843 131.539 178.736C131.416 178.629 131.355 178.477 131.355 178.28C131.355 178.099 131.416 177.952 131.539 177.84C131.667 177.723 131.84 177.664 132.059 177.664C132.272 177.664 132.44 177.717 132.563 177.824C132.685 177.931 132.747 178.083 132.747 178.28C132.747 178.467 132.685 178.616 132.563 178.728C132.44 178.84 132.272 178.896 132.059 178.896ZM139.341 184.08C138.904 184.08 138.506 184.008 138.149 183.864C137.792 183.72 137.482 183.517 137.221 183.256C136.96 182.995 136.757 182.688 136.613 182.336C136.474 181.984 136.405 181.603 136.405 181.192C136.405 180.781 136.477 180.4 136.621 180.048C136.77 179.696 136.978 179.392 137.245 179.136C137.517 178.875 137.834 178.672 138.197 178.528C138.56 178.384 138.957 178.312 139.389 178.312C139.688 178.312 139.973 178.352 140.245 178.432C140.517 178.512 140.765 178.621 140.989 178.76C141.213 178.899 141.397 179.059 141.541 179.24L140.797 180.024C140.589 179.827 140.368 179.675 140.133 179.568C139.898 179.456 139.645 179.4 139.373 179.4C139.122 179.4 138.89 179.445 138.677 179.536C138.469 179.621 138.285 179.747 138.125 179.912C137.97 180.072 137.848 180.261 137.757 180.48C137.672 180.699 137.629 180.936 137.629 181.192C137.629 181.443 137.674 181.677 137.765 181.896C137.861 182.115 137.989 182.307 138.149 182.472C138.314 182.632 138.506 182.76 138.725 182.856C138.944 182.947 139.178 182.992 139.429 182.992C139.605 182.992 139.77 182.965 139.925 182.912C140.085 182.853 140.224 182.776 140.341 182.68C140.464 182.584 140.56 182.472 140.629 182.344C140.698 182.216 140.733 182.077 140.733 181.928V181.736L140.885 181.96H139.301V180.952H141.877C141.888 181.011 141.896 181.083 141.901 181.168C141.906 181.253 141.909 181.336 141.909 181.416C141.914 181.496 141.917 181.563 141.917 181.616C141.917 181.979 141.853 182.312 141.725 182.616C141.597 182.915 141.416 183.173 141.181 183.392C140.946 183.611 140.672 183.781 140.357 183.904C140.042 184.021 139.704 184.08 139.341 184.08ZM144.992 184.08C144.533 184.08 144.131 183.987 143.784 183.8C143.443 183.613 143.176 183.357 142.984 183.032C142.797 182.707 142.704 182.336 142.704 181.92C142.704 181.589 142.757 181.288 142.864 181.016C142.971 180.739 143.12 180.501 143.312 180.304C143.504 180.107 143.731 179.955 143.992 179.848C144.259 179.736 144.549 179.68 144.864 179.68C145.152 179.68 145.416 179.733 145.656 179.84C145.901 179.941 146.112 180.088 146.288 180.28C146.469 180.467 146.608 180.688 146.704 180.944C146.8 181.2 146.845 181.48 146.84 181.784L146.832 182.136H143.432L143.248 181.432H145.896L145.76 181.576V181.408C145.749 181.259 145.701 181.128 145.616 181.016C145.536 180.904 145.432 180.816 145.304 180.752C145.176 180.683 145.035 180.648 144.88 180.648C144.64 180.648 144.437 180.696 144.272 180.792C144.112 180.883 143.989 181.016 143.904 181.192C143.824 181.363 143.784 181.576 143.784 181.832C143.784 182.083 143.837 182.304 143.944 182.496C144.051 182.683 144.203 182.827 144.4 182.928C144.603 183.029 144.84 183.08 145.112 183.08C145.299 183.08 145.469 183.051 145.624 182.992C145.779 182.933 145.947 182.832 146.128 182.688L146.664 183.448C146.515 183.581 146.347 183.696 146.16 183.792C145.973 183.888 145.781 183.96 145.584 184.008C145.387 184.056 145.189 184.08 144.992 184.08ZM147.847 184V178.08H148.983V184H147.847ZM150.384 184V179.768H151.52V184H150.384ZM150.952 178.896C150.728 178.896 150.555 178.843 150.432 178.736C150.31 178.629 150.248 178.477 150.248 178.28C150.248 178.099 150.31 177.952 150.432 177.84C150.56 177.723 150.734 177.664 150.952 177.664C151.166 177.664 151.334 177.717 151.456 177.824C151.579 177.931 151.64 178.083 151.64 178.28C151.64 178.467 151.579 178.616 151.456 178.728C151.334 178.84 151.166 178.896 150.952 178.896ZM152.901 184V179.768H153.997L154.037 181.128L153.845 180.84C153.915 180.627 154.019 180.432 154.157 180.256C154.301 180.08 154.469 179.941 154.661 179.84C154.859 179.733 155.064 179.68 155.277 179.68C155.373 179.68 155.461 179.688 155.541 179.704C155.627 179.715 155.699 179.733 155.757 179.76L155.453 181C155.395 180.973 155.317 180.949 155.221 180.928C155.131 180.901 155.037 180.888 154.941 180.888C154.819 180.888 154.701 180.912 154.589 180.96C154.483 181.003 154.387 181.067 154.301 181.152C154.221 181.232 154.157 181.328 154.109 181.44C154.067 181.552 154.045 181.677 154.045 181.816V184H152.901ZM156.665 184V179.768H157.801V184H156.665ZM157.233 178.896C157.009 178.896 156.836 178.843 156.713 178.736C156.591 178.629 156.529 178.477 156.529 178.28C156.529 178.099 156.591 177.952 156.713 177.84C156.841 177.723 157.015 177.664 157.233 177.664C157.447 177.664 157.615 177.717 157.737 177.824C157.86 177.931 157.921 178.083 157.921 178.28C157.921 178.467 157.86 178.616 157.737 178.728C157.615 178.84 157.447 178.896 157.233 178.896Z" fill="black"/>
<path d="M293.188 21.2617L293.188 219.309" stroke="#E7DAC9" stroke-width="2" stroke-dasharray="4 4"/>
<path d="M194.382 236.16V230.5L194.752 231.16L193.302 231.87L193.002 230.55L194.962 229.56H195.862V236.16H194.382ZM193.162 236.66V235.31H197.112V236.66H193.162ZM201.112 236.76C200.519 236.76 200.009 236.617 199.582 236.33C199.162 236.037 198.839 235.623 198.612 235.09C198.392 234.55 198.282 233.907 198.282 233.16C198.282 232.413 198.392 231.773 198.612 231.24C198.839 230.7 199.162 230.287 199.582 230C200.009 229.707 200.519 229.56 201.112 229.56C201.705 229.56 202.212 229.707 202.632 230C203.059 230.287 203.382 230.7 203.602 231.24C203.829 231.773 203.942 232.413 203.942 233.16C203.942 233.907 203.829 234.55 203.602 235.09C203.382 235.623 203.059 236.037 202.632 236.33C202.212 236.617 201.705 236.76 201.112 236.76ZM201.112 235.47C201.559 235.47 201.902 235.27 202.142 234.87C202.389 234.463 202.512 233.893 202.512 233.16C202.512 232.407 202.389 231.827 202.142 231.42C201.902 231.013 201.559 230.81 201.112 230.81C200.665 230.81 200.319 231.013 200.072 231.42C199.832 231.827 199.712 232.407 199.712 233.16C199.712 233.893 199.832 234.463 200.072 234.87C200.319 235.27 200.665 235.47 201.112 235.47ZM205.796 236.77C205.543 236.77 205.346 236.697 205.206 236.55C205.066 236.403 204.996 236.193 204.996 235.92C204.996 235.667 205.069 235.46 205.216 235.3C205.363 235.14 205.556 235.06 205.796 235.06C206.056 235.06 206.256 235.137 206.396 235.29C206.536 235.437 206.606 235.647 206.606 235.92C206.606 236.173 206.529 236.38 206.376 236.54C206.229 236.693 206.036 236.77 205.796 236.77ZM213.243 236.66V233.17L213.313 233.66L210.483 229.66H212.203L214.363 232.75L213.693 232.72L215.633 229.66H217.303L214.593 233.77L214.743 233.08V236.66H213.243ZM218.15 236.66V231.37H219.57V236.66H218.15ZM221.154 236.66V229.26H222.574V236.66H221.154Z" fill="#6D736F"/>
<path d="M278.749 236.262V230.602L279.119 231.262L277.669 231.972L277.369 230.652L279.329 229.662H280.229V236.262H278.749ZM277.529 236.762V235.412H281.479V236.762H277.529ZM284.969 236.832C284.463 236.832 284.003 236.728 283.589 236.522C283.183 236.308 282.843 236.002 282.569 235.602L283.389 234.702C283.676 235.022 283.933 235.238 284.159 235.352C284.393 235.465 284.649 235.522 284.929 235.522C285.163 235.522 285.369 235.475 285.549 235.382C285.736 235.282 285.883 235.145 285.989 234.972C286.096 234.798 286.149 234.608 286.149 234.402C286.149 234.182 286.096 233.985 285.989 233.812C285.883 233.632 285.739 233.492 285.559 233.392C285.386 233.292 285.186 233.242 284.959 233.242C284.819 233.242 284.686 233.252 284.559 233.272C284.439 233.292 284.303 233.335 284.149 233.402C283.996 233.462 283.806 233.552 283.579 233.672L282.899 232.762L283.329 229.722H287.269V231.022H284.099L284.459 230.582L284.129 232.782L283.659 232.552C283.759 232.458 283.896 232.375 284.069 232.302C284.249 232.222 284.439 232.158 284.639 232.112C284.846 232.058 285.049 232.032 285.249 232.032C285.689 232.032 286.079 232.132 286.419 232.332C286.766 232.532 287.039 232.808 287.239 233.162C287.439 233.515 287.539 233.922 287.539 234.382C287.539 234.842 287.426 235.258 287.199 235.632C286.973 235.998 286.666 236.292 286.279 236.512C285.893 236.725 285.456 236.832 284.969 236.832ZM289.519 236.872C289.265 236.872 289.069 236.798 288.929 236.652C288.789 236.505 288.719 236.295 288.719 236.022C288.719 235.768 288.792 235.562 288.939 235.402C289.085 235.242 289.279 235.162 289.519 235.162C289.779 235.162 289.979 235.238 290.119 235.392C290.259 235.538 290.329 235.748 290.329 236.022C290.329 236.275 290.252 236.482 290.099 236.642C289.952 236.795 289.759 236.872 289.519 236.872ZM296.966 236.762V233.272L297.036 233.762L294.206 229.762H295.926L298.086 232.852L297.416 232.822L299.356 229.762H301.026L298.316 233.872L298.466 233.182V236.762H296.966ZM301.873 236.762V231.472H303.293V236.762H301.873ZM304.877 236.762V229.362H306.297V236.762H304.877Z" fill="#6D736F"/>
<path d="M2.26094 22.7227L6.89094 15.7227H8.23094L3.55094 22.7227H2.26094ZM2.79094 19.4327C2.46427 19.4327 2.17427 19.3493 1.92094 19.1827C1.6676 19.016 1.4676 18.7893 1.32094 18.5027C1.18094 18.2093 1.11094 17.8727 1.11094 17.4927C1.11094 17.126 1.18094 16.796 1.32094 16.5027C1.4676 16.2093 1.6676 15.9793 1.92094 15.8127C2.17427 15.646 2.4676 15.5627 2.80094 15.5627C3.1276 15.5627 3.41427 15.646 3.66094 15.8127C3.91427 15.9793 4.11094 16.2093 4.25094 16.5027C4.3976 16.796 4.47094 17.1293 4.47094 17.5027C4.47094 17.8627 4.3976 18.1893 4.25094 18.4827C4.10427 18.776 3.90427 19.0093 3.65094 19.1827C3.3976 19.3493 3.11094 19.4327 2.79094 19.4327ZM2.80094 18.4927C2.91427 18.4927 3.01094 18.4527 3.09094 18.3727C3.1776 18.2927 3.24427 18.1793 3.29094 18.0327C3.3376 17.8793 3.36094 17.7027 3.36094 17.5027C3.36094 17.3027 3.3376 17.1293 3.29094 16.9827C3.24427 16.8293 3.1776 16.7127 3.09094 16.6327C3.01094 16.5527 2.91094 16.5127 2.79094 16.5127C2.6776 16.5127 2.57427 16.556 2.48094 16.6427C2.39427 16.7227 2.3276 16.836 2.28094 16.9827C2.23427 17.1293 2.21094 17.3027 2.21094 17.5027C2.21094 17.8027 2.26427 18.0427 2.37094 18.2227C2.4776 18.4027 2.62094 18.4927 2.80094 18.4927ZM7.80094 22.8127C7.48094 22.8127 7.19094 22.7293 6.93094 22.5627C6.6776 22.3893 6.4776 22.1593 6.33094 21.8727C6.18427 21.5793 6.11094 21.2527 6.11094 20.8927C6.11094 20.5127 6.18094 20.1793 6.32094 19.8927C6.4676 19.5993 6.6676 19.3693 6.92094 19.2027C7.18094 19.0293 7.47427 18.9427 7.80094 18.9427C8.1276 18.9427 8.41427 19.0293 8.66094 19.2027C8.91427 19.3693 9.11094 19.5993 9.25094 19.8927C9.3976 20.1793 9.47094 20.5127 9.47094 20.8927C9.47094 21.2527 9.3976 21.5793 9.25094 21.8727C9.10427 22.1593 8.90427 22.3893 8.65094 22.5627C8.40427 22.7293 8.12094 22.8127 7.80094 22.8127ZM7.80094 21.8827C7.92094 21.8827 8.02094 21.8427 8.10094 21.7627C8.1876 21.676 8.25427 21.5593 8.30094 21.4127C8.3476 21.2593 8.37094 21.086 8.37094 20.8927C8.37094 20.586 8.32094 20.3427 8.22094 20.1627C8.12094 19.9827 7.98094 19.8927 7.80094 19.8927C7.68094 19.8927 7.5776 19.936 7.49094 20.0227C7.40427 20.1027 7.33427 20.216 7.28094 20.3627C7.23427 20.5093 7.21094 20.686 7.21094 20.8927C7.21094 21.186 7.26427 21.426 7.37094 21.6127C7.4776 21.7927 7.62094 21.8827 7.80094 21.8827ZM12.2697 22.2227V16.5627L12.6397 17.2227L11.1897 17.9327L10.8897 16.6127L12.8497 15.6227H13.7497V22.2227H12.2697ZM11.0497 22.7227V21.3727H14.9997V22.7227H11.0497ZM18.9996 22.8227C18.4063 22.8227 17.8963 22.6793 17.4696 22.3927C17.0496 22.0993 16.7263 21.686 16.4996 21.1527C16.2796 20.6127 16.1696 19.9693 16.1696 19.2227C16.1696 18.476 16.2796 17.836 16.4996 17.3027C16.7263 16.7627 17.0496 16.3493 17.4696 16.0627C17.8963 15.7693 18.4063 15.6227 18.9996 15.6227C19.5929 15.6227 20.0996 15.7693 20.5196 16.0627C20.9463 16.3493 21.2696 16.7627 21.4896 17.3027C21.7163 17.836 21.8296 18.476 21.8296 19.2227C21.8296 19.9693 21.7163 20.6127 21.4896 21.1527C21.2696 21.686 20.9463 22.0993 20.5196 22.3927C20.0996 22.6793 19.5929 22.8227 18.9996 22.8227ZM18.9996 21.5327C19.4463 21.5327 19.7896 21.3327 20.0296 20.9327C20.2763 20.526 20.3996 19.956 20.3996 19.2227C20.3996 18.4693 20.2763 17.8893 20.0296 17.4827C19.7896 17.076 19.4463 16.8727 18.9996 16.8727C18.5529 16.8727 18.2063 17.076 17.9596 17.4827C17.7196 17.8893 17.5996 18.4693 17.5996 19.2227C17.5996 19.956 17.7196 20.526 17.9596 20.9327C18.2063 21.3327 18.5529 21.5327 18.9996 21.5327ZM25.7035 22.8227C25.1102 22.8227 24.6002 22.6793 24.1735 22.3927C23.7535 22.0993 23.4302 21.686 23.2035 21.1527C22.9835 20.6127 22.8735 19.9693 22.8735 19.2227C22.8735 18.476 22.9835 17.836 23.2035 17.3027C23.4302 16.7627 23.7535 16.3493 24.1735 16.0627C24.6002 15.7693 25.1102 15.6227 25.7035 15.6227C26.2968 15.6227 26.8035 15.7693 27.2235 16.0627C27.6502 16.3493 27.9735 16.7627 28.1935 17.3027C28.4202 17.836 28.5335 18.476 28.5335 19.2227C28.5335 19.9693 28.4202 20.6127 28.1935 21.1527C27.9735 21.686 27.6502 22.0993 27.2235 22.3927C26.8035 22.6793 26.2968 22.8227 25.7035 22.8227ZM25.7035 21.5327C26.1502 21.5327 26.4935 21.3327 26.7335 20.9327C26.9802 20.526 27.1035 19.956 27.1035 19.2227C27.1035 18.4693 26.9802 17.8893 26.7335 17.4827C26.4935 17.076 26.1502 16.8727 25.7035 16.8727C25.2568 16.8727 24.9102 17.076 24.6635 17.4827C24.4235 17.8893 24.3035 18.4693 24.3035 19.2227C24.3035 19.956 24.4235 20.526 24.6635 20.9327C24.9102 21.3327 25.2568 21.5327 25.7035 21.5327Z" fill="#6D736F"/>
<path d="M15.2609 220.324L19.8909 213.324H21.2309L16.5509 220.324H15.2609ZM15.7909 217.034C15.4643 217.034 15.1743 216.951 14.9209 216.784C14.6676 216.618 14.4676 216.391 14.3209 216.104C14.1809 215.811 14.1109 215.474 14.1109 215.094C14.1109 214.728 14.1809 214.398 14.3209 214.104C14.4676 213.811 14.6676 213.581 14.9209 213.414C15.1743 213.248 15.4676 213.164 15.8009 213.164C16.1276 213.164 16.4143 213.248 16.6609 213.414C16.9143 213.581 17.1109 213.811 17.2509 214.104C17.3976 214.398 17.4709 214.731 17.4709 215.104C17.4709 215.464 17.3976 215.791 17.2509 216.084C17.1043 216.378 16.9043 216.611 16.6509 216.784C16.3976 216.951 16.1109 217.034 15.7909 217.034ZM15.8009 216.094C15.9143 216.094 16.0109 216.054 16.0909 215.974C16.1776 215.894 16.2443 215.781 16.2909 215.634C16.3376 215.481 16.3609 215.304 16.3609 215.104C16.3609 214.904 16.3376 214.731 16.2909 214.584C16.2443 214.431 16.1776 214.314 16.0909 214.234C16.0109 214.154 15.9109 214.114 15.7909 214.114C15.6776 214.114 15.5743 214.158 15.4809 214.244C15.3943 214.324 15.3276 214.438 15.2809 214.584C15.2343 214.731 15.2109 214.904 15.2109 215.104C15.2109 215.404 15.2643 215.644 15.3709 215.824C15.4776 216.004 15.6209 216.094 15.8009 216.094ZM20.8009 220.414C20.4809 220.414 20.1909 220.331 19.9309 220.164C19.6776 219.991 19.4776 219.761 19.3309 219.474C19.1843 219.181 19.1109 218.854 19.1109 218.494C19.1109 218.114 19.1809 217.781 19.3209 217.494C19.4676 217.201 19.6676 216.971 19.9209 216.804C20.1809 216.631 20.4743 216.544 20.8009 216.544C21.1276 216.544 21.4143 216.631 21.6609 216.804C21.9143 216.971 22.1109 217.201 22.2509 217.494C22.3976 217.781 22.4709 218.114 22.4709 218.494C22.4709 218.854 22.3976 219.181 22.2509 219.474C22.1043 219.761 21.9043 219.991 21.6509 220.164C21.4043 220.331 21.1209 220.414 20.8009 220.414ZM20.8009 219.484C20.9209 219.484 21.0209 219.444 21.1009 219.364C21.1876 219.278 21.2543 219.161 21.3009 219.014C21.3476 218.861 21.3709 218.688 21.3709 218.494C21.3709 218.188 21.3209 217.944 21.2209 217.764C21.1209 217.584 20.9809 217.494 20.8009 217.494C20.6809 217.494 20.5776 217.538 20.4909 217.624C20.4043 217.704 20.3343 217.818 20.2809 217.964C20.2343 218.111 20.2109 218.288 20.2109 218.494C20.2109 218.788 20.2643 219.028 20.3709 219.214C20.4776 219.394 20.6209 219.484 20.8009 219.484ZM26.3797 220.424C25.7864 220.424 25.2764 220.281 24.8497 219.994C24.4297 219.701 24.1064 219.288 23.8797 218.754C23.6597 218.214 23.5497 217.571 23.5497 216.824C23.5497 216.078 23.6597 215.438 23.8797 214.904C24.1064 214.364 24.4297 213.951 24.8497 213.664C25.2764 213.371 25.7864 213.224 26.3797 213.224C26.973 213.224 27.4797 213.371 27.8997 213.664C28.3264 213.951 28.6497 214.364 28.8697 214.904C29.0964 215.438 29.2097 216.078 29.2097 216.824C29.2097 217.571 29.0964 218.214 28.8697 218.754C28.6497 219.288 28.3264 219.701 27.8997 219.994C27.4797 220.281 26.973 220.424 26.3797 220.424ZM26.3797 219.134C26.8264 219.134 27.1697 218.934 27.4097 218.534C27.6564 218.128 27.7797 217.558 27.7797 216.824C27.7797 216.071 27.6564 215.491 27.4097 215.084C27.1697 214.678 26.8264 214.474 26.3797 214.474C25.933 214.474 25.5864 214.678 25.3397 215.084C25.0997 215.491 24.9797 216.071 24.9797 216.824C24.9797 217.558 25.0997 218.128 25.3397 218.534C25.5864 218.934 25.933 219.134 26.3797 219.134Z" fill="#6D736F"/>
<path d="M209.242 169.305L209.242 219.34" stroke="#E7DAC9" stroke-width="2" stroke-dasharray="4 4"/>
<rect x="84.5" y="200.324" width="75" height="14" rx="4" fill="#E7DAC9" fill-opacity="0.8"/>
<path d="M91.708 210.404C91.2973 210.404 90.916 210.332 90.564 210.188C90.2173 210.044 89.916 209.844 89.66 209.588C89.4093 209.327 89.212 209.02 89.068 208.668C88.9293 208.316 88.86 207.93 88.86 207.508C88.86 207.092 88.9293 206.708 89.068 206.356C89.212 206.004 89.4093 205.698 89.66 205.436C89.916 205.175 90.2173 204.972 90.564 204.828C90.916 204.684 91.2973 204.612 91.708 204.612C92.1187 204.612 92.4947 204.684 92.836 204.828C93.1827 204.972 93.484 205.175 93.74 205.436C93.996 205.698 94.1933 206.004 94.332 206.356C94.476 206.708 94.548 207.095 94.548 207.516C94.548 207.927 94.476 208.308 94.332 208.66C94.1933 209.012 93.996 209.319 93.74 209.58C93.484 209.842 93.1827 210.044 92.836 210.188C92.4947 210.332 92.1187 210.404 91.708 210.404ZM91.708 209.268C91.9427 209.268 92.1587 209.226 92.356 209.14C92.5533 209.05 92.724 208.927 92.868 208.772C93.0173 208.612 93.132 208.426 93.212 208.212C93.292 207.999 93.332 207.767 93.332 207.516C93.332 207.26 93.292 207.026 93.212 206.812C93.132 206.599 93.0173 206.412 92.868 206.252C92.724 206.092 92.5533 205.97 92.356 205.884C92.1587 205.794 91.9427 205.748 91.708 205.748C91.4733 205.748 91.2547 205.794 91.052 205.884C90.8547 205.97 90.6813 206.092 90.532 206.252C90.388 206.407 90.276 206.594 90.196 206.812C90.116 207.026 90.076 207.26 90.076 207.516C90.076 207.852 90.1453 208.154 90.284 208.42C90.428 208.682 90.6227 208.89 90.868 209.044C91.1133 209.194 91.3933 209.268 91.708 209.268ZM95.6342 212.084V206.092H96.7302L96.7702 207.036L96.5622 206.964C96.5942 206.799 96.6822 206.644 96.8262 206.5C96.9756 206.356 97.1596 206.239 97.3782 206.148C97.5969 206.058 97.8262 206.012 98.0663 206.012C98.4343 206.012 98.7596 206.106 99.0422 206.292C99.3302 206.479 99.5569 206.738 99.7222 207.068C99.8876 207.399 99.9703 207.78 99.9703 208.212C99.9703 208.628 99.8876 209.002 99.7222 209.332C99.5569 209.663 99.3302 209.924 99.0422 210.116C98.7542 210.303 98.4289 210.396 98.0663 210.396C97.8209 210.396 97.5862 210.348 97.3622 210.252C97.1436 210.156 96.9569 210.034 96.8022 209.884C96.6476 209.735 96.5516 209.572 96.5142 209.396L96.7782 209.284V212.084H95.6342ZM97.8103 209.42C98.0236 209.42 98.2076 209.37 98.3623 209.268C98.5223 209.167 98.6449 209.026 98.7303 208.844C98.8209 208.658 98.8663 208.447 98.8663 208.212C98.8663 207.972 98.8209 207.762 98.7303 207.58C98.6449 207.394 98.5223 207.25 98.3623 207.148C98.2076 207.047 98.0236 206.996 97.8103 206.996C97.5969 206.996 97.4102 207.047 97.2502 207.148C97.0902 207.25 96.9649 207.391 96.8742 207.572C96.7836 207.754 96.7382 207.967 96.7382 208.212C96.7382 208.447 96.7836 208.658 96.8742 208.844C96.9649 209.026 97.0902 209.167 97.2502 209.268C97.4102 209.37 97.5969 209.42 97.8103 209.42ZM102.998 210.404C102.539 210.404 102.136 210.311 101.79 210.124C101.448 209.938 101.182 209.682 100.99 209.356C100.803 209.031 100.71 208.66 100.71 208.244C100.71 207.914 100.763 207.612 100.87 207.34C100.976 207.063 101.126 206.826 101.318 206.628C101.51 206.431 101.736 206.279 101.998 206.172C102.264 206.06 102.555 206.004 102.87 206.004C103.158 206.004 103.422 206.058 103.662 206.164C103.907 206.266 104.118 206.412 104.294 206.604C104.475 206.791 104.614 207.012 104.71 207.268C104.806 207.524 104.851 207.804 104.846 208.108L104.838 208.46H101.438L101.254 207.756H103.902L103.766 207.9V207.732C103.755 207.583 103.707 207.452 103.622 207.34C103.542 207.228 103.438 207.14 103.31 207.076C103.182 207.007 103.04 206.972 102.886 206.972C102.646 206.972 102.443 207.02 102.278 207.116C102.118 207.207 101.995 207.34 101.91 207.516C101.83 207.687 101.79 207.9 101.79 208.156C101.79 208.407 101.843 208.628 101.95 208.82C102.056 209.007 102.208 209.151 102.406 209.252C102.608 209.354 102.846 209.404 103.118 209.404C103.304 209.404 103.475 209.375 103.63 209.316C103.784 209.258 103.952 209.156 104.134 209.012L104.67 209.772C104.52 209.906 104.352 210.02 104.166 210.116C103.979 210.212 103.787 210.284 103.59 210.332C103.392 210.38 103.195 210.404 102.998 210.404ZM105.845 210.324V206.092H106.941L106.973 206.956L106.749 207.052C106.802 206.86 106.906 206.687 107.061 206.532C107.216 206.372 107.4 206.244 107.613 206.148C107.826 206.052 108.048 206.004 108.277 206.004C108.597 206.004 108.864 206.068 109.077 206.196C109.296 206.324 109.458 206.519 109.565 206.78C109.677 207.036 109.733 207.356 109.733 207.74V210.324H108.597V207.82C108.597 207.628 108.57 207.468 108.517 207.34C108.464 207.212 108.384 207.119 108.277 207.06C108.17 207.002 108.034 206.975 107.869 206.98C107.741 206.98 107.624 207.002 107.517 207.044C107.41 207.082 107.314 207.138 107.229 207.212C107.149 207.287 107.088 207.372 107.045 207.468C107.002 207.564 106.981 207.671 106.981 207.788V210.324H106.413C106.296 210.324 106.189 210.324 106.093 210.324C105.997 210.324 105.914 210.324 105.845 210.324ZM111.141 210.324V204.724H113.621C113.973 204.724 114.288 204.802 114.565 204.956C114.848 205.111 115.072 205.324 115.237 205.596C115.403 205.863 115.485 206.17 115.485 206.516C115.485 206.852 115.403 207.156 115.237 207.428C115.072 207.7 114.848 207.916 114.565 208.076C114.288 208.236 113.973 208.316 113.621 208.316H112.293V210.324H111.141ZM114.325 210.324L112.901 207.788L114.125 207.588L115.709 210.332L114.325 210.324ZM112.293 207.332H113.573C113.717 207.332 113.843 207.3 113.949 207.236C114.061 207.167 114.147 207.074 114.205 206.956C114.269 206.839 114.301 206.706 114.301 206.556C114.301 206.402 114.264 206.266 114.189 206.148C114.115 206.026 114.011 205.932 113.877 205.868C113.744 205.799 113.589 205.764 113.413 205.764H112.293V207.332ZM118.555 210.404C118.128 210.404 117.744 210.311 117.403 210.124C117.067 209.932 116.8 209.671 116.603 209.34C116.411 209.01 116.315 208.634 116.315 208.212C116.315 207.78 116.411 207.399 116.603 207.068C116.8 206.738 117.067 206.479 117.403 206.292C117.744 206.1 118.128 206.004 118.555 206.004C118.987 206.004 119.371 206.1 119.707 206.292C120.043 206.479 120.307 206.738 120.499 207.068C120.696 207.399 120.795 207.78 120.795 208.212C120.795 208.634 120.696 209.01 120.499 209.34C120.307 209.671 120.043 209.932 119.707 210.124C119.371 210.311 118.987 210.404 118.555 210.404ZM118.555 209.42C118.768 209.42 118.955 209.367 119.115 209.26C119.28 209.154 119.408 209.01 119.499 208.828C119.595 208.647 119.64 208.442 119.635 208.212C119.64 207.972 119.595 207.762 119.499 207.58C119.408 207.394 119.28 207.25 119.115 207.148C118.955 207.042 118.768 206.988 118.555 206.988C118.347 206.988 118.16 207.042 117.995 207.148C117.829 207.255 117.699 207.399 117.603 207.58C117.507 207.762 117.461 207.972 117.467 208.212C117.461 208.442 117.507 208.647 117.603 208.828C117.699 209.01 117.829 209.154 117.995 209.26C118.16 209.367 118.347 209.42 118.555 209.42ZM123.769 210.404C123.343 210.404 122.959 210.311 122.617 210.124C122.281 209.932 122.015 209.671 121.817 209.34C121.625 209.01 121.529 208.634 121.529 208.212C121.529 207.78 121.625 207.399 121.817 207.068C122.015 206.738 122.281 206.479 122.617 206.292C122.959 206.1 123.343 206.004 123.769 206.004C124.201 206.004 124.585 206.1 124.921 206.292C125.257 206.479 125.521 206.738 125.713 207.068C125.911 207.399 126.009 207.78 126.009 208.212C126.009 208.634 125.911 209.01 125.713 209.34C125.521 209.671 125.257 209.932 124.921 210.124C124.585 210.311 124.201 210.404 123.769 210.404ZM123.769 209.42C123.983 209.42 124.169 209.367 124.329 209.26C124.495 209.154 124.623 209.01 124.713 208.828C124.809 208.647 124.855 208.442 124.849 208.212C124.855 207.972 124.809 207.762 124.713 207.58C124.623 207.394 124.495 207.25 124.329 207.148C124.169 207.042 123.983 206.988 123.769 206.988C123.561 206.988 123.375 207.042 123.209 207.148C123.044 207.255 122.913 207.399 122.817 207.58C122.721 207.762 122.676 207.972 122.681 208.212C122.676 208.442 122.721 208.647 122.817 208.828C122.913 209.01 123.044 209.154 123.209 209.26C123.375 209.367 123.561 209.42 123.769 209.42ZM127.204 210.324V205.796C127.204 205.53 127.26 205.292 127.372 205.084C127.489 204.876 127.652 204.711 127.86 204.588C128.068 204.46 128.31 204.396 128.588 204.396C128.774 204.396 128.948 204.428 129.108 204.492C129.273 204.551 129.417 204.634 129.54 204.74L129.196 205.58C129.126 205.532 129.057 205.495 128.988 205.468C128.918 205.442 128.854 205.428 128.796 205.428C128.694 205.428 128.609 205.444 128.54 205.476C128.47 205.508 128.42 205.559 128.388 205.628C128.356 205.692 128.34 205.772 128.34 205.868V210.324H127.772C127.654 210.324 127.548 210.324 127.452 210.324C127.356 210.324 127.273 210.324 127.204 210.324ZM126.564 207.164V206.196H129.252V207.164H126.564ZM135.509 210.404C135.072 210.404 134.675 210.332 134.317 210.188C133.96 210.044 133.651 209.842 133.389 209.58C133.128 209.319 132.925 209.012 132.781 208.66C132.643 208.308 132.573 207.927 132.573 207.516C132.573 207.106 132.645 206.724 132.789 206.372C132.939 206.02 133.147 205.716 133.413 205.46C133.685 205.199 134.003 204.996 134.365 204.852C134.728 204.708 135.125 204.636 135.557 204.636C135.856 204.636 136.141 204.676 136.413 204.756C136.685 204.836 136.933 204.946 137.157 205.084C137.381 205.223 137.565 205.383 137.709 205.564L136.965 206.348C136.757 206.151 136.536 205.999 136.301 205.892C136.067 205.78 135.813 205.724 135.541 205.724C135.291 205.724 135.059 205.77 134.845 205.86C134.637 205.946 134.453 206.071 134.293 206.236C134.139 206.396 134.016 206.586 133.925 206.804C133.84 207.023 133.797 207.26 133.797 207.516C133.797 207.767 133.843 208.002 133.933 208.22C134.029 208.439 134.157 208.631 134.317 208.796C134.483 208.956 134.675 209.084 134.893 209.18C135.112 209.271 135.347 209.316 135.597 209.316C135.773 209.316 135.939 209.29 136.093 209.236C136.253 209.178 136.392 209.1 136.509 209.004C136.632 208.908 136.728 208.796 136.797 208.668C136.867 208.54 136.901 208.402 136.901 208.252V208.06L137.053 208.284H135.469V207.276H138.045C138.056 207.335 138.064 207.407 138.069 207.492C138.075 207.578 138.077 207.66 138.077 207.74C138.083 207.82 138.085 207.887 138.085 207.94C138.085 208.303 138.021 208.636 137.893 208.94C137.765 209.239 137.584 209.498 137.349 209.716C137.115 209.935 136.84 210.106 136.525 210.228C136.211 210.346 135.872 210.404 135.509 210.404ZM141.16 210.404C140.702 210.404 140.299 210.311 139.952 210.124C139.611 209.938 139.344 209.682 139.152 209.356C138.966 209.031 138.872 208.66 138.872 208.244C138.872 207.914 138.926 207.612 139.032 207.34C139.139 207.063 139.288 206.826 139.48 206.628C139.672 206.431 139.899 206.279 140.16 206.172C140.427 206.06 140.718 206.004 141.032 206.004C141.32 206.004 141.584 206.058 141.824 206.164C142.07 206.266 142.28 206.412 142.456 206.604C142.638 206.791 142.776 207.012 142.872 207.268C142.968 207.524 143.014 207.804 143.008 208.108L143 208.46H139.6L139.416 207.756H142.064L141.928 207.9V207.732C141.918 207.583 141.87 207.452 141.784 207.34C141.704 207.228 141.6 207.14 141.472 207.076C141.344 207.007 141.203 206.972 141.048 206.972C140.808 206.972 140.606 207.02 140.44 207.116C140.28 207.207 140.158 207.34 140.072 207.516C139.992 207.687 139.952 207.9 139.952 208.156C139.952 208.407 140.006 208.628 140.112 208.82C140.219 209.007 140.371 209.151 140.568 209.252C140.771 209.354 141.008 209.404 141.28 209.404C141.467 209.404 141.638 209.375 141.792 209.316C141.947 209.258 142.115 209.156 142.296 209.012L142.832 209.772C142.683 209.906 142.515 210.02 142.328 210.116C142.142 210.212 141.95 210.284 141.752 210.332C141.555 210.38 141.358 210.404 141.16 210.404ZM144.016 210.324V204.404H145.152V210.324H144.016ZM146.553 210.324V206.092H147.689V210.324H146.553ZM147.121 205.22C146.897 205.22 146.723 205.167 146.601 205.06C146.478 204.954 146.417 204.802 146.417 204.604C146.417 204.423 146.478 204.276 146.601 204.164C146.729 204.047 146.902 203.988 147.121 203.988C147.334 203.988 147.502 204.042 147.625 204.148C147.747 204.255 147.809 204.407 147.809 204.604C147.809 204.791 147.747 204.94 147.625 205.052C147.502 205.164 147.334 205.22 147.121 205.22ZM149.07 210.324V206.092H150.166L150.206 207.452L150.014 207.164C150.083 206.951 150.187 206.756 150.326 206.58C150.47 206.404 150.638 206.266 150.83 206.164C151.027 206.058 151.233 206.004 151.446 206.004C151.542 206.004 151.63 206.012 151.71 206.028C151.795 206.039 151.867 206.058 151.926 206.084L151.622 207.324C151.563 207.298 151.486 207.274 151.39 207.252C151.299 207.226 151.206 207.212 151.11 207.212C150.987 207.212 150.87 207.236 150.758 207.284C150.651 207.327 150.555 207.391 150.47 207.476C150.39 207.556 150.326 207.652 150.278 207.764C150.235 207.876 150.214 208.002 150.214 208.14V210.324H149.07ZM152.834 210.324V206.092H153.97V210.324H152.834ZM153.402 205.22C153.178 205.22 153.004 205.167 152.882 205.06C152.759 204.954 152.698 204.802 152.698 204.604C152.698 204.423 152.759 204.276 152.882 204.164C153.01 204.047 153.183 203.988 153.402 203.988C153.615 203.988 153.783 204.042 153.906 204.148C154.028 204.255 154.09 204.407 154.09 204.604C154.09 204.791 154.028 204.94 153.906 205.052C153.783 205.164 153.615 205.22 153.402 205.22Z" fill="black"/>
<defs>
<linearGradient id="paint0_linear_2189_5790" x1="358.537" y1="18.1249" x2="35.1953" y2="220.324" gradientUnits="userSpaceOnUse">
<stop offset="0.322917" stop-color="#CE6D29"/>
<stop offset="1" stop-color="#E7DAC9"/>
</linearGradient>
</defs>
</svg>
