<svg viewBox="0 0 263 71" fill="none" xmlns="http://www.w3.org/2000/svg">
<g filter="url(#filter0_i_855_8077)">
<path d="M76.1206 61.44C73.8619 61.44 71.7646 61.044 69.8286 60.252C67.9219 59.46 66.2646 58.36 64.8566 56.952C63.4779 55.5147 62.3926 53.828 61.6006 51.892C60.8379 49.956 60.4566 47.8293 60.4566 45.512C60.4566 43.224 60.8379 41.112 61.6006 39.176C62.3926 37.24 63.4779 35.5533 64.8566 34.116C66.2646 32.6787 67.9219 31.564 69.8286 30.772C71.7646 29.98 73.8619 29.584 76.1206 29.584C78.3792 29.584 80.4472 29.98 82.3246 30.772C84.2312 31.564 85.8886 32.6787 87.2966 34.116C88.7046 35.5533 89.7899 37.24 90.5526 39.176C91.3446 41.112 91.7406 43.2387 91.7406 45.556C91.7406 47.8147 91.3446 49.912 90.5526 51.848C89.7899 53.784 88.7046 55.4707 87.2966 56.908C85.8886 58.3453 84.2312 59.46 82.3246 60.252C80.4472 61.044 78.3792 61.44 76.1206 61.44ZM76.1206 55.192C77.4112 55.192 78.5992 54.9573 79.6846 54.488C80.7699 53.9893 81.7086 53.3147 82.5006 52.464C83.3219 51.584 83.9526 50.5573 84.3926 49.384C84.8326 48.2107 85.0526 46.9347 85.0526 45.556C85.0526 44.148 84.8326 42.8573 84.3926 41.684C83.9526 40.5107 83.3219 39.484 82.5006 38.604C81.7086 37.724 80.7699 37.0493 79.6846 36.58C78.5992 36.0813 77.4112 35.832 76.1206 35.832C74.8299 35.832 73.6272 36.0813 72.5126 36.58C71.4272 37.0493 70.4739 37.724 69.6526 38.604C68.8606 39.4547 68.2446 40.4813 67.8046 41.684C67.3646 42.8573 67.1446 44.148 67.1446 45.556C67.1446 47.404 67.5259 49.0613 68.2886 50.528C69.0806 51.9653 70.1512 53.1093 71.5006 53.96C72.8499 54.7813 74.3899 55.192 76.1206 55.192ZM94.6349 70.68V37.724H100.663L100.883 42.916L99.7389 42.52C99.9149 41.6107 100.399 40.76 101.191 39.968C102.012 39.176 103.024 38.5307 104.227 38.032C105.43 37.5333 106.691 37.284 108.011 37.284C110.035 37.284 111.824 37.7973 113.379 38.824C114.963 39.8507 116.21 41.2733 117.119 43.092C118.028 44.9107 118.483 47.008 118.483 49.384C118.483 51.672 118.028 53.7253 117.119 55.544C116.21 57.3627 114.963 58.8 113.379 59.856C111.795 60.8827 110.006 61.396 108.011 61.396C106.662 61.396 105.371 61.132 104.139 60.604C102.936 60.076 101.91 59.4013 101.059 58.58C100.208 57.7587 99.6803 56.864 99.4749 55.896L100.927 55.28V70.68H94.6349ZM106.603 56.028C107.776 56.028 108.788 55.7493 109.639 55.192C110.519 54.6347 111.194 53.8573 111.663 52.86C112.162 51.8333 112.411 50.6747 112.411 49.384C112.411 48.064 112.162 46.9053 111.663 45.908C111.194 44.8813 110.519 44.0893 109.639 43.532C108.788 42.9747 107.776 42.696 106.603 42.696C105.43 42.696 104.403 42.9747 103.523 43.532C102.643 44.0893 101.954 44.8667 101.455 45.864C100.956 46.8613 100.707 48.0347 100.707 49.384C100.707 50.6747 100.956 51.8333 101.455 52.86C101.954 53.8573 102.643 54.6347 103.523 55.192C104.403 55.7493 105.43 56.028 106.603 56.028ZM132.053 61.44C129.53 61.44 127.316 60.9267 125.409 59.9C123.532 58.8733 122.065 57.4653 121.009 55.676C119.982 53.8867 119.469 51.848 119.469 49.56C119.469 47.7413 119.762 46.084 120.349 44.588C120.936 43.0627 121.757 41.7573 122.813 40.672C123.869 39.5867 125.116 38.7507 126.553 38.164C128.02 37.548 129.618 37.24 131.349 37.24C132.933 37.24 134.385 37.5333 135.705 38.12C137.054 38.6773 138.213 39.484 139.181 40.54C140.178 41.5667 140.941 42.784 141.469 44.192C141.997 45.6 142.246 47.14 142.217 48.812L142.173 50.748H123.473L122.461 46.876H137.025L136.277 47.668V46.744C136.218 45.9227 135.954 45.204 135.485 44.588C135.045 43.972 134.473 43.488 133.769 43.136C133.065 42.7547 132.288 42.564 131.437 42.564C130.117 42.564 129.002 42.828 128.093 43.356C127.213 43.8547 126.538 44.588 126.069 45.556C125.629 46.4947 125.409 47.668 125.409 49.076C125.409 50.4547 125.702 51.672 126.289 52.728C126.876 53.7547 127.712 54.5467 128.797 55.104C129.912 55.6613 131.217 55.94 132.713 55.94C133.74 55.94 134.678 55.7787 135.529 55.456C136.38 55.1333 137.304 54.576 138.301 53.784L141.249 57.964C140.428 58.6973 139.504 59.328 138.477 59.856C137.45 60.384 136.394 60.78 135.309 61.044C134.224 61.308 133.138 61.44 132.053 61.44ZM144.633 61V37.724H150.661L150.837 42.476L149.605 43.004C149.899 41.948 150.471 40.9947 151.321 40.144C152.172 39.264 153.184 38.56 154.357 38.032C155.531 37.504 156.748 37.24 158.009 37.24C159.769 37.24 161.236 37.592 162.409 38.296C163.612 39 164.507 40.0707 165.093 41.508C165.709 42.916 166.017 44.676 166.017 46.788V61H159.769V47.228C159.769 46.172 159.623 45.292 159.329 44.588C159.036 43.884 158.596 43.3707 158.009 43.048C157.423 42.7253 156.675 42.5787 155.765 42.608C155.061 42.608 154.416 42.7253 153.829 42.96C153.243 43.1653 152.715 43.4733 152.245 43.884C151.805 44.2947 151.468 44.764 151.233 45.292C150.999 45.82 150.881 46.4067 150.881 47.052V61H147.757C147.112 61 146.525 61 145.997 61C145.469 61 145.015 61 144.633 61ZM170.684 61V30.2H184.324C186.26 30.2 187.991 30.6253 189.516 31.476C191.071 32.3267 192.303 33.5 193.212 34.996C194.122 36.4627 194.576 38.1493 194.576 40.056C194.576 41.904 194.122 43.576 193.212 45.072C192.303 46.568 191.071 47.756 189.516 48.636C187.991 49.516 186.26 49.956 184.324 49.956H177.02V61H170.684ZM188.196 61L180.364 47.052L187.096 45.952L195.808 61.044L188.196 61ZM177.02 44.544H184.06C184.852 44.544 185.542 44.368 186.128 44.016C186.744 43.6347 187.214 43.1213 187.536 42.476C187.888 41.8307 188.064 41.0973 188.064 40.276C188.064 39.4253 187.859 38.6773 187.448 38.032C187.038 37.3573 186.466 36.844 185.732 36.492C184.999 36.1107 184.148 35.92 183.18 35.92H177.02V44.544ZM208.377 61.44C206.03 61.44 203.918 60.9267 202.041 59.9C200.193 58.844 198.726 57.4067 197.641 55.588C196.585 53.7693 196.057 51.7013 196.057 49.384C196.057 47.008 196.585 44.9107 197.641 43.092C198.726 41.2733 200.193 39.8507 202.041 38.824C203.918 37.768 206.03 37.24 208.377 37.24C210.753 37.24 212.865 37.768 214.713 38.824C216.561 39.8507 218.013 41.2733 219.069 43.092C220.154 44.9107 220.697 47.008 220.697 49.384C220.697 51.7013 220.154 53.7693 219.069 55.588C218.013 57.4067 216.561 58.844 214.713 59.9C212.865 60.9267 210.753 61.44 208.377 61.44ZM208.377 56.028C209.55 56.028 210.577 55.7347 211.457 55.148C212.366 54.5613 213.07 53.7693 213.569 52.772C214.097 51.7747 214.346 50.6453 214.317 49.384C214.346 48.064 214.097 46.9053 213.569 45.908C213.07 44.8813 212.366 44.0893 211.457 43.532C210.577 42.9453 209.55 42.652 208.377 42.652C207.233 42.652 206.206 42.9453 205.297 43.532C204.387 44.1187 203.669 44.9107 203.141 45.908C202.613 46.9053 202.363 48.064 202.393 49.384C202.363 50.6453 202.613 51.7747 203.141 52.772C203.669 53.7693 204.387 54.5613 205.297 55.148C206.206 55.7347 207.233 56.028 208.377 56.028ZM233.977 61.44C231.631 61.44 229.519 60.9267 227.641 59.9C225.793 58.844 224.327 57.4067 223.241 55.588C222.185 53.7693 221.657 51.7013 221.657 49.384C221.657 47.008 222.185 44.9107 223.241 43.092C224.327 41.2733 225.793 39.8507 227.641 38.824C229.519 37.768 231.631 37.24 233.977 37.24C236.353 37.24 238.465 37.768 240.313 38.824C242.161 39.8507 243.613 41.2733 244.669 43.092C245.755 44.9107 246.297 47.008 246.297 49.384C246.297 51.7013 245.755 53.7693 244.669 55.588C243.613 57.4067 242.161 58.844 240.313 59.9C238.465 60.9267 236.353 61.44 233.977 61.44ZM233.977 56.028C235.151 56.028 236.177 55.7347 237.057 55.148C237.967 54.5613 238.671 53.7693 239.169 52.772C239.697 51.7747 239.947 50.6453 239.917 49.384C239.947 48.064 239.697 46.9053 239.169 45.908C238.671 44.8813 237.967 44.0893 237.057 43.532C236.177 42.9453 235.151 42.652 233.977 42.652C232.833 42.652 231.807 42.9453 230.897 43.532C229.988 44.1187 229.269 44.9107 228.741 45.908C228.213 46.9053 227.964 48.064 227.993 49.384C227.964 50.6453 228.213 51.7747 228.741 52.772C229.269 53.7693 229.988 54.5613 230.897 55.148C231.807 55.7347 232.833 56.028 233.977 56.028ZM249.787 61V36.096C249.787 34.6293 250.095 33.324 250.711 32.18C251.356 31.036 252.251 30.1267 253.395 29.452C254.539 28.748 255.874 28.396 257.399 28.396C258.426 28.396 259.379 28.572 260.259 28.924C261.168 29.2467 261.96 29.7013 262.635 30.288L260.743 34.908C260.362 34.644 259.98 34.4387 259.599 34.292C259.218 34.1453 258.866 34.072 258.543 34.072C257.986 34.072 257.516 34.16 257.135 34.336C256.754 34.512 256.475 34.7907 256.299 35.172C256.123 35.524 256.035 35.964 256.035 36.492V61H252.911C252.266 61 251.679 61 251.151 61C250.623 61 250.168 61 249.787 61ZM246.267 43.62V38.296H261.051V43.62H246.267Z" fill="#5F6D63"/>
<path d="M4 58.7647L31.2345 64.3845C33.055 64.7602 34.9287 64.0501 36.043 62.5622L71.5479 15.153C73.5255 12.5123 77.5168 12.6102 79.3626 15.3447L84.9485 23.6201C86.7416 26.2766 90.5856 26.4608 92.6246 23.988L109.106 3.9998M109.106 3.9998L110.604 12.238M109.106 3.9998L99.8628 5.20538" stroke="#5F6D63" stroke-width="6.13939" stroke-linecap="round" stroke-linejoin="round"/>
<path d="M31.322 44.0607L22.6376 55.5539L30.1773 56.8803L38.8618 45.3871L31.322 44.0607Z" fill="#5F6D63" stroke="#5F6D63" stroke-width="3.16562" stroke-linecap="round" stroke-linejoin="round"/>
<path d="M43.9002 27.213L35.2157 38.7063L42.7554 40.0326L51.4399 28.5394L43.9002 27.213Z" fill="#5F6D63" stroke="#5F6D63" stroke-width="3.16562" stroke-linecap="round" stroke-linejoin="round"/>
<path d="M57.2205 10.4865L48.536 21.9797L56.0758 23.3061L64.7602 11.8128L57.2205 10.4865Z" fill="#5F6D63" stroke="#5F6D63" stroke-width="3.16562" stroke-linecap="round" stroke-linejoin="round"/>
<path d="M16.9861 40.6291L8.30162 52.1223L15.8414 53.4486L24.5259 41.9554L16.9861 40.6291Z" fill="#5F6D63" stroke="#5F6D63" stroke-width="3.16562" stroke-linecap="round" stroke-linejoin="round"/>
<path d="M29.5642 23.7814L20.8797 35.2746L28.4195 36.601L37.104 25.1078L29.5642 23.7814Z" fill="#5F6D63" stroke="#5F6D63" stroke-width="3.16562" stroke-linecap="round" stroke-linejoin="round"/>
<path d="M42.8923 7.05484L34.2079 18.5481L41.7476 19.8744L50.4321 8.38119L42.8923 7.05484Z" fill="#5F6D63" stroke="#5F6D63" stroke-width="3.16562" stroke-linecap="round" stroke-linejoin="round"/>
</g>
<defs>
<filter id="filter0_i_855_8077" x="0.929688" y="0.929688" width="261.703" height="73.75" filterUnits="userSpaceOnUse" color-interpolation-filters="sRGB">
<feFlood flood-opacity="0" result="BackgroundImageFix"/>
<feBlend mode="normal" in="SourceGraphic" in2="BackgroundImageFix" result="shape"/>
<feColorMatrix in="SourceAlpha" type="matrix" values="0 0 0 0 0 0 0 0 0 0 0 0 0 0 0 0 0 0 127 0" result="hardAlpha"/>
<feOffset dy="4"/>
<feGaussianBlur stdDeviation="2"/>
<feComposite in2="hardAlpha" operator="arithmetic" k2="-1" k3="1"/>
<feColorMatrix type="matrix" values="0 0 0 0 0 0 0 0 0 0 0 0 0 0 0 0 0 0 0.25 0"/>
<feBlend mode="normal" in2="shape" result="effect1_innerShadow_855_8077"/>
</filter>
</defs>
</svg>
