<svg width="491" height="582" viewBox="0 0 491 582" fill="none" xmlns="http://www.w3.org/2000/svg">
<g filter="url(#filter0_d_745_46035)">
<path d="M24.6358 406.758L209.727 346.835L245.237 326.417C253.093 321.919 264.956 321.411 271.751 325.322L374.746 384.619L442.27 415.442L462.656 404.607V416.067H462.578C462.813 419.236 460.692 422.599 456.175 425.181L256 540.255C248.144 544.754 236.281 545.262 229.485 541.351L29.1531 426.002C25.8928 424.125 24.4394 421.582 24.6358 418.923V406.758Z" fill="#645A44"/>
<path d="M458.1 407.892L462.656 405.467V416.927H462.578C462.774 419.587 461.203 422.325 458.1 424.711V407.892Z" fill="#031332"/>
<path d="M241.929 543.97C237.294 544.088 232.816 543.266 229.517 541.35L29.1845 426.002C25.9242 424.124 24.4708 421.582 24.6672 418.922V406.757L201.038 349.572H226.414L241.969 543.931L241.929 543.97Z" fill="#8F7D54"/>
<path d="M241.021 544.869C246.402 544.869 252.059 543.578 256.498 541.036L456.633 425.961C461.111 423.38 463.625 419.898 463.508 416.339C463.508 416.261 463.547 416.144 463.547 416.065V404.605C463.547 404.292 463.39 403.979 463.115 403.822C462.84 403.666 462.486 403.666 462.251 403.822L442.257 414.462L375.126 383.835L272.21 324.577C265.179 320.548 252.884 321.017 244.792 325.672L209.282 346.09L24.348 405.935C23.9944 406.052 23.7195 406.404 23.7195 406.795V418.96C23.7195 418.96 23.7195 419.077 23.7195 419.116C23.6017 422.167 25.3693 424.866 28.7082 426.822L229.001 542.17C232.183 544.008 236.504 544.908 240.982 544.908L241.021 544.869ZM461.74 415.791C461.74 415.791 461.661 416.026 461.661 416.144C461.897 419.077 459.697 422.089 455.73 424.397L255.555 539.471C247.974 543.852 236.464 544.321 229.905 540.566L29.6116 425.218C26.8227 423.614 25.3693 421.385 25.5264 418.96C25.5264 418.882 25.5264 418.764 25.5264 418.686V407.382L209.989 347.654L245.656 327.158C253.237 322.778 264.747 322.308 271.307 326.063L374.301 385.361L441.903 416.222C442.139 416.339 442.453 416.339 442.689 416.222L461.74 406.091V415.791Z" fill="#021433"/>
<path d="M29.189 413.602L229.521 528.95C236.317 532.861 248.219 532.353 256.036 527.855L456.211 412.78C464.067 408.282 464.931 401.437 458.096 397.526L257.764 282.178C250.969 278.266 239.066 278.775 231.25 283.273L31.0745 398.347C23.2183 402.845 22.3542 409.69 29.189 413.602Z" fill="#4A584E"/>
<path d="M241.029 532.47C246.41 532.47 252.066 531.18 256.505 528.637L456.641 413.563C461.04 411.02 463.594 407.617 463.594 404.175C463.594 401.281 461.787 398.66 458.566 396.783L258.234 281.435C251.202 277.367 238.907 277.875 230.816 282.53L30.6404 397.604C26.241 400.147 23.6877 403.549 23.6877 406.992C23.6877 409.886 25.4947 412.507 28.7157 414.384L229.048 529.732C232.23 531.571 236.551 532.47 241.029 532.47ZM246.292 280.418C250.456 280.418 254.423 281.239 257.369 282.96L457.662 398.308C460.333 399.834 461.787 401.907 461.787 404.175C461.787 406.952 459.587 409.808 455.738 412.037L255.562 527.112C247.981 531.492 236.472 531.962 229.912 528.207L29.6192 412.859C26.9481 411.333 25.4947 409.26 25.4947 406.992C25.4947 404.214 27.6944 401.359 31.5439 399.13L231.719 284.055C235.883 281.669 241.225 280.418 246.292 280.418Z" fill="#021433"/>
<path d="M46.3829 400.412L243.903 514.916V344.847L46.3829 230.343V400.412Z" fill="#8F7D54" stroke="black" stroke-width="1.31999"/>
<path d="M46.3804 399.552L48.9884 401.396V231.418L46.3804 229.574V399.552Z" fill="#03122F" stroke="black" stroke-width="1.31999"/>
<path d="M244.683 516.269C244.723 516.244 244.778 516.17 244.778 516.063V344.468C244.778 344.358 244.719 344.283 244.679 344.26L244.674 344.257L45.8395 228.99C45.839 228.99 45.8384 228.989 45.8379 228.989C45.7654 228.949 45.6609 228.949 45.5888 228.99C45.5486 229.013 45.4903 229.088 45.4903 229.198V400.793C45.4903 400.903 45.5486 400.979 45.5889 401.002L45.5934 401.004L244.391 516.25C244.41 516.257 244.434 516.266 244.462 516.274C244.503 516.287 244.534 516.294 244.552 516.298C244.57 516.295 244.59 516.292 244.61 516.287C244.641 516.281 244.666 516.274 244.683 516.269ZM244.694 516.266C244.697 516.265 244.699 516.264 244.699 516.264C244.698 516.264 244.697 516.264 244.694 516.266ZM244.001 344.406L244.33 344.597V344.977V514.498V515.644L243.339 515.069L46.3063 400.855L45.9772 400.665V400.285V230.763V229.618L46.9682 230.192L244.001 344.406Z" fill="#021433" stroke="black" stroke-width="1.31999"/>
<path d="M245.234 344.85V514.922L430.184 408.586V238.514L245.234 344.85Z" fill="#645A44" stroke="black" stroke-width="1.31999"/>
<path d="M428.243 409.995L430.184 409.157V239.31L428.243 240.753V409.995Z" fill="#03122F" stroke="black" stroke-width="1.31999"/>
<path d="M244.605 516.284C244.636 516.278 244.662 516.271 244.679 516.266L430.981 409.136L430.983 409.134C431.071 409.085 431.121 408.981 431.121 408.926V237.37C431.121 237.323 431.109 237.281 431.091 237.249C431.074 237.22 431.051 237.197 431.016 237.179L430.999 237.171L430.983 237.162C430.911 237.121 430.806 237.12 430.734 237.161C430.733 237.161 430.733 237.162 430.733 237.162L244.426 344.255L244.424 344.257C244.384 344.28 244.325 344.355 244.325 344.465V516.06C244.325 516.17 244.384 516.246 244.424 516.269L244.444 516.28L244.456 516.288C244.457 516.289 244.461 516.29 244.468 516.292C244.482 516.296 244.5 516.299 244.522 516.299C244.545 516.296 244.575 516.291 244.605 516.284ZM430.634 408.417V408.799L430.303 408.989L245.801 515.068L244.812 515.636V514.495V344.974V344.592L245.143 344.402L429.645 238.324L430.634 237.755V238.896V408.417Z" fill="#021433" stroke="black" stroke-width="1.31999"/>
<path d="M81.0093 285.692V386.414L134.918 417.377V316.693L81.0093 285.692Z" fill="#EC7E10" stroke="black" stroke-width="1.31999"/>
<path d="M135.699 418.721C135.783 418.67 135.832 418.569 135.832 418.515V316.309C135.832 316.261 135.82 316.219 135.802 316.188C135.785 316.159 135.762 316.135 135.727 316.117L135.709 316.109L135.692 316.099L80.4656 284.339C80.4653 284.339 80.465 284.339 80.4648 284.339C80.3922 284.298 80.2873 284.298 80.2149 284.339C80.1747 284.362 80.1164 284.438 80.1164 284.548V386.754C80.1164 386.864 80.1747 386.94 80.2149 386.962L80.2175 386.964L135.407 418.702C135.427 418.71 135.454 418.72 135.482 418.729C135.512 418.739 135.538 418.747 135.558 418.752C135.578 418.748 135.601 418.744 135.625 418.739C135.656 418.732 135.681 418.726 135.699 418.721ZM135.709 418.717C135.713 418.716 135.714 418.716 135.714 418.716C135.714 418.716 135.712 418.716 135.709 418.717ZM135.345 416.95V418.091L134.356 417.522L80.9345 386.818L80.6034 386.627V386.245V286.074V284.933L81.5922 285.501L135.014 316.206L135.345 316.396V316.778V316.817V416.95Z" fill="#021433" stroke="black" stroke-width="1.31999"/>
<path d="M86.247 295.152V382.732L129.707 407.711V320.131L86.247 295.152Z" fill="white" stroke="black" stroke-width="1.31999"/>
<path d="M130.472 409.18C130.557 409.129 130.606 409.028 130.606 408.974V319.871C130.606 319.824 130.593 319.781 130.575 319.75C130.559 319.721 130.536 319.697 130.5 319.68L130.482 319.671L130.465 319.661L85.6877 293.925C85.6874 293.925 85.6872 293.925 85.6869 293.925C85.6143 293.884 85.5094 293.884 85.4371 293.925C85.3496 293.975 85.2993 294.079 85.2993 294.134V383.236C85.2993 383.284 85.3115 383.326 85.3296 383.358C85.3461 383.387 85.3693 383.41 85.4048 383.428L85.4225 383.437L85.4395 383.447L130.18 409.161C130.2 409.169 130.227 409.179 130.256 409.188C130.285 409.198 130.311 409.206 130.332 409.211C130.352 409.207 130.375 409.203 130.399 409.198C130.43 409.191 130.455 409.185 130.472 409.18ZM130.483 409.176C130.486 409.175 130.487 409.175 130.487 409.175C130.487 409.175 130.486 409.175 130.483 409.176ZM129.788 319.847L130.119 320.037V320.419V407.448V408.589L129.13 408.02L86.1564 383.3L85.8255 383.11V382.728V295.699V294.558L86.8146 295.126L129.788 319.847Z" fill="#021433" stroke="black" stroke-width="1.31999"/>
<path d="M89.5788 381.069L89.2479 380.879V380.497V296.98L86.247 295.269V382.853L129.707 407.832V404.152L89.5788 381.069Z" fill="#EC7E10" stroke="black" stroke-width="1.31999"/>
<path d="M89.2384 380.1V296.98L86.2375 295.269V382.046L89.2384 380.1Z" fill="#DD5E15" stroke="black" stroke-width="1.31999"/>
<path d="M85.4395 383.482L130.18 409.196C130.197 409.203 130.219 409.211 130.243 409.219L130.279 409.215L130.28 409.214L130.28 409.214L130.28 409.214L130.28 409.214L130.281 409.214L130.281 409.214L130.285 409.214L130.311 409.21C130.335 409.206 130.366 409.201 130.399 409.194C130.43 409.188 130.455 409.181 130.472 409.176C130.557 409.125 130.606 409.024 130.606 408.97V403.768C130.606 403.72 130.593 403.678 130.575 403.646C130.559 403.617 130.536 403.594 130.5 403.576L130.482 403.567L130.465 403.557L90.4383 380.558L90.1071 380.368V379.986V296.633C90.1071 296.586 90.0949 296.544 90.0768 296.512C90.0603 296.483 90.0371 296.46 90.0016 296.442L89.9838 296.433L89.9665 296.423L85.6877 293.961C85.6874 293.96 85.6871 293.96 85.6868 293.96C85.6142 293.919 85.5094 293.919 85.4371 293.961C85.3496 294.01 85.2993 294.114 85.2993 294.169V383.272C85.2993 383.319 85.3115 383.361 85.3296 383.393C85.3461 383.422 85.3693 383.445 85.4048 383.463L85.4225 383.472L85.4395 383.482ZM130.487 409.171C130.487 409.171 130.486 409.171 130.483 409.172C130.486 409.171 130.487 409.171 130.487 409.171ZM130.119 407.405V408.546L129.13 407.977L86.1564 383.257L85.8255 383.067V382.685V295.655V294.514L86.8148 295.083L89.3287 296.531L89.6595 296.721V297.103V380.455C89.6595 380.566 89.7177 380.641 89.758 380.664L89.7604 380.665L129.788 403.665L130.119 403.855V404.237V404.276V407.405Z" fill="#021433" stroke="black" stroke-width="1.31999"/>
<path d="M109.362 391.881C109.511 391.881 109.606 391.783 109.606 391.641V307.976C109.606 307.834 109.511 307.736 109.362 307.736C109.213 307.736 109.119 307.834 109.119 307.976V391.641C109.119 391.783 109.213 391.881 109.362 391.881Z" fill="#021433" stroke="black" stroke-width="1.31999"/>
<path d="M405.02 287.653L351.111 318.654V419.338L405.02 388.375V287.653Z" fill="#EC7E10" stroke="black" stroke-width="1.31999"/>
<path d="M350.521 420.7C350.552 420.693 350.578 420.687 350.595 420.682L405.817 388.925L405.819 388.923C405.907 388.874 405.957 388.77 405.957 388.715V286.509C405.957 286.461 405.945 286.419 405.927 286.388C405.91 286.359 405.887 286.335 405.852 286.318L405.835 286.309L405.819 286.3C405.747 286.259 405.642 286.259 405.57 286.3C405.569 286.3 405.569 286.3 405.569 286.3L350.343 318.06L350.34 318.061C350.252 318.111 350.202 318.215 350.202 318.27V420.476C350.202 420.523 350.214 420.565 350.232 420.597C350.249 420.626 350.272 420.649 350.308 420.667L350.344 420.685L350.373 420.705C350.375 420.705 350.379 420.707 350.384 420.708C350.398 420.712 350.416 420.715 350.438 420.715C350.461 420.711 350.491 420.706 350.521 420.7ZM404.833 388.245L405.139 388.778L351.717 419.483L350.728 420.052V418.911V318.778V318.396L351.059 318.206L404.481 287.501L405.47 286.933V288.074V387.066V388.206V388.245H404.833Z" fill="#021433" stroke="black" stroke-width="1.31999"/>
<path d="M399.785 297.114L356.364 322.092V409.671L399.785 384.693V297.114Z" fill="white" stroke="black" stroke-width="1.31999"/>
<path d="M355.743 411.116C355.775 411.109 355.8 411.103 355.817 411.098L400.59 385.364L400.593 385.363C400.68 385.313 400.731 385.209 400.731 385.154V296.052C400.731 296.004 400.718 295.962 400.7 295.931C400.684 295.902 400.661 295.878 400.625 295.861L400.609 295.852L400.593 295.843C400.521 295.802 400.416 295.802 400.343 295.843C400.343 295.843 400.342 295.843 400.342 295.843L355.565 321.579L355.562 321.581C355.522 321.603 355.464 321.679 355.464 321.789V410.892C355.464 411.002 355.522 411.077 355.562 411.1L355.582 411.112L355.596 411.121C355.597 411.121 355.601 411.123 355.606 411.124C355.62 411.128 355.639 411.131 355.66 411.131C355.683 411.128 355.713 411.122 355.743 411.116ZM400.244 384.646V385.028L399.913 385.218L356.94 409.938L355.95 410.507V409.366V322.337V321.955L356.281 321.765L399.255 297.044L400.244 296.475V297.617V384.646Z" fill="#021433" stroke="black" stroke-width="1.31999"/>
<path d="M399.785 384.814V297.235L396.824 298.94V382.458V382.84L396.492 383.031L356.364 406.074V409.792L399.785 384.814Z" fill="#EC7E10" stroke="black" stroke-width="1.31999"/>
<path d="M399.785 383.981V297.235L396.824 298.94V382.061L399.785 383.981Z" fill="#DD5E15" stroke="black" stroke-width="1.31999"/>
<path d="M355.668 411.092H355.827L400.59 385.364L400.593 385.363C400.68 385.313 400.731 385.209 400.731 385.154V296.052C400.731 296.004 400.718 295.962 400.7 295.931C400.684 295.902 400.661 295.878 400.625 295.861L400.609 295.852L400.593 295.843C400.521 295.802 400.416 295.802 400.343 295.843L396.063 298.306L396.063 298.306L396.061 298.308C395.973 298.357 395.923 298.461 395.923 298.516V381.869V382.251L395.592 382.441L355.564 405.44L355.562 405.442C355.522 405.465 355.464 405.54 355.464 405.65V410.853C355.464 410.963 355.522 411.038 355.562 411.061L355.582 411.072L355.596 411.082C355.597 411.082 355.601 411.084 355.606 411.085C355.621 411.089 355.643 411.092 355.668 411.092ZM398.884 385.81L356.94 409.938L355.95 410.507V409.366V406.237V405.855L356.282 405.665L396.309 382.666L396.311 382.664C396.351 382.641 396.41 382.566 396.41 382.456V299.103V298.724L396.737 298.533L399.211 297.086L400.204 296.505V297.656V384.685H399.722L400.049 385.114L400.01 385.153L398.884 386.274V385.81Z" fill="#021433" stroke="black" stroke-width="1.31999"/>
<path d="M376.729 393.844C376.878 393.844 376.973 393.746 376.973 393.604V309.939C376.973 309.797 376.878 309.699 376.729 309.699C376.581 309.699 376.486 309.797 376.486 309.939V393.604C376.486 393.746 376.581 393.844 376.729 393.844Z" fill="#021433" stroke="black" stroke-width="1.31999"/>
<path d="M330.754 331.653L276.845 362.654V463.338L330.754 432.375V331.653Z" fill="#EC7E10" stroke="black" stroke-width="1.31999"/>
<path d="M276.201 464.715C276.215 464.714 276.232 464.712 276.249 464.71L276.291 464.686L331.52 432.925L331.523 432.923C331.563 432.901 331.621 432.825 331.621 432.715V330.509C331.621 330.399 331.563 330.323 331.523 330.3C331.45 330.259 331.346 330.259 331.273 330.3C331.273 330.3 331.272 330.3 331.272 330.3L276.046 362.06L276.043 362.061C276.003 362.084 275.945 362.159 275.945 362.27V464.476C275.945 464.586 276.003 464.661 276.043 464.684L276.063 464.695L276.077 464.705C276.079 464.705 276.082 464.707 276.088 464.708C276.103 464.712 276.124 464.715 276.149 464.715H276.185C276.187 464.715 276.193 464.715 276.201 464.715ZM330.536 432.245L330.842 432.778L277.421 463.483L276.432 464.052V462.911V362.778V362.396L276.763 362.206L330.185 331.501L331.174 330.933V332.074V431.066V432.206V432.245H330.536Z" fill="#021433" stroke="black" stroke-width="1.31999"/>
<path d="M325.535 341.114L282.114 366.092V453.671L325.535 428.693V341.114Z" fill="white" stroke="black" stroke-width="1.31999"/>
<path d="M281.486 455.159C281.517 455.152 281.542 455.146 281.559 455.141L326.333 429.407L326.335 429.406C326.376 429.383 326.434 429.308 326.434 429.197V340.095C326.434 339.985 326.376 339.909 326.335 339.886C326.263 339.845 326.158 339.845 326.085 339.886C326.085 339.886 326.085 339.886 326.085 339.886L281.307 365.622L281.304 365.624C281.217 365.673 281.167 365.777 281.167 365.832V454.935C281.167 454.982 281.179 455.024 281.197 455.056C281.214 455.085 281.237 455.108 281.272 455.126L281.309 455.144L281.338 455.164C281.34 455.164 281.343 455.166 281.349 455.167C281.362 455.171 281.381 455.174 281.403 455.174C281.426 455.171 281.455 455.165 281.486 455.159ZM325.986 428.689V429.071L325.655 429.261L282.682 453.942L281.693 454.51V453.37V366.341V365.959L282.024 365.769L324.997 341.048L325.986 340.479V341.62V428.65V428.689Z" fill="#021433" stroke="black" stroke-width="1.31999"/>
<path d="M325.535 428.814V341.235L322.574 342.94V426.458V426.84L322.243 427.03L282.114 450.113V453.792L325.535 428.814Z" fill="#EC7E10" stroke="black" stroke-width="1.31999"/>
<path d="M325.535 428.001V341.235L322.574 342.94V426.062L325.535 428.001Z" fill="#DD5E15" stroke="black" stroke-width="1.31999"/>
<path d="M281.41 455.135H281.569L326.333 429.407L326.335 429.406C326.376 429.383 326.434 429.308 326.434 429.197V340.095C326.434 339.985 326.376 339.909 326.335 339.886C326.263 339.845 326.158 339.845 326.086 339.886L321.806 342.349L321.806 342.349L321.803 342.35C321.716 342.4 321.665 342.504 321.665 342.559V425.912V426.294L321.334 426.484L281.307 449.483L281.304 449.485C281.217 449.534 281.167 449.638 281.167 449.693V454.896C281.167 454.943 281.179 454.985 281.197 455.017C281.214 455.046 281.237 455.069 281.272 455.087L281.309 455.105L281.338 455.125C281.34 455.125 281.343 455.126 281.349 455.128C281.364 455.132 281.385 455.135 281.41 455.135ZM325.502 429.349L282.682 453.942L281.693 454.51V453.37V450.241V449.859L282.024 449.669L322.051 426.669L322.054 426.668C322.141 426.618 322.191 426.514 322.191 426.459V343.107V342.725L322.522 342.535L325.036 341.088L326.025 340.518V341.66V428.689V429.349H325.502Z" fill="#021433" stroke="black" stroke-width="1.31999"/>
<path d="M302.472 437.844C302.62 437.844 302.715 437.746 302.715 437.604V353.939C302.715 353.797 302.62 353.699 302.472 353.699C302.323 353.699 302.228 353.797 302.228 353.939V437.604C302.228 437.746 302.323 437.844 302.472 437.844Z" fill="#021433" stroke="black" stroke-width="1.31999"/>
<path d="M155.298 329.617V430.3L209.207 461.302V360.619L155.298 329.617Z" fill="#EC7E10" stroke="black" stroke-width="1.31999"/>
<path d="M209.988 462.647C210.073 462.596 210.121 462.494 210.121 462.44V360.235C210.121 360.187 210.109 360.145 210.091 360.113C210.074 360.085 210.051 360.061 210.016 360.043L209.998 360.034L209.981 360.025L154.755 328.265C154.754 328.265 154.754 328.265 154.754 328.265C154.681 328.224 154.576 328.224 154.504 328.265C154.417 328.315 154.366 328.419 154.366 328.474V430.68C154.366 430.727 154.378 430.769 154.396 430.801C154.413 430.83 154.436 430.853 154.472 430.871L154.489 430.88L154.507 430.89L209.696 462.628C209.716 462.636 209.743 462.645 209.771 462.655C209.801 462.665 209.827 462.672 209.847 462.677C209.867 462.674 209.89 462.67 209.914 462.665C209.945 462.658 209.97 462.652 209.988 462.647ZM209.998 462.643C210.002 462.642 210.003 462.641 210.003 462.641C210.003 462.641 210.001 462.642 209.998 462.643ZM209.303 360.171L209.634 360.361V360.743V460.876V462.016L208.645 461.448L155.224 430.743L154.892 430.553V430.171V330.038V328.898L155.881 329.466L209.303 360.171Z" fill="#021433" stroke="black" stroke-width="1.31999"/>
<path d="M160.536 339.078V426.658L203.996 451.637V364.057L160.536 339.078Z" fill="white" stroke="black" stroke-width="1.31999"/>
<path d="M204.664 453.095C204.678 453.095 204.695 453.093 204.712 453.091L204.757 453.065C204.844 453.015 204.895 452.911 204.895 452.856V363.754C204.895 363.706 204.883 363.664 204.864 363.633C204.848 363.604 204.825 363.58 204.789 363.563L204.772 363.554L204.754 363.544L159.977 337.808C159.977 337.808 159.976 337.808 159.976 337.808C159.903 337.767 159.798 337.767 159.726 337.808C159.686 337.831 159.628 337.906 159.628 338.017V427.119C159.628 427.23 159.686 427.305 159.726 427.328L159.729 427.329L204.469 453.044C204.489 453.052 204.516 453.061 204.545 453.071C204.577 453.082 204.605 453.09 204.626 453.095C204.629 453.095 204.631 453.096 204.633 453.096L204.648 453.096C204.65 453.096 204.656 453.096 204.664 453.095ZM204.077 363.73L204.408 363.92V364.302V451.331V452.472L203.419 451.903L160.445 427.183L160.115 426.993V426.611V339.581V338.44L161.104 339.009L204.077 363.73Z" fill="#021433" stroke="black" stroke-width="1.31999"/>
<path d="M163.868 424.956L163.537 424.766V424.384V340.906L160.536 339.195V426.74L203.996 451.719V448.039L163.868 424.956Z" fill="#EC7E10" stroke="black" stroke-width="1.31999"/>
<path d="M163.528 424.025V340.906L160.527 339.195V425.972L163.528 424.025Z" fill="#DD5E15" stroke="black" stroke-width="1.31999"/>
<path d="M159.729 427.372L204.469 453.087C204.479 453.091 204.491 453.095 204.505 453.1L204.648 453.1L204.648 453.1C204.65 453.1 204.656 453.1 204.664 453.099C204.678 453.098 204.695 453.097 204.712 453.095L204.757 453.069C204.844 453.019 204.895 452.915 204.895 452.86V447.658C204.895 447.611 204.883 447.568 204.864 447.537C204.848 447.508 204.825 447.484 204.789 447.467L204.772 447.458L204.755 447.448L164.727 424.449L164.396 424.259V423.877V340.524C164.396 340.476 164.384 340.434 164.366 340.403C164.349 340.374 164.326 340.35 164.291 340.333L164.273 340.324L164.256 340.314L159.977 337.851C159.977 337.851 159.976 337.851 159.976 337.851C159.903 337.81 159.798 337.81 159.726 337.851C159.686 337.874 159.628 337.949 159.628 338.06V427.162C159.628 427.273 159.686 427.348 159.726 427.371L159.729 427.372ZM204.408 448.441V451.296V452.437L203.419 451.868L160.445 427.148L160.115 426.957V426.575V339.546V338.405L161.104 338.974L163.618 340.421L163.949 340.612V340.993V424.346C163.949 424.394 163.961 424.436 163.979 424.467C163.995 424.496 164.019 424.52 164.054 424.537L164.072 424.546L164.089 424.556L204.116 447.555L204.865 447.986L204.408 448.441Z" fill="#021433" stroke="black" stroke-width="1.31999"/>
<path d="M183.643 435.811C183.792 435.811 183.887 435.712 183.887 435.571V351.906C183.887 351.764 183.792 351.666 183.643 351.666C183.495 351.666 183.4 351.764 183.4 351.906V435.571C183.4 435.712 183.495 435.811 183.643 435.811Z" fill="#021433" stroke="black" stroke-width="1.31999"/>
<path d="M337.949 133.656L473.586 213.058L337.949 291.052L202.313 369.046L337.949 133.656Z" fill="#E0610A"/>
<path d="M345.742 138.233L337.965 157.164L222.754 357.273L202.328 369.046L337.965 133.656L345.742 138.233Z" fill="#031332"/>
<path d="M202.284 369.906C202.284 369.906 202.598 369.867 202.716 369.788L474.029 213.84C474.304 213.683 474.5 213.409 474.5 213.057C474.5 212.705 474.343 212.431 474.068 212.275L338.392 132.873C338.196 132.755 337.921 132.716 337.724 132.795C337.488 132.873 337.292 132.99 337.174 133.225L201.538 368.615C201.341 368.967 201.38 369.397 201.695 369.71C201.852 369.867 202.087 369.984 202.323 369.984L202.284 369.906ZM471.829 213.057L204.759 366.581L338.274 134.868L471.829 213.057Z" fill="#021433"/>
<path d="M304.561 295.003L440.197 217.048L327.815 151.258L337.949 133.656L473.586 213.058L337.949 291.052L202.313 369.046L215.393 346.282L304.561 295.003Z" fill="#D77A12"/>
<path d="M250.008 326.916L237.045 349.602L202.321 369.551L215.401 346.825L250.008 326.916Z" fill="#031332"/>
<path d="M202.284 369.906C202.284 369.906 202.598 369.867 202.716 369.788L474.029 213.84C474.304 213.683 474.5 213.409 474.5 213.057C474.5 212.705 474.343 212.431 474.068 212.275L338.392 132.873C338.196 132.755 337.921 132.716 337.724 132.795C337.488 132.873 337.292 132.99 337.174 133.225L327.04 150.826C326.804 151.257 326.922 151.804 327.354 152.039L438.44 217.008L214.972 345.498C214.972 345.498 214.736 345.694 214.657 345.811L201.538 368.576C201.341 368.928 201.38 369.358 201.695 369.671C201.852 369.827 202.087 369.945 202.323 369.945L202.284 369.906ZM471.829 213.057L204.759 366.581L216.071 346.906L440.679 217.79C440.954 217.634 441.111 217.321 441.111 217.008C441.111 216.695 440.954 216.382 440.679 216.225L329.043 150.865L338.274 134.829L471.829 213.057Z" fill="#021433"/>
<path d="M337.949 153.096L219.046 359.385L202.313 369.046L337.949 133.656L473.586 213.058L456.852 222.68L337.949 153.096Z" fill="#D77A12"/>
<path d="M202.284 369.906C202.284 369.906 202.598 369.867 202.716 369.788L219.489 360.166C219.489 360.166 219.725 359.971 219.803 359.853L338.235 154.347L456.392 223.462C456.667 223.618 457.02 223.618 457.295 223.462L474.029 213.84C474.304 213.683 474.5 213.409 474.5 213.057C474.5 212.705 474.343 212.431 474.068 212.275L338.392 132.873C338.196 132.755 337.921 132.716 337.724 132.795C337.488 132.873 337.292 132.99 337.174 133.225L201.538 368.615C201.341 368.967 201.38 369.397 201.695 369.71C201.852 369.867 202.087 369.984 202.323 369.984L202.284 369.906ZM218.389 358.719L204.719 366.581L338.274 134.868L471.829 213.057L456.863 221.662L338.431 152.313C338.235 152.195 337.96 152.156 337.763 152.234C337.528 152.313 337.331 152.43 337.213 152.665L218.428 358.758L218.389 358.719Z" fill="#021433"/>
<path d="M319.403 268.52L356.445 247.242V195.768L319.403 217.085V268.52Z" fill="#EC7E10"/>
<path d="M319.414 269.417C319.414 269.417 319.728 269.378 319.846 269.3L356.888 247.983C357.163 247.826 357.359 247.513 357.359 247.2V195.765C357.359 195.452 357.202 195.139 356.888 194.983C356.613 194.826 356.26 194.826 355.985 194.983L318.943 216.261C318.668 216.417 318.471 216.73 318.471 217.043V268.478C318.471 268.791 318.628 269.104 318.943 269.261C319.061 269.339 319.218 269.378 319.375 269.378L319.414 269.417ZM355.552 246.692L320.318 266.953V217.552L355.552 197.29V246.692Z" fill="#021433"/>
<path d="M324.088 259.363L351.781 243.444V204.955L324.088 220.875V259.363Z" fill="#97A0AC"/>
<path d="M324.091 260.268C324.091 260.268 324.406 260.268 324.523 260.15L352.216 244.231C352.491 244.075 352.648 243.762 352.648 243.449V204.96C352.648 204.647 352.491 204.334 352.216 204.178C351.941 204.021 351.588 204.021 351.313 204.178L323.62 220.097C323.345 220.254 323.188 220.567 323.188 220.88V259.368C323.188 259.681 323.345 259.994 323.62 260.15C323.738 260.229 323.895 260.268 324.052 260.268H324.091ZM350.881 242.94L324.955 257.843V221.427L350.881 206.525V242.94Z" fill="#021433"/>
<path d="M347.146 240.862V207.615L351.781 204.955V243.444L324.088 259.363V254.122L347.146 240.862Z" fill="#EC7E10"/>
<path d="M347.38 240.864V207.851L352.055 205.152V243.563L347.38 240.864Z" fill="#DB5C19"/>
<path d="M324.091 260.268C324.091 260.268 324.406 260.268 324.523 260.15L352.216 244.231C352.491 244.075 352.648 243.762 352.648 243.449V204.96C352.648 204.647 352.491 204.334 352.216 204.178C351.941 204.021 351.588 204.021 351.313 204.178L346.638 206.877C346.364 207.033 346.167 207.346 346.167 207.659V240.398L323.581 253.384C323.306 253.54 323.149 253.853 323.149 254.166V259.407C323.149 259.72 323.306 260.033 323.581 260.19C323.698 260.268 323.856 260.307 324.013 260.307L324.091 260.268ZM350.881 242.94L324.955 257.843V254.674L347.542 241.689C347.817 241.532 347.974 241.219 347.974 240.906V208.168L350.842 206.525V242.94H350.881Z" fill="#021433"/>
<path d="M456.852 222.676L440.196 217.044L336.181 156.143L337.948 153.092L456.852 222.676Z" fill="#021433"/>
<path d="M456.863 223.579C457.216 223.579 457.531 223.383 457.688 223.07C457.884 222.64 457.688 222.17 457.334 221.936L338.431 152.351C338.235 152.234 337.999 152.195 337.724 152.273C337.488 152.351 337.292 152.469 337.174 152.703L335.407 155.754C335.171 156.185 335.289 156.732 335.721 156.967L439.736 217.868L456.549 223.579C456.549 223.579 456.745 223.618 456.824 223.618L456.863 223.579ZM338.313 154.307L448.771 219.002L440.522 216.186L337.449 155.833L338.313 154.346V154.307Z" fill="#021433"/>
<path d="M337.961 133.653L137.079 18.5L1.44208 253.851L202.324 369.043L337.961 133.653Z" fill="#FEC93B"/>
<path d="M337.961 133.808L318.91 166.86L266.823 93.0117L337.961 133.808Z" fill="#FEC93B"/>
<path d="M202.324 369.474L1.44221 254.322L3.68121 250.449L204.406 365.836L202.324 369.474Z" fill="#031231"/>
<path d="M202.287 369.902C202.287 369.902 202.444 369.902 202.523 369.902C202.758 369.824 202.955 369.706 203.073 369.472L338.749 134.082C338.984 133.651 338.827 133.104 338.434 132.869L137.552 17.7166C137.356 17.5992 137.081 17.5601 136.884 17.6384C136.649 17.7166 136.452 17.8339 136.335 18.0686L0.697815 253.459C0.462128 253.889 0.619263 254.437 1.01208 254.671L201.855 369.824C201.855 369.824 202.13 369.941 202.287 369.941V369.902ZM336.745 133.964L201.973 367.79L2.66187 253.537L137.434 19.7114L336.745 133.964Z" fill="#021433"/>
<path d="M151.882 340.996C152.196 340.996 152.51 340.84 152.667 340.527L288.186 105.45C288.422 105.02 288.265 104.472 287.872 104.237C287.44 104.003 286.89 104.159 286.654 104.55L151.096 339.666C150.86 340.097 151.017 340.644 151.41 340.879C151.567 340.957 151.685 340.996 151.842 340.996H151.882Z" fill="#021433"/>
<path d="M98.8654 310.876C99.1796 310.876 99.4939 310.719 99.651 310.406L235.288 75.0552C235.523 74.625 235.366 74.0774 234.973 73.8427C234.541 73.608 233.991 73.7645 233.756 74.1556L98.119 309.546C97.8833 309.976 98.0405 310.523 98.4333 310.758C98.5904 310.836 98.7083 310.876 98.8654 310.876Z" fill="#021433"/>
<path d="M50.5071 282.911C50.8213 282.911 51.1356 282.754 51.2927 282.441L186.733 47.7161C186.969 47.2858 186.812 46.7382 186.419 46.5035C185.987 46.2689 185.437 46.4253 185.201 46.8556L49.7608 281.581C49.5251 282.011 49.6822 282.559 50.075 282.793C50.2321 282.871 50.35 282.911 50.5071 282.911Z" fill="#021433"/>
<g clip-path="url(#clip0_745_46035)">
<path d="M195.575 307.974L244.675 227.747L247.981 233.538L198.41 314.481C197.254 316.383 195.153 317.475 192.83 317.68L189.582 311.613C192.084 311.263 194.29 310.048 195.551 307.973L195.575 307.974Z" fill="#3CAEF2"/>
<path d="M245.649 226.14C246.228 225.176 246.535 224.103 246.645 222.999L248.507 226.354C249.002 227.251 249.271 228.216 249.341 229.174C249.426 230.41 249.14 231.61 248.484 232.646L247.959 233.511L244.653 227.72L245.625 226.114L245.649 226.14Z" fill="#297DCD"/>
<path d="M137.68 288.401C137.68 288.401 137.632 288.349 137.608 288.323L133.644 281.303C133.644 281.303 133.692 281.354 133.691 281.38L137.655 288.425L137.68 288.401Z" fill="#277DCF"/>
<path d="M137.369 284.693C137.369 284.693 137.442 284.745 137.466 284.771L182.527 310.212C184.804 311.491 187.306 311.921 189.583 311.614L192.83 317.681C191.057 317.827 189.15 317.466 187.387 316.479L142.326 291.039C141.127 290.372 140.135 289.435 139.373 288.304L137.343 284.717L137.369 284.693Z" fill="#277DCF"/>
<path d="M184.656 191.671C186.704 188.312 191.64 187.408 195.654 189.673L240.716 215.113C242.405 216.047 243.705 217.472 244.377 219.104C244.679 219.793 244.83 220.527 244.883 221.234C244.968 222.47 244.656 223.693 244.025 224.756L193.928 306.589C191.879 309.948 186.944 310.852 182.93 308.587L137.868 283.147C136.18 282.188 134.878 280.788 134.206 279.182C133.395 277.268 133.534 275.209 134.558 273.529L184.656 191.671ZM137.994 275.977C138.029 276.456 138.137 276.963 138.346 277.448C138.833 278.596 139.724 279.58 140.874 280.245L184.98 305.177C187.353 306.535 190.159 306.043 191.34 304.117L240.074 224.457C240.705 223.394 240.771 222.087 240.238 220.812C239.751 219.664 238.86 218.68 237.71 218.015L193.603 193.108C191.229 191.775 188.424 192.242 187.243 194.168L138.51 273.803C138.117 274.445 137.944 275.195 137.994 275.977Z" fill="#C7F2F9"/>
<path d="M196.053 188.053L241.114 213.494C243.073 214.587 244.592 216.195 245.579 218.063C245.726 218.168 245.845 218.323 245.94 218.477L250.067 225.88C251.574 228.645 251.603 231.692 250.185 234.039L200.063 315.87C197.648 319.797 191.811 320.824 187.014 318.107L141.953 292.667C140.386 291.787 139.007 290.511 137.936 288.892L137.653 288.405L133.689 281.359C133.689 281.359 133.641 281.308 133.642 281.282C133.213 280.665 132.834 280.024 132.556 279.361C132.162 278.417 131.944 277.429 131.874 276.495C131.773 274.932 132.119 273.432 132.908 272.123L183.005 190.29C185.396 186.337 191.256 185.336 196.029 188.027L196.053 188.053ZM142.353 291.043L187.414 316.483C189.152 317.469 191.058 317.83 192.857 317.685C195.18 317.48 197.256 316.412 198.437 314.486L247.984 233.517L248.509 232.652C249.14 231.615 249.427 230.39 249.366 229.18C249.296 228.222 249.027 227.257 248.532 226.36L246.67 223.005C246.56 224.109 246.253 225.182 245.674 226.146L244.702 227.751L195.578 307.978C194.317 310.053 192.111 311.268 189.609 311.618C187.333 311.925 184.83 311.52 182.554 310.216L137.493 284.775C137.493 284.775 137.42 284.723 137.396 284.697L139.425 288.284C140.186 289.44 141.179 290.352 142.378 291.019L142.353 291.043ZM134.206 279.16C134.878 280.767 136.179 282.192 137.868 283.126L182.929 308.591C186.943 310.856 191.879 309.952 193.927 306.593L244.024 224.76C244.68 223.698 244.968 222.474 244.882 221.238C244.829 220.531 244.678 219.797 244.376 219.108C243.704 217.501 242.403 216.076 240.715 215.117L195.653 189.677C191.639 187.412 186.704 188.316 184.655 191.676L134.558 273.508C133.534 275.188 133.395 277.247 134.206 279.16Z" fill="#021433"/>
<path d="M187.273 194.17C188.456 192.219 191.26 191.752 193.634 193.11L237.716 217.991C238.866 218.656 239.782 219.641 240.244 220.788C240.777 222.064 240.71 223.396 240.08 224.433L191.322 304.092C190.139 306.044 187.335 306.51 184.961 305.153L140.855 280.245C139.704 279.605 138.814 278.596 138.327 277.448C138.118 276.963 138.009 276.457 137.974 275.977C137.924 275.195 138.097 274.446 138.491 273.804L187.273 194.17ZM141.694 278.887L146.125 281.391L154.593 286.185L159.023 288.689C161.006 289.808 163.435 289.38 164.434 287.725L166.692 284.045L170.998 277.005L173.256 273.325C174.254 271.669 173.478 269.43 171.495 268.311L167.065 265.807L158.596 261.013L154.166 258.509C152.184 257.39 149.754 257.818 148.755 259.473L146.498 263.154L142.191 270.193L139.933 273.899C138.934 275.554 139.711 277.793 141.694 278.912L141.694 278.887ZM190.306 302.324L192.564 298.644L196.87 291.604L199.128 287.924C200.126 286.268 199.35 284.029 197.367 282.91L192.937 280.406L184.468 275.612L180.038 273.108C178.056 271.989 175.626 272.417 174.627 274.072L172.37 277.752L168.063 284.792L165.806 288.472C164.807 290.128 165.584 292.367 167.566 293.486L171.996 295.99L180.465 300.784L184.895 303.288C186.878 304.407 189.307 303.979 190.306 302.324ZM188.069 195.001L185.812 198.681L181.505 205.721L179.248 209.401C178.249 211.056 179.026 213.295 181.008 214.414L185.439 216.918L193.907 221.713L198.337 224.216C200.32 225.335 202.749 224.908 203.748 223.252L206.006 219.572L210.312 212.532L212.57 208.852C213.568 207.197 212.792 204.957 210.809 203.839L206.379 201.335L197.91 196.54L193.48 194.036C191.498 192.918 189.068 193.345 188.069 195.001ZM154.798 257.421L159.228 259.925L167.697 264.72L172.127 267.223C174.11 268.342 176.539 267.915 177.538 266.259L179.796 262.579L184.102 255.539L186.36 251.859C187.358 250.204 186.582 247.964 184.599 246.846L180.169 244.342L171.7 239.547L167.27 237.043C165.288 235.925 162.858 236.352 161.859 238.008L159.601 241.688L155.295 248.728L153.037 252.408C152.039 254.063 152.816 256.302 154.798 257.421ZM203.411 280.833L205.668 277.153L209.975 270.113L212.232 266.433C213.231 264.777 212.454 262.538 210.472 261.419L206.041 258.915L197.573 254.121L193.143 251.617C191.16 250.498 188.731 250.926 187.732 252.581L185.474 256.262L181.168 263.301L178.909 267.007C177.911 268.662 178.688 270.901 180.67 272.02L185.1 274.524L193.569 279.318L197.999 281.822C199.982 282.941 202.411 282.513 203.41 280.858L203.411 280.833ZM223.552 239.902L219.122 237.398L210.654 232.604L206.223 230.1C204.241 228.981 201.811 229.409 200.813 231.064L198.555 234.745L194.249 241.784L191.991 245.465C190.992 247.12 191.769 249.359 193.752 250.478L198.182 252.982L206.65 257.776L211.08 260.28C213.063 261.399 215.493 260.971 216.491 259.316L218.749 255.636L223.055 248.596L225.313 244.916C226.311 243.26 225.535 241.021 223.552 239.902ZM167.904 235.905L172.334 238.409L180.802 243.203L185.232 245.707C187.215 246.826 189.645 246.398 190.643 244.743L192.902 241.038L197.208 233.998L199.466 230.318C200.464 228.662 199.688 226.423 197.705 225.304L193.275 222.8L184.807 218.006L180.376 215.502C178.394 214.383 175.964 214.811 174.966 216.466L172.708 220.147L168.402 227.186L166.144 230.867C165.145 232.522 165.922 234.761 167.905 235.88L167.904 235.905ZM236.682 218.412L232.252 215.908L223.783 211.114L219.353 208.61C217.37 207.491 214.941 207.919 213.942 209.574L211.684 213.255L207.378 220.294L205.12 223.974C204.122 225.63 204.898 227.869 206.881 228.988L211.311 231.492L219.78 236.286L224.21 238.79C226.192 239.909 228.622 239.481 229.621 237.826L231.879 234.146L236.185 227.106L238.443 223.426C239.441 221.77 238.664 219.531 236.682 218.412Z" fill="#021433"/>
<path d="M238.467 223.446L236.209 227.126L231.903 234.166L229.645 237.846C228.647 239.502 226.217 239.93 224.234 238.811L219.804 236.307L211.336 231.512L206.906 229.008C204.923 227.89 204.121 225.65 205.145 223.995L207.403 220.315L211.709 213.275L213.967 209.595C214.965 207.939 217.395 207.512 219.378 208.631L223.808 211.134L232.276 215.929L236.706 218.433C238.689 219.552 239.491 221.792 238.467 223.446Z" fill="#3CAEF2"/>
<path d="M223.076 248.621L218.77 255.66L216.512 259.34C215.514 260.996 213.084 261.424 211.102 260.305L206.671 257.801L198.203 253.007L193.773 250.503C191.79 249.384 190.989 247.144 192.012 245.489L194.27 241.809L198.576 234.769L200.834 231.089C201.832 229.434 204.262 229.006 206.245 230.125L210.675 232.629L219.143 237.423L223.574 239.927C225.556 241.046 226.358 243.286 225.334 244.94L223.076 248.621Z" fill="#3CAEF2"/>
<path d="M193.561 279.293L185.093 274.499L180.663 271.995C178.68 270.876 177.879 268.636 178.902 266.981L181.16 263.276L185.467 256.236L187.724 252.556C188.723 250.9 191.153 250.473 193.135 251.592L197.566 254.095L206.034 258.89L210.464 261.394C212.447 262.513 213.248 264.753 212.225 266.407L209.967 270.087L205.661 277.127L203.403 280.807C202.405 282.463 199.975 282.89 197.992 281.772L193.562 279.268L193.561 279.293Z" fill="#3CAEF2"/>
<path d="M180.445 300.756L171.976 295.962L167.546 293.458C165.564 292.339 164.762 290.099 165.786 288.444L168.043 284.764L172.35 277.724L174.607 274.044C175.606 272.389 178.036 271.961 180.018 273.08L184.448 275.584L192.917 280.378L197.347 282.882C199.33 284.001 200.131 286.241 199.108 287.895L196.85 291.576L192.544 298.615L190.286 302.296C189.287 303.951 186.858 304.379 184.875 303.26L180.445 300.756Z" fill="#3CAEF2"/>
<path d="M197.925 196.539L206.393 201.333L210.824 203.837C212.806 204.956 213.608 207.196 212.584 208.851L210.326 212.531L206.02 219.57L203.762 223.251C202.764 224.906 200.334 225.334 198.352 224.215L193.921 221.711L185.453 216.917L181.023 214.413C179.04 213.294 178.239 211.054 179.262 209.399L181.52 205.719L185.826 198.679L188.084 194.999C189.082 193.344 191.512 192.916 193.495 194.035L197.925 196.539Z" fill="#3CAEF2"/>
<path d="M166.146 230.892L168.403 227.212L172.71 220.172L174.967 216.492C175.966 214.836 178.396 214.408 180.378 215.527L184.809 218.031L193.277 222.826L197.707 225.329C199.69 226.448 200.491 228.688 199.468 230.343L197.21 234.023L192.904 241.063L190.645 244.768C189.647 246.424 187.217 246.851 185.234 245.733L180.804 243.229L172.336 238.434L167.906 235.93C165.923 234.811 165.121 232.571 166.145 230.917L166.146 230.892Z" fill="#3CAEF2"/>
<path d="M153.028 252.38L155.285 248.7L159.592 241.66L161.849 237.98C162.848 236.324 165.278 235.896 167.26 237.015L171.691 239.519L180.159 244.314L184.589 246.817C186.572 247.936 187.373 250.176 186.35 251.831L184.092 255.511L179.786 262.551L177.528 266.231C176.53 267.886 174.1 268.314 172.117 267.195L167.687 264.691L159.219 259.897L154.788 257.393C152.806 256.274 152.004 254.034 153.028 252.38Z" fill="#3CAEF2"/>
<path d="M139.925 273.874L142.184 270.168L146.49 263.129L148.748 259.448C149.746 257.793 152.176 257.365 154.159 258.484L158.589 260.988L167.057 265.782L171.488 268.286C173.47 269.405 174.272 271.645 173.248 273.3L170.991 276.98L166.684 284.02L164.427 287.7C163.428 289.355 160.998 289.783 159.016 288.664L154.586 286.16L146.117 281.366L141.687 278.862C139.704 277.743 138.903 275.503 139.926 273.849L139.925 273.874Z" fill="#3CAEF2"/>
</g>
<g clip-path="url(#clip1_745_46035)">
<path d="M101.614 256.745L150.714 176.518L154.02 182.31L104.449 263.252C103.294 265.154 101.192 266.247 98.8687 266.451L95.6214 260.385C98.1234 260.035 100.329 258.82 101.59 256.745L101.614 256.745Z" fill="#3CAEF2"/>
<path d="M151.696 174.911C152.275 173.947 152.582 172.875 152.692 171.771L154.554 175.126C155.049 176.022 155.318 176.987 155.387 177.946C155.473 179.182 155.186 180.381 154.531 181.418L154.006 182.283L150.7 176.491L151.672 174.885L151.696 174.911Z" fill="#297DCD"/>
<path d="M43.7274 237.172C43.7274 237.172 43.6792 237.12 43.6551 237.094L39.6905 230.074C39.6905 230.074 39.7387 230.126 39.7379 230.151L43.7017 237.196L43.7274 237.172Z" fill="#277DCF"/>
<path d="M43.4159 233.462C43.4159 233.462 43.4889 233.515 43.513 233.541L88.5743 258.981C90.8508 260.26 93.3532 260.691 95.6297 260.384L98.8769 266.45C97.1037 266.597 95.1969 266.235 93.4343 265.249L48.3731 239.808C47.1734 239.142 46.1815 238.205 45.4199 237.074L43.3902 233.487L43.4159 233.462Z" fill="#277DCF"/>
<path d="M90.7028 140.443C92.7513 137.083 97.6869 136.18 101.701 138.444L146.762 163.885C148.452 164.818 149.752 166.243 150.424 167.875C150.726 168.564 150.877 169.299 150.93 170.005C151.015 171.241 150.703 172.465 150.072 173.528L99.9748 255.36C97.9263 258.72 92.9907 259.623 88.9765 257.359L43.9152 231.918C42.2265 230.959 40.9253 229.56 40.2533 227.953C39.4415 226.04 39.5809 223.98 40.6051 222.301L90.7028 140.443ZM44.0406 224.748C44.0754 225.228 44.184 225.734 44.393 226.219C44.8801 227.367 45.7709 228.351 46.9208 229.016L91.0265 253.949C93.4002 255.306 96.2055 254.815 97.387 252.888L146.12 173.228C146.752 172.166 146.818 170.859 146.285 169.584C145.798 168.436 144.907 167.452 143.757 166.787L99.6503 141.879C97.2759 140.547 94.4713 141.013 93.2899 142.94L44.5572 222.575C44.1634 223.217 43.9904 223.966 44.0406 224.748Z" fill="#C7F2F9"/>
<path d="M102.1 136.823L147.161 162.263C149.12 163.356 150.639 164.964 151.626 166.832C151.772 166.938 151.892 167.092 151.987 167.246L156.114 174.649C157.621 177.414 157.65 180.461 156.231 182.808L106.11 264.64C103.695 268.567 97.8584 269.593 93.0612 266.877L48 241.436C46.4333 240.557 45.0535 239.28 43.9834 237.661L43.6997 237.174L39.7359 230.129C39.7359 230.129 39.6877 230.077 39.6885 230.052C39.2595 229.434 38.8811 228.793 38.603 228.13C38.2091 227.187 37.991 226.198 37.9207 225.265C37.8203 223.701 38.1663 222.202 38.9547 220.892L89.0516 139.06C91.4425 135.107 97.3029 134.106 102.076 136.797L102.1 136.823ZM48.3997 239.812L93.4609 265.253C95.1986 266.238 97.1054 266.6 98.9035 266.454C101.227 266.25 103.303 265.182 104.484 263.255L154.031 182.287L154.556 181.422C155.187 180.384 155.474 179.16 155.412 177.95C155.343 176.991 155.074 176.026 154.579 175.13L152.717 171.775C152.607 172.879 152.3 173.951 151.721 174.915L150.749 176.521L101.624 256.748C100.364 258.823 98.1583 260.038 95.6563 260.388C93.3798 260.695 90.8766 260.289 88.6009 258.985L43.5396 233.545C43.5396 233.545 43.4666 233.492 43.4425 233.466L45.4722 237.053C46.233 238.21 47.2257 239.122 48.4254 239.788L48.3997 239.812ZM40.2533 227.93C40.9253 229.537 42.2257 230.962 43.9152 231.895L88.9757 257.361C92.9899 259.625 97.9256 258.722 99.974 255.362L150.071 173.53C150.727 172.468 151.015 171.243 150.929 170.007C150.876 169.301 150.725 168.566 150.423 167.877C149.751 166.271 148.45 164.846 146.762 163.887L101.7 138.446C97.6861 136.182 92.7505 137.086 90.702 140.445L40.6051 222.277C39.5809 223.957 39.4415 226.017 40.2533 227.93Z" fill="#021433"/>
<path d="M93.3125 142.94C94.4947 140.988 97.2993 140.522 99.673 141.879L143.755 166.761C144.905 167.426 145.821 168.411 146.283 169.558C146.816 170.833 146.749 172.165 146.119 173.203L97.3606 252.862C96.1784 254.813 93.3738 255.28 91.0001 253.922L46.8937 229.015C45.743 228.375 44.853 227.366 44.3659 226.218C44.1569 225.733 44.0482 225.226 44.0135 224.747C43.9633 223.965 44.1363 223.215 44.5301 222.573L93.3125 142.94ZM47.7334 227.657L52.1636 230.161L60.632 234.955L65.0622 237.459C67.0448 238.578 69.4745 238.15 70.4731 236.494L72.7309 232.814L77.0371 225.775L79.2948 222.094C80.2934 220.439 79.5167 218.2 77.5341 217.081L73.1039 214.577L64.6355 209.783L60.2053 207.279C58.2227 206.16 55.793 206.588 54.7944 208.243L52.5367 211.923L48.2305 218.963L45.9719 222.668C44.9733 224.324 45.75 226.563 47.7326 227.682L47.7334 227.657ZM96.345 251.093L98.6028 247.413L102.909 240.373L105.167 236.693C106.165 235.038 105.389 232.799 103.406 231.68L98.9759 229.176L90.5074 224.381L86.0772 221.877C84.0946 220.759 81.6649 221.186 80.6664 222.842L78.4086 226.522L74.1024 233.562L71.8446 237.242C70.846 238.897 71.6227 241.137 73.6053 242.255L78.0355 244.759L86.504 249.554L90.9341 252.058C92.9167 253.176 95.3464 252.749 96.345 251.093ZM94.1085 143.77L91.8507 147.45L87.5445 154.49L85.2867 158.17C84.2882 159.826 85.0648 162.065 87.0474 163.184L91.4776 165.688L99.9461 170.482L104.376 172.986C106.359 174.105 108.789 173.677 109.787 172.022L112.045 168.341L116.351 161.302L118.609 157.622C119.607 155.966 118.831 153.727 116.848 152.608L112.418 150.104L103.95 145.31L99.5193 142.806C97.5367 141.687 95.107 142.115 94.1085 143.77ZM60.8373 206.191L65.2675 208.695L73.7359 213.489L78.1661 215.993C80.1487 217.112 82.5784 216.684 83.577 215.029L85.8347 211.348L90.141 204.309L92.3987 200.629C93.3973 198.973 92.6206 196.734 90.638 195.615L86.2078 193.111L77.7394 188.317L73.3092 185.813C71.3266 184.694 68.8969 185.122 67.8983 186.777L65.6406 190.457L61.3343 197.497L59.0766 201.177C58.078 202.833 58.8547 205.072 60.8373 206.191ZM109.45 229.602L111.707 225.922L116.014 218.882L118.271 215.202C119.27 213.547 118.493 211.308 116.511 210.189L112.081 207.685L103.612 202.89L99.1819 200.387C97.1993 199.268 94.7696 199.695 93.771 201.351L91.5133 205.031L87.207 212.071L84.9485 215.776C83.9499 217.432 84.7266 219.671 86.7092 220.79L91.1394 223.294L99.6078 228.088L104.038 230.592C106.021 231.711 108.45 231.283 109.449 229.627L109.45 229.602ZM129.591 188.672L125.161 186.168L116.693 181.374L112.262 178.87C110.28 177.751 107.85 178.179 106.852 179.834L104.594 183.514L100.288 190.554L98.0298 194.234C97.0313 195.89 97.808 198.129 99.7906 199.248L104.221 201.752L112.689 206.546L117.119 209.05C119.102 210.169 121.532 209.741 122.53 208.085L124.788 204.405L129.094 197.366L131.352 193.685C132.351 192.03 131.574 189.791 129.591 188.672ZM73.9428 184.675L78.3729 187.179L86.8414 191.973L91.2716 194.477C93.2542 195.596 95.6839 195.168 96.6824 193.513L98.941 189.807L103.247 182.768L105.505 179.087C106.504 177.432 105.727 175.193 103.744 174.074L99.3141 171.57L90.8456 166.776L86.4155 164.272C84.4328 163.153 82.0031 163.581 81.0046 165.236L78.7468 168.916L74.4406 175.956L72.1828 179.636C71.1843 181.292 71.961 183.531 73.9436 184.65L73.9428 184.675ZM142.721 167.182L138.291 164.678L129.822 159.883L125.392 157.38C123.409 156.261 120.98 156.688 119.981 158.344L117.723 162.024L113.417 169.064L111.159 172.744C110.161 174.399 110.938 176.639 112.92 177.757L117.35 180.261L125.819 185.056L130.249 187.56C132.232 188.679 134.661 188.251 135.66 186.595L137.918 182.915L142.224 175.875L144.482 172.195C145.48 170.54 144.703 168.301 142.721 167.182Z" fill="#021433"/>
<path d="M144.506 172.218L142.248 175.898L137.942 182.938L135.684 186.618C134.686 188.273 132.256 188.701 130.273 187.582L125.843 185.078L117.375 180.284L112.945 177.78C110.962 176.661 110.161 174.421 111.184 172.766L113.442 169.086L117.748 162.047L120.006 158.366C121.004 156.711 123.434 156.283 125.417 157.402L129.847 159.906L138.315 164.7L142.745 167.204C144.728 168.323 145.53 170.563 144.506 172.218Z" fill="#3CAEF2"/>
<path d="M129.116 197.39L124.809 204.43L122.552 208.11C121.553 209.765 119.123 210.193 117.141 209.074L112.711 206.57L104.242 201.776L99.8119 199.272C97.8293 198.153 97.0277 195.913 98.0512 194.259L100.309 190.578L104.615 183.539L106.873 179.859C107.871 178.203 110.301 177.775 112.284 178.894L116.714 181.398L125.182 186.192L129.613 188.696C131.595 189.815 132.397 192.055 131.373 193.71L129.116 197.39Z" fill="#3CAEF2"/>
<path d="M99.6082 228.062L91.1397 223.268L86.7095 220.764C84.7269 219.645 83.9254 217.405 84.9488 215.751L87.2074 212.045L91.5136 205.006L93.7714 201.325C94.7699 199.67 97.1996 199.242 99.1822 200.361L103.612 202.865L112.081 207.659L116.511 210.163C118.494 211.282 119.295 213.522 118.272 215.177L116.014 218.857L111.708 225.897L109.45 229.577C108.451 231.232 106.022 231.66 104.039 230.541L99.609 228.037L99.6082 228.062Z" fill="#3CAEF2"/>
<path d="M86.484 249.527L78.0155 244.733L73.5853 242.229C71.6027 241.11 70.8012 238.87 71.8246 237.216L74.0824 233.536L78.3886 226.496L80.6464 222.816C81.6449 221.16 84.0746 220.732 86.0572 221.851L90.4874 224.355L98.9559 229.15L103.386 231.653C105.369 232.772 106.17 235.012 105.147 236.667L102.889 240.347L98.5828 247.387L96.325 251.067C95.3265 252.722 92.8967 253.15 90.9141 252.031L86.484 249.527Z" fill="#3CAEF2"/>
<path d="M103.972 145.31L112.44 150.105L116.87 152.609C118.853 153.727 119.655 155.967 118.631 157.622L116.373 161.302L112.067 168.342L109.809 172.022C108.811 173.678 106.381 174.105 104.398 172.986L99.9683 170.483L91.4999 165.688L87.0697 163.184C85.0871 162.065 84.2855 159.825 85.309 158.171L87.5667 154.491L91.873 147.451L94.1307 143.771C95.1293 142.115 97.559 141.687 99.5416 142.806L103.972 145.31Z" fill="#3CAEF2"/>
<path d="M72.1848 179.663L74.4425 175.983L78.7488 168.943L81.0065 165.263C82.0051 163.608 84.4348 163.18 86.4174 164.299L90.8476 166.803L99.316 171.597L103.746 174.101C105.729 175.22 106.53 177.46 105.507 179.114L103.249 182.795L98.9429 189.834L96.6844 193.54C95.6858 195.195 93.2561 195.623 91.2735 194.504L86.8433 192L78.3749 187.206L73.9447 184.702C71.9621 183.583 71.1605 181.343 72.184 179.688L72.1848 179.663Z" fill="#3CAEF2"/>
<path d="M59.0746 201.151L61.3324 197.471L65.6386 190.431L67.8964 186.751C68.8949 185.096 71.3246 184.668 73.3072 185.787L77.7374 188.291L86.2059 193.085L90.636 195.589C92.6186 196.708 93.4202 198.948 92.3968 200.602L90.139 204.283L85.8328 211.322L83.575 215.003C82.5765 216.658 80.1467 217.086 78.1641 215.967L73.734 213.463L65.2655 208.669L60.8353 206.165C58.8527 205.046 58.0512 202.806 59.0746 201.151Z" fill="#3CAEF2"/>
<path d="M45.9644 222.643L48.223 218.938L52.5292 211.898L54.787 208.218C55.7855 206.563 58.2153 206.135 60.1979 207.254L64.628 209.758L73.0965 214.552L77.5266 217.056C79.5093 218.175 80.3108 220.415 79.2874 222.069L77.0296 225.749L72.7234 232.789L70.4656 236.469C69.4671 238.125 67.0374 238.553 65.0547 237.434L60.6246 234.93L52.1561 230.135L47.726 227.632C45.7434 226.513 44.9418 224.273 45.9652 222.618L45.9644 222.643Z" fill="#3CAEF2"/>
</g>
<path d="M253.464 165.678L149.896 107.864L140.859 123.566L243.733 182.809L253.464 165.678Z" fill="url(#paint0_linear_745_46035)"/>
<path d="M153.625 26.7895L154.21 45.3732L155.768 46.1128C156.45 49.7186 157.327 53.3244 158.496 57.0226L157.229 57.2076L166.385 77.6404L167.652 77.4554C169.697 81.0612 172.035 84.4821 174.47 87.8105L173.788 88.92L188.984 105.655L189.665 104.545C192.101 106.672 194.536 108.706 197.068 110.462L197.068 112.127L214.212 121.187L214.212 119.523C217.231 120.54 220.251 121.28 222.978 121.65L223.855 123.406L238.466 121.834L237.687 119.985C240.024 119.153 242.07 117.859 244.018 116.379L245.284 117.859L253.369 106.209L252.103 104.73C253.077 102.141 253.759 99.3676 254.148 96.3165L255.609 97.0562L255.025 78.4725L253.466 77.7328C252.785 74.127 251.908 70.5212 250.739 66.823L252.005 66.6381L250.447 63.2172L242.849 46.2053L241.583 46.3902C240.122 43.8014 238.466 41.3051 236.81 38.9012C236.226 37.9767 235.544 36.9596 234.862 36.0351L235.544 35.0181L220.348 18.191L219.667 19.3005C217.231 17.174 214.699 15.14 212.264 13.3833L212.264 11.7191L195.12 2.75085L195.12 4.32261C192.101 3.30559 189.081 2.56594 186.354 2.19612L185.574 0.439444L170.964 2.0112L171.743 3.86033C169.502 4.69243 167.36 5.98682 165.411 7.46611L164.145 5.98682L156.06 17.6363L157.327 19.1156C156.45 21.7044 155.671 24.5705 155.281 27.5291L153.82 26.7895L153.625 26.7895Z" fill="#E3B637"/>
<path d="M175.846 8.20743L186.273 2.28749L185.494 0.4375L175.067 6.44996L175.846 8.20743Z" fill="#BD8A17"/>
<path d="M162.737 6.67058L163.992 8.65234L154.889 13.8482L153.634 11.8664L162.737 6.67058Z" fill="#BD8A17"/>
<path d="M201.854 19.2978L212.281 13.3779L212.281 11.7129L201.757 17.6328L201.854 19.2978Z" fill="#BD8A17"/>
<path d="M224.448 41.949L234.876 36.029C234.876 36.029 235.753 34.8265 235.558 35.0115C235.363 35.104 225.13 40.9315 225.13 40.9315L224.448 42.0415L224.448 41.949Z" fill="#BD8A17"/>
<path d="M231.272 52.3078L241.695 46.2982L242.961 46.1133L232.538 52.1229L231.272 52.3078Z" fill="#BD8A17"/>
<path d="M243.16 83.6444L253.582 77.6348L255.141 78.4669L244.718 84.3841L243.16 83.6444Z" fill="#BD8A17"/>
<path d="M241.698 110.644L252.218 104.727L253.484 106.206L243.062 112.123L241.698 110.644Z" fill="#BD8A17"/>
<path d="M228.052 127.847L237.797 122.297L237.115 119.984L226.785 125.812L228.052 127.847Z" fill="#BD8A17"/>
<path d="M203.901 127.104L207.117 125.254L202.342 124.699L203.901 127.104Z" fill="#BD8A17"/>
<path d="M178.582 111.665L180.531 110.555L179.362 109.445L178.582 111.665Z" fill="#BD8A17"/>
<path d="M146.823 63.2163L149.454 61.7363C149.454 61.7363 150.234 63.6788 149.844 63.7713C149.454 63.8638 146.823 63.3088 146.823 63.3088L146.823 63.2163Z" fill="#BD8A17"/>
<path d="M143.208 32.7983L145.742 31.3184L144.768 34.7408L143.208 32.7983Z" fill="#BD8A17"/>
<path d="M160.451 7.92646L170.873 2.00925L185.484 0.4375L175.062 6.44716L160.451 7.92646Z" fill="#DBB73A"/>
<path d="M184.595 8.66396L195.114 2.65429L212.258 11.715L201.738 17.6322L184.595 8.66396Z" fill="#DBB73A"/>
<path d="M209.925 24.1086L220.348 18.1914L235.641 34.926L225.121 40.8432L209.925 24.1086Z" fill="#E6C742"/>
<path d="M241.683 72.5518L252.203 66.6346L242.95 46.1094L232.527 52.119L241.683 72.5518Z" fill="#F2D845"/>
<path d="M245.288 102.974L255.711 97.0563L255.126 78.4727L244.704 84.3898L245.288 102.974Z" fill="#E6C742"/>
<path d="M234.954 123.864L245.376 117.855L253.461 106.205L243.038 112.122L234.954 123.864Z" fill="#DBB73A"/>
<path d="M244.705 84.3911L245.289 102.975L243.731 102.235C243.341 105.286 242.562 108.152 241.685 110.649L243.049 112.128L234.964 123.777L233.6 122.298C231.652 123.87 229.607 125.072 227.269 125.996L228.048 127.846L213.437 129.417L212.658 127.568C209.833 127.198 206.911 126.551 203.794 125.442L203.794 127.106L186.651 118.138L186.651 116.473C184.118 114.717 181.586 112.683 179.15 110.556L178.469 111.573L163.273 94.8387L163.955 93.7292C161.52 90.4008 159.28 86.9799 157.137 83.3741L155.87 83.559L146.714 63.1262L147.98 62.9413C146.812 59.3355 145.935 55.6372 145.253 52.0314L143.695 51.2918L143.11 32.7081L144.669 33.4477C145.058 30.3967 145.838 27.5305 146.714 25.0342L145.35 23.5549L153.435 11.9054L154.799 13.3847C156.65 11.813 158.793 10.611 161.13 9.68648L160.351 7.83736L174.962 6.26561L175.741 8.11472C178.566 8.48455 181.488 9.13176 184.605 10.2412L184.605 8.57702L201.749 17.5453L201.749 19.2095C204.281 20.9662 206.814 23.0002 209.249 25.1267L209.931 24.1097L225.126 40.8442L224.444 41.9537C226.879 45.2821 229.12 48.703 231.263 52.3088L232.529 52.1239L241.685 72.5567L240.419 72.7416C241.588 76.3474 242.464 80.0457 243.146 83.6515L244.705 84.3911Z" fill="#FFED52"/>
<path d="M160.535 11.0736C158.198 11.9982 156.152 13.2001 154.204 14.7719L152.84 13.2926L145.535 23.8326L153.62 12.0906L154.983 13.5699C156.542 12.2755 158.392 11.1661 160.243 10.334L160.633 11.1661L160.535 11.0736Z" fill="#FFFA68"/>
<path d="M183.922 11.5356C180.902 10.5186 177.883 9.77896 175.058 9.40913L174.279 7.56L160.837 8.94684L160.35 7.83738L174.961 6.26562L175.74 8.11474C178.37 8.3921 181.097 9.0393 183.824 9.96387L183.824 11.4432L183.922 11.5356Z" fill="#FFFA68"/>
<path d="M147.293 64.3307L146.806 63.2207L147.001 63.2207C147.001 63.2207 147.196 63.9607 147.391 64.3307L147.293 64.3307Z" fill="#FFFA68"/>
<path d="M143.977 34.8338L143.197 34.4638L143.197 32.7988L144.172 33.3538C144.172 33.8163 143.977 34.3713 143.88 34.8338L143.977 34.8338Z" fill="#FFFA68"/>
<path d="M242.272 113.338L241.005 111.951C241.98 109.361 242.662 106.586 243.052 103.533L243.539 103.811C243.149 106.308 242.467 108.621 241.687 110.748L243.052 112.228L242.272 113.431L242.272 113.338Z" fill="#FFFA68"/>
<path d="M203.883 127.015L203.883 127.204L203.196 126.826C203.392 126.826 203.687 127.015 203.883 127.015Z" fill="#FFFA68"/>
<path d="M226.597 127.288C226.597 127.288 227.279 127.011 227.669 126.826L228.156 127.843L226.987 127.843L226.694 127.288L226.597 127.288Z" fill="#FFFA68"/>
<path d="M231.846 53.4161L230.58 53.601C228.534 50.0877 226.196 46.5744 223.761 43.2459L224.443 42.1365L209.248 25.4019L208.566 26.4189C206.131 24.2924 203.695 22.3508 201.163 20.5017L201.163 18.8375L184.701 10.1466L184.701 8.48241L201.845 17.4507L201.845 19.1149C204.377 20.8715 206.91 22.9056 209.345 25.0321L210.027 24.0151L225.222 40.7496L224.54 41.8591C226.976 45.1875 229.216 48.6084 231.359 52.2142L232.625 52.0293L241.781 72.4621L240.612 72.647L231.943 53.3237L231.846 53.4161Z" fill="#FFFA68"/>
<path d="M244.023 85.6846L242.464 84.945C241.782 81.3392 240.906 77.7334 239.737 74.0352L240.808 74.0352C241.782 77.1787 242.659 80.4146 243.146 83.6506L244.705 84.3902L245.289 102.974L244.51 102.604L243.925 85.6846L244.023 85.6846Z" fill="#FFFA68"/>
<path d="M194.637 114.255C171.065 101.866 151.681 71.2633 151.194 45.9304C150.707 20.5974 169.409 10.0574 192.884 22.354C216.456 34.7432 235.84 65.3462 236.327 90.6792C236.814 116.012 218.112 126.552 194.637 114.255Z" fill="#EDCA40"/>
<path d="M192.876 22.3508C173.102 14.9543 158.199 25.3094 158.589 47.4989C159.076 71.8149 177.68 101.216 200.278 113.05C208.266 117.303 215.766 118.69 222 117.673C214.695 120.632 205.149 119.707 194.629 114.16C171.057 101.771 151.673 71.1677 151.186 45.8347C150.699 20.5017 169.401 9.96166 192.876 22.2583L192.876 22.3508Z" fill="#D9A12C"/>
<path d="M155.183 43.6135C155.67 68.9465 175.151 99.5495 198.626 111.939C209.438 117.578 219.179 118.411 226.484 115.267C218.887 120.814 207.49 120.907 194.633 114.158C171.06 101.768 151.677 71.1655 151.189 45.8325C150.897 32.0565 156.352 22.7184 165.021 18.9277C158.69 23.5505 154.988 32.0565 155.183 43.5211L155.183 43.6135Z" fill="#BD8317"/>
<g clip-path="url(#clip2_745_46035)">
<path d="M199.176 110.891L198.203 111.461C198.509 111.28 198.676 110.836 198.676 110.127L199.649 109.557C199.649 110.266 199.482 110.71 199.176 110.891Z" fill="#FFED52"/>
<path d="M176.867 73.9389L177.84 73.3694C178.063 73.2444 178.341 73.2583 178.633 73.3417L177.66 73.9111C177.368 73.8139 177.076 73.8139 176.867 73.9389Z" fill="#FFED52"/>
<path d="M198.694 104.845L199.681 104.275L199.667 109.558L198.68 110.128L198.694 104.845Z" fill="#FFED52"/>
<path d="M177.664 73.9293L178.637 73.3594L186.937 76.3482L185.95 76.9182L177.664 73.9293Z" fill="#FFED52"/>
<path d="M198.383 89.3158L197.41 89.8858C196.59 90.3585 195.394 90.289 193.823 89.3715C189.152 86.6746 188.499 82.3373 187.845 79.3206C187.637 78.3197 187.248 77.6107 186.428 77.1381C186.288 77.0547 186.136 76.9852 185.969 76.9157L186.942 76.3457C187.109 76.4152 187.262 76.4847 187.401 76.5681C188.221 77.0408 188.61 77.7498 188.819 78.7507C189.472 81.7673 190.111 86.1046 194.796 88.8015C196.381 89.719 197.563 89.7885 198.383 89.3158Z" fill="#FFED52"/>
<path d="M192.49 48.3336L193.464 47.7637C192.866 48.1112 192.504 48.848 192.504 50.0157C192.477 58.593 212.982 72.9672 212.926 92.4849C212.912 97.6702 211.202 102.063 207.894 103.995L206.921 104.565C210.243 102.633 211.939 98.2402 211.953 93.0549C212.009 73.551 191.517 59.1629 191.531 50.5857C191.531 49.418 191.907 48.6673 192.49 48.3336Z" fill="#FFED52"/>
<path d="M181.984 33.4487L182.957 32.8788C185.057 31.6693 187.754 31.5025 190.659 32.2532L189.686 32.8232C186.78 32.0725 184.07 32.2393 181.984 33.4487Z" fill="#FFED52"/>
<path d="M190.242 26.3701L191.215 25.8007C191.535 25.6062 191.994 25.6618 192.48 25.9396L191.507 26.509C191.021 26.2312 190.562 26.1896 190.242 26.3701Z" fill="#FFED52"/>
<path d="M211.395 56.94L210.422 57.51C210.895 57.2319 210.867 56.523 210.742 55.9391L211.715 55.3691C211.84 55.9669 211.868 56.6759 211.395 56.94Z" fill="#FFED52"/>
<path d="M191.516 26.5094L192.489 25.9395L198.48 29.4009L197.507 29.9709L191.516 26.5094Z" fill="#FFED52"/>
<path d="M199.216 32.8512L200.203 32.2813L200.106 37.6055L199.133 38.1755L199.216 32.8512Z" fill="#FFED52"/>
<path d="M199.133 38.1715L200.106 37.6016C205.43 41.8137 210.101 48.1806 211.714 55.3538L210.741 55.9238C209.114 48.7506 204.443 42.3837 199.133 38.1715Z" fill="#FFED52"/>
<path d="M197.506 29.9696C198.493 30.5395 199.23 31.7212 199.216 32.8472L199.119 38.1715C204.443 42.3836 209.114 48.7505 210.727 55.9237C210.88 56.6744 210.88 57.6197 209.893 57.6197L202.427 57.9256C202.163 57.9256 201.899 57.8283 201.649 57.6753C201.051 57.3278 200.523 56.6466 200.3 55.8403C199.897 54.478 198.591 50.5994 195.31 48.7088C193.266 47.5272 191.528 48.0416 191.528 50.5855C191.501 59.1628 212.006 73.537 211.95 93.0547C211.922 101.535 207.39 107.888 198.688 104.843L198.688 110.126C198.674 111.446 198.09 111.864 197.117 111.294L190.792 107.651C189.805 107.081 189.151 105.858 189.151 104.718L189.151 99.1575C182.701 93.8332 178.044 86.2291 176.515 75.6083C176.264 73.9679 176.932 73.676 177.668 73.9123L185.968 76.9151C186.135 76.9846 186.287 77.0541 186.426 77.1375C187.247 77.6101 187.636 78.3191 187.844 79.32C188.498 82.3367 189.137 86.6739 193.822 89.3708C197.756 91.6368 199.244 88.7175 198.757 85.0475C197.298 73.2729 177.696 60.9144 177.752 43.0231C177.78 33.9732 183.215 31.1651 189.693 32.8333L189.791 27.4117C189.791 26.2857 190.625 26.0076 191.515 26.522L197.506 29.9835L197.506 29.9696Z" fill="#FFFA68"/>
<path d="M197.508 29.9723L198.481 29.4023C199.468 29.9723 200.205 31.1539 200.191 32.28L199.218 32.8499C199.218 31.7239 198.481 30.5423 197.508 29.9723Z" fill="#FFED52"/>
</g>
</g>
<defs>
<filter id="filter0_d_745_46035" x="0.546875" y="0.4375" width="489.801" height="580.762" filterUnits="userSpaceOnUse" color-interpolation-filters="sRGB">
<feFlood flood-opacity="0" result="BackgroundImageFix"/>
<feColorMatrix in="SourceAlpha" type="matrix" values="0 0 0 0 0 0 0 0 0 0 0 0 0 0 0 0 0 0 127 0" result="hardAlpha"/>
<feOffset dx="10.56" dy="10.56"/>
<feGaussianBlur stdDeviation="2.63999"/>
<feColorMatrix type="matrix" values="0 0 0 0 0 0 0 0 0 0 0 0 0 0 0 0 0 0 0.25 0"/>
<feBlend mode="normal" in2="BackgroundImageFix" result="effect1_dropShadow_745_46035"/>
<feBlend mode="normal" in="SourceGraphic" in2="effect1_dropShadow_745_46035" result="shape"/>
</filter>
<linearGradient id="paint0_linear_745_46035" x1="189.84" y1="152.108" x2="199.523" y2="135.103" gradientUnits="userSpaceOnUse">
<stop/>
<stop offset="1" stop-color="#0B347B"/>
</linearGradient>
<clipPath id="clip0_745_46035">
<rect width="132.989" height="117.842" fill="white" transform="matrix(0.0313691 -0.999508 -0.999516 -0.031104 248.344 321.369)"/>
</clipPath>
<clipPath id="clip1_745_46035">
<rect width="132.989" height="117.842" fill="white" transform="matrix(0.0313691 -0.999508 -0.999516 -0.031104 154.391 270.141)"/>
</clipPath>
<clipPath id="clip2_745_46035">
<rect width="36.4783" height="85.8559" fill="white" transform="translate(176.469 25.6875)"/>
</clipPath>
</defs>
</svg>
